<svg version="1.1" id="Layer_1" xmlns="http://www.w3.org/2000/svg" xmlns:xlink="http://www.w3.org/1999/xlink" x="0px" y="0px"
	 width="100%" viewBox="0 0 2100 1500" enable-background="new 0 0 2100 1500" xml:space="preserve">
<path fill="#00004B" opacity="1.000000" stroke="none" 
	d="
M1258.000000,1501.000000 
	C838.666687,1501.000000 419.833344,1501.000000 1.000000,1501.000000 
	C1.000000,1001.000000 1.000000,501.000000 1.000000,1.000000 
	C701.000000,1.000000 1401.000000,1.000000 2101.000000,1.000000 
	C2101.000000,501.000000 2101.000000,1001.000000 2101.000000,1501.000000 
	C1820.166626,1501.000000 1539.333374,1501.000000 1258.000000,1501.000000 
M1143.095947,78.041733 
	C1094.318481,78.027817 1045.541016,78.002365 996.763611,78.008049 
	C984.447144,78.009491 972.130737,78.110428 958.901917,78.086006 
	C916.130859,78.057281 873.359802,78.012535 830.588745,78.008774 
	C816.111816,78.007500 801.634827,78.109932 786.207764,78.042778 
	C725.301575,78.042778 664.395386,78.042778 603.000000,78.042778 
	C603.000000,80.761353 603.000000,82.887650 603.000000,85.013939 
	C603.000000,283.408142 602.999451,481.802368 603.006775,680.196594 
	C603.006836,682.192749 603.109924,684.188904 603.081970,687.087402 
	C603.054626,696.416321 602.995056,705.745361 603.005676,715.074219 
	C603.043640,748.392639 603.105530,781.711121 603.040466,815.956421 
	C603.029968,816.289429 603.010193,816.622375 603.010193,816.955383 
	C603.006042,1017.694275 603.002563,1218.433105 603.012329,1419.171997 
	C603.012390,1420.620605 603.194885,1422.069214 603.324646,1424.000000 
	C605.566956,1424.000000 607.528625,1424.000000 609.490356,1424.000000 
	C657.301208,1424.000000 705.112000,1424.010376 752.922852,1423.992188 
	C764.081421,1423.988037 775.239929,1423.886597 787.278748,1423.903442 
	C828.705444,1423.935669 870.132080,1423.985718 911.558777,1423.990723 
	C927.362488,1423.992676 943.166199,1423.891724 959.904053,1423.958252 
	C1009.014465,1423.972168 1058.124878,1423.997314 1107.235352,1423.992065 
	C1119.218872,1423.990723 1131.202393,1423.889648 1144.098145,1423.914062 
	C1186.869141,1423.942749 1229.640137,1423.987427 1272.411133,1423.991333 
	C1286.888062,1423.992554 1301.364990,1423.890137 1316.792114,1423.957275 
	C1377.713989,1423.957275 1438.635986,1423.957275 1500.000000,1423.957275 
	C1500.000000,1421.183960 1500.000000,1419.051025 1500.000000,1416.917969 
	C1500.000000,1218.285522 1500.000366,1019.653015 1499.993408,821.020508 
	C1499.993286,819.023499 1499.894409,817.026550 1499.931519,814.089783 
	C1499.902100,771.352173 1499.872681,728.614624 1499.960205,684.961853 
	C1499.970703,684.628845 1499.990112,684.295837 1499.990112,683.962830 
	C1499.994263,483.578033 1499.997681,283.193237 1499.987427,82.808441 
	C1499.987305,81.361542 1499.798828,79.914650 1499.665771,78.000008 
	C1497.409302,78.000008 1495.450317,78.000008 1493.491211,78.000008 
	C1445.685303,78.000008 1397.879517,77.989578 1350.073608,78.007751 
	C1338.916260,78.011993 1327.758789,78.113388 1315.721191,78.096718 
	C1274.294556,78.064461 1232.867798,78.014282 1191.441162,78.009094 
	C1175.637451,78.007118 1159.833740,78.108253 1143.095947,78.041733 
z"/>
<path fill="#0000FF" opacity="1.000000" stroke="none" 
	d="
M1499.841675,815.029541 
	C1499.894409,817.026550 1499.993286,819.023499 1499.993408,821.020508 
	C1500.000366,1019.653015 1500.000000,1218.285522 1500.000000,1416.917969 
	C1500.000000,1419.051025 1500.000000,1421.183960 1500.000000,1423.957275 
	C1438.635986,1423.957275 1377.713989,1423.957275 1316.319336,1423.438599 
	C1315.847168,1280.107666 1315.848755,1137.295532 1315.846069,994.483337 
	C1315.845947,987.828064 1315.828613,987.826843 1309.052490,987.826782 
	C1255.893677,987.826355 1202.734863,987.882324 1149.576416,987.730591 
	C1144.823730,987.717041 1143.039429,988.479309 1143.046021,993.898438 
	C1143.220825,1137.210327 1143.185425,1280.522339 1143.185913,1423.834351 
	C1131.202393,1423.889648 1119.218872,1423.990723 1107.235352,1423.992065 
	C1058.124878,1423.997314 1009.014465,1423.972168 959.441162,1423.440796 
	C958.979553,1279.794434 958.957275,1136.665527 959.087524,993.536743 
	C959.091797,988.860779 957.792664,987.714600 953.230347,987.727844 
	C900.078247,987.882385 846.925476,987.819580 793.772888,987.835144 
	C785.505798,987.837585 786.411316,987.046814 786.410461,995.447083 
	C786.396240,1138.241333 786.399231,1281.035522 786.398499,1423.829834 
	C775.239929,1423.886597 764.081421,1423.988037 752.922852,1423.992188 
	C705.112000,1424.010376 657.301208,1424.000000 609.490356,1424.000000 
	C607.528625,1424.000000 605.566956,1424.000000 603.324646,1424.000000 
	C603.194885,1422.069214 603.012390,1420.620605 603.012329,1419.171997 
	C603.002563,1218.433105 603.006042,1017.694275 603.010193,816.955383 
	C603.010193,816.622375 603.029968,816.289429 603.551147,815.501709 
	C636.721069,815.047424 669.380249,815.048950 702.039490,815.048218 
	C967.973572,815.042236 1233.907593,815.035828 1499.841675,815.029541 
z"/>
<path fill="#0000FF" opacity="1.000000" stroke="none" 
	d="
M1316.601440,78.170082 
	C1327.758789,78.113388 1338.916260,78.011993 1350.073608,78.007751 
	C1397.879517,77.989578 1445.685303,78.000008 1493.491211,78.000008 
	C1495.450317,78.000008 1497.409302,78.000008 1499.665771,78.000008 
	C1499.798828,79.914650 1499.987305,81.361542 1499.987427,82.808441 
	C1499.997681,283.193237 1499.994263,483.578033 1499.990112,683.962830 
	C1499.990112,684.295837 1499.970703,684.628845 1499.449829,685.449463 
	C1496.777954,686.016724 1494.616333,686.166138 1492.454834,686.166260 
	C1196.024902,686.179626 899.594849,686.182068 603.164856,686.185059 
	C603.109924,684.188904 603.006836,682.192749 603.006775,680.196594 
	C602.999451,481.802368 603.000000,283.408142 603.000000,85.013939 
	C603.000000,82.887650 603.000000,80.761353 603.000000,78.042778 
	C664.395386,78.042778 725.301575,78.042778 786.680542,78.561447 
	C787.152588,221.892212 787.151123,364.704315 787.153809,507.516418 
	C787.153931,514.172119 787.171387,514.173218 793.947144,514.173279 
	C847.105957,514.173706 900.264954,514.117798 953.423340,514.269470 
	C958.175598,514.283020 959.960632,513.521301 959.954041,508.101929 
	C959.779358,364.789978 959.814758,221.477798 959.814270,78.165642 
	C972.130737,78.110428 984.447144,78.009491 996.763611,78.008049 
	C1045.541016,78.002365 1094.318481,78.027817 1143.558838,78.559189 
	C1144.020142,222.205597 1144.042480,365.334564 1143.912231,508.463379 
	C1143.907959,513.138916 1145.207275,514.285461 1149.769531,514.272217 
	C1203.088379,514.117859 1256.407837,514.173462 1309.727051,514.171875 
	C1316.592773,514.171631 1316.597168,514.166992 1316.597290,507.052979 
	C1316.599243,364.092010 1316.600220,221.131042 1316.601440,78.170082 
z"/>
<path fill="#FFFFFF" opacity="1.000000" stroke="none" 
	d="
M603.123413,686.636230 
	C899.594849,686.182068 1196.024902,686.179626 1492.454834,686.166260 
	C1494.616333,686.166138 1496.777954,686.016724 1499.391357,685.906982 
	C1499.872681,728.614624 1499.902100,771.352173 1499.886597,814.559692 
	C1233.907593,815.035828 967.973572,815.042236 702.039490,815.048218 
	C669.380249,815.048950 636.721069,815.047424 603.610107,815.038269 
	C603.105530,781.711121 603.043640,748.392639 603.005676,715.074219 
	C602.995056,705.745361 603.054626,696.416321 603.123413,686.636230 
z"/>
<path fill="#FFFFFF" opacity="1.000000" stroke="none" 
	d="
M1316.161377,78.133400 
	C1316.600220,221.131042 1316.599243,364.092010 1316.597290,507.052979 
	C1316.597168,514.166992 1316.592773,514.171631 1309.727051,514.171875 
	C1256.407837,514.173462 1203.088379,514.117859 1149.769531,514.272217 
	C1145.207275,514.285461 1143.907959,513.138916 1143.912231,508.463379 
	C1144.042480,365.334564 1144.020142,222.205597 1144.025879,78.619522 
	C1159.833740,78.108253 1175.637451,78.007118 1191.441162,78.009094 
	C1232.867798,78.014282 1274.294556,78.064461 1316.161377,78.133400 
z"/>
<path fill="#FFFFFF" opacity="1.000000" stroke="none" 
	d="
M786.838623,1423.866699 
	C786.399231,1281.035522 786.396240,1138.241333 786.410461,995.447083 
	C786.411316,987.046814 785.505798,987.837585 793.772888,987.835144 
	C846.925476,987.819580 900.078247,987.882385 953.230347,987.727844 
	C957.792664,987.714600 959.091797,988.860779 959.087524,993.536743 
	C958.957275,1136.665527 958.979553,1279.794434 958.974121,1423.380371 
	C943.166199,1423.891724 927.362488,1423.992676 911.558777,1423.990723 
	C870.132080,1423.985718 828.705444,1423.935669 786.838623,1423.866699 
z"/>
<path fill="#FFFFFF" opacity="1.000000" stroke="none" 
	d="
M959.358093,78.125824 
	C959.814758,221.477798 959.779358,364.789978 959.954041,508.101929 
	C959.960632,513.521301 958.175598,514.283020 953.423340,514.269470 
	C900.264954,514.117798 847.105957,514.173706 793.947144,514.173279 
	C787.171387,514.173218 787.153931,514.172119 787.153809,507.516418 
	C787.151123,364.704315 787.152588,221.892212 787.155579,78.622543 
	C801.634827,78.109932 816.111816,78.007500 830.588745,78.008774 
	C873.359802,78.012535 916.130859,78.057281 959.358093,78.125824 
z"/>
<path fill="#FFFFFF" opacity="1.000000" stroke="none" 
	d="
M1143.642090,1423.874268 
	C1143.185425,1280.522339 1143.220825,1137.210327 1143.046021,993.898438 
	C1143.039429,988.479309 1144.823730,987.717041 1149.576416,987.730591 
	C1202.734863,987.882324 1255.893677,987.826355 1309.052490,987.826782 
	C1315.828613,987.826843 1315.845947,987.828064 1315.846069,994.483337 
	C1315.848755,1137.295532 1315.847168,1280.107666 1315.844238,1423.377563 
	C1301.364990,1423.890137 1286.888062,1423.992554 1272.411133,1423.991333 
	C1229.640137,1423.987427 1186.869141,1423.942749 1143.642090,1423.874268 
z"/>
</svg>