<svg version="1.1" id="Layer_1" xmlns="http://www.w3.org/2000/svg" xmlns:xlink="http://www.w3.org/1999/xlink" x="0px" y="0px"
	 width="100%" viewBox="0 0 715 485" enable-background="new 0 0 715 485" xml:space="preserve">
<path fill="#0000FF" opacity="1.000000" stroke="none" 
	d="
M571.000000,1.000000 
	C619.322693,1.000000 667.645447,1.000000 715.984070,1.000000 
	C715.984070,162.620514 715.984070,324.241028 715.984070,485.930786 
	C477.765198,485.930786 239.530396,485.930786 1.147790,485.930786 
	C1.147790,324.333435 1.147790,162.666733 1.147790,1.000000 
	C49.420498,1.000000 97.743271,1.000000 146.389313,1.449352 
	C146.696152,116.881355 146.678589,231.863998 146.679489,346.846649 
	C146.679489,347.951172 146.924881,349.055695 147.052872,350.136230 
	C193.098877,350.136230 238.843445,350.136230 284.942261,350.136230 
	C284.942261,347.883057 284.942261,345.913269 284.942261,343.943481 
	C284.942261,231.960114 284.941284,119.976738 284.950012,7.993364 
	C284.950165,5.998364 285.066193,4.003374 285.317078,1.882331 
	C285.725677,1.540116 285.890320,1.288021 286.000000,1.000000 
	C334.688690,1.000000 383.377350,1.000000 432.389313,1.449350 
	C432.696106,116.870537 432.678589,231.842377 432.678589,346.814209 
	C432.678589,347.920898 432.911377,349.027588 433.035248,350.132019 
	C479.078156,350.132019 524.824158,350.132019 570.918030,350.132019 
	C570.918030,347.865143 570.918030,345.889709 570.918030,343.914307 
	C570.918030,270.432098 570.908813,196.949921 570.921692,123.467720 
	C570.928772,82.645149 570.972717,41.822575 571.000000,1.000000 
z"/>
<path fill="#FFFFFF" opacity="1.000000" stroke="none" 
	d="
M570.531372,1.000000 
	C570.972717,41.822575 570.928772,82.645149 570.921692,123.467720 
	C570.908813,196.949921 570.918030,270.432098 570.918030,343.914307 
	C570.918030,345.889709 570.918030,347.865143 570.918030,350.132019 
	C524.824158,350.132019 479.078156,350.132019 433.035248,350.132019 
	C432.911377,349.027588 432.678589,347.920898 432.678589,346.814209 
	C432.678589,231.842377 432.696106,116.870537 432.856293,1.449350 
	C478.687561,1.000000 524.375122,1.000000 570.531372,1.000000 
z"/>
<path fill="#FFFFFF" opacity="1.000000" stroke="none" 
	d="
M285.128113,2.008379 
	C285.066193,4.003374 284.950165,5.998364 284.950012,7.993364 
	C284.941284,119.976738 284.942261,231.960114 284.942261,343.943481 
	C284.942261,345.913269 284.942261,347.883057 284.942261,350.136230 
	C238.843445,350.136230 193.098877,350.136230 147.052872,350.136230 
	C146.924881,349.055695 146.679489,347.951172 146.679489,346.846649 
	C146.678589,231.863998 146.696152,116.881355 146.856293,1.449352 
	C192.687561,1.000000 238.375122,1.000000 284.489075,1.261532 
	C284.986389,1.684836 285.057251,1.846607 285.128113,2.008379 
z"/>
<path fill="#1F1FFF" opacity="1.000000" stroke="none" 
	d="
M285.317078,1.882331 
	C285.057251,1.846607 284.986389,1.684836 284.957764,1.261532 
	C285.000000,1.000000 285.500000,1.000000 285.750000,1.000000 
	C285.890320,1.288021 285.725677,1.540116 285.317078,1.882331 
z"/>
</svg>