<?xml version="1.0" standalone="yes"?>
<svg xmlns="http://www.w3.org/2000/svg" width="500" height="500">
<path style="fill:#ffffff; stroke:none;" d="M0 0L0 500L500 500L500 0L0 0z"/>
<path style="fill:#a0a0ca; stroke:none;" d="M230.667 56.3333L231.333 56.6667L230.667 56.3333z"/>
<path style="fill:#5e5e9b; stroke:none;" d="M232.667 56.3333L233.333 56.6667L232.667 56.3333z"/>
<path style="fill:#010102; stroke:none;" d="M234 56.4252C204.74 60.408 177.168 69.2766 153 86.7454C63.3091 151.574 61.7408 290.755 152 355.988C168.589 367.978 187.191 376.883 207 382.116C226.578 387.287 248.806 389.13 269 386.715C293.982 383.727 317.642 375.455 339 362.186C354.87 352.326 368.533 339.51 380.196 325C454.114 233.041 405.402 89.474 291 60.8734C272.927 56.3552 252.589 53.8949 234 56.4252z"/>
<path style="fill:#5e5e9b; stroke:none;" d="M266.667 56.3333L267.333 56.6667L266.667 56.3333z"/>
<path style="fill:#a0a0ca; stroke:none;" d="M268.667 56.3333L269.333 56.6667L268.667 56.3333M224 57L225 58L224 57z"/>
<path style="fill:#5e5e9b; stroke:none;" d="M225.667 57.3333L226.333 57.6667L225.667 57.3333M273.667 57.3333L274.333 57.6667L273.667 57.3333z"/>
<path style="fill:#a0a0ca; stroke:none;" d="M275 57L276 58L275 57M217.667 58.3333L218.333 58.6667L217.667 58.3333z"/>
<path style="fill:#5e5e9b; stroke:none;" d="M219 58L220 59L219 58M280 58L281 59L280 58z"/>
<path style="fill:#a0a0ca; stroke:none;" d="M281.667 58.3333L282.333 58.6667L281.667 58.3333M213 59L214 60L213 59z"/>
<path style="fill:#5e5e9b; stroke:none;" d="M214 59L215 60L214 59M285 59L286 60L285 59z"/>
<path style="fill:#a0a0ca; stroke:none;" d="M286 59L287 60L286 59M209 60L210 61L209 60z"/>
<path style="fill:#5e5e9b; stroke:none;" d="M210 60L211 61L210 60M289 60L290 61L289 60z"/>
<path style="fill:#a0a0ca; stroke:none;" d="M290 60L291 61L290 60M205 61L206 62L205 61z"/>
<path style="fill:#5e5e9b; stroke:none;" d="M206 61L207 62L206 61M293 61L294 62L293 61z"/>
<path style="fill:#a0a0ca; stroke:none;" d="M294 61L295 62L294 61M202 62L203 63L202 62z"/>
<path style="fill:#5e5e9b; stroke:none;" d="M203 62L204 63L203 62M297 62L298 63L297 62z"/>
<path style="fill:#a0a0ca; stroke:none;" d="M198 63L199 64L198 63z"/>
<path style="fill:#5e5e9b; stroke:none;" d="M199 63L200 64L199 63M300 63L301 64L300 63z"/>
<path style="fill:#a0a0ca; stroke:none;" d="M301 63L302 64L301 63z"/>
<path style="fill:#5e5e9b; stroke:none;" d="M196 64L197 65L196 64M303 64L304 65L303 64z"/>
<path style="fill:#a0a0ca; stroke:none;" d="M192 65L193 66L192 65z"/>
<path style="fill:#5e5e9b; stroke:none;" d="M193 65L194 66L193 65M306 65L307 66L306 65z"/>
<path style="fill:#a0a0ca; stroke:none;" d="M190 66L191 67L190 66M309 66L310 67L309 66z"/>
<path style="fill:#5e5e9b; stroke:none;" d="M188 67L189 68L188 67M311 67L312 68L311 67z"/>
<path style="fill:#a0a0ca; stroke:none;" d="M185 68L186 69L185 68z"/>
<path style="fill:#5e5e9b; stroke:none;" d="M314 68L315 69L314 68M183 69L184 70L183 69M316 69L317 70L316 69z"/>
<path style="fill:#a0a0ca; stroke:none;" d="M180 70L181 71L180 70z"/>
<path style="fill:#5e5e9b; stroke:none;" d="M181 70L182 71L181 70M318 70L319 71L318 70z"/>
<path style="fill:#a0a0ca; stroke:none;" d="M178 71L179 72L178 71M321 71L322 72L321 71M176 72L177 73L176 72M323 72L324 73L323 72M174 73L175 74L174 73M325 73L326 74L325 73M172 74L173 75L172 74z"/>
<path style="fill:#5e5e9b; stroke:none;" d="M326 74L327 75L326 74z"/>
<path style="fill:#a0a0ca; stroke:none;" d="M170 75L171 76L170 75z"/>
<path style="fill:#5e5e9b; stroke:none;" d="M171 75L172 76L171 75M328 75L329 76L328 75M169 76L170 77L169 76M330 76L331 77L330 76z"/>
<path style="fill:#a0a0ca; stroke:none;" d="M167 77L168 78L167 77z"/>
<path style="fill:#5e5e9b; stroke:none;" d="M332 77L333 78L332 77z"/>
<path style="fill:#a0a0ca; stroke:none;" d="M165 78L166 79L165 78M334 78L335 79L334 78z"/>
<path style="fill:#5e5e9b; stroke:none;" d="M164 79L165 80L164 79z"/>
<path style="fill:#a0a0ca; stroke:none;" d="M336 79L337 80L336 79z"/>
<path style="fill:#5e5e9b; stroke:none;" d="M162 80L163 81L162 80M337 80L338 81L337 80z"/>
<path style="fill:#a0a0ca; stroke:none;" d="M160 81L161 82L160 81M339 81L340 82L339 81z"/>
<path style="fill:#5e5e9b; stroke:none;" d="M159 82L160 83L159 82M340 82L341 83L340 82z"/>
<path style="fill:#a0a0ca; stroke:none;" d="M157 83L158 84L157 83M342 83L343 84L342 83z"/>
<path style="fill:#5e5e9b; stroke:none;" d="M156 84L157 85L156 84M343 84L344 85L343 84z"/>
<path style="fill:#a0a0ca; stroke:none;" d="M154 85L155 86L154 85M345 85L346 86L345 85z"/>
<path style="fill:#5e5e9b; stroke:none;" d="M153 86L154 87L153 86M346 86L347 87L346 86z"/>
<path style="fill:#a0a0ca; stroke:none;" d="M150 88L151 89L150 88M349 88L350 89L349 88z"/>
<path style="fill:#5e5e9b; stroke:none;" d="M149 89L150 90L149 89M350 89L351 90L350 89M148 90L149 91L148 90M351 90L352 91L351 90z"/>
<path style="fill:#a0a0ca; stroke:none;" d="M145 92L146 93L145 92M354 92L355 93L354 92z"/>
<path style="fill:#5e5e9b; stroke:none;" d="M144 93L145 94L144 93M355 93L356 94L355 93M143 94L144 95L143 94M356 94L357 95L356 94z"/>
<path style="fill:#a0a0ca; stroke:none;" d="M140 96L141 97L140 96M359 96L360 97L359 96M139 97L140 98L139 97M360 97L361 98L360 97z"/>
<path style="fill:#5e5e9b; stroke:none;" d="M138 98L139 99L138 98M361 98L362 99L361 98M137 99L138 100L137 99M362 99L363 100L362 99M136 100L137 101L136 100M363 100L364 101L363 100M135 101L136 102L135 101M364 101L365 102L364 101M134 102L135 103L134 102M365 102L366 103L365 102M366 103L367 104L366 103z"/>
<path style="fill:#0101fe; stroke:none;" d="M236 104.428C217.32 107.103 199.836 113.382 184 123.695C172.216 131.37 162.011 141.579 153.86 153C95.1767 235.228 165.373 353.02 266 338.572C283.893 336.003 300.843 329.885 316 319.921C400.523 264.355 374.914 130.785 278 107.13C264.647 103.87 249.688 102.468 236 104.428z"/>
<path style="fill:#5e5e9b; stroke:none;" d="M367 104L368 105L367 104M131 105L132 106L131 105M368 105L369 106L368 105M130 106L131 107L130 106M369 106L370 107L369 106M129 107L130 108L129 107M370 107L371 108L370 107z"/>
<path style="fill:#a0a0ca; stroke:none;" d="M128 108L129 109L128 108z"/>
<path style="fill:#5e5e9b; stroke:none;" d="M371 108L372 109L371 108z"/>
<path style="fill:#a0a0ca; stroke:none;" d="M127 109L128 110L127 109M372 109L373 110L372 109M126 110L127 111L126 110M373 110L374 111L373 110M374 111L375 112L374 111z"/>
<path style="fill:#5e5e9b; stroke:none;" d="M123 114L124 115L123 114M122 115L123 116L122 115M377 115L378 116L377 115M121 116L122 117L121 116M378 116L379 117L378 116z"/>
<path style="fill:#a0a0ca; stroke:none;" d="M120 117L121 118L120 117M379 117L380 118L379 117z"/>
<path style="fill:#5e5e9b; stroke:none;" d="M118 120L119 121L118 120M381 120L382 121L381 120z"/>
<path style="fill:#a0a0ca; stroke:none;" d="M117 121L118 122L117 121z"/>
<path style="fill:#5e5e9b; stroke:none;" d="M382 121L383 122L382 121z"/>
<path style="fill:#a0a0ca; stroke:none;" d="M116 122L117 123L116 122M383 122L384 123L383 122z"/>
<path style="fill:#5e5e9b; stroke:none;" d="M115 124L116 125L115 124M384 124L385 125L384 124z"/>
<path style="fill:#a0a0ca; stroke:none;" d="M114 125L115 126L114 125M385 125L386 126L385 125z"/>
<path style="fill:#5e5e9b; stroke:none;" d="M113 127L114 128L113 127z"/>
<path style="fill:#a0a0ca; stroke:none;" d="M112 128L113 129L112 128z"/>
<path style="fill:#5e5e9b; stroke:none;" d="M387 128L388 129L387 128z"/>
<path style="fill:#a0a0ca; stroke:none;" d="M110 131L111 132L110 131M389 131L390 132L389 131z"/>
<path style="fill:#5e5e9b; stroke:none;" d="M109 133L110 134L109 133M390 133L391 134L390 133z"/>
<path style="fill:#a0a0ca; stroke:none;" d="M108 134L109 135L108 134M391 134L392 135L391 134z"/>
<path style="fill:#5e5e9b; stroke:none;" d="M107 136L108 137L107 136M392 136L393 137L392 136z"/>
<path style="fill:#a0a0ca; stroke:none;" d="M393 137L394 138L393 137M105 139L106 140L105 139M394 139L395 140L394 139z"/>
<path style="fill:#5e5e9b; stroke:none;" d="M104 141L105 142L104 141M395 141L396 142L395 141M103 143L104 144L103 143M396 143L397 144L396 143M102 145L103 146L102 145M397 145L398 146L397 145M101 147L102 148L101 147M398 147L399 148L398 147M100 149L101 150L100 149M399 149L400 150L399 149M99 151L100 152L99 151M400 151L401 152L400 151z"/>
<path style="fill:#a0a0ca; stroke:none;" d="M98 153L99 154L98 153M401 153L402 154L401 153M97 155L98 156L97 155M402 155L403 156L402 155z"/>
<path style="fill:#5e5e9b; stroke:none;" d="M96 158L97 159L96 158M403 158L404 159L403 158z"/>
<path style="fill:#a0a0ca; stroke:none;" d="M95 160L96 161L95 160M404 160L405 161L404 160M405 162L406 163L405 162z"/>
<path style="fill:#5e5e9b; stroke:none;" d="M94 163L95 164L94 163M405 163L406 164L405 163z"/>
<path style="fill:#a0a0ca; stroke:none;" d="M93 165L94 166L93 165M406 165L407 166L406 165z"/>
<path style="fill:#5e5e9b; stroke:none;" d="M93 166L94 167L93 166M406 166L407 167L406 166z"/>
<path style="fill:#a0a0ca; stroke:none;" d="M92 168L93 169L92 168M407 168L408 169L407 168z"/>
<path style="fill:#5e5e9b; stroke:none;" d="M92 169L93 170L92 169M407 169L408 170L407 169z"/>
<path style="fill:#a0a0ca; stroke:none;" d="M91 171L92 172L91 171M408 171L409 172L408 171z"/>
<path style="fill:#5e5e9b; stroke:none;" d="M91 172L92 173L91 172M408 172L409 173L408 172z"/>
<path style="fill:#a0a0ca; stroke:none;" d="M90 174L91 175L90 174M409 174L410 175L409 174z"/>
<path style="fill:#5e5e9b; stroke:none;" d="M90 175L91 176L90 175M409 175L410 176L409 175z"/>
<path style="fill:#a0a0ca; stroke:none;" d="M89 178L90 179L89 178M410 178L411 179L410 178z"/>
<path style="fill:#5e5e9b; stroke:none;" d="M89 179L90 180L89 179M410 179L411 180L410 179z"/>
<path style="fill:#a0a0ca; stroke:none;" d="M88 182L89 183L88 182z"/>
<path style="fill:#5e5e9b; stroke:none;" d="M411.333 182.667L411.667 183.333L411.333 182.667M88 183L89 184L88 183z"/>
<path style="fill:#a0a0ca; stroke:none;" d="M87 186L88 187L87 186M412 186L413 187L412 186z"/>
<path style="fill:#5e5e9b; stroke:none;" d="M87 187L88 188L87 187M412 187L413 188L412 187z"/>
<path style="fill:#a0a0ca; stroke:none;" d="M86 191L87 192L86 191M413 191L414 192L413 191z"/>
<path style="fill:#5e5e9b; stroke:none;" d="M86.3333 192.667L86.6667 193.333L86.3333 192.667M413 192L414 193L413 192z"/>
<path style="fill:#a0a0ca; stroke:none;" d="M85 197L86 198L85 197M414 197L415 198L414 197z"/>
<path style="fill:#5e5e9b; stroke:none;" d="M85 198L85 201L86 201L85 198M414.333 198.667L414.667 199.333L414.333 198.667z"/>
<path style="fill:#a0a0ca; stroke:none;" d="M415 204L415 207L416 207L415 204M84.3333 205.667L84.6667 206.333L84.3333 205.667z"/>
<path style="fill:#5e5e9b; stroke:none;" d="M84 207L84 211L85 211L84 207M415 207L415 210L416 210L415 207M84 232L84 236L85 236L84 232M415 233L415 237L416 237L415 233z"/>
<path style="fill:#a0a0ca; stroke:none;" d="M84 236L84 239L85 239L84 236M415.333 237.667L415.667 238.333L415.333 237.667z"/>
<path style="fill:#5e5e9b; stroke:none;" d="M85.3333 243.667L85.6667 244.333L85.3333 243.667M414 243L414 246L415 246L414 243z"/>
<path style="fill:#a0a0ca; stroke:none;" d="M85.3333 245.667L85.6667 246.333L85.3333 245.667M414 246L415 247L414 246z"/>
<path style="fill:#5e5e9b; stroke:none;" d="M86 250L87 251L86 250M413.333 250.667L413.667 251.333L413.333 250.667z"/>
<path style="fill:#a0a0ca; stroke:none;" d="M86 251L87 252L86 251M413 252L414 253L413 252z"/>
<path style="fill:#5e5e9b; stroke:none;" d="M87.3333 255.667L87.6667 256.333L87.3333 255.667M412.333 255.667L412.667 256.333L412.333 255.667z"/>
<path style="fill:#a0a0ca; stroke:none;" d="M412 257L413 258L412 257z"/>
<path style="fill:#5e5e9b; stroke:none;" d="M88 260L89 261L88 260M411 260L412 261L411 260z"/>
<path style="fill:#a0a0ca; stroke:none;" d="M88 261L89 262L88 261M411 261L412 262L411 261z"/>
<path style="fill:#5e5e9b; stroke:none;" d="M89 264L90 265L89 264M410 264L411 265L410 264z"/>
<path style="fill:#a0a0ca; stroke:none;" d="M89 265L90 266L89 265M410 265L411 266L410 265z"/>
<path style="fill:#5e5e9b; stroke:none;" d="M90 267L91 268L90 267z"/>
<path style="fill:#a0a0ca; stroke:none;" d="M90 268L91 269L90 268z"/>
<path style="fill:#5e5e9b; stroke:none;" d="M409 268L410 269L409 268M91 271L92 272L91 271M408 271L409 272L408 271z"/>
<path style="fill:#a0a0ca; stroke:none;" d="M408 272L409 273L408 272z"/>
<path style="fill:#5e5e9b; stroke:none;" d="M92 274L93 275L92 274M407 274L408 275L407 274M93 277L94 278L93 277M406 277L407 278L406 277z"/>
<path style="fill:#a0a0ca; stroke:none;" d="M94 280L95 281L94 280M405 280L406 281L405 280z"/>
<path style="fill:#5e5e9b; stroke:none;" d="M95 282L96 283L95 282M404 282L405 283L404 282z"/>
<path style="fill:#a0a0ca; stroke:none;" d="M96 285L97 286L96 285z"/>
<path style="fill:#5e5e9b; stroke:none;" d="M403 285L404 286L403 285M97 287L98 288L97 287M402 287L403 288L402 287M98 289L99 290L98 289z"/>
<path style="fill:#a0a0ca; stroke:none;" d="M401 290L402 291L401 290M99 292L100 293L99 292M400 292L401 293L400 292M100 294L101 295L100 294M399 294L400 295L399 294M101 296L102 297L101 296M398 296L399 297L398 296M102 298L103 299L102 298M397 298L398 299L397 298M103 300L104 301L103 300M396 300L397 301L396 300M104 302L105 303L104 302M395 302L396 303L395 302z"/>
<path style="fill:#5e5e9b; stroke:none;" d="M105 303L106 304L105 303M394 303L395 304L394 303z"/>
<path style="fill:#a0a0ca; stroke:none;" d="M106 305L107 306L106 305z"/>
<path style="fill:#5e5e9b; stroke:none;" d="M393 305L394 306L393 305z"/>
<path style="fill:#a0a0ca; stroke:none;" d="M107 307L108 308L107 307M392 307L393 308L392 307z"/>
<path style="fill:#5e5e9b; stroke:none;" d="M108 308L109 309L108 308M391 308L392 309L391 308z"/>
<path style="fill:#a0a0ca; stroke:none;" d="M109 310L110 311L109 310M390 310L391 311L390 310z"/>
<path style="fill:#5e5e9b; stroke:none;" d="M110 311L111 312L110 311M111 313L112 314L111 313M388 313L389 314L388 313z"/>
<path style="fill:#a0a0ca; stroke:none;" d="M387 315L388 316L387 315M113 316L114 317L113 316z"/>
<path style="fill:#5e5e9b; stroke:none;" d="M386 316L387 317L386 316M114 317L115 318L114 317z"/>
<path style="fill:#a0a0ca; stroke:none;" d="M115 319L116 320L115 319M384 319L385 320L384 319z"/>
<path style="fill:#5e5e9b; stroke:none;" d="M116 320L117 321L116 320M383 320L384 321L383 320z"/>
<path style="fill:#a0a0ca; stroke:none;" d="M118 323L119 324L118 323M381 323L382 324L381 323M119 324L120 325L119 324z"/>
<path style="fill:#5e5e9b; stroke:none;" d="M380 324L381 325L380 324M120 325L121 326L120 325M379 325L380 326L379 325z"/>
<path style="fill:#a0a0ca; stroke:none;" d="M122 328L123 329L122 328M377 328L378 329L377 328M123 329L124 330L123 329M376 329L377 330L376 329M124 330L125 331L124 330z"/>
<path style="fill:#5e5e9b; stroke:none;" d="M375 330L376 331L375 330M125 331L126 332L125 331M374 331L375 332L374 331M126 332L127 333L126 332z"/>
<path style="fill:#a0a0ca; stroke:none;" d="M370 336L371 337L370 336M130 337L131 338L130 337M369 337L370 338L369 337M131 338L132 339L131 338M368 338L369 339L368 338M132 339L133 340L132 339M367 339L368 340L367 339M133 340L134 341L133 340M366 340L367 341L366 340M134 341L135 342L134 341M365 341L366 342L365 341M135 342L136 343L135 342M364 342L365 343L364 342z"/>
<path style="fill:#5e5e9b; stroke:none;" d="M140 346L141 347L140 346M359 346L360 347L359 346M141 347L142 348L141 347M358 347L359 348L358 347z"/>
<path style="fill:#a0a0ca; stroke:none;" d="M142 348L143 349L142 348M357 348L358 349L357 348M143 349L144 350L143 349M356 349L357 350L356 349z"/>
<path style="fill:#5e5e9b; stroke:none;" d="M146 351L147 352L146 351M353 351L354 352L353 351z"/>
<path style="fill:#a0a0ca; stroke:none;" d="M147 352L148 353L147 352M352 352L353 353L352 352M148 353L149 354L148 353M351 353L352 354L351 353z"/>
<path style="fill:#5e5e9b; stroke:none;" d="M151 355L152 356L151 355M348 355L349 356L348 355z"/>
<path style="fill:#a0a0ca; stroke:none;" d="M152 356L153 357L152 356M347 356L348 357L347 356z"/>
<path style="fill:#5e5e9b; stroke:none;" d="M154 357L155 358L154 357M345 357L346 358L345 357z"/>
<path style="fill:#a0a0ca; stroke:none;" d="M155 358L156 359L155 358M344 358L345 359L344 358z"/>
<path style="fill:#5e5e9b; stroke:none;" d="M158 360L159 361L158 360M341 360L342 361L341 360M160 361L161 362L160 361z"/>
<path style="fill:#a0a0ca; stroke:none;" d="M161 362L162 363L161 362M338 362L339 363L338 362z"/>
<path style="fill:#5e5e9b; stroke:none;" d="M163 363L164 364L163 363M336 363L337 364L336 363z"/>
<path style="fill:#a0a0ca; stroke:none;" d="M164 364L165 365L164 364M335 364L336 365L335 364M166 365L167 366L166 365M333 365L334 366L333 365z"/>
<path style="fill:#5e5e9b; stroke:none;" d="M168 366L169 367L168 366M331 366L332 367L331 366M170 367L171 368L170 367z"/>
<path style="fill:#a0a0ca; stroke:none;" d="M171 368L172 369L171 368M328 368L329 369L328 368M173 369L174 370L173 369M326 369L327 370L326 369M175 370L176 371L175 370M324 370L325 371L324 370M177 371L178 372L177 371M322 371L323 372L322 371M179 372L180 373L179 372z"/>
<path style="fill:#5e5e9b; stroke:none;" d="M180 372L181 373L180 372z"/>
<path style="fill:#a0a0ca; stroke:none;" d="M320 372L321 373L320 372z"/>
<path style="fill:#5e5e9b; stroke:none;" d="M182 373L183 374L182 373M317 373L318 374L317 373M184 374L185 375L184 374M315 374L316 375L315 374z"/>
<path style="fill:#a0a0ca; stroke:none;" d="M186 375L187 376L186 375z"/>
<path style="fill:#5e5e9b; stroke:none;" d="M187 375L188 376L187 375z"/>
<path style="fill:#a0a0ca; stroke:none;" d="M313 375L314 376L313 375z"/>
<path style="fill:#5e5e9b; stroke:none;" d="M189 376L190 377L189 376M310 376L311 377L310 376z"/>
<path style="fill:#a0a0ca; stroke:none;" d="M191 377L192 378L191 377z"/>
<path style="fill:#5e5e9b; stroke:none;" d="M192 377L193 378L192 377z"/>
<path style="fill:#a0a0ca; stroke:none;" d="M308 377L309 378L308 377M194 378L195 379L194 378z"/>
<path style="fill:#5e5e9b; stroke:none;" d="M195 378L196 379L195 378M305 378L306 379L305 378z"/>
<path style="fill:#a0a0ca; stroke:none;" d="M197 379L198 380L197 379z"/>
<path style="fill:#5e5e9b; stroke:none;" d="M198 379L199 380L198 379z"/>
<path style="fill:#a0a0ca; stroke:none;" d="M302 379L303 380L302 379M200 380L201 381L200 380z"/>
<path style="fill:#5e5e9b; stroke:none;" d="M201 380L202 381L201 380M298 380L299 381L298 380z"/>
<path style="fill:#a0a0ca; stroke:none;" d="M299 380L300 381L299 380z"/>
<path style="fill:#5e5e9b; stroke:none;" d="M204 381L205 382L204 381M295 381L296 382L295 381z"/>
<path style="fill:#a0a0ca; stroke:none;" d="M296 381L297 382L296 381M207 382L208 383L207 382z"/>
<path style="fill:#5e5e9b; stroke:none;" d="M208 382L209 383L208 382M291.667 382.333L292.333 382.667L291.667 382.333z"/>
<path style="fill:#a0a0ca; stroke:none;" d="M211 383L212 384L211 383z"/>
<path style="fill:#5e5e9b; stroke:none;" d="M212 383L213 384L212 383M287.667 383.333L288.333 383.667L287.667 383.333z"/>
<path style="fill:#a0a0ca; stroke:none;" d="M215 384L216 385L215 384z"/>
<path style="fill:#5e5e9b; stroke:none;" d="M216 384L217 385L216 384M283 384L284 385L283 384z"/>
<path style="fill:#a0a0ca; stroke:none;" d="M284 384L285 385L284 384M220.667 385.333L221.333 385.667L220.667 385.333z"/>
<path style="fill:#5e5e9b; stroke:none;" d="M222.667 385.333L223.333 385.667L222.667 385.333M277.667 385.333L278.333 385.667L277.667 385.333z"/>
<path style="fill:#a0a0ca; stroke:none;" d="M279 385L280 386L279 385M227 386L228 387L227 386z"/>
<path style="fill:#5e5e9b; stroke:none;" d="M228.667 386.333L229.333 386.667L228.667 386.333M270.667 386.333L271.333 386.667L270.667 386.333z"/>
<path style="fill:#a0a0ca; stroke:none;" d="M272.667 386.333L273.333 386.667L272.667 386.333M236 387L236 388L241 388L236 387z"/>
<path style="fill:#5e5e9b; stroke:none;" d="M241 387L241 388L259 388L241 387z"/>
<path style="fill:#a0a0ca; stroke:none;" d="M259 387L259 388L264 388L259 387z"/>
</svg>
