<svg version="1.1" id="Layer_1" xmlns="http://www.w3.org/2000/svg" xmlns:xlink="http://www.w3.org/1999/xlink" x="0px" y="0px"
	 width="100%" viewBox="0 0 727 742" enable-background="new 0 0 727 742" xml:space="preserve">
<path fill="#FFFFFF" opacity="1.000000" stroke="none" 
	d="
M728.000000,210.000000 
	C728.000000,388.000000 728.000000,565.500000 728.000000,743.000000 
	C485.666656,743.000000 243.333328,743.000000 1.000000,743.000000 
	C1.000000,495.666656 1.000000,248.333328 1.000000,1.000000 
	C243.333328,1.000000 485.666656,1.000000 728.000000,1.000000 
	C728.000000,70.500000 728.000000,140.000000 728.000000,210.000000 
M221.007980,328.980499 
	C221.007980,328.980499 221.080948,328.981415 220.664749,328.201355 
	C198.103683,328.111359 175.542603,328.021393 152.986206,328.015259 
	C152.986206,328.015259 153.070145,328.017059 153.007721,327.077454 
	C153.041199,313.734039 153.074677,300.390625 153.555923,286.987793 
	C153.555923,286.987793 153.980850,286.834686 154.913269,286.983429 
	C182.609131,286.933502 210.305008,286.883606 238.838348,286.595581 
	C238.890488,273.031830 238.956345,259.468079 238.953781,245.904343 
	C238.953659,245.236145 238.356506,244.568039 238.003372,243.965652 
	C238.003372,243.965652 238.077316,243.962280 237.663696,243.182938 
	C237.170181,243.124008 236.676666,243.013580 236.183136,243.013458 
	C193.949188,243.003540 151.715210,242.994293 109.481331,243.043243 
	C108.375481,243.044525 107.270363,243.686295 106.016312,244.952454 
	C106.010895,301.483978 105.998848,358.015533 106.007492,414.547058 
	C106.008743,422.690277 106.109650,430.833527 106.392159,439.820953 
	C121.582726,439.825806 136.773300,439.830658 152.815186,439.631470 
	C152.895660,417.119720 152.976135,394.607941 153.983231,372.009430 
	C176.304077,371.951172 198.624908,371.892944 221.803970,371.637024 
	C221.867767,358.060547 221.945511,344.484039 221.953491,330.907532 
	C221.953873,330.241302 221.344406,329.574768 221.007980,328.980499 
M331.824921,614.605591 
	C331.886108,606.522095 331.997681,598.438416 331.963013,590.355347 
	C331.956604,588.861023 331.359283,587.369202 331.003479,585.006531 
	C329.899445,570.898438 326.292633,557.486389 318.149536,545.819580 
	C311.620605,536.465393 303.093201,529.469482 291.812958,525.841187 
	C277.350372,521.189209 262.691925,519.427917 247.828766,522.128357 
	C232.944748,524.832581 220.257874,531.764771 210.934082,544.223511 
	C199.613663,559.350281 195.907333,576.877136 195.179810,595.102844 
	C194.815277,604.235107 195.642365,613.558594 197.158264,622.589600 
	C199.623413,637.275574 205.505066,650.754150 216.660507,660.977966 
	C229.604568,672.841125 245.280045,678.617004 263.310638,679.807251 
	C271.093384,679.872314 278.876465,680.000183 286.658569,679.956177 
	C288.496307,679.945801 290.330811,679.357056 293.070984,679.014648 
	C301.713531,677.954468 310.356079,676.894287 319.877014,675.984680 
	C320.584747,674.888733 321.894653,673.800049 321.907867,672.695801 
	C322.054535,660.464722 322.022339,648.231079 321.956818,635.998596 
	C321.951721,635.052856 321.330353,634.110352 320.115204,633.016663 
	C318.617157,633.013306 317.076294,632.776672 315.627686,633.042603 
	C300.481567,635.823547 285.193298,636.488220 269.860565,635.853516 
	C263.751953,635.600647 258.005768,633.996216 252.632584,630.441223 
	C247.531250,627.065979 245.880829,622.051025 243.987366,616.345886 
	C244.047668,615.899231 244.107971,615.452515 244.575668,614.983826 
	C244.575668,614.983826 244.955811,614.835754 245.893555,614.983398 
	C274.256561,614.933899 302.619537,614.884399 331.824921,614.605591 
M471.984039,438.049347 
	C472.042084,402.046356 472.100128,366.043396 473.075623,330.034058 
	C486.981049,330.034058 500.886475,330.034058 515.000000,330.034058 
	C515.000000,332.656769 514.997192,334.637482 515.000366,336.618195 
	C515.054749,370.729462 515.109741,404.840698 515.378174,439.805176 
	C530.576843,439.815033 545.775452,439.824890 561.822571,439.623718 
	C561.881714,437.795868 561.991272,435.968018 561.992493,434.140137 
	C562.015381,399.479065 562.025574,364.817963 562.965027,330.046204 
	C576.602234,330.053986 590.239441,330.061737 603.971863,330.991730 
	C603.971863,367.251495 603.971863,403.511261 603.971863,439.688782 
	C619.993713,439.688782 635.396545,439.688782 650.815796,439.688782 
	C650.896118,438.904510 650.988892,438.421448 650.988953,437.938354 
	C650.997070,388.775085 651.004700,339.611847 650.960205,290.448608 
	C650.959167,289.276733 650.370850,288.105377 650.095520,286.989624 
	C650.095520,286.989624 650.134766,286.933899 649.691040,286.166809 
	C649.195984,286.112946 648.700867,286.011932 648.205811,286.011871 
	C575.276428,286.003174 502.347046,285.997192 429.417694,286.040894 
	C428.248322,286.041595 427.079315,286.655273 425.981598,286.994019 
	C425.981598,286.994019 425.982269,286.921722 425.199951,287.333923 
	C425.138458,287.660278 425.023163,287.986664 425.023071,288.313019 
	C425.010010,337.885376 424.999664,387.457764 425.043427,437.030090 
	C425.044250,437.965546 425.690613,438.900391 426.954224,439.984253 
	C440.486572,439.989502 454.019073,440.025360 467.551025,439.954865 
	C468.980988,439.947449 470.407684,439.315155 471.984039,438.049347 
M471.992096,159.009903 
	C471.992096,159.009903 472.113159,159.010162 472.010834,158.071869 
	C471.952667,122.059280 471.894470,86.046692 471.626953,49.181149 
	C456.737122,49.121826 441.847321,49.050465 426.957489,49.046947 
	C426.358551,49.046806 425.759521,49.688900 425.015167,50.955006 
	C425.010132,100.147446 424.996429,149.339905 425.043304,198.532288 
	C425.044678,199.968552 425.685822,201.404190 426.952393,202.984665 
	C500.130219,202.989746 573.308044,202.995560 646.485840,202.993240 
	C647.646240,202.993210 648.806641,202.893250 650.819397,202.628494 
	C650.877991,202.135086 650.987793,201.641693 650.987854,201.148270 
	C650.996582,151.436417 650.997925,101.724564 650.987427,52.012707 
	C650.987305,51.357319 650.829956,50.701965 650.439209,49.252747 
	C635.453613,49.171982 620.468079,49.082497 605.482422,49.053577 
	C605.043640,49.052727 604.603699,49.690800 604.016052,50.953903 
	C603.972900,86.972603 603.929749,122.991310 604.008179,159.006912 
	C604.008179,159.006912 604.008484,158.885254 603.070435,158.989105 
	C589.070251,158.964905 575.070007,158.940704 561.006836,157.991577 
	C560.949097,121.993484 560.891296,85.995392 560.592590,49.161499 
	C546.062500,49.108746 531.532410,49.043823 517.002319,49.045570 
	C516.390320,49.045647 515.778381,49.665928 515.016541,50.924267 
	C514.986572,86.922905 514.956543,122.921539 514.004272,158.992645 
	C499.998962,158.958069 485.993683,158.923477 471.992096,159.009903 
M191.184265,6.363558 
	C191.123016,23.146490 191.060349,39.929417 191.000854,56.712353 
	C190.928406,77.151085 190.858582,97.589828 190.032318,118.002838 
	C188.380997,117.147842 186.222626,116.693054 185.172958,115.363190 
	C181.962173,111.295265 179.141922,106.915092 176.233002,102.613609 
	C159.799026,78.312317 143.405762,53.983448 126.948654,29.697855 
	C121.784950,22.077831 116.466446,14.562710 110.732788,6.239374 
	C95.968391,6.164171 81.204018,6.079456 66.439537,6.054421 
	C65.937141,6.053569 65.433731,6.652525 65.000412,6.956548 
	C65.000412,6.956548 64.965485,6.894395 64.194664,7.331434 
	C64.131805,7.824740 64.013962,8.318038 64.013878,8.811354 
	C64.003670,72.065491 63.996914,135.319626 64.040146,198.573730 
	C64.040955,199.751038 64.640533,200.927902 65.000725,202.046768 
	C65.000725,202.046768 64.932129,202.029968 65.349396,202.806427 
	C79.896973,202.869827 94.444550,202.945496 108.992157,202.954056 
	C109.605759,202.954422 110.219719,202.331131 110.983459,201.071960 
	C110.983459,164.469940 110.983459,127.867912 110.983459,89.564156 
	C113.677872,91.301704 115.843231,91.987862 116.866600,93.465126 
	C130.996857,113.862556 144.968033,134.370163 158.982513,154.847809 
	C169.700729,170.509003 180.425079,186.165970 191.272415,202.725143 
	C206.352631,202.812714 221.432831,202.908936 236.513153,202.944901 
	C236.953033,202.945953 237.394440,202.311142 237.983673,201.049469 
	C237.989105,144.186600 238.000900,87.323723 237.992538,30.460855 
	C237.991394,22.650341 237.890182,14.839843 237.614182,6.181457 
	C222.421829,6.175152 207.229492,6.168848 191.184265,6.363558 
M54.199257,481.329407 
	C54.133472,494.902557 54.054317,508.475739 54.046665,522.048889 
	C54.046329,522.643982 54.700813,523.239380 55.970661,523.983643 
	C72.616890,524.010132 89.263115,524.036621 105.991287,524.986877 
	C105.994232,573.997803 105.987465,623.008728 106.043198,672.019592 
	C106.045021,673.625366 106.683014,675.230408 107.945633,676.983826 
	C122.619980,676.934265 137.294327,676.884705 152.816010,676.621887 
	C152.877304,674.799438 152.991074,672.976990 152.992249,671.154480 
	C153.023819,622.131897 153.043808,573.109314 153.991882,524.008484 
	C170.665833,524.008484 187.339767,524.008484 203.905457,524.008484 
	C203.905457,509.247650 203.905457,495.174713 203.683334,480.236755 
	C203.026535,480.158295 202.369751,480.011322 201.712936,480.011169 
	C153.950058,480.000031 106.187164,479.993530 58.424332,480.041107 
	C57.255177,480.042267 56.086628,480.653839 54.989902,480.984619 
	C54.989902,480.984619 54.980450,480.913025 54.199257,481.329407 
M619.351440,676.812073 
	C633.896667,676.873474 648.441833,676.947205 662.987061,676.953918 
	C663.602356,676.954224 664.217896,676.332458 664.983398,675.073853 
	C664.983398,624.755554 664.983398,574.437256 664.983398,524.000000 
	C660.129211,524.000000 655.976013,524.006165 651.822876,523.999023 
	C621.882690,523.947693 591.942566,523.893738 561.999329,522.929810 
	C561.999634,508.450714 562.028564,493.971466 561.955811,479.492737 
	C561.948547,478.045258 561.323120,476.600861 560.062622,474.986328 
	C545.151550,474.986328 530.240479,474.986328 515.000000,474.986328 
	C515.000000,477.274200 515.000000,479.070618 515.000000,480.867035 
	C515.000000,534.926025 514.991028,588.984985 515.007446,643.043945 
	C515.010803,654.018066 515.110168,664.992188 515.389709,676.813049 
	C530.590698,676.840942 545.791687,676.868774 561.852417,676.686768 
	C561.930969,674.863281 562.077148,673.039795 562.077942,671.216309 
	C562.091797,638.735352 562.088013,606.254395 562.088013,573.773438 
	C562.088013,571.993713 562.088013,570.213989 562.088013,568.307800 
	C580.981567,568.307800 599.393433,568.307800 618.242493,568.307800 
	C618.242493,570.306213 618.242493,572.091492 618.242493,573.876831 
	C618.242493,606.191223 618.231567,638.505615 618.272400,670.819946 
	C618.274658,672.572754 618.710388,674.325073 619.006042,676.065735 
	C619.006042,676.065735 619.009033,676.002991 619.351440,676.812073 
M316.050354,265.049255 
	C315.986725,256.046539 315.923065,247.043839 315.635162,237.190628 
	C301.087585,237.127716 286.539978,237.052582 271.992371,237.044724 
	C271.383850,237.044403 270.775024,237.671631 270.016571,238.932327 
	C270.066620,247.955658 270.116669,256.978973 270.413940,266.834503 
	C284.954315,266.888184 299.494690,266.954346 314.035065,266.951569 
	C314.643250,266.951477 315.251343,266.308411 316.050354,265.049255 
M316.050354,438.050812 
	C316.058258,393.021301 316.073364,347.991791 316.064423,302.962280 
	C316.063385,297.651825 315.930481,292.341370 315.627197,286.184326 
	C301.085175,286.123932 286.543121,286.051361 272.001068,286.045532 
	C271.389679,286.045288 270.778015,286.666168 270.016571,287.924622 
	C270.011047,315.682434 269.982544,343.440308 270.007233,371.198090 
	C270.027344,393.799255 270.111145,416.400360 270.413879,439.833649 
	C284.953491,439.887604 299.493103,439.954102 314.032684,439.951691 
	C314.641632,439.951569 315.250427,439.309570 316.050354,438.050812 
M447.009552,614.691101 
	C446.678436,615.592651 446.129120,616.475403 446.049683,617.398621 
	C445.177887,627.529541 440.040314,633.942383 429.834595,635.587830 
	C426.264496,636.163513 422.557678,635.949280 418.912140,635.988037 
	C409.099121,636.092346 402.195404,629.617065 400.071533,620.804932 
	C397.152802,608.694702 397.407745,596.352356 399.101440,584.105286 
	C400.425018,574.534729 405.422577,567.213501 415.361053,565.486389 
	C420.874573,564.528259 426.800659,565.447693 432.480408,566.070923 
	C439.283661,566.817505 443.037567,571.476196 444.938751,577.633423 
	C445.988312,581.032593 446.445099,584.614746 447.038391,588.973633 
	C448.157440,589.650024 449.265991,590.891846 450.397217,590.912842 
	C459.161621,591.075684 467.930389,591.002686 476.697815,591.002686 
	C482.426147,591.002686 488.154449,591.002747 494.462494,591.002747 
	C493.943420,587.195679 493.516754,584.066589 493.009186,580.096130 
	C493.004456,579.263000 493.139313,578.401123 492.974365,577.601013 
	C489.544464,560.962463 482.626007,546.169678 468.984161,535.489075 
	C464.096191,531.662109 458.521362,528.094971 452.678864,526.226807 
	C438.295837,521.627686 423.504547,519.426819 408.269470,521.947632 
	C390.758362,524.845032 376.484619,532.825134 365.948883,547.288025 
	C354.591522,562.878784 351.516388,581.052551 351.335114,599.474854 
	C351.221344,611.033630 353.203125,622.955811 356.366760,634.113220 
	C359.946594,646.738770 367.067993,657.940796 377.952789,666.026489 
	C394.877045,678.598694 413.953552,681.509644 434.534454,679.139709 
	C452.218719,677.103271 466.869904,670.002625 478.175842,656.281982 
	C486.956024,645.626465 492.316559,633.501648 493.741821,618.965515 
	C493.741821,616.053101 493.741821,613.140747 493.741821,610.205261 
	C478.002075,610.205261 462.582703,610.205261 447.169128,610.205261 
	C447.169128,611.566895 447.169128,612.723267 447.009552,614.691101 
M312.972656,141.010361 
	C340.328888,141.006897 367.685150,141.020859 395.041260,140.955551 
	C396.640076,140.951736 398.237366,140.306946 399.984314,139.038696 
	C400.302521,120.167938 400.595215,101.323898 393.022461,83.413277 
	C387.645477,70.696068 379.480072,59.979099 367.022430,54.261391 
	C349.417877,46.181400 330.610809,44.558441 311.585297,49.042625 
	C297.009888,52.477951 285.380554,60.481800 277.038849,72.936562 
	C265.876526,89.602676 263.707184,108.732353 263.197876,128.018768 
	C262.993866,135.744492 264.515656,143.629303 266.099213,151.266022 
	C269.852203,169.364716 278.871338,184.215302 294.793365,194.251297 
	C308.105042,202.641937 323.141113,205.775284 338.445618,205.763412 
	C355.607727,205.750076 372.768433,203.909592 390.195068,202.847946 
	C390.195068,187.499557 390.195068,173.430511 390.195068,159.009232 
	C387.594086,159.009232 385.110809,158.869919 382.647400,159.032150 
	C368.221741,159.982147 353.797119,161.818222 339.379150,161.755020 
	C326.630493,161.699097 314.883453,156.339600 312.972656,141.010361 
M349.000000,405.500000 
	C349.000000,416.925354 349.000000,428.350677 349.000000,439.684113 
	C365.004211,439.684113 380.400269,439.684113 395.696960,439.684113 
	C395.696960,372.323090 395.696960,305.278351 395.696960,238.315842 
	C379.995941,238.315842 364.599854,238.315842 349.000000,238.315842 
	C349.000000,293.920929 349.000000,349.210449 349.000000,405.500000 
z"/>
<path fill="#0000FF" opacity="1.000000" stroke="none" 
	d="
M603.876648,330.069519 
	C590.239441,330.061737 576.602234,330.053986 562.149902,330.315613 
	C561.223206,332.567474 561.017639,334.549805 561.013977,336.532501 
	C560.950439,370.661896 560.911865,404.791351 560.411072,438.949036 
	C545.024414,438.968811 530.094543,438.960388 515.164673,438.951965 
	C515.109741,404.840698 515.054749,370.729462 515.000366,336.618195 
	C514.997192,334.637482 515.000000,332.656769 515.000000,330.034058 
	C500.886475,330.034058 486.981049,330.034058 472.281433,330.291321 
	C471.324402,332.350616 471.021729,334.152496 471.019470,335.954773 
	C470.976532,370.284698 470.968933,404.614685 470.490173,438.965210 
	C455.390991,438.961975 440.755615,438.938141 426.077026,438.452942 
	C426.016632,387.634918 425.999451,337.278320 425.982269,286.921722 
	C425.982269,286.921722 425.981598,286.994019 426.420502,286.994324 
	C501.284515,286.974396 575.709656,286.954132 650.134766,286.933899 
	C650.134766,286.933899 650.095520,286.989624 650.058960,287.434021 
	C650.022461,338.089172 650.022461,388.299866 650.022461,438.694763 
	C634.705444,438.694763 620.155273,438.694763 605.013000,438.694763 
	C605.013000,436.417023 605.013000,434.466919 605.013000,432.516815 
	C605.013000,400.217804 605.031738,367.918732 604.964478,335.619843 
	C604.960632,333.769012 604.255432,331.919586 603.876648,330.069519 
z"/>
<path fill="#0000FF" opacity="1.000000" stroke="none" 
	d="
M560.833557,49.997303 
	C560.891296,85.995392 560.949097,121.993484 561.292847,158.781281 
	C575.187378,159.689209 588.795837,159.819351 602.404541,159.881104 
	C602.937683,159.883530 603.473755,159.232040 604.008484,158.885254 
	C604.008484,158.885254 604.008179,159.006912 604.277283,158.739914 
	C604.697571,156.500977 604.977844,154.529236 604.980774,152.557083 
	C605.032166,118.413483 605.049377,84.269844 605.534424,50.078297 
	C620.632141,50.050243 635.269470,50.070099 649.939453,50.551880 
	C649.953918,101.303368 649.935730,151.592926 649.455688,201.922302 
	C601.843872,201.974762 554.694031,202.003479 507.544159,201.993820 
	C480.388397,201.988266 453.232666,201.920624 426.047913,201.423660 
	C426.054291,150.674301 426.089630,100.382217 426.581482,50.055660 
	C441.664520,50.054920 456.290955,50.088657 470.945251,50.582573 
	C470.982056,85.166115 470.973541,119.289505 471.047394,153.412720 
	C471.051422,155.279297 471.742096,157.144379 472.113159,159.010162 
	C472.113159,159.010162 471.992096,159.009903 472.258728,159.279327 
	C486.124176,159.678116 499.722961,159.819168 513.322083,159.893265 
	C513.855103,159.896164 514.391663,159.259064 514.926575,158.920181 
	C514.956543,122.921539 514.986572,86.922905 515.549438,50.461498 
	C530.999390,49.998253 545.916443,49.997780 560.833557,49.997303 
z"/>
<path fill="#0000FF" opacity="1.000000" stroke="none" 
	d="
M111.218796,6.999572 
	C116.466446,14.562710 121.784950,22.077831 126.948654,29.697855 
	C143.405762,53.983448 159.799026,78.312317 176.233002,102.613609 
	C179.141922,106.915092 181.962173,111.295265 185.172958,115.363190 
	C186.222626,116.693054 188.380997,117.147842 190.792999,117.802872 
	C191.701355,115.635490 191.974625,113.668282 191.978012,111.700615 
	C192.038162,76.838631 192.065460,41.976589 192.558411,7.072443 
	C207.664703,7.049624 222.312439,7.068922 236.973358,7.551168 
	C236.978271,72.649612 236.970001,137.285110 236.497498,201.951843 
	C221.071060,201.930313 206.108887,201.877563 191.146698,201.824814 
	C180.425079,186.165970 169.700729,170.509003 158.982513,154.847809 
	C144.968033,134.370163 130.996857,113.862556 116.866600,93.465126 
	C115.843231,91.987862 113.677872,91.301704 110.983459,89.564156 
	C110.983459,127.867912 110.983459,164.469940 110.450546,201.535309 
	C94.922470,202.009079 79.927299,202.019531 64.932129,202.029968 
	C64.932129,202.029968 65.000725,202.046768 64.994240,201.599548 
	C64.980331,136.399689 64.972908,71.647041 64.965485,6.894395 
	C64.965485,6.894395 65.000412,6.956548 65.438644,6.972573 
	C80.990852,6.992256 96.104820,6.995913 111.218796,6.999572 
z"/>
<path fill="#0000FF" opacity="1.000000" stroke="none" 
	d="
M562.002380,523.840637 
	C591.942566,523.893738 621.882690,523.947693 651.822876,523.999023 
	C655.976013,524.006165 660.129211,524.000000 664.983398,524.000000 
	C664.983398,574.437256 664.983398,624.755554 664.450439,675.536926 
	C648.947998,676.000977 633.978516,676.001953 619.009033,676.002991 
	C619.009033,676.002991 619.006042,676.065735 619.020996,675.598999 
	C619.036011,639.253174 619.036011,603.373962 619.036011,567.362671 
	C599.390747,567.362671 580.503479,567.362671 561.050354,567.362671 
	C561.050354,569.623291 561.052612,571.573975 561.049988,573.524597 
	C561.004822,607.649658 560.959045,641.774719 560.452698,675.936401 
	C545.049805,675.970825 530.107544,675.968567 515.165283,675.966309 
	C515.110168,664.992188 515.010803,654.018066 515.007446,643.043945 
	C514.991028,588.984985 515.000000,534.926025 515.000000,480.867035 
	C515.000000,479.070618 515.000000,477.274200 515.000000,474.986328 
	C530.240479,474.986328 545.151550,474.986328 560.529053,475.529297 
	C560.996399,490.314423 560.964050,504.556763 561.042358,518.798523 
	C561.051575,520.480896 561.667603,522.160034 562.002380,523.840637 
z"/>
<path fill="#0000FE" opacity="1.000000" stroke="none" 
	d="
M312.046967,141.109512 
	C314.883453,156.339600 326.630493,161.699097 339.379150,161.755020 
	C353.797119,161.818222 368.221741,159.982147 382.647400,159.032150 
	C385.110809,158.869919 387.594086,159.009232 390.195068,159.009232 
	C390.195068,173.430511 390.195068,187.499557 390.195068,202.847946 
	C372.768433,203.909592 355.607727,205.750076 338.445618,205.763412 
	C323.141113,205.775284 308.105042,202.641937 294.793365,194.251297 
	C278.871338,184.215302 269.852203,169.364716 266.099213,151.266022 
	C264.515656,143.629303 262.993866,135.744492 263.197876,128.018768 
	C263.707184,108.732353 265.876526,89.602676 277.038849,72.936562 
	C285.380554,60.481800 297.009888,52.477951 311.585297,49.042625 
	C330.610809,44.558441 349.417877,46.181400 367.022430,54.261391 
	C379.480072,59.979099 387.645477,70.696068 393.022461,83.413277 
	C400.595215,101.323898 400.302521,120.167938 399.451904,139.511612 
	C371.816895,139.990356 344.714203,139.974503 317.611755,140.049530 
	C315.755859,140.054672 313.901855,140.740341 312.046967,141.109512 
M353.003204,109.979164 
	C350.031250,95.327492 343.996765,89.836731 331.174957,90.117714 
	C319.643738,90.370415 313.481659,96.066902 310.367310,109.504608 
	C311.515320,110.336174 312.652832,111.873192 313.812958,111.890434 
	C325.741577,112.067696 337.674103,112.032303 349.604706,111.945175 
	C350.751984,111.936806 351.893799,111.180290 353.003204,109.979164 
z"/>
<path fill="#0000FE" opacity="1.000000" stroke="none" 
	d="
M318.998657,675.834106 
	C310.356079,676.894287 301.713531,677.954468 292.140503,678.979004 
	C281.764862,678.973389 272.319702,679.003357 262.874512,679.033264 
	C245.280045,678.617004 229.604568,672.841125 216.660507,660.977966 
	C205.505066,650.754150 199.623413,637.275574 197.158264,622.589600 
	C195.642365,613.558594 194.815277,604.235107 195.179810,595.102844 
	C195.907333,576.877136 199.613663,559.350281 210.934082,544.223511 
	C220.257874,531.764771 232.944748,524.832581 247.828766,522.128357 
	C262.691925,519.427917 277.350372,521.189209 291.812958,525.841187 
	C303.093201,529.469482 311.620605,536.465393 318.149536,545.819580 
	C326.292633,557.486389 329.899445,570.898438 330.970459,585.916199 
	C330.937714,595.869995 330.938019,604.914062 330.473694,613.971802 
	C303.578766,613.990356 277.148468,613.977783 250.718277,614.035889 
	C248.796890,614.040161 246.876602,614.557190 244.955811,614.835754 
	C244.955811,614.835754 244.575668,614.983826 244.107147,615.087036 
	C243.703796,615.795776 243.768951,616.401245 243.834122,617.006714 
	C245.880829,622.051025 247.531250,627.065979 252.632584,630.441223 
	C258.005768,633.996216 263.751953,635.600647 269.860565,635.853516 
	C285.193298,636.488220 300.481567,635.823547 315.627686,633.042603 
	C317.076294,632.776672 318.617157,633.013306 320.556030,633.549438 
	C320.997131,646.116089 321.083771,658.151123 320.908203,670.182373 
	C320.880585,672.075134 319.664978,673.950623 318.998657,675.834106 
M259.795166,565.000000 
	C249.632980,565.626099 245.576370,570.433960 242.344086,585.640503 
	C256.506012,585.640503 270.677124,585.640503 285.756348,585.640503 
	C283.613373,580.459167 282.319733,575.535645 279.718414,571.443420 
	C275.316101,564.518066 267.916382,564.648865 259.795166,565.000000 
z"/>
<path fill="#0000FF" opacity="1.000000" stroke="none" 
	d="
M220.945755,371.834717 
	C198.624908,371.892944 176.304077,371.951172 153.166321,372.274170 
	C152.233063,374.353760 152.020767,376.168304 152.015091,377.983490 
	C151.951630,398.293701 151.920029,418.604065 151.422531,438.945190 
	C136.324692,438.966766 121.684151,438.957489 107.029404,438.483032 
	C107.024887,373.383636 107.034576,308.749420 107.507385,244.071991 
	C151.339447,244.006607 194.708389,243.984451 238.077316,243.962280 
	C238.077316,243.962280 238.003372,243.965652 238.009109,244.407898 
	C237.962723,258.554749 237.910599,272.259369 237.398834,285.975739 
	C211.204102,285.991272 185.468994,285.977295 159.734039,286.034821 
	C157.815720,286.039093 155.898560,286.556061 153.980850,286.834686 
	C153.980850,286.834686 153.555923,286.987793 152.968628,287.236938 
	C152.270859,300.480469 152.148590,313.474762 152.093597,326.469391 
	C152.091415,326.983917 152.730072,327.501099 153.070145,328.017059 
	C153.070145,328.017059 152.986206,328.015259 153.229645,328.321777 
	C155.114105,328.749207 156.755005,328.973694 158.396133,328.975311 
	C179.291046,328.995941 200.186005,328.984589 221.080948,328.981415 
	C221.080948,328.981415 221.007980,328.980499 221.007050,329.419250 
	C220.986008,343.850220 220.965881,357.842468 220.945755,371.834717 
z"/>
<path fill="#0000FE" opacity="1.000000" stroke="none" 
	d="
M447.169128,588.114441 
	C446.445099,584.614746 445.988312,581.032593 444.938751,577.633423 
	C443.037567,571.476196 439.283661,566.817505 432.480408,566.070923 
	C426.800659,565.447693 420.874573,564.528259 415.361053,565.486389 
	C405.422577,567.213501 400.425018,574.534729 399.101440,584.105286 
	C397.407745,596.352356 397.152802,608.694702 400.071533,620.804932 
	C402.195404,629.617065 409.099121,636.092346 418.912140,635.988037 
	C422.557678,635.949280 426.264496,636.163513 429.834595,635.587830 
	C440.040314,633.942383 445.177887,627.529541 446.049683,617.398621 
	C446.129120,616.475403 446.678436,615.592651 447.339661,614.016602 
	C449.223602,612.560547 450.761169,611.143738 452.334106,611.103333 
	C460.961395,610.881836 469.597351,610.997559 478.230316,610.997498 
	C482.984161,610.997437 487.738007,610.997559 493.019501,610.997559 
	C493.019501,614.311157 493.019501,616.925354 493.019501,619.539551 
	C492.316559,633.501648 486.956024,645.626465 478.175842,656.281982 
	C466.869904,670.002625 452.218719,677.103271 434.534454,679.139709 
	C413.953552,681.509644 394.877045,678.598694 377.952789,666.026489 
	C367.067993,657.940796 359.946594,646.738770 356.366760,634.113220 
	C353.203125,622.955811 351.221344,611.033630 351.335114,599.474854 
	C351.516388,581.052551 354.591522,562.878784 365.948883,547.288025 
	C376.484619,532.825134 390.758362,524.845032 408.269470,521.947632 
	C423.504547,519.426819 438.295837,521.627686 452.678864,526.226807 
	C458.521362,528.094971 464.096191,531.662109 468.984161,535.489075 
	C482.626007,546.169678 489.544464,560.962463 492.974365,577.601013 
	C493.139313,578.401123 493.004456,579.263000 492.999939,580.974792 
	C492.990662,584.432495 492.990662,587.011475 492.990662,589.982910 
	C478.340607,589.982910 464.370880,590.024292 450.402588,589.902222 
	C449.319672,589.892761 448.246735,588.737244 447.169128,588.114441 
z"/>
<path fill="#0000FF" opacity="1.000000" stroke="none" 
	d="
M203.905457,481.101776 
	C203.905457,495.174713 203.905457,509.247650 203.905457,524.008484 
	C187.339767,524.008484 170.665833,524.008484 153.190277,524.287231 
	C152.259262,526.544617 152.018814,528.523193 152.016693,530.502014 
	C151.964798,578.980652 151.938202,627.459229 151.447617,675.960876 
	C136.344727,675.969055 121.701294,675.954163 107.038414,675.474854 
	C107.012535,626.558167 107.018219,578.105896 106.953697,529.653748 
	C106.951210,527.789734 106.272797,525.926575 105.909348,524.063110 
	C89.263115,524.036621 72.616890,524.010132 55.498947,523.451355 
	C55.011642,508.917053 54.996048,494.915039 54.980450,480.913025 
	C54.980450,480.913025 54.989902,480.984619 55.427876,480.989014 
	C105.212387,481.029510 154.558914,481.065643 203.905457,481.101776 
z"/>
<path fill="#0000FF" opacity="1.000000" stroke="none" 
	d="
M349.000000,405.000000 
	C349.000000,349.210449 349.000000,293.920929 349.000000,238.315842 
	C364.599854,238.315842 379.995941,238.315842 395.696960,238.315842 
	C395.696960,305.278351 395.696960,372.323090 395.696960,439.684113 
	C380.400269,439.684113 365.004211,439.684113 349.000000,439.684113 
	C349.000000,428.350677 349.000000,416.925354 349.000000,405.000000 
z"/>
<path fill="#0000FF" opacity="1.000000" stroke="none" 
	d="
M315.858673,287.030914 
	C315.930481,292.341370 316.063385,297.651825 316.064423,302.962280 
	C316.073364,347.991791 316.058258,393.021301 315.495300,438.521362 
	C300.015747,438.995117 285.091217,438.998322 270.166687,439.001495 
	C270.111145,416.400360 270.027344,393.799255 270.007233,371.198090 
	C269.982544,343.440308 270.011047,315.682434 270.549438,287.461761 
	C286.007751,287.009583 300.933228,287.020233 315.858673,287.030914 
z"/>
<path fill="#0000FF" opacity="1.000000" stroke="none" 
	d="
M270.166687,266.002319 
	C270.116669,256.978973 270.066620,247.955658 270.549377,238.469269 
	C286.007904,238.017838 300.933655,238.029480 315.859406,238.041138 
	C315.923065,247.043839 315.986725,256.046539 315.495422,265.520447 
	C300.015869,265.995209 285.091278,265.998779 270.166687,266.002319 
z"/>
<path fill="#0000B5" opacity="1.000000" stroke="none" 
	d="
M603.924255,330.530640 
	C604.255432,331.919586 604.960632,333.769012 604.964478,335.619843 
	C605.031738,367.918732 605.013000,400.217804 605.013000,432.516815 
	C605.013000,434.466919 605.013000,436.417023 605.013000,438.694763 
	C620.155273,438.694763 634.705444,438.694763 650.022461,438.694763 
	C650.022461,388.299866 650.022461,338.089172 650.039429,287.406128 
	C650.370850,288.105377 650.959167,289.276733 650.960205,290.448608 
	C651.004700,339.611847 650.997070,388.775085 650.988953,437.938354 
	C650.988892,438.421448 650.896118,438.904510 650.815796,439.688782 
	C635.396545,439.688782 619.993713,439.688782 603.971863,439.688782 
	C603.971863,403.511261 603.971863,367.251495 603.924255,330.530640 
z"/>
<path fill="#31317D" opacity="1.000000" stroke="none" 
	d="
M560.913330,675.899780 
	C560.959045,641.774719 561.004822,607.649658 561.049988,573.524597 
	C561.052612,571.573975 561.050354,569.623291 561.050354,567.362671 
	C580.503479,567.362671 599.390747,567.362671 619.036011,567.362671 
	C619.036011,603.373962 619.036011,639.253174 618.990234,675.604980 
	C618.710388,674.325073 618.274658,672.572754 618.272400,670.819946 
	C618.231567,638.505615 618.242493,606.191223 618.242493,573.876831 
	C618.242493,572.091492 618.242493,570.306213 618.242493,568.307800 
	C599.393433,568.307800 580.981567,568.307800 562.088013,568.307800 
	C562.088013,570.213989 562.088013,571.993713 562.088013,573.773438 
	C562.088013,606.254395 562.091797,638.735352 562.077942,671.216309 
	C562.077148,673.039795 561.930969,674.863281 561.429443,676.540344 
	C560.975342,676.229187 560.944336,676.064514 560.913330,675.899780 
z"/>
<path fill="#00006A" opacity="1.000000" stroke="none" 
	d="
M649.912903,286.550354 
	C575.709656,286.954132 501.284515,286.974396 426.384766,286.988770 
	C427.079315,286.655273 428.248322,286.041595 429.417694,286.040894 
	C502.347046,285.997192 575.276428,286.003174 648.205811,286.011871 
	C648.700867,286.011932 649.195984,286.112946 649.912903,286.550354 
z"/>
<path fill="#0000B2" opacity="1.000000" stroke="none" 
	d="
M426.076904,201.880920 
	C453.232666,201.920624 480.388397,201.988266 507.544159,201.993820 
	C554.694031,202.003479 601.843872,201.974762 649.477295,202.161560 
	C649.960754,202.360977 649.967041,202.839935 649.967041,202.839935 
	C648.806641,202.893250 647.646240,202.993210 646.485840,202.993240 
	C573.308044,202.995560 500.130219,202.989746 426.494385,202.672180 
	C426.036377,202.359711 426.076904,201.880920 426.076904,201.880920 
z"/>
<path fill="#0000E4" opacity="1.000000" stroke="none" 
	d="
M236.961746,201.920609 
	C236.970001,137.285110 236.978271,72.649612 237.191620,7.525990 
	C237.396713,7.037862 237.835297,7.029337 237.835297,7.029337 
	C237.890182,14.839843 237.991394,22.650341 237.992538,30.460855 
	C238.000900,87.323723 237.989105,144.186600 237.690521,201.507416 
	C237.397354,201.965347 236.961746,201.920609 236.961746,201.920609 
z"/>
<path fill="#0000E1" opacity="1.000000" stroke="none" 
	d="
M107.044258,244.115219 
	C107.034576,308.749420 107.024887,373.383636 106.809586,438.496460 
	C106.603966,438.975067 106.164436,438.976746 106.164436,438.976746 
	C106.109650,430.833527 106.008743,422.690277 106.007492,414.547058 
	C105.998848,358.015533 106.010895,301.483978 106.311714,244.499237 
	C106.607117,244.046021 107.044258,244.115219 107.044258,244.115219 
z"/>
<path fill="#000066" opacity="1.000000" stroke="none" 
	d="
M64.580078,7.112915 
	C64.972908,71.647041 64.980331,136.399689 64.974243,201.628662 
	C64.640533,200.927902 64.040955,199.751038 64.040146,198.573730 
	C63.996914,135.319626 64.003670,72.065491 64.013878,8.811354 
	C64.013962,8.318038 64.131805,7.824740 64.580078,7.112915 
z"/>
<path fill="#0000BE" opacity="1.000000" stroke="none" 
	d="
M105.950317,524.524963 
	C106.272797,525.926575 106.951210,527.789734 106.953697,529.653748 
	C107.018219,578.105896 107.012535,626.558167 107.023109,675.698975 
	C107.027260,676.387634 107.024460,676.835754 107.024460,676.835754 
	C106.683014,675.230408 106.045021,673.625366 106.043198,672.019592 
	C105.987465,623.008728 105.994232,573.997803 105.950317,524.524963 
z"/>
<path fill="#000082" opacity="1.000000" stroke="none" 
	d="
M425.591125,287.127808 
	C425.999451,337.278320 426.016632,387.634918 426.041687,438.682190 
	C426.049561,439.372864 426.035828,439.835541 426.035828,439.835541 
	C425.690613,438.900391 425.044250,437.965546 425.043427,437.030090 
	C424.999664,387.457764 425.010010,337.885376 425.023071,288.313019 
	C425.023163,287.986664 425.138458,287.660278 425.591125,287.127808 
z"/>
<path fill="#00009F" opacity="1.000000" stroke="none" 
	d="
M426.047913,201.423645 
	C426.076904,201.880920 426.036377,202.359711 426.032532,202.599915 
	C425.685822,201.404190 425.044678,199.968552 425.043304,198.532288 
	C424.996429,149.339905 425.010132,100.147446 425.329529,50.497940 
	C425.643921,50.040874 426.124939,50.090134 426.124939,50.090134 
	C426.089630,100.382217 426.054291,150.674301 426.047913,201.423645 
z"/>
<path fill="#0000A4" opacity="1.000000" stroke="none" 
	d="
M151.907089,675.937866 
	C151.938202,627.459229 151.964798,578.980652 152.016693,530.502014 
	C152.018814,528.523193 152.259262,526.544617 152.727203,524.326294 
	C153.043808,573.109314 153.023819,622.131897 152.992249,671.154480 
	C152.991074,672.976990 152.877304,674.799438 152.387711,676.503418 
	C151.959412,676.385010 151.907089,675.937866 151.907089,675.937866 
z"/>
<path fill="#00009A" opacity="1.000000" stroke="none" 
	d="
M650.393188,202.734222 
	C649.967041,202.839935 649.960754,202.360977 649.939148,202.121735 
	C649.935730,151.592926 649.953918,101.303368 650.148560,50.525009 
	C650.325073,50.036201 650.745972,50.046597 650.745972,50.046593 
	C650.829956,50.701965 650.987305,51.357319 650.987427,52.012707 
	C650.997925,101.724564 650.996582,151.436417 650.987854,201.148270 
	C650.987793,201.641693 650.877991,202.135086 650.393188,202.734222 
z"/>
<path fill="#000086" opacity="1.000000" stroke="none" 
	d="
M203.794403,480.669250 
	C154.558914,481.065643 105.212387,481.029510 55.391823,480.987061 
	C56.086628,480.653839 57.255177,480.042267 58.424332,480.041107 
	C106.187164,479.993530 153.950058,480.000031 201.712936,480.011169 
	C202.369751,480.011322 203.026535,480.158295 203.794403,480.669250 
z"/>
<path fill="#000098" opacity="1.000000" stroke="none" 
	d="
M107.507385,244.071991 
	C107.044258,244.115219 106.607117,244.046021 106.386017,244.037689 
	C107.270363,243.686295 108.375481,243.044525 109.481331,243.043243 
	C151.715210,242.994293 193.949188,243.003540 236.183136,243.013458 
	C236.676666,243.013580 237.170181,243.124008 237.870514,243.572601 
	C194.708389,243.984451 151.339447,244.006607 107.507385,244.071991 
z"/>
<path fill="#00007D" opacity="1.000000" stroke="none" 
	d="
M192.099854,7.114560 
	C192.065460,41.976589 192.038162,76.838631 191.978012,111.700615 
	C191.974625,113.668282 191.701355,115.635490 191.170654,117.815742 
	C190.858582,97.589828 190.928406,77.151085 191.000854,56.712353 
	C191.060349,39.929417 191.123016,23.146490 191.614777,6.501807 
	C192.045303,6.640056 192.099854,7.114560 192.099854,7.114560 
z"/>
<path fill="#000071" opacity="1.000000" stroke="none" 
	d="
M560.867859,438.920776 
	C560.911865,404.791351 560.950439,370.661896 561.013977,336.532501 
	C561.017639,334.549805 561.223206,332.567474 561.686584,330.370941 
	C562.025574,364.817963 562.015381,399.479065 561.992493,434.140137 
	C561.991272,435.968018 561.881714,437.795868 561.387451,439.498932 
	C560.952271,439.374146 560.867859,438.920776 560.867859,438.920776 
z"/>
<path fill="#0000C9" opacity="1.000000" stroke="none" 
	d="
M605.074036,50.126205 
	C605.049377,84.269844 605.032166,118.413483 604.980774,152.557083 
	C604.977844,154.529236 604.697571,156.500977 604.216492,158.741455 
	C603.929749,122.991310 603.972900,86.972603 604.319092,50.501579 
	C604.622192,50.049252 605.074036,50.126205 605.074036,50.126205 
z"/>
<path fill="#0000C3" opacity="1.000000" stroke="none" 
	d="
M472.062012,158.541016 
	C471.742096,157.144379 471.051422,155.279297 471.047394,153.412720 
	C470.973541,119.289505 470.982056,85.166115 471.173767,50.545975 
	C471.374512,50.049191 471.836273,50.034100 471.836273,50.034100 
	C471.894470,86.046692 471.952667,122.059280 472.062012,158.541016 
z"/>
<path fill="#0000E1" opacity="1.000000" stroke="none" 
	d="
M470.953979,438.944641 
	C470.968933,404.614685 470.976532,370.284698 471.019470,335.954773 
	C471.021729,334.152496 471.324402,332.350616 471.822693,330.294495 
	C472.100128,366.043396 472.042084,402.046356 471.689270,438.510590 
	C471.394531,438.971832 470.953979,438.944641 470.953979,438.944641 
z"/>
<path fill="#0000B0" opacity="1.000000" stroke="none" 
	d="
M312.509827,141.059937 
	C313.901855,140.740341 315.755859,140.054672 317.611755,140.049530 
	C344.714203,139.974503 371.816895,139.990356 399.377441,139.972473 
	C398.237366,140.306946 396.640076,140.951736 395.041260,140.955551 
	C367.685150,141.020859 340.328888,141.006897 312.509827,141.059937 
z"/>
<path fill="#0000D8" opacity="1.000000" stroke="none" 
	d="
M245.424683,614.909546 
	C246.876602,614.557190 248.796890,614.040161 250.718277,614.035889 
	C277.148468,613.977783 303.578766,613.990356 330.492920,614.190796 
	C330.976746,614.396118 330.982544,614.834961 330.982544,614.834961 
	C302.619537,614.884399 274.256561,614.933899 245.424683,614.909546 
z"/>
<path fill="#0000E1" opacity="1.000000" stroke="none" 
	d="
M154.447052,286.909058 
	C155.898560,286.556061 157.815720,286.039093 159.734039,286.034821 
	C185.468994,285.977295 211.204102,285.991272 237.452103,286.190399 
	C237.965027,286.393311 238.000870,286.833710 238.000870,286.833710 
	C210.305008,286.883606 182.609131,286.933502 154.447052,286.909058 
z"/>
<path fill="#000082" opacity="1.000000" stroke="none" 
	d="
M151.879837,438.914368 
	C151.920029,418.604065 151.951630,398.293701 152.015091,377.983490 
	C152.020767,376.168304 152.233063,374.353760 152.703003,372.317566 
	C152.976135,394.607941 152.895660,417.119720 152.382446,439.501953 
	C151.949707,439.372437 151.879837,438.914368 151.879837,438.914368 
z"/>
<path fill="#000086" opacity="1.000000" stroke="none" 
	d="
M220.872849,328.591370 
	C200.186005,328.984589 179.291046,328.995941 158.396133,328.975311 
	C156.755005,328.973694 155.114105,328.749207 153.227325,328.279846 
	C175.542603,328.021393 198.103683,328.111359 220.872849,328.591370 
z"/>
<path fill="#0000AD" opacity="1.000000" stroke="none" 
	d="
M493.380676,619.252563 
	C493.019501,616.925354 493.019501,614.311157 493.019501,610.997559 
	C487.738007,610.997559 482.984161,610.997437 478.230316,610.997498 
	C469.597351,610.997559 460.961395,610.881836 452.334106,611.103333 
	C450.761169,611.143738 449.223602,612.560547 447.419434,613.610840 
	C447.169128,612.723267 447.169128,611.566895 447.169128,610.205261 
	C462.582703,610.205261 478.002075,610.205261 493.741821,610.205261 
	C493.741821,613.140747 493.741821,616.053101 493.380676,619.252563 
z"/>
<path fill="#000082" opacity="1.000000" stroke="none" 
	d="
M447.103760,588.544067 
	C448.246735,588.737244 449.319672,589.892761 450.402588,589.902222 
	C464.370880,590.024292 478.340607,589.982910 492.990662,589.982910 
	C492.990662,587.011475 492.990662,584.432495 493.040405,581.395447 
	C493.516754,584.066589 493.943420,587.195679 494.462494,591.002747 
	C488.154449,591.002747 482.426147,591.002686 476.697815,591.002686 
	C467.930389,591.002686 459.161621,591.075684 450.397217,590.912842 
	C449.265991,590.891846 448.157440,589.650024 447.103760,588.544067 
z"/>
<path fill="#000071" opacity="1.000000" stroke="none" 
	d="
M562.000854,523.385254 
	C561.667603,522.160034 561.051575,520.480896 561.042358,518.798523 
	C560.964050,504.556763 560.996399,490.314423 560.989990,475.613647 
	C561.323120,476.600861 561.948547,478.045258 561.955811,479.492737 
	C562.028564,493.971466 561.999634,508.450714 562.000854,523.385254 
z"/>
<path fill="#00007D" opacity="1.000000" stroke="none" 
	d="
M471.731628,49.607624 
	C471.836273,50.034100 471.374512,50.049191 471.145966,50.085793 
	C456.290955,50.088657 441.664520,50.054920 426.581482,50.055660 
	C426.124939,50.090134 425.643921,50.040874 425.402222,50.036316 
	C425.759521,49.688900 426.358551,49.046806 426.957489,49.046947 
	C441.847321,49.050465 456.737122,49.121826 471.731628,49.607624 
z"/>
<path fill="#0000B0" opacity="1.000000" stroke="none" 
	d="
M236.497498,201.951843 
	C236.961746,201.920609 237.397354,201.965347 237.616241,201.969086 
	C237.394440,202.311142 236.953033,202.945953 236.513153,202.944901 
	C221.432831,202.908936 206.352631,202.812714 191.209564,202.274979 
	C206.108887,201.877563 221.071060,201.930313 236.497498,201.951843 
z"/>
<path fill="#00007D" opacity="1.000000" stroke="none" 
	d="
M605.534424,50.078297 
	C605.074036,50.126205 604.622192,50.049252 604.393250,50.040108 
	C604.603699,49.690800 605.043640,49.052727 605.482422,49.053577 
	C620.468079,49.082497 635.453613,49.171982 650.592590,49.649673 
	C650.745972,50.046597 650.325073,50.036201 650.115906,50.063076 
	C635.269470,50.070099 620.632141,50.050243 605.534424,50.078297 
z"/>
<path fill="#0000D8" opacity="1.000000" stroke="none" 
	d="
M560.452698,675.936401 
	C560.944336,676.064514 560.975342,676.229187 560.999512,676.645264 
	C545.791687,676.868774 530.590698,676.840942 515.277466,676.389648 
	C530.107544,675.968567 545.049805,675.970825 560.452698,675.936401 
z"/>
<path fill="#0000D8" opacity="1.000000" stroke="none" 
	d="
M619.180237,676.407532 
	C633.978516,676.001953 648.947998,676.000977 664.375366,676.000244 
	C664.217896,676.332458 663.602356,676.954224 662.987061,676.953918 
	C648.441833,676.947205 633.896667,676.873474 619.180237,676.407532 
z"/>
<path fill="#0000AD" opacity="1.000000" stroke="none" 
	d="
M110.975792,6.619473 
	C96.104820,6.995913 80.990852,6.992256 65.403839,6.980251 
	C65.433731,6.652525 65.937141,6.053569 66.439537,6.054421 
	C81.204018,6.079456 95.968391,6.164171 110.975792,6.619473 
z"/>
<path fill="#0000C6" opacity="1.000000" stroke="none" 
	d="
M470.490173,438.965210 
	C470.953979,438.944641 471.394531,438.971832 471.615234,438.972290 
	C470.407684,439.315155 468.980988,439.947449 467.551025,439.954865 
	C454.019073,440.025360 440.486572,439.989502 426.495026,439.909912 
	C426.035828,439.835541 426.049561,439.372864 426.084900,439.143616 
	C440.755615,438.938141 455.390991,438.961975 470.490173,438.965210 
z"/>
<path fill="#0000AD" opacity="1.000000" stroke="none" 
	d="
M192.558411,7.072443 
	C192.099854,7.114560 192.045303,6.640056 192.041229,6.401300 
	C207.229492,6.168848 222.421829,6.175152 237.724731,6.605397 
	C237.835297,7.029337 237.396713,7.037862 237.178436,7.063042 
	C222.312439,7.068922 207.664703,7.049624 192.558411,7.072443 
z"/>
<path fill="#00007D" opacity="1.000000" stroke="none" 
	d="
M560.713074,49.579399 
	C545.916443,49.997780 530.999390,49.998253 515.624390,49.998001 
	C515.778381,49.665928 516.390320,49.045647 517.002319,49.045570 
	C531.532410,49.043823 546.062500,49.108746 560.713074,49.579399 
z"/>
<path fill="#0000B2" opacity="1.000000" stroke="none" 
	d="
M65.140762,202.418198 
	C79.927299,202.019531 94.922470,202.009079 110.375580,201.998505 
	C110.219719,202.331131 109.605759,202.954422 108.992157,202.954056 
	C94.444550,202.945496 79.896973,202.869827 65.140762,202.418198 
z"/>
<path fill="#000071" opacity="1.000000" stroke="none" 
	d="
M315.747284,237.615875 
	C300.933655,238.029480 286.007904,238.017838 270.624237,238.006348 
	C270.775024,237.671631 271.383850,237.044403 271.992371,237.044724 
	C286.539978,237.052582 301.087585,237.127716 315.747284,237.615875 
z"/>
<path fill="#0000BE" opacity="1.000000" stroke="none" 
	d="
M270.290314,266.418396 
	C285.091278,265.998779 300.015869,265.995209 315.399963,265.978271 
	C315.251343,266.308411 314.643250,266.951477 314.035065,266.951569 
	C299.494690,266.954346 284.954315,266.888184 270.290314,266.418396 
z"/>
<path fill="#00006A" opacity="1.000000" stroke="none" 
	d="
M315.742920,286.607605 
	C300.933228,287.020233 286.007751,287.009583 270.624390,286.998291 
	C270.778015,286.666168 271.389679,286.045288 272.001068,286.045532 
	C286.543121,286.051361 301.085175,286.123932 315.742920,286.607605 
z"/>
<path fill="#0000C6" opacity="1.000000" stroke="none" 
	d="
M151.422531,438.945190 
	C151.879837,438.914368 151.949707,439.372437 151.956787,439.603973 
	C136.773300,439.830658 121.582726,439.825806 106.278297,439.398865 
	C106.164436,438.976746 106.603966,438.975067 106.823792,438.961639 
	C121.684151,438.957489 136.324692,438.966766 151.422531,438.945190 
z"/>
<path fill="#0000C6" opacity="1.000000" stroke="none" 
	d="
M270.290283,439.417572 
	C285.091217,438.998322 300.015747,438.995117 315.399780,438.979248 
	C315.250427,439.309570 314.641632,439.951569 314.032684,439.951691 
	C299.493103,439.954102 284.953491,439.887604 270.290283,439.417572 
z"/>
<path fill="#0000C6" opacity="1.000000" stroke="none" 
	d="
M560.411072,438.949036 
	C560.867859,438.920776 560.952271,439.374146 560.963196,439.604431 
	C545.775452,439.824890 530.576843,439.815033 515.271423,439.378571 
	C530.094543,438.960388 545.024414,438.968811 560.411072,438.949036 
z"/>
<path fill="#0000D8" opacity="1.000000" stroke="none" 
	d="
M319.437836,675.909424 
	C319.664978,673.950623 320.880585,672.075134 320.908203,670.182373 
	C321.083771,658.151123 320.997131,646.116089 320.996155,633.624329 
	C321.330353,634.110352 321.951721,635.052856 321.956818,635.998596 
	C322.022339,648.231079 322.054535,660.464722 321.907867,672.695801 
	C321.894653,673.800049 320.584747,674.888733 319.437836,675.909424 
z"/>
<path fill="#0000D8" opacity="1.000000" stroke="none" 
	d="
M151.447617,675.960876 
	C151.907089,675.937866 151.959412,676.385010 151.964050,676.610107 
	C137.294327,676.884705 122.619980,676.934265 107.485046,676.909790 
	C107.024460,676.835754 107.027260,676.387634 107.042564,676.163452 
	C121.701294,675.954163 136.344727,675.969055 151.447617,675.960876 
z"/>
<path fill="#000071" opacity="1.000000" stroke="none" 
	d="
M221.374863,371.735840 
	C220.965881,357.842468 220.986008,343.850220 221.012543,329.383179 
	C221.344406,329.574768 221.953873,330.241302 221.953491,330.907532 
	C221.945511,344.484039 221.867767,358.060547 221.374863,371.735840 
z"/>
<path fill="#000071" opacity="1.000000" stroke="none" 
	d="
M238.419617,286.714661 
	C238.000870,286.833710 237.965027,286.393311 237.911743,286.178650 
	C237.910599,272.259369 237.962723,258.554749 238.026108,244.375031 
	C238.356506,244.568039 238.953659,245.236145 238.953781,245.904343 
	C238.956345,259.468079 238.890488,273.031830 238.419617,286.714661 
z"/>
<path fill="#00007D" opacity="1.000000" stroke="none" 
	d="
M54.589851,481.121216 
	C54.996048,494.915039 55.011642,508.917053 55.038757,523.376831 
	C54.700813,523.239380 54.046329,522.643982 54.046665,522.048889 
	C54.054317,508.475739 54.133472,494.902557 54.589851,481.121216 
z"/>
<path fill="#0000C6" opacity="1.000000" stroke="none" 
	d="
M603.539429,158.937180 
	C603.473755,159.232040 602.937683,159.883530 602.404541,159.881104 
	C588.795837,159.819351 575.187378,159.689209 561.324341,159.243744 
	C575.070007,158.940704 589.070251,158.964905 603.539429,158.937180 
z"/>
<path fill="#0000C6" opacity="1.000000" stroke="none" 
	d="
M514.465454,158.956421 
	C514.391663,159.259064 513.855103,159.896164 513.322083,159.893265 
	C499.722961,159.819168 486.124176,159.678116 472.256866,159.218811 
	C485.993683,158.923477 499.998962,158.958069 514.465454,158.956421 
z"/>
<path fill="#000086" opacity="1.000000" stroke="none" 
	d="
M153.038940,327.547241 
	C152.730072,327.501099 152.091415,326.983917 152.093597,326.469391 
	C152.148590,313.474762 152.270859,300.480469 152.744751,287.266663 
	C153.074677,300.390625 153.041199,313.734039 153.038940,327.547241 
z"/>
<path fill="#0000A4" opacity="1.000000" stroke="none" 
	d="
M331.403748,614.720276 
	C330.982544,614.834961 330.976746,614.396118 330.957520,614.177124 
	C330.938019,604.914062 330.937714,595.869995 330.986023,586.351074 
	C331.359283,587.369202 331.956604,588.861023 331.963013,590.355347 
	C331.997681,598.438416 331.886108,606.522095 331.403748,614.720276 
z"/>
<path fill="#0000A4" opacity="1.000000" stroke="none" 
	d="
M263.092590,679.420288 
	C272.319702,679.003357 281.764862,678.973389 291.688416,678.988892 
	C290.330811,679.357056 288.496307,679.945801 286.658569,679.956177 
	C278.876465,680.000183 271.093384,679.872314 263.092590,679.420288 
z"/>
<path fill="#0000D8" opacity="1.000000" stroke="none" 
	d="
M243.910736,616.676270 
	C243.768951,616.401245 243.703796,615.795776 243.903458,615.098083 
	C244.107971,615.452515 244.047668,615.899231 243.910736,616.676270 
z"/>
<path fill="#FFFFFF" opacity="1.000000" stroke="none" 
	d="
M310.836945,108.919037 
	C313.481659,96.066902 319.643738,90.370415 331.174957,90.117714 
	C343.996765,89.836731 350.031250,95.327492 352.556152,110.479408 
	C339.683563,110.986526 327.257263,111.056641 314.833618,110.908905 
	C313.493683,110.892975 312.168793,109.612778 310.836945,108.919037 
z"/>
<path fill="#00007D" opacity="1.000000" stroke="none" 
	d="
M310.602112,109.211823 
	C312.168793,109.612778 313.493683,110.892975 314.833618,110.908905 
	C327.257263,111.056641 339.683563,110.986526 352.573608,110.875366 
	C351.893799,111.180290 350.751984,111.936806 349.604706,111.945175 
	C337.674103,112.032303 325.741577,112.067696 313.812958,111.890434 
	C312.652832,111.873192 311.515320,110.336174 310.602112,109.211823 
z"/>
<path fill="#FFFFFF" opacity="1.000000" stroke="none" 
	d="
M260.256317,565.000000 
	C267.916382,564.648865 275.316101,564.518066 279.718414,571.443420 
	C282.319733,575.535645 283.613373,580.459167 285.756348,585.640503 
	C270.677124,585.640503 256.506012,585.640503 242.344086,585.640503 
	C245.576370,570.433960 249.632980,565.626099 260.256317,565.000000 
z"/>
</svg>