<?xml version="1.0" standalone="yes"?>
<svg xmlns="http://www.w3.org/2000/svg" width="500" height="500">
<path style="fill:#ffffff; stroke:none;" d="M0 0L0 500L500 500L500 0L0 0z"/>
<path style="fill:#3a3a9b; stroke:none;" d="M84 56L85 57L84 56z"/>
<path style="fill:#010102; stroke:none;" d="M85 56L99.5787 83L128.15 133L208.85 274L249 345L251 345L291.15 274L371.85 133L400 84L415 56L85 56z"/>
<path style="fill:#3a3a9b; stroke:none;" d="M415 56L416 57L415 56M85 58L86 59L85 58M414 58L415 59L414 58z"/>
<path style="fill:#9c9cc8; stroke:none;" d="M86 60L87 61L86 60M413 60L414 61L413 60M87 62L88 63L87 62M412 62L413 63L412 62z"/>
<path style="fill:#3a3a9b; stroke:none;" d="M88 63L89 64L88 63M411 63L412 64L411 63M89 65L90 66L89 65M410 65L411 66L410 65z"/>
<path style="fill:#9c9cc8; stroke:none;" d="M90 67L91 68L90 67M409 67L410 68L409 67z"/>
<path style="fill:#3a3a9b; stroke:none;" d="M91 68L92 69L91 68z"/>
<path style="fill:#9c9cc8; stroke:none;" d="M91 69L92 70L91 69M408 69L409 70L408 69z"/>
<path style="fill:#3a3a9b; stroke:none;" d="M92 70L93 71L92 70M407 70L408 71L407 70M93 72L94 73L93 72M406 72L407 73L406 72z"/>
<path style="fill:#9c9cc8; stroke:none;" d="M94 74L95 75L94 74M405 74L406 75L405 74z"/>
<path style="fill:#3a3a9b; stroke:none;" d="M95 75L96 76L95 75z"/>
<path style="fill:#9c9cc8; stroke:none;" d="M95 76L96 77L95 76M404 76L405 77L404 76z"/>
<path style="fill:#3a3a9b; stroke:none;" d="M96 77L97 78L96 77M403 77L404 78L403 77M97 79L98 80L97 79M402 79L403 80L402 79z"/>
<path style="fill:#9c9cc8; stroke:none;" d="M98 81L99 82L98 81M401 81L402 82L401 81z"/>
<path style="fill:#3a3a9b; stroke:none;" d="M99 82L100 83L99 82z"/>
<path style="fill:#9c9cc8; stroke:none;" d="M99 83L100 84L99 83M400 83L401 84L400 83z"/>
<path style="fill:#3a3a9b; stroke:none;" d="M100 84L101 85L100 84M399 84L400 85L399 84M101 86L102 87L101 86M398 86L399 87L398 86z"/>
<path style="fill:#9c9cc8; stroke:none;" d="M102 88L103 89L102 88M397 88L398 89L397 88z"/>
<path style="fill:#3a3a9b; stroke:none;" d="M103 89L104 90L103 89z"/>
<path style="fill:#9c9cc8; stroke:none;" d="M103 90L104 91L103 90M396 90L397 91L396 90z"/>
<path style="fill:#3a3a9b; stroke:none;" d="M104 91L105 92L104 91M395 91L396 92L395 91M105 93L106 94L105 93M394 93L395 94L394 93z"/>
<path style="fill:#9c9cc8; stroke:none;" d="M106 95L107 96L106 95M393 95L394 96L393 95z"/>
<path style="fill:#3a3a9b; stroke:none;" d="M107 96L108 97L107 96z"/>
<path style="fill:#9c9cc8; stroke:none;" d="M107 97L108 98L107 97M392 97L393 98L392 97z"/>
<path style="fill:#3a3a9b; stroke:none;" d="M108 98L109 99L108 98M391 98L392 99L391 98z"/>
<path style="fill:#9c9cc8; stroke:none;" d="M109 100L110 101L109 100z"/>
<path style="fill:#3a3a9b; stroke:none;" d="M390 100L391 101L390 100z"/>
<path style="fill:#9c9cc8; stroke:none;" d="M110 102L111 103L110 102M389 102L390 103L389 102z"/>
<path style="fill:#3a3a9b; stroke:none;" d="M111 103L112 104L111 103z"/>
<path style="fill:#9c9cc8; stroke:none;" d="M111 104L112 105L111 104z"/>
<path style="fill:#0101ff; stroke:none;" d="M167 104L197.579 158L249 248L251 248L302.421 158L333 104L167 104z"/>
<path style="fill:#9c9cc8; stroke:none;" d="M388 104L389 105L388 104z"/>
<path style="fill:#3a3a9b; stroke:none;" d="M112 105L113 106L112 105M387 105L388 106L387 105z"/>
<path style="fill:#9c9cc8; stroke:none;" d="M113 107L114 108L113 107z"/>
<path style="fill:#3a3a9b; stroke:none;" d="M386 107L387 108L386 107z"/>
<path style="fill:#9c9cc8; stroke:none;" d="M114 109L115 110L114 109M385 109L386 110L385 109z"/>
<path style="fill:#3a3a9b; stroke:none;" d="M115 110L116 111L115 110M384 110L385 111L384 110z"/>
<path style="fill:#9c9cc8; stroke:none;" d="M115 111L116 112L115 111M384 111L385 112L384 111z"/>
<path style="fill:#3a3a9b; stroke:none;" d="M116 112L117 113L116 112M383 112L384 113L383 112z"/>
<path style="fill:#9c9cc8; stroke:none;" d="M117 114L118 115L117 114z"/>
<path style="fill:#3a3a9b; stroke:none;" d="M382 114L383 115L382 114z"/>
<path style="fill:#9c9cc8; stroke:none;" d="M118 116L119 117L118 116M381 116L382 117L381 116z"/>
<path style="fill:#3a3a9b; stroke:none;" d="M119 117L120 118L119 117M380 117L381 118L380 117z"/>
<path style="fill:#9c9cc8; stroke:none;" d="M119 118L120 119L119 118M380 118L381 119L380 118z"/>
<path style="fill:#3a3a9b; stroke:none;" d="M120 119L121 120L120 119M379 119L380 120L379 119z"/>
<path style="fill:#9c9cc8; stroke:none;" d="M121 121L122 122L121 121z"/>
<path style="fill:#3a3a9b; stroke:none;" d="M378 121L379 122L378 121z"/>
<path style="fill:#9c9cc8; stroke:none;" d="M122 123L123 124L122 123M377 123L378 124L377 123z"/>
<path style="fill:#3a3a9b; stroke:none;" d="M123 124L124 125L123 124M376 124L377 125L376 124z"/>
<path style="fill:#9c9cc8; stroke:none;" d="M376 125L377 126L376 125z"/>
<path style="fill:#3a3a9b; stroke:none;" d="M124 126L125 127L124 126M375 126L376 127L375 126z"/>
<path style="fill:#9c9cc8; stroke:none;" d="M125 128L126 129L125 128z"/>
<path style="fill:#3a3a9b; stroke:none;" d="M374 128L375 129L374 128z"/>
<path style="fill:#9c9cc8; stroke:none;" d="M126 130L127 131L126 130M373 130L374 131L373 130z"/>
<path style="fill:#3a3a9b; stroke:none;" d="M127 131L128 132L127 131M372 131L373 132L372 131z"/>
<path style="fill:#9c9cc8; stroke:none;" d="M372 132L373 133L372 132z"/>
<path style="fill:#3a3a9b; stroke:none;" d="M128 133L129 134L128 133M371 133L372 134L371 133z"/>
<path style="fill:#9c9cc8; stroke:none;" d="M129 135L130 136L129 135M370 135L371 136L370 135M130 137L131 138L130 137M369 137L370 138L369 137z"/>
<path style="fill:#3a3a9b; stroke:none;" d="M131 138L132 139L131 138M368 138L369 139L368 138z"/>
<path style="fill:#9c9cc8; stroke:none;" d="M368 139L369 140L368 139z"/>
<path style="fill:#3a3a9b; stroke:none;" d="M132 140L133 141L132 140M367 140L368 141L367 140z"/>
<path style="fill:#9c9cc8; stroke:none;" d="M133 142L134 143L133 142M366 142L367 143L366 142M134 144L135 145L134 144M365 144L366 145L365 144z"/>
<path style="fill:#3a3a9b; stroke:none;" d="M135 145L136 146L135 145M364 145L365 146L364 145z"/>
<path style="fill:#9c9cc8; stroke:none;" d="M364 146L365 147L364 146z"/>
<path style="fill:#3a3a9b; stroke:none;" d="M136 147L137 148L136 147M363 147L364 148L363 147z"/>
<path style="fill:#9c9cc8; stroke:none;" d="M137 149L138 150L137 149M362 149L363 150L362 149M138 151L139 152L138 151M361 151L362 152L361 151z"/>
<path style="fill:#3a3a9b; stroke:none;" d="M139 152L140 153L139 152M360 152L361 153L360 152M140 154L141 155L140 154M359 154L360 155L359 154z"/>
<path style="fill:#9c9cc8; stroke:none;" d="M141 156L142 157L141 156M358 156L359 157L358 156M142 158L143 159L142 158M357 158L358 159L357 158z"/>
<path style="fill:#3a3a9b; stroke:none;" d="M143 159L144 160L143 159M356 159L357 160L356 159M144 161L145 162L144 161M355 161L356 162L355 161z"/>
<path style="fill:#9c9cc8; stroke:none;" d="M145 163L146 164L145 163M354 163L355 164L354 163M146 165L147 166L146 165M353 165L354 166L353 165z"/>
<path style="fill:#3a3a9b; stroke:none;" d="M147 166L148 167L147 166M352 166L353 167L352 166M148 168L149 169L148 168M351 168L352 169L351 168z"/>
<path style="fill:#9c9cc8; stroke:none;" d="M149 170L150 171L149 170M350 170L351 171L350 170M150 172L151 173L150 172M349 172L350 173L349 172z"/>
<path style="fill:#3a3a9b; stroke:none;" d="M151 173L152 174L151 173M348 173L349 174L348 173M152 175L153 176L152 175M347 175L348 176L347 175z"/>
<path style="fill:#9c9cc8; stroke:none;" d="M153 177L154 178L153 177M346 177L347 178L346 177M154 179L155 180L154 179M345 179L346 180L345 179z"/>
<path style="fill:#3a3a9b; stroke:none;" d="M155 180L156 181L155 180M344 180L345 181L344 180M156 182L157 183L156 182M343 182L344 183L343 182z"/>
<path style="fill:#9c9cc8; stroke:none;" d="M157 184L158 185L157 184M342 184L343 185L342 184M158 186L159 187L158 186M341 186L342 187L341 186z"/>
<path style="fill:#3a3a9b; stroke:none;" d="M159 187L160 188L159 187M340 187L341 188L340 187M160 189L161 190L160 189M339 189L340 190L339 189z"/>
<path style="fill:#9c9cc8; stroke:none;" d="M161 191L162 192L161 191M338 191L339 192L338 191M162 193L163 194L162 193M337 193L338 194L337 193z"/>
<path style="fill:#3a3a9b; stroke:none;" d="M163 194L164 195L163 194M336 194L337 195L336 194M164 196L165 197L164 196M335 196L336 197L335 196z"/>
<path style="fill:#9c9cc8; stroke:none;" d="M165 198L166 199L165 198M334 198L335 199L334 198M166 200L167 201L166 200M333 200L334 201L333 200z"/>
<path style="fill:#3a3a9b; stroke:none;" d="M167 201L168 202L167 201M332 201L333 202L332 201M168 203L169 204L168 203M331 203L332 204L331 203z"/>
<path style="fill:#9c9cc8; stroke:none;" d="M169 205L170 206L169 205M330 205L331 206L330 205M170 207L171 208L170 207M329 207L330 208L329 207z"/>
<path style="fill:#3a3a9b; stroke:none;" d="M171 208L172 209L171 208M328 208L329 209L328 208M172 210L173 211L172 210M327 210L328 211L327 210z"/>
<path style="fill:#9c9cc8; stroke:none;" d="M173 212L174 213L173 212M326 212L327 213L326 212M174 214L175 215L174 214M325 214L326 215L325 214z"/>
<path style="fill:#3a3a9b; stroke:none;" d="M175 215L176 216L175 215M324 215L325 216L324 215M176 217L177 218L176 217M323 217L324 218L323 217z"/>
<path style="fill:#9c9cc8; stroke:none;" d="M177 219L178 220L177 219M322 219L323 220L322 219z"/>
<path style="fill:#3a3a9b; stroke:none;" d="M178 220L179 221L178 220z"/>
<path style="fill:#9c9cc8; stroke:none;" d="M178 221L179 222L178 221M321 221L322 222L321 221z"/>
<path style="fill:#3a3a9b; stroke:none;" d="M179 222L180 223L179 222M320 222L321 223L320 222M180 224L181 225L180 224M319 224L320 225L319 224z"/>
<path style="fill:#9c9cc8; stroke:none;" d="M181 226L182 227L181 226M318 226L319 227L318 226z"/>
<path style="fill:#3a3a9b; stroke:none;" d="M182 227L183 228L182 227z"/>
<path style="fill:#9c9cc8; stroke:none;" d="M182 228L183 229L182 228M317 228L318 229L317 228z"/>
<path style="fill:#3a3a9b; stroke:none;" d="M183 229L184 230L183 229M316 229L317 230L316 229M184 231L185 232L184 231M315 231L316 232L315 231z"/>
<path style="fill:#9c9cc8; stroke:none;" d="M185 233L186 234L185 233M314 233L315 234L314 233z"/>
<path style="fill:#3a3a9b; stroke:none;" d="M186 234L187 235L186 234z"/>
<path style="fill:#9c9cc8; stroke:none;" d="M186 235L187 236L186 235M313 235L314 236L313 235z"/>
<path style="fill:#3a3a9b; stroke:none;" d="M187 236L188 237L187 236M312 236L313 237L312 236M188 238L189 239L188 238M311 238L312 239L311 238z"/>
<path style="fill:#9c9cc8; stroke:none;" d="M189 240L190 241L189 240M310 240L311 241L310 240z"/>
<path style="fill:#3a3a9b; stroke:none;" d="M190 241L191 242L190 241z"/>
<path style="fill:#9c9cc8; stroke:none;" d="M190 242L191 243L190 242M309 242L310 243L309 242z"/>
<path style="fill:#3a3a9b; stroke:none;" d="M191 243L192 244L191 243M308 243L309 244L308 243M192 245L193 246L192 245M307 245L308 246L307 245z"/>
<path style="fill:#9c9cc8; stroke:none;" d="M193 247L194 248L193 247M306 247L307 248L306 247z"/>
<path style="fill:#3a3a9b; stroke:none;" d="M194 248L195 249L194 248z"/>
<path style="fill:#9c9cc8; stroke:none;" d="M194 249L195 250L194 249M305 249L306 250L305 249z"/>
<path style="fill:#3a3a9b; stroke:none;" d="M195 250L196 251L195 250M304 250L305 251L304 250z"/>
<path style="fill:#9c9cc8; stroke:none;" d="M196 252L197 253L196 252z"/>
<path style="fill:#3a3a9b; stroke:none;" d="M303 252L304 253L303 252z"/>
<path style="fill:#9c9cc8; stroke:none;" d="M197 254L198 255L197 254M302 254L303 255L302 254z"/>
<path style="fill:#3a3a9b; stroke:none;" d="M198 255L199 256L198 255M301 255L302 256L301 255z"/>
<path style="fill:#9c9cc8; stroke:none;" d="M198 256L199 257L198 256M301 256L302 257L301 256z"/>
<path style="fill:#3a3a9b; stroke:none;" d="M199 257L200 258L199 257M300 257L301 258L300 257z"/>
<path style="fill:#9c9cc8; stroke:none;" d="M200 259L201 260L200 259z"/>
<path style="fill:#3a3a9b; stroke:none;" d="M299 259L300 260L299 259z"/>
<path style="fill:#9c9cc8; stroke:none;" d="M201 261L202 262L201 261M298 261L299 262L298 261z"/>
<path style="fill:#3a3a9b; stroke:none;" d="M202 262L203 263L202 262M297 262L298 263L297 262z"/>
<path style="fill:#9c9cc8; stroke:none;" d="M202 263L203 264L202 263M297 263L298 264L297 263z"/>
<path style="fill:#3a3a9b; stroke:none;" d="M203 264L204 265L203 264M296 264L297 265L296 264z"/>
<path style="fill:#9c9cc8; stroke:none;" d="M204 266L205 267L204 266z"/>
<path style="fill:#3a3a9b; stroke:none;" d="M295 266L296 267L295 266z"/>
<path style="fill:#9c9cc8; stroke:none;" d="M205 268L206 269L205 268M294 268L295 269L294 268z"/>
<path style="fill:#3a3a9b; stroke:none;" d="M206 269L207 270L206 269M293 269L294 270L293 269z"/>
<path style="fill:#9c9cc8; stroke:none;" d="M206 270L207 271L206 270M293 270L294 271L293 270z"/>
<path style="fill:#3a3a9b; stroke:none;" d="M207 271L208 272L207 271M292 271L293 272L292 271z"/>
<path style="fill:#9c9cc8; stroke:none;" d="M208 273L209 274L208 273z"/>
<path style="fill:#3a3a9b; stroke:none;" d="M291 273L292 274L291 273z"/>
<path style="fill:#9c9cc8; stroke:none;" d="M209 275L210 276L209 275M290 275L291 276L290 275z"/>
<path style="fill:#3a3a9b; stroke:none;" d="M210 276L211 277L210 276M289 276L290 277L289 276z"/>
<path style="fill:#9c9cc8; stroke:none;" d="M289 277L290 278L289 277z"/>
<path style="fill:#3a3a9b; stroke:none;" d="M211 278L212 279L211 278M288 278L289 279L288 278z"/>
<path style="fill:#9c9cc8; stroke:none;" d="M212 280L213 281L212 280M287 280L288 281L287 280M213 282L214 283L213 282M286 282L287 283L286 282z"/>
<path style="fill:#3a3a9b; stroke:none;" d="M214 283L215 284L214 283M285 283L286 284L285 283z"/>
<path style="fill:#9c9cc8; stroke:none;" d="M285 284L286 285L285 284z"/>
<path style="fill:#3a3a9b; stroke:none;" d="M215 285L216 286L215 285M284 285L285 286L284 285z"/>
<path style="fill:#9c9cc8; stroke:none;" d="M216 287L217 288L216 287M283 287L284 288L283 287M217 289L218 290L217 289M282 289L283 290L282 289z"/>
<path style="fill:#3a3a9b; stroke:none;" d="M218 290L219 291L218 290M281 290L282 291L281 290z"/>
<path style="fill:#9c9cc8; stroke:none;" d="M281 291L282 292L281 291z"/>
<path style="fill:#3a3a9b; stroke:none;" d="M219 292L220 293L219 292M280 292L281 293L280 292z"/>
<path style="fill:#9c9cc8; stroke:none;" d="M220 294L221 295L220 294M279 294L280 295L279 294M221 296L222 297L221 296M278 296L279 297L278 296z"/>
<path style="fill:#3a3a9b; stroke:none;" d="M222 297L223 298L222 297M277 297L278 298L277 297z"/>
<path style="fill:#9c9cc8; stroke:none;" d="M277 298L278 299L277 298z"/>
<path style="fill:#3a3a9b; stroke:none;" d="M223 299L224 300L223 299M276 299L277 300L276 299z"/>
<path style="fill:#9c9cc8; stroke:none;" d="M224 301L225 302L224 301M275 301L276 302L275 301M225 303L226 304L225 303M274 303L275 304L274 303z"/>
<path style="fill:#3a3a9b; stroke:none;" d="M226 304L227 305L226 304M273 304L274 305L273 304M227 306L228 307L227 306M272 306L273 307L272 306z"/>
<path style="fill:#9c9cc8; stroke:none;" d="M228 308L229 309L228 308M271 308L272 309L271 308M229 310L230 311L229 310M270 310L271 311L270 310z"/>
<path style="fill:#3a3a9b; stroke:none;" d="M230 311L231 312L230 311M269 311L270 312L269 311M231 313L232 314L231 313M268 313L269 314L268 313z"/>
<path style="fill:#9c9cc8; stroke:none;" d="M232 315L233 316L232 315M267 315L268 316L267 315M233 317L234 318L233 317M266 317L267 318L266 317z"/>
<path style="fill:#3a3a9b; stroke:none;" d="M234 318L235 319L234 318M265 318L266 319L265 318M235 320L236 321L235 320M264 320L265 321L264 320z"/>
<path style="fill:#9c9cc8; stroke:none;" d="M236 322L237 323L236 322M263 322L264 323L263 322M237 324L238 325L237 324M262 324L263 325L262 324z"/>
<path style="fill:#3a3a9b; stroke:none;" d="M238 325L239 326L238 325M261 325L262 326L261 325M239 327L240 328L239 327M260 327L261 328L260 327z"/>
<path style="fill:#9c9cc8; stroke:none;" d="M240 329L241 330L240 329M259 329L260 330L259 329M241 331L242 332L241 331M258 331L259 332L258 331z"/>
<path style="fill:#3a3a9b; stroke:none;" d="M242 332L243 333L242 332M257 332L258 333L257 332M243 334L244 335L243 334M256 334L257 335L256 334z"/>
<path style="fill:#9c9cc8; stroke:none;" d="M244 336L245 337L244 336M255 336L256 337L255 336M245 338L246 339L245 338M254 338L255 339L254 338z"/>
<path style="fill:#3a3a9b; stroke:none;" d="M246 339L247 340L246 339M253 339L254 340L253 339M247 341L248 342L247 341M252 341L253 342L252 341z"/>
<path style="fill:#9c9cc8; stroke:none;" d="M248 343L249 344L248 343M251 343L252 344L251 343M249.667 345.333L250.333 345.667L249.667 345.333z"/>
</svg>
