<svg version="1.1" id="Layer_1" xmlns="http://www.w3.org/2000/svg" xmlns:xlink="http://www.w3.org/1999/xlink" x="0px" y="0px"
	 width="100%" viewBox="0 0 2100 1500" enable-background="new 0 0 2100 1500" xml:space="preserve">
<path fill="#000001" opacity="1.000000" stroke="none" 
	d="
M1295.000000,1501.000000 
	C863.333313,1501.000000 432.166656,1501.000000 1.000000,1501.000000 
	C1.000000,1001.000000 1.000000,501.000000 1.000000,1.000000 
	C701.000000,1.000000 1401.000000,1.000000 2101.000000,1.000000 
	C2101.000000,501.000000 2101.000000,1001.000000 2101.000000,1501.000000 
	C1832.500000,1501.000000 1564.000000,1501.000000 1295.000000,1501.000000 
M694.248169,375.501465 
	C694.910461,376.205109 695.572754,376.908722 696.351746,377.717682 
	C696.351746,377.717682 696.376892,377.872894 696.168213,378.570557 
	C697.824341,380.565399 699.480469,382.560211 701.377563,384.646332 
	C701.377563,384.646332 701.445251,384.895050 701.186646,385.494537 
	C702.442749,390.025177 705.253296,393.454529 709.109863,396.927094 
	C711.588257,400.121552 714.275696,403.176849 716.510010,406.533752 
	C728.267334,424.198914 739.961365,441.906830 751.562744,459.674835 
	C755.230347,465.292053 758.543762,471.140625 762.034485,477.647247 
	C765.105591,482.502350 767.994263,487.487061 771.316406,492.163788 
	C773.296448,494.951019 775.957336,497.254669 778.137207,499.794373 
	C778.137207,499.794373 778.288574,499.704712 778.002014,500.421844 
	C780.117920,503.209351 782.233765,505.996857 784.195862,508.836853 
	C784.195862,508.836853 784.219910,508.676147 784.167908,509.438049 
	C787.545715,517.610107 789.485046,518.971191 797.753235,518.971619 
	C817.905151,518.972656 838.057129,518.983459 858.209045,518.959839 
	C860.313843,518.957397 862.418396,518.750732 864.632935,518.632996 
	C864.632935,413.646942 864.632935,309.160553 864.632935,204.473679 
	C839.392944,204.473679 814.540405,204.473679 789.178101,204.473679 
	C789.178101,263.798492 789.178101,322.682739 789.178101,383.451324 
	C785.840637,381.519714 783.443542,380.554352 781.595825,378.954651 
	C779.359741,377.018616 777.588379,374.545776 775.788757,372.237885 
	C775.788757,372.237885 775.663513,372.374634 775.886353,371.629822 
	C773.943542,369.002350 772.000793,366.374878 769.682251,363.653778 
	C769.437256,363.523743 769.285583,363.323120 769.226501,362.278107 
	C768.062378,360.890656 766.898254,359.503174 765.870544,358.140350 
	C765.870544,358.140350 765.796021,358.257202 765.976135,357.514282 
	C764.413147,354.620270 763.114868,351.538055 761.223267,348.877747 
	C758.588379,345.172089 755.509521,341.782166 752.774231,338.224579 
	C752.774231,338.224579 752.710327,338.367950 752.819336,337.628906 
	C751.221924,335.734955 749.624512,333.840973 748.020813,331.980255 
	C748.020813,331.980255 748.054626,331.980835 748.290894,331.250793 
	C746.138794,328.192230 743.986694,325.133667 741.934753,322.075012 
	C741.934753,322.075012 741.905396,322.170776 741.990356,321.421265 
	C740.282043,319.297485 738.573669,317.173706 736.948303,315.053253 
	C736.948303,315.053253 736.923096,315.132446 737.062561,314.373901 
	C734.287292,310.297333 731.512024,306.220764 728.872864,302.128571 
	C728.872864,302.128571 728.833557,302.259827 728.926941,301.516083 
	C725.630676,296.981567 722.334351,292.447083 719.063660,287.941467 
	C719.063660,287.941467 719.087402,287.971863 719.228943,287.230225 
	C715.524170,281.540833 711.876038,275.813629 708.103271,270.169678 
	C699.451111,257.226227 690.771851,244.300385 682.007874,231.432602 
	C680.888245,229.788651 679.198486,228.533020 677.903198,227.068451 
	C677.903198,227.068451 677.897278,227.201843 677.965698,226.451035 
	C675.618225,223.308029 673.270813,220.165009 670.992065,217.010773 
	C670.992065,217.010773 670.966919,217.075745 671.087891,216.332047 
	C669.976135,214.929581 668.864319,213.527115 667.886597,212.117615 
	C667.886597,212.117615 667.844604,212.245132 667.970215,211.473267 
	C666.380554,206.534195 663.826477,203.765152 657.799927,203.881287 
	C637.308350,204.276169 616.804443,204.026657 596.305237,204.033722 
	C589.535156,204.036057 589.342224,204.239487 589.342163,211.102966 
	C589.341675,310.932404 589.340637,410.761871 589.365356,510.591309 
	C589.365784,512.396240 589.682495,514.201111 589.984558,516.786865 
	C592.020691,517.496399 594.052429,518.807434 596.093689,518.822388 
	C616.736267,518.974365 637.380371,518.919617 658.024048,518.911072 
	C664.959106,518.908203 664.966431,518.892334 664.966675,511.923004 
	C664.968628,456.984131 664.967651,402.045288 664.967590,347.106415 
	C664.967529,345.160248 664.967590,343.214050 664.967590,341.267883 
	C665.462219,340.885376 665.956909,340.502869 666.451538,340.120361 
	C668.296814,341.406525 670.201355,342.617188 671.967163,344.004486 
	C673.217102,344.986481 674.279297,346.207397 675.659241,347.706543 
	C675.659241,347.706543 675.873413,348.102783 675.780579,348.845612 
	C678.243530,352.128693 680.706482,355.411774 683.250366,358.762756 
	C683.250366,358.762756 683.284973,358.862549 683.092285,359.562836 
	C684.801819,361.526489 686.511414,363.490143 688.426819,365.607391 
	C688.426819,365.607391 688.462280,365.861755 688.164917,366.508759 
	C689.131592,367.622101 690.098267,368.735474 691.130249,369.876312 
	C691.130249,369.876312 691.157715,369.941650 691.020752,370.644897 
	C692.086121,371.944458 693.151489,373.244019 694.407898,374.628387 
	C694.407898,374.628387 694.492126,374.819641 694.248169,375.501465 
M826.161804,1246.840942 
	C826.161804,1246.840942 826.235840,1246.708008 826.106873,1247.432739 
	C827.303833,1248.961914 828.317810,1250.688965 829.725830,1251.989624 
	C844.414795,1265.559326 862.016174,1273.391846 881.354553,1277.448120 
	C887.160889,1278.666016 893.217041,1278.692993 899.920898,1279.433716 
	C900.681091,1279.588989 901.441284,1279.744263 902.436707,1280.556763 
	C917.698059,1280.655640 932.959412,1280.764771 948.220886,1280.807739 
	C948.721741,1280.809204 949.224365,1280.138184 950.546570,1279.589111 
	C951.668396,1279.546387 952.790283,1279.503662 954.777039,1279.809448 
	C961.127197,1279.229858 967.492493,1278.779541 973.823181,1278.034546 
	C980.250488,1277.278076 986.632141,1276.137573 993.056580,1275.351807 
	C996.142700,1274.974243 997.135925,1273.578003 997.117371,1270.468384 
	C996.994751,1249.971069 997.058960,1229.472534 997.039429,1208.974487 
	C997.038330,1207.845825 996.832581,1206.717529 996.697754,1205.340576 
	C995.360901,1205.190308 994.220703,1204.851318 993.131653,1204.972412 
	C982.454041,1206.160645 971.780212,1207.386597 961.116760,1208.695312 
	C958.382507,1209.030884 955.688782,1209.696045 952.214050,1210.313721 
	C951.711365,1210.228394 951.208679,1210.142944 950.406555,1209.588623 
	C948.135010,1209.423096 945.865845,1209.166870 943.591553,1209.106934 
	C930.531433,1208.762573 917.398193,1209.174194 904.438782,1207.859741 
	C897.686707,1207.174927 891.240356,1203.475220 884.155029,1200.849365 
	C883.492920,1200.155396 882.830811,1199.461548 882.136353,1198.130615 
	C881.483215,1197.698853 880.830078,1197.266968 879.764771,1196.582153 
	C879.506042,1196.179443 879.247253,1195.776733 879.014221,1194.577637 
	C878.364075,1193.247314 877.479065,1191.979248 877.107788,1190.575195 
	C875.992371,1186.356689 875.077271,1182.085327 875.006592,1177.923828 
	C919.979675,1177.885620 964.952759,1177.847412 1010.751953,1177.914917 
	C1011.474426,1177.037964 1012.818848,1176.167236 1012.827881,1175.282959 
	C1013.020264,1156.581543 1013.639160,1137.856689 1010.502625,1119.287598 
	C1010.062500,1116.681885 1010.429504,1113.880981 1009.674622,1111.398071 
	C1007.166260,1103.147339 1004.925964,1094.728882 1001.432678,1086.887085 
	C997.648132,1078.391602 993.733337,1069.478027 987.789124,1062.532227 
	C978.912720,1052.159790 969.240356,1042.155762 955.992310,1036.720459 
	C949.068237,1033.879761 942.619873,1029.807861 933.940979,1030.041138 
	C930.942078,1029.426636 927.943176,1028.812134 924.650696,1027.459229 
	C920.099121,1026.998047 915.547607,1026.536865 910.067993,1026.068604 
	C905.330688,1026.512451 900.764526,1025.606567 895.822510,1027.883179 
	C890.993286,1030.107910 884.839417,1029.462036 879.265747,1030.064697 
	C870.234375,1031.041138 861.949768,1034.261108 853.847473,1038.208496 
	C835.716553,1047.041626 821.743408,1060.309570 812.406921,1078.067261 
	C802.908264,1096.133301 798.701660,1115.973633 797.590576,1136.050781 
	C796.652222,1153.007935 798.447205,1170.116089 798.835205,1187.992065 
	C798.892151,1189.318604 798.750916,1190.689453 799.036133,1191.964966 
	C802.905945,1209.269165 808.429565,1225.896484 819.584717,1240.068970 
	C821.525574,1242.534790 824.043640,1244.546265 826.161804,1246.840942 
M1179.022949,1205.012573 
	C1179.022949,1205.012573 1179.093872,1205.052002 1178.306519,1204.978760 
	C1175.387207,1206.007568 1172.531982,1207.618896 1169.535645,1207.949097 
	C1162.350464,1208.740845 1155.103882,1209.147705 1147.873047,1209.313721 
	C1136.391479,1209.577393 1125.376465,1202.009399 1121.154785,1191.396484 
	C1119.898926,1188.239502 1118.497559,1185.140381 1117.058960,1181.397339 
	C1116.500610,1179.768066 1115.479370,1178.141846 1115.469238,1176.509155 
	C1115.436401,1171.212524 1115.967163,1165.912109 1115.922729,1160.616089 
	C1115.860229,1153.148682 1115.514160,1145.682251 1115.221436,1138.218140 
	C1114.881592,1129.553101 1117.587280,1121.627075 1121.164551,1113.953735 
	C1122.503906,1111.080688 1123.861328,1107.922119 1126.081543,1105.809082 
	C1132.747437,1099.465088 1141.209961,1096.673340 1150.187744,1096.116333 
	C1157.558838,1095.659180 1164.615723,1096.888672 1171.993164,1099.122925 
	C1181.745239,1102.076294 1186.119995,1108.147949 1188.472046,1117.118286 
	C1189.699219,1121.113403 1190.926270,1125.108643 1192.197510,1129.579590 
	C1192.211060,1129.899170 1192.191772,1130.216797 1191.946289,1131.478882 
	C1192.873047,1134.131958 1189.913818,1138.876709 1195.765259,1138.887451 
	C1218.238403,1138.928467 1240.711548,1138.925171 1263.184326,1138.845703 
	C1264.334351,1138.841675 1266.496216,1137.920532 1266.474121,1137.520874 
	C1266.218872,1132.896240 1265.633057,1128.290039 1265.142944,1123.124268 
	C1265.216431,1122.763184 1265.289917,1122.401978 1265.927856,1121.465698 
	C1265.248413,1118.638428 1264.568848,1115.811157 1263.711792,1112.227295 
	C1263.164795,1111.669800 1262.214844,1111.164917 1262.133911,1110.546387 
	C1261.404053,1104.963257 1259.370361,1099.853760 1257.483765,1094.568481 
	C1252.382568,1080.278564 1244.692261,1067.757690 1233.838501,1057.349121 
	C1227.830200,1051.587280 1221.241577,1046.247681 1214.249512,1041.752319 
	C1208.585327,1038.110596 1202.095215,1035.505615 1195.660278,1033.385620 
	C1190.056274,1031.539307 1184.044067,1030.837036 1178.164307,1029.944702 
	C1168.692505,1028.507202 1159.181396,1027.329224 1148.828979,1025.880371 
	C1145.435059,1025.968994 1142.020996,1025.872192 1138.657471,1026.239502 
	C1137.353149,1026.381958 1136.163452,1027.573730 1134.130981,1028.197876 
	C1132.735352,1028.818115 1131.394043,1029.656860 1129.934326,1030.018921 
	C1124.952759,1031.254761 1119.828247,1032.002441 1114.950195,1033.543823 
	C1109.941528,1035.126343 1105.005127,1037.115845 1100.305664,1039.464478 
	C1087.703369,1045.762817 1077.216675,1054.897217 1068.608154,1065.859497 
	C1062.803467,1073.251099 1057.909546,1081.456909 1053.421021,1089.739014 
	C1051.311523,1093.631226 1051.180542,1098.577515 1050.041748,1103.017700 
	C1048.042725,1110.810913 1045.104614,1118.475952 1044.120117,1126.388794 
	C1042.811279,1136.908813 1043.004028,1147.615234 1042.536743,1158.240845 
	C1042.412964,1161.053345 1041.799316,1163.921631 1042.165649,1166.663330 
	C1043.109375,1173.726929 1044.484863,1180.732544 1045.669922,1187.764282 
	C1046.620117,1193.402466 1046.625732,1199.407715 1048.678955,1204.606934 
	C1052.453613,1214.165405 1056.790649,1223.629395 1062.042969,1232.447998 
	C1070.867554,1247.264526 1082.371582,1259.599487 1098.091553,1267.656616 
	C1113.957153,1275.788086 1130.801025,1279.413452 1148.445923,1279.999756 
	C1175.732422,1280.906494 1201.523560,1276.502319 1224.118164,1259.646851 
	C1235.301514,1251.304077 1243.564087,1240.479492 1250.681030,1228.897461 
	C1258.588135,1216.029541 1261.839355,1201.155029 1265.522949,1186.682739 
	C1266.749146,1181.865234 1265.093384,1176.314209 1264.747192,1170.976074 
	C1241.133057,1170.976074 1217.694580,1170.976074 1194.320557,1170.976074 
	C1193.485962,1173.784180 1192.719727,1176.362183 1191.203369,1179.166382 
	C1189.826660,1184.840454 1188.449951,1190.514526 1187.144287,1196.496704 
	C1187.144287,1196.496704 1186.971680,1196.761719 1186.271118,1196.921875 
	C1183.861938,1199.644897 1181.452637,1202.367920 1179.022949,1205.012573 
M1438.314941,447.088654 
	C1416.508057,447.164032 1394.701172,447.239410 1373.013794,446.446045 
	C1373.284668,445.003296 1373.791138,443.560699 1373.792358,442.117737 
	C1373.838013,387.475983 1373.823975,332.834167 1373.869019,278.192413 
	C1373.872437,273.990356 1372.074829,272.220703 1367.848999,272.237823 
	C1346.525879,272.324127 1325.201660,272.366821 1303.879272,272.213684 
	C1299.486694,272.182159 1297.907349,273.925079 1297.965088,278.101562 
	C1298.075562,286.096313 1297.984619,294.093842 1297.978394,302.090210 
	C1297.940674,350.400330 1297.903320,398.710449 1296.951172,447.025970 
	C1277.187378,447.042145 1257.423340,447.035858 1237.659790,447.113312 
	C1235.906128,447.120178 1234.154419,447.672302 1232.087158,447.080322 
	C1232.025513,445.418518 1231.910278,443.756683 1231.910034,442.094879 
	C1231.902344,387.932434 1231.912964,333.769989 1231.882935,279.607544 
	C1231.881714,277.222015 1231.525391,274.836700 1231.326050,272.345398 
	C1210.956421,272.345398 1191.299683,272.404968 1171.643677,272.326111 
	C1156.514404,272.265442 1156.399902,272.189209 1156.552490,287.477936 
	C1156.663696,298.608063 1157.373901,309.734741 1157.368652,320.862732 
	C1157.363281,332.490906 1156.572021,344.119049 1156.581421,355.746796 
	C1156.591797,368.375000 1157.395874,381.003326 1157.369629,393.630585 
	C1157.335693,409.925598 1156.611206,426.219177 1156.581055,442.514130 
	C1156.557129,455.474854 1157.330322,468.436066 1157.370361,481.398224 
	C1157.400024,491.025360 1156.804321,500.653870 1156.519897,510.282745 
	C1156.298462,517.773132 1157.982910,519.012817 1164.891235,519.004883 
	C1278.549072,518.874939 1392.207031,518.914124 1505.864990,518.901245 
	C1507.857178,518.901001 1509.849365,518.727112 1512.318359,518.764221 
	C1512.619263,518.707642 1512.920288,518.651001 1513.221191,518.594482 
	C1513.055542,518.374451 1512.889893,518.154419 1513.019287,517.384827 
	C1513.117432,516.982178 1513.215698,516.579468 1513.734619,515.446960 
	C1513.812622,514.455200 1513.958618,513.463501 1513.958862,512.471741 
	C1513.975708,435.045197 1513.984375,357.618683 1513.961304,280.192139 
	C1513.960815,278.734406 1513.572388,277.276825 1513.257690,275.218719 
	C1513.098145,274.845062 1512.938599,274.471375 1513.325195,273.644409 
	C1512.583130,273.104034 1511.842896,272.094208 1511.098877,272.091431 
	C1488.459473,272.006378 1465.819580,271.993011 1443.180542,272.111298 
	C1442.194458,272.116455 1441.215332,273.471802 1440.039307,274.516144 
	C1440.039307,274.516144 1439.886841,274.855621 1439.131226,275.127350 
	C1438.793823,276.669403 1438.162964,278.211182 1438.161499,279.753540 
	C1438.110718,333.627136 1438.106934,387.500793 1438.169434,441.374359 
	C1438.171631,443.282745 1438.914917,445.190277 1438.314941,447.088654 
M655.210999,586.606140 
	C655.144348,587.599426 655.019348,588.592773 655.019287,589.586060 
	C655.008728,689.970703 655.005249,790.355347 655.029663,890.739990 
	C655.029968,892.202026 655.386780,893.663940 655.699524,895.961243 
	C656.869263,896.944031 658.034973,898.778381 659.209229,898.783875 
	C682.089844,898.890869 704.971375,898.784546 728.675049,898.861023 
	C729.395081,897.171692 730.736450,895.484863 730.743225,893.792664 
	C730.873535,861.311096 730.847229,828.828979 730.853149,796.346924 
	C730.853455,794.547241 730.853149,792.747559 730.853149,790.978821 
	C765.020264,790.978821 798.775818,790.947876 832.531189,791.014709 
	C837.203064,791.023926 839.032532,788.985229 839.009583,784.386658 
	C838.909729,764.398193 838.992554,744.408813 838.950073,724.419983 
	C838.937744,718.605835 837.385254,717.159729 831.538574,717.158752 
	C798.114929,717.153381 764.691223,717.156128 730.860413,717.156128 
	C730.860413,715.631836 730.860718,714.164551 730.860352,712.697266 
	C730.856140,695.040344 731.031494,677.380432 730.732422,659.728516 
	C730.648621,654.783630 732.255615,653.715271 736.939270,653.736389 
	C777.748962,653.920227 818.559814,653.859619 859.370361,653.848022 
	C865.620056,653.846191 865.885254,653.538879 865.886719,647.393555 
	C865.891418,627.904297 865.886414,608.415100 865.885681,588.925842 
	C865.885315,581.096680 865.830627,581.031921 858.162537,581.031677 
	C792.698608,581.029419 727.234680,581.030151 661.770752,581.032227 
	C660.438538,581.032227 658.941711,580.691589 657.826782,581.191040 
	C656.953125,581.582397 656.552368,583.029358 655.781433,584.621277 
	C655.724243,585.040283 655.667053,585.459351 655.210999,586.606140 
M1512.301025,652.768921 
	C1511.867798,652.777710 1511.434570,652.786438 1510.158447,652.731140 
	C1508.471069,652.699463 1506.783691,652.667786 1504.452393,652.071167 
	C1485.687500,652.008545 1466.922729,651.937073 1448.157837,651.915527 
	C1447.403320,651.914673 1446.648438,652.385925 1444.991943,652.715210 
	C1441.360107,652.688904 1437.728394,652.662598 1433.452637,652.071350 
	C1414.354004,652.008362 1395.255371,651.936646 1376.156738,651.914673 
	C1375.402344,651.913757 1374.647461,652.385620 1372.997192,652.715027 
	C1369.696899,652.688782 1366.396729,652.662537 1362.451904,652.072266 
	C1344.020142,652.008972 1325.588501,651.936646 1307.156738,651.914490 
	C1306.402466,651.913574 1305.647583,652.384583 1303.985596,652.714355 
	C1300.022583,652.688416 1296.059692,652.662537 1291.452393,652.072144 
	C1273.354126,652.009216 1255.255737,651.937073 1237.157471,651.915466 
	C1236.403076,651.914612 1235.648315,652.385864 1233.982666,652.715393 
	C1229.687012,652.688171 1225.391479,652.661011 1220.451416,652.069458 
	C1202.354736,652.007263 1184.258057,651.935974 1166.161377,651.915039 
	C1165.406616,651.914124 1164.651489,652.383545 1163.197388,652.709778 
	C1162.494385,652.694824 1161.791382,652.679810 1160.544800,652.148865 
	C1156.789062,652.144165 1157.995972,655.074036 1157.994507,656.892151 
	C1157.933350,735.721191 1157.967407,814.550354 1157.884277,893.379395 
	C1157.879761,897.606934 1159.050415,899.106812 1163.548096,899.056091 
	C1184.710938,898.817505 1205.877808,898.956543 1227.043335,898.934814 
	C1228.481689,898.933289 1229.919800,898.718201 1232.017090,898.549377 
	C1232.017090,840.169434 1232.017090,782.110718 1232.017090,723.708740 
	C1254.412354,723.708740 1276.114990,723.708740 1298.051758,723.708740 
	C1298.051758,725.341248 1298.051636,726.828552 1298.051758,728.315796 
	C1298.058105,782.979248 1298.060913,837.642700 1298.075806,892.306152 
	C1298.077637,898.921570 1298.107788,898.942139 1304.720337,898.945679 
	C1324.885864,898.956543 1345.051392,898.950256 1365.216919,898.950073 
	C1373.160522,898.950012 1373.162720,898.949341 1373.161865,891.205627 
	C1373.156128,837.208496 1373.146729,783.211426 1373.153931,729.214294 
	C1373.154175,727.305054 1373.317261,725.395813 1373.404541,723.486694 
	C1395.488647,723.486694 1416.928345,723.486694 1438.956543,723.486694 
	C1439.087158,725.700134 1439.316895,727.788269 1439.317749,729.876465 
	C1439.337646,783.373596 1439.323975,836.870789 1439.369507,890.367920 
	C1439.371338,892.479797 1439.897949,894.591309 1440.126831,897.585144 
	C1440.879883,898.059326 1441.631592,898.945312 1442.386353,898.948059 
	C1464.998901,899.029602 1487.611694,899.051941 1510.223877,898.931396 
	C1511.154053,898.926453 1512.076416,897.450928 1513.238892,896.218567 
	C1513.294556,895.891052 1513.350220,895.563538 1513.825439,894.491211 
	C1513.904419,893.832336 1514.052734,893.173523 1514.052734,892.514648 
	C1514.050659,814.045227 1514.042969,735.575867 1513.979980,657.106506 
	C1513.978882,655.736572 1513.303711,654.367126 1512.301025,652.768921 
M913.089966,620.605042 
	C914.005859,621.064697 914.920410,621.922729 915.837830,621.925781 
	C938.460144,622.001160 961.083008,622.018005 983.704773,621.883057 
	C984.725159,621.876892 985.736572,620.350708 986.755127,618.654480 
	C986.755127,604.088196 986.755127,589.521851 986.755127,574.962280 
	C961.738281,574.962280 937.530273,574.962280 913.135193,574.962280 
	C913.135193,590.121887 913.135193,604.926025 913.089966,620.605042 
M913.071350,896.867249 
	C914.589722,897.541016 916.104675,898.792480 917.626892,898.801514 
	C939.100708,898.929016 960.575439,898.891907 982.049988,898.877625 
	C983.502686,898.876648 984.955322,898.739319 987.090637,898.630615 
	C987.090637,895.899414 987.090759,893.451904 987.090637,891.004395 
	C987.086365,816.592468 987.082214,742.180481 987.077759,667.768555 
	C987.077515,663.606934 987.187988,659.439819 986.986328,655.287964 
	C986.943237,654.400452 985.765503,653.568115 984.351074,652.776184 
	C961.355469,652.751770 938.359802,652.727356 914.879761,652.272888 
	C914.325623,652.619995 913.771423,652.967102 913.067383,654.328125 
	C913.047791,734.400513 913.027771,814.472839 913.015076,894.545227 
	C913.015015,895.040710 913.115112,895.536133 913.071350,896.867249 
M975.360046,274.203827 
	C974.650330,274.805054 974.029419,275.743225 973.217651,275.957123 
	C960.271484,279.368469 949.299866,286.376465 939.636353,295.277130 
	C927.912781,306.075287 920.005066,319.419678 914.637024,334.492249 
	C909.500061,348.915894 905.601440,363.456573 905.273926,378.865387 
	C905.220459,381.379669 902.572693,384.241241 903.208374,386.298157 
	C905.957031,395.191895 901.698486,404.368073 905.180420,413.339081 
	C907.080261,418.233887 906.310181,424.113678 907.144714,429.487030 
	C908.051636,435.325745 908.577026,441.438354 910.775757,446.815308 
	C914.857971,456.798401 919.077087,466.975006 925.031860,475.871185 
	C930.733093,484.388641 938.150818,492.008423 945.834229,498.882538 
	C954.874634,506.970825 965.871521,512.279846 977.779541,514.953125 
	C989.873718,517.668213 1002.049500,521.049622 1014.321106,521.715515 
	C1035.587646,522.869568 1056.979126,523.038147 1078.146606,519.121765 
	C1086.029419,517.663208 1094.051025,516.955811 1102.237793,515.875793 
	C1102.237793,493.007385 1102.237793,470.760834 1102.237793,448.243042 
	C1096.649414,448.606628 1091.300537,448.628357 1086.057617,449.384430 
	C1080.447876,450.193359 1074.985107,452.277435 1069.371338,452.730652 
	C1063.670288,453.190979 1057.864624,452.301300 1052.101440,452.093658 
	C1050.800171,452.046783 1049.449585,452.237030 1048.184692,452.562805 
	C1046.118408,453.095001 1044.122925,454.299744 1042.063843,454.382599 
	C1037.118408,454.581604 1031.754517,452.295288 1027.596558,452.624573 
	C1015.444763,453.586914 1004.696472,450.762451 994.681091,444.895844 
	C985.200134,439.342285 980.753357,430.260223 979.711731,418.841095 
	C1026.339966,418.841095 1072.411987,418.841095 1118.891724,418.841095 
	C1118.891724,407.454712 1118.891724,396.509460 1119.065552,384.555206 
	C1119.024170,381.075256 1119.180176,377.576904 1118.858643,374.123047 
	C1118.696899,372.386719 1117.667480,370.731171 1117.000122,368.299591 
	C1115.944092,363.062286 1114.912354,357.819946 1113.825195,352.589081 
	C1112.745483,347.393219 1112.298828,341.934113 1110.360229,337.074890 
	C1105.874390,325.830505 1101.233521,314.705353 1093.570801,304.928772 
	C1082.504761,290.810150 1068.481201,281.503571 1051.656738,276.040039 
	C1046.131714,274.245850 1040.519775,272.719482 1034.576660,270.406372 
	C1030.645264,269.966217 1026.713745,269.526093 1021.951050,269.033417 
	C1015.478271,269.055359 1009.005493,269.077271 1001.703552,268.983307 
	C997.832153,269.689148 993.960754,270.394989 989.456787,271.094696 
	C989.036682,271.124878 988.616638,271.155060 987.328430,271.095978 
	C983.598938,272.106964 979.869507,273.117950 975.360046,274.203827 
M1298.853027,1139.492432 
	C1298.992432,1146.154175 1299.262451,1152.816040 1299.249634,1159.477539 
	C1299.178833,1196.123291 1299.098511,1232.769531 1298.845947,1269.414429 
	C1298.814941,1273.910278 1300.112671,1275.621704 1304.797607,1275.577393 
	C1325.125732,1275.385132 1345.459106,1275.335205 1365.785400,1275.608276 
	C1370.803589,1275.675659 1372.312744,1274.324463 1372.297485,1269.203125 
	C1372.135010,1214.879395 1372.216431,1160.554810 1372.230591,1106.230469 
	C1372.230957,1104.603882 1372.230591,1102.977295 1372.230591,1101.265259 
	C1402.690552,1101.265259 1432.717529,1101.265259 1463.125122,1101.265259 
	C1463.125122,1159.442993 1463.125122,1217.203491 1463.125122,1275.149536 
	C1487.559204,1275.149536 1511.608521,1275.149536 1535.652588,1275.149536 
	C1535.652588,1193.578247 1535.652588,1112.355103 1535.652588,1031.266113 
	C1481.070312,1031.266113 1426.838867,1031.266113 1372.074951,1031.266113 
	C1372.074951,1005.159668 1372.074951,979.274780 1372.074951,953.369507 
	C1347.634277,953.369507 1323.727417,953.369507 1298.849854,953.369507 
	C1298.849854,1015.297791 1298.849854,1076.896362 1298.853027,1139.492432 
M656.640381,1241.499756 
	C656.678345,1251.162598 656.885559,1260.829224 656.673096,1270.486572 
	C656.585144,1274.486206 657.917786,1275.615723 661.855347,1275.581299 
	C682.011841,1275.404663 702.173523,1275.318115 722.326965,1275.623047 
	C727.551697,1275.702148 728.664368,1274.015625 728.653564,1269.080078 
	C728.484680,1191.780273 728.508423,1114.479980 728.487976,1037.179810 
	C728.487610,1035.594238 728.487976,1034.008667 728.487976,1032.564453 
	C756.075256,1032.564453 782.921570,1032.564453 809.908569,1032.564453 
	C809.908569,1010.804443 809.784546,989.482605 810.011658,968.164551 
	C810.057922,963.824341 808.602417,962.986877 804.600464,962.992737 
	C729.799255,963.102234 654.997742,963.071533 580.196350,963.082092 
	C578.614624,963.082336 577.032898,963.222656 575.492310,963.295654 
	C575.492310,986.814453 575.492310,1009.727478 575.492310,1032.764282 
	C602.551636,1032.764282 629.280029,1032.764282 656.640747,1032.764282 
	C656.640747,1102.033203 656.640747,1171.266479 656.640381,1241.499756 
M1037.047729,744.500000 
	C1037.047729,795.898315 1037.047729,847.296631 1037.047729,898.842896 
	C1062.618652,898.842896 1087.545166,898.842896 1112.678955,898.842896 
	C1112.678955,790.869995 1112.678955,683.056335 1112.678955,575.075073 
	C1087.435547,575.075073 1062.515137,575.075073 1037.046997,575.075073 
	C1037.046997,631.336914 1037.046997,687.418457 1037.047729,744.500000 
M988.552429,840.010010 
	C988.552429,850.985840 988.552429,861.961670 988.552429,872.937500 
	C988.688721,872.939514 988.825012,872.941528 988.961304,872.943542 
	C988.961304,862.173340 988.961304,851.403076 988.552429,840.010010 
M989.021790,728.963257 
	C989.021790,719.707825 989.021790,710.452393 989.021790,701.197021 
	C988.796814,701.204346 988.571777,701.211670 988.346802,701.218994 
	C988.346802,711.389771 988.346802,721.560547 988.346802,731.731262 
	C988.528442,731.731812 988.710022,731.732361 988.891663,731.732910 
	C988.934814,731.089478 988.977966,730.446045 989.021790,728.963257 
M987.968262,784.508484 
	C987.968262,790.285095 987.968262,796.061707 987.968262,801.838379 
	C988.206482,801.829041 988.444641,801.819702 988.682861,801.810364 
	C988.682861,791.600342 988.682861,781.390320 988.682861,771.180359 
	C988.444641,771.179382 988.206482,771.178406 987.968262,771.177429 
	C987.968262,775.289795 987.968262,779.402222 987.968262,784.508484 
z"/>
<path fill="#FDFDFE" opacity="1.000000" stroke="none" 
	d="
M1505.096313,652.636108 
	C1506.783691,652.667786 1508.471069,652.699463 1510.659058,653.247559 
	C1511.305908,655.913208 1511.579224,658.062256 1511.580078,660.211487 
	C1511.608887,736.182739 1511.612061,812.153931 1511.619019,888.125183 
	C1511.619263,890.581665 1511.619019,893.038208 1511.619019,895.767212 
	C1488.192627,895.767212 1465.132202,895.767212 1441.581177,895.767212 
	C1441.581177,893.688599 1441.581543,891.902893 1441.581299,890.117188 
	C1441.573486,836.137634 1441.567505,782.158020 1441.555664,728.178467 
	C1441.554199,721.468079 1441.539673,721.474976 1434.664795,721.476318 
	C1415.671997,721.480103 1396.676025,721.667908 1377.688477,721.350586 
	C1372.614258,721.265808 1371.243408,722.590759 1371.261963,727.700928 
	C1371.458984,781.846375 1371.397583,835.992798 1371.407349,890.138916 
	C1371.407715,891.926270 1371.407471,893.713623 1371.407471,895.702393 
	C1347.383667,895.702393 1323.845703,895.702393 1299.947998,895.702393 
	C1299.947998,893.542542 1299.948120,891.740356 1299.947998,889.938171 
	C1299.944580,835.791992 1299.880371,781.645691 1300.041260,727.500000 
	C1300.055786,722.629028 1298.618652,721.309326 1293.838501,721.370911 
	C1274.348999,721.622070 1254.854614,721.461182 1235.362061,721.504028 
	C1233.935791,721.507141 1232.510254,721.923157 1230.728760,722.373047 
	C1230.223389,724.573792 1229.943848,726.548584 1229.943115,728.523499 
	C1229.921509,784.351257 1229.927856,840.178955 1229.967773,896.003296 
	C1230.006104,895.999878 1230.000854,895.923157 1229.530640,895.939575 
	C1206.032593,895.955017 1183.004639,895.954041 1159.870605,895.497070 
	C1159.742676,816.134521 1159.711426,737.228088 1159.757812,658.321655 
	C1159.758911,656.435791 1160.625488,654.550415 1161.088379,652.664795 
	C1161.791382,652.679810 1162.494385,652.694824 1163.864746,652.948364 
	C1182.630737,653.248657 1200.729126,653.319336 1218.827637,653.340515 
	C1219.583496,653.341431 1220.339722,652.879944 1221.095825,652.633789 
	C1225.391479,652.661011 1229.687012,652.688171 1234.757080,652.951904 
	C1253.630249,653.250122 1271.728882,653.320923 1289.827637,653.342102 
	C1290.583740,653.343018 1291.340332,652.882263 1292.096680,652.636597 
	C1296.059692,652.662537 1300.022583,652.688416 1304.758423,652.950562 
	C1323.963013,653.248657 1342.394775,653.319458 1360.826538,653.341125 
	C1361.582886,653.342041 1362.339844,652.881775 1363.096436,652.636353 
	C1366.396729,652.662537 1369.696899,652.688782 1373.764404,652.951172 
	C1393.629761,653.248657 1412.728027,653.318481 1431.826172,653.340027 
	C1432.582764,653.340881 1433.339722,652.881409 1434.096558,652.636353 
	C1437.728394,652.662598 1441.360107,652.688904 1445.761719,652.951782 
	C1465.296387,653.249329 1484.061401,653.318970 1502.826294,653.339966 
	C1503.582764,653.340820 1504.339600,652.881226 1505.096313,652.636108 
z"/>
<path fill="#FDFDFE" opacity="1.000000" stroke="none" 
	d="
M675.873413,348.102783 
	C675.873413,348.102783 675.659241,347.706543 675.731812,347.184998 
	C674.845276,345.151947 673.526794,343.755676 672.997681,342.106201 
	C671.675598,337.984589 668.318359,337.643311 665.404968,338.710938 
	C664.043030,339.210022 663.031311,342.542908 663.026672,344.594086 
	C662.901062,400.091888 662.879211,455.590149 663.018066,511.087891 
	C663.029114,515.493958 662.169922,517.093262 657.336487,517.010071 
	C639.175964,516.697571 621.006775,516.888977 602.840820,516.891357 
	C599.217651,516.891846 595.594482,516.891357 591.735596,516.891357 
	C591.618896,515.259155 591.469727,514.145996 591.469604,513.032837 
	C591.462646,441.368713 591.486389,369.704620 591.463196,298.040497 
	C591.453308,267.543182 591.347473,237.045853 591.234375,206.636780 
	C591.183472,206.725052 591.405701,206.380814 591.901733,206.275192 
	C612.389648,206.145874 632.383606,206.279572 652.372070,206.005600 
	C658.622253,205.919922 664.391113,205.908325 667.844604,212.245132 
	C667.844604,212.245132 667.886597,212.117615 667.797363,212.486053 
	C668.794373,214.261566 669.880676,215.668640 670.966919,217.075745 
	C670.966919,217.075745 670.992065,217.010773 670.951782,217.382599 
	C673.240112,220.903564 675.568726,224.052689 677.897339,227.201828 
	C677.897278,227.201843 677.903198,227.068451 677.849182,227.449768 
	C680.728210,232.366608 683.600769,236.942657 686.607483,241.428772 
	C691.970154,249.430069 697.334045,257.432770 702.846741,265.330719 
	C708.162231,272.946228 713.666199,280.430145 719.087402,287.971863 
	C719.087402,287.971863 719.063660,287.941467 719.067383,288.288147 
	C722.325195,293.176514 725.579407,297.718170 728.833557,302.259827 
	C728.833557,302.259827 728.872864,302.128571 728.795715,302.508026 
	C731.453430,306.969116 734.188293,311.050781 736.923096,315.132446 
	C736.923096,315.132446 736.948303,315.053253 736.866028,315.418335 
	C738.490967,317.912567 740.198181,320.041687 741.905396,322.170776 
	C741.905396,322.170776 741.934753,322.075012 741.877563,322.451172 
	C743.898438,325.878510 745.976562,328.929657 748.054626,331.980835 
	C748.054626,331.980835 748.020813,331.980255 748.036621,332.323547 
	C749.605103,334.567200 751.157715,336.467590 752.710327,338.367950 
	C752.710327,338.367950 752.774231,338.224579 752.695435,338.621338 
	C753.752319,341.104767 754.696289,343.327637 756.062439,345.250641 
	C759.197632,349.663849 762.538574,353.930847 765.796021,358.257202 
	C765.796021,358.257202 765.870544,358.140350 765.730164,358.493713 
	C766.802246,360.248688 768.014709,361.650360 769.227173,363.052002 
	C769.285583,363.323120 769.437256,363.523743 769.869812,364.078278 
	C771.926086,367.126740 773.794800,369.750702 775.663513,372.374634 
	C775.663513,372.374634 775.788757,372.237885 775.752808,372.630554 
	C776.095947,373.754303 776.455200,374.496490 776.857300,375.214722 
	C782.075867,384.535553 783.718567,385.534943 791.368530,383.689270 
	C791.368530,324.726471 791.368530,265.655853 791.368530,206.392822 
	C815.037903,206.392822 838.267700,206.392822 861.625854,206.392822 
	C861.625854,310.044067 861.625854,413.362946 861.625854,517.031738 
	C859.376831,517.031738 857.562866,517.033264 855.748962,517.031555 
	C837.588623,517.013855 819.420227,516.677002 801.271973,517.136780 
	C794.158508,517.317017 788.337708,516.776672 785.505249,509.226166 
	C785.392151,508.924561 784.662354,508.854248 784.219910,508.676147 
	C784.219910,508.676147 784.195862,508.836853 784.252563,508.445923 
	C782.302368,505.271545 780.295471,502.488129 778.288574,499.704712 
	C778.288574,499.704712 778.137207,499.794373 778.211792,499.418396 
	C776.757446,496.566742 775.407776,493.955750 773.662720,491.643127 
	C769.889038,486.642090 765.912720,481.793976 762.019287,476.883331 
	C758.543762,471.140625 755.230347,465.292053 751.562744,459.674835 
	C739.961365,441.906830 728.267334,424.198914 716.510010,406.533752 
	C714.275696,403.176849 711.588257,400.121552 709.147583,396.259155 
	C706.605286,392.025818 704.025269,388.460449 701.445251,384.895081 
	C701.445251,384.895050 701.377563,384.646332 701.325195,384.264709 
	C699.640869,381.879700 698.008850,379.876312 696.376892,377.872894 
	C696.376892,377.872894 696.351746,377.717682 696.401550,377.342072 
	C695.798279,376.250854 695.145203,375.535248 694.492126,374.819641 
	C694.492126,374.819641 694.407898,374.628387 694.390625,374.250732 
	C693.301453,372.562592 692.229614,371.252106 691.157715,369.941650 
	C691.157715,369.941650 691.130249,369.876312 691.147766,369.528503 
	C690.264282,368.074371 689.363281,366.968079 688.462280,365.861755 
	C688.462280,365.861755 688.426819,365.607391 688.344849,365.198242 
	C686.603577,362.813599 684.944275,360.838074 683.284973,358.862549 
	C683.284973,358.862549 683.250366,358.762756 683.197144,358.382263 
	C680.720337,354.702118 678.296875,351.402466 675.873413,348.102783 
z"/>
<path fill="#FDFDFD" opacity="1.000000" stroke="none" 
	d="
M1298.851440,1138.993652 
	C1298.849854,1076.896362 1298.849854,1015.297791 1298.849854,953.369507 
	C1323.727417,953.369507 1347.634277,953.369507 1372.074951,953.369507 
	C1372.074951,979.274780 1372.074951,1005.159668 1372.074951,1031.266113 
	C1426.838867,1031.266113 1481.070312,1031.266113 1535.652588,1031.266113 
	C1535.652588,1112.355103 1535.652588,1193.578247 1535.652588,1275.149536 
	C1511.608521,1275.149536 1487.559204,1275.149536 1463.125122,1275.149536 
	C1463.125122,1217.203491 1463.125122,1159.442993 1463.125122,1101.265259 
	C1432.717529,1101.265259 1402.690552,1101.265259 1372.230591,1101.265259 
	C1372.230591,1102.977295 1372.230957,1104.603882 1372.230591,1106.230469 
	C1372.216431,1160.554810 1372.135010,1214.879395 1372.297485,1269.203125 
	C1372.312744,1274.324463 1370.803589,1275.675659 1365.785400,1275.608276 
	C1345.459106,1275.335205 1325.125732,1275.385132 1304.797607,1275.577393 
	C1300.112671,1275.621704 1298.814941,1273.910278 1298.845947,1269.414429 
	C1299.098511,1232.769531 1299.178833,1196.123291 1299.249634,1159.477539 
	C1299.262451,1152.816040 1298.992432,1146.154175 1298.851440,1138.993652 
z"/>
<path fill="#FCFCFE" opacity="1.000000" stroke="none" 
	d="
M988.196533,271.185211 
	C988.616638,271.155060 989.036682,271.124878 990.106567,271.304016 
	C993.558777,271.567535 996.392090,271.882538 999.149231,271.555573 
	C1000.357239,271.412323 1001.409668,269.958130 1002.532715,269.099182 
	C1009.005493,269.077271 1015.478271,269.055359 1022.486328,269.427856 
	C1026.666382,273.397125 1030.877808,271.556854 1034.947510,271.070618 
	C1040.519775,272.719482 1046.131714,274.245850 1051.656738,276.040039 
	C1068.481201,281.503571 1082.504761,290.810150 1093.570801,304.928772 
	C1101.233521,314.705353 1105.874390,325.830505 1110.360229,337.074890 
	C1112.298828,341.934113 1112.745483,347.393219 1113.825195,352.589081 
	C1114.912354,357.819946 1115.944092,363.062286 1116.870605,369.111877 
	C1116.736694,373.691833 1116.531128,377.475433 1116.827026,381.219391 
	C1116.945068,382.712769 1118.170410,384.118591 1118.891724,385.564240 
	C1118.891724,396.509460 1118.891724,407.454712 1118.891724,418.841095 
	C1072.411987,418.841095 1026.339966,418.841095 979.711731,418.841095 
	C980.753357,430.260223 985.200134,439.342285 994.681091,444.895844 
	C1004.696472,450.762451 1015.444763,453.586914 1027.596558,452.624573 
	C1031.754517,452.295288 1037.118408,454.581604 1042.063843,454.382599 
	C1044.122925,454.299744 1046.118408,453.095001 1048.184692,452.562805 
	C1049.449585,452.237030 1050.800171,452.046783 1052.101440,452.093658 
	C1057.864624,452.301300 1063.670288,453.190979 1069.371338,452.730652 
	C1074.985107,452.277435 1080.447876,450.193359 1086.057617,449.384430 
	C1091.300537,448.628357 1096.649414,448.606628 1102.237793,448.243042 
	C1102.237793,470.760834 1102.237793,493.007385 1102.237793,515.875793 
	C1094.051025,516.955811 1086.029419,517.663208 1078.146606,519.121765 
	C1056.979126,523.038147 1035.587646,522.869568 1014.321106,521.715515 
	C1002.049500,521.049622 989.873718,517.668213 977.779541,514.953125 
	C965.871521,512.279846 954.874634,506.970825 945.834229,498.882538 
	C938.150818,492.008423 930.733093,484.388641 925.031860,475.871185 
	C919.077087,466.975006 914.857971,456.798401 910.775757,446.815308 
	C908.577026,441.438354 908.051636,435.325745 907.144714,429.487030 
	C906.310181,424.113678 907.080261,418.233887 905.180420,413.339081 
	C901.698486,404.368073 905.957031,395.191895 903.208374,386.298157 
	C902.572693,384.241241 905.220459,381.379669 905.273926,378.865387 
	C905.601440,363.456573 909.500061,348.915894 914.637024,334.492249 
	C920.005066,319.419678 927.912781,306.075287 939.636353,295.277130 
	C949.299866,286.376465 960.271484,279.368469 973.217651,275.957123 
	C974.029419,275.743225 974.650330,274.805054 975.991699,274.412720 
	C980.231873,274.061829 983.848511,273.545654 987.435791,272.872681 
	C987.782715,272.807587 987.947327,271.770905 988.196533,271.185211 
M1035.012085,346.461945 
	C1026.382324,338.197815 1006.233521,334.806580 990.394592,343.826965 
	C983.996887,347.470520 975.660095,363.760712 977.401184,372.814453 
	C1000.046509,372.814453 1022.713135,372.814453 1045.830322,372.814453 
	C1045.174927,370.223602 1044.475464,368.100220 1044.116333,365.920807 
	C1042.946045,358.818298 1040.893311,352.145660 1035.012085,346.461945 
z"/>
<path fill="#FCFCFE" opacity="1.000000" stroke="none" 
	d="
M799.032471,1187.157471 
	C798.447205,1170.116089 796.652222,1153.007935 797.590576,1136.050781 
	C798.701660,1115.973633 802.908264,1096.133301 812.406921,1078.067261 
	C821.743408,1060.309570 835.716553,1047.041626 853.847473,1038.208496 
	C861.949768,1034.261108 870.234375,1031.041138 879.265747,1030.064697 
	C884.839417,1029.462036 890.993286,1030.107910 895.822510,1027.883179 
	C900.764526,1025.606567 905.330688,1026.512451 910.702271,1026.411865 
	C915.495728,1030.789917 920.328857,1028.467041 924.944275,1028.197632 
	C927.943176,1028.812134 930.942078,1029.426636 934.598206,1030.312500 
	C936.080200,1031.043945 936.853149,1031.692505 937.737610,1031.935913 
	C949.774841,1035.249268 961.197388,1040.099731 970.763367,1048.125732 
	C987.444702,1062.121094 999.105957,1079.189209 1004.095093,1101.028198 
	C1007.764587,1117.090332 1010.475220,1133.029663 1010.028320,1149.484375 
	C1009.789856,1158.259644 1009.574951,1167.035522 1008.847229,1175.787598 
	C964.991821,1175.773682 921.638672,1175.780029 878.285461,1175.804443 
	C876.468689,1175.805542 874.652039,1175.977051 872.477905,1176.103027 
	C871.910339,1183.441528 873.529724,1190.093140 878.988525,1195.374023 
	C879.247253,1195.776733 879.506042,1196.179443 879.982056,1197.025391 
	C880.855774,1197.901733 881.512207,1198.334717 882.168640,1198.767700 
	C882.830811,1199.461548 883.492920,1200.155396 884.459717,1201.345581 
	C890.957153,1207.979858 899.186707,1209.653564 907.156128,1210.618408 
	C918.118408,1211.945435 929.255615,1212.012451 940.324158,1212.167725 
	C943.774231,1212.216187 947.244812,1210.802124 950.705994,1210.057495 
	C951.208679,1210.142944 951.711365,1210.228394 952.934692,1210.489990 
	C966.985596,1209.604858 980.315979,1208.543701 993.929321,1207.459961 
	C993.902527,1207.355469 994.199585,1207.975708 994.200500,1208.596313 
	C994.230469,1229.050415 994.308655,1249.505493 994.076233,1269.957031 
	C994.059631,1271.414673 991.964905,1273.715332 990.436157,1274.123047 
	C986.210022,1275.249878 981.789001,1275.758667 977.413269,1276.186279 
	C970.535217,1276.858521 963.625671,1277.206299 956.744019,1277.847412 
	C955.758484,1277.938965 954.854065,1278.901367 953.912109,1279.460938 
	C952.790283,1279.503662 951.668396,1279.546387 949.828613,1279.461670 
	C938.708252,1279.344849 928.305237,1279.300171 917.903442,1279.389282 
	C912.668396,1279.434204 907.435425,1279.721802 902.201477,1279.899658 
	C901.441284,1279.744263 900.681091,1279.588989 899.401733,1278.975830 
	C894.242737,1277.758179 889.527161,1277.302612 884.979553,1276.171875 
	C876.846924,1274.149658 868.585693,1272.318970 860.793396,1269.326904 
	C847.732483,1264.311890 836.508850,1256.156250 826.235840,1246.708008 
	C826.235840,1246.708008 826.161804,1246.840942 826.115967,1246.471436 
	C823.496338,1242.333252 821.084656,1238.440796 818.318665,1234.819092 
	C809.830627,1223.705200 805.443665,1210.869141 802.173523,1197.509888 
	C801.317322,1194.012329 800.089600,1190.605835 799.032471,1187.157471 
M871.854980,1117.414673 
	C871.275024,1121.942993 868.306458,1126.409302 871.299500,1130.956543 
	C893.269775,1130.956543 915.037964,1130.956543 936.784058,1130.956543 
	C938.424683,1115.736328 931.665833,1100.825073 912.160583,1096.487793 
	C897.174866,1093.155396 878.883606,1096.419922 871.854980,1117.414673 
z"/>
<path fill="#FCFCFE" opacity="1.000000" stroke="none" 
	d="
M1192.139771,1130.532349 
	C1192.191772,1130.216797 1192.211060,1129.899170 1192.375977,1129.013184 
	C1191.402588,1124.508545 1190.250854,1120.570190 1189.099121,1116.631958 
	C1186.119995,1108.147949 1181.745239,1102.076294 1171.993164,1099.122925 
	C1164.615723,1096.888672 1157.558838,1095.659180 1150.187744,1096.116333 
	C1141.209961,1096.673340 1132.747437,1099.465088 1126.081543,1105.809082 
	C1123.861328,1107.922119 1122.503906,1111.080688 1121.164551,1113.953735 
	C1117.587280,1121.627075 1114.881592,1129.553101 1115.221436,1138.218140 
	C1115.514160,1145.682251 1115.860229,1153.148682 1115.922729,1160.616089 
	C1115.967163,1165.912109 1115.436401,1171.212524 1115.469238,1176.509155 
	C1115.479370,1178.141846 1116.500610,1179.768066 1116.957275,1182.020996 
	C1117.416138,1184.584351 1118.183960,1186.490845 1118.501465,1188.469482 
	C1119.932007,1197.384521 1125.572632,1203.282593 1133.010864,1207.211060 
	C1145.293579,1213.697754 1158.427979,1213.273193 1171.482544,1209.895508 
	C1174.251953,1209.178833 1176.568604,1206.712280 1179.093872,1205.052002 
	C1179.093872,1205.052002 1179.022949,1205.012573 1179.397461,1205.042480 
	C1182.171875,1202.302246 1184.571777,1199.531982 1186.971680,1196.761719 
	C1186.971680,1196.761719 1187.144287,1196.496704 1187.364990,1196.094482 
	C1191.226318,1190.677979 1192.491089,1185.044067 1191.953613,1178.940186 
	C1192.719727,1176.362183 1193.485962,1173.784180 1194.320557,1170.976074 
	C1217.694580,1170.976074 1241.133057,1170.976074 1264.747192,1170.976074 
	C1265.093384,1176.314209 1266.749146,1181.865234 1265.522949,1186.682739 
	C1261.839355,1201.155029 1258.588135,1216.029541 1250.681030,1228.897461 
	C1243.564087,1240.479492 1235.301514,1251.304077 1224.118164,1259.646851 
	C1201.523560,1276.502319 1175.732422,1280.906494 1148.445923,1279.999756 
	C1130.801025,1279.413452 1113.957153,1275.788086 1098.091553,1267.656616 
	C1082.371582,1259.599487 1070.867554,1247.264526 1062.042969,1232.447998 
	C1056.790649,1223.629395 1052.453613,1214.165405 1048.678955,1204.606934 
	C1046.625732,1199.407715 1046.620117,1193.402466 1045.669922,1187.764282 
	C1044.484863,1180.732544 1043.109375,1173.726929 1042.165649,1166.663330 
	C1041.799316,1163.921631 1042.412964,1161.053345 1042.536743,1158.240845 
	C1043.004028,1147.615234 1042.811279,1136.908813 1044.120117,1126.388794 
	C1045.104614,1118.475952 1048.042725,1110.810913 1050.041748,1103.017700 
	C1051.180542,1098.577515 1051.311523,1093.631226 1053.421021,1089.739014 
	C1057.909546,1081.456909 1062.803467,1073.251099 1068.608154,1065.859497 
	C1077.216675,1054.897217 1087.703369,1045.762817 1100.305664,1039.464478 
	C1105.005127,1037.115845 1109.941528,1035.126343 1114.950195,1033.543823 
	C1119.828247,1032.002441 1124.952759,1031.254761 1129.934326,1030.018921 
	C1131.394043,1029.656860 1132.735352,1028.818115 1134.870972,1028.476562 
	C1139.002808,1028.761719 1142.424072,1029.028320 1145.772339,1028.649414 
	C1147.157715,1028.492676 1148.386719,1026.952515 1149.686890,1026.041504 
	C1159.181396,1027.329224 1168.692505,1028.507202 1178.164307,1029.944702 
	C1184.044067,1030.837036 1190.056274,1031.539307 1195.660278,1033.385620 
	C1202.095215,1035.505615 1208.585327,1038.110596 1214.249512,1041.752319 
	C1221.241577,1046.247681 1227.830200,1051.587280 1233.838501,1057.349121 
	C1244.692261,1067.757690 1252.382568,1080.278564 1257.483765,1094.568481 
	C1259.370361,1099.853760 1261.404053,1104.963257 1262.133911,1110.546387 
	C1262.214844,1111.164917 1263.164795,1111.669800 1263.554077,1112.911133 
	C1263.316650,1116.581665 1261.652222,1119.937378 1265.363525,1122.040894 
	C1265.289917,1122.401978 1265.216431,1122.763184 1264.972656,1123.870117 
	C1264.802246,1128.557007 1264.802246,1132.498169 1264.802246,1136.710205 
	C1241.027954,1136.710205 1217.863281,1136.710205 1195.296997,1136.710205 
	C1194.084717,1134.338013 1193.112183,1132.435181 1192.139771,1130.532349 
z"/>
<path fill="#FCFCFE" opacity="1.000000" stroke="none" 
	d="
M656.640564,1240.999756 
	C656.640747,1171.266479 656.640747,1102.033203 656.640747,1032.764282 
	C629.280029,1032.764282 602.551636,1032.764282 575.492310,1032.764282 
	C575.492310,1009.727478 575.492310,986.814453 575.492310,963.295654 
	C577.032898,963.222656 578.614624,963.082336 580.196350,963.082092 
	C654.997742,963.071533 729.799255,963.102234 804.600464,962.992737 
	C808.602417,962.986877 810.057922,963.824341 810.011658,968.164551 
	C809.784546,989.482605 809.908569,1010.804443 809.908569,1032.564453 
	C782.921570,1032.564453 756.075256,1032.564453 728.487976,1032.564453 
	C728.487976,1034.008667 728.487610,1035.594238 728.487976,1037.179810 
	C728.508423,1114.479980 728.484680,1191.780273 728.653564,1269.080078 
	C728.664368,1274.015625 727.551697,1275.702148 722.326965,1275.623047 
	C702.173523,1275.318115 682.011841,1275.404663 661.855347,1275.581299 
	C657.917786,1275.615723 656.585144,1274.486206 656.673096,1270.486572 
	C656.885559,1260.829224 656.678345,1251.162598 656.640564,1240.999756 
z"/>
<path fill="#FEFEFE" opacity="1.000000" stroke="none" 
	d="
M1037.047363,744.000000 
	C1037.046997,687.418457 1037.046997,631.336914 1037.046997,575.075073 
	C1062.515137,575.075073 1087.435547,575.075073 1112.678955,575.075073 
	C1112.678955,683.056335 1112.678955,790.869995 1112.678955,898.842896 
	C1087.545166,898.842896 1062.618652,898.842896 1037.047729,898.842896 
	C1037.047729,847.296631 1037.047729,795.898315 1037.047363,744.000000 
z"/>
<path fill="#FDFDFE" opacity="1.000000" stroke="none" 
	d="
M915.364197,652.702881 
	C938.359802,652.727356 961.355469,652.751770 984.976013,653.114624 
	C985.891663,655.552551 986.435486,657.651917 986.436401,659.751526 
	C986.471436,736.545288 986.456055,813.339050 986.447632,890.132812 
	C986.447449,891.924683 986.447632,893.716614 986.447632,896.031616 
	C961.717590,896.031616 937.442932,896.031616 913.168335,896.031616 
	C913.115112,895.536133 913.015015,895.040710 913.015076,894.545227 
	C913.027771,814.472839 913.047791,734.400513 913.378906,653.867371 
	C914.248291,653.172058 914.806274,652.937500 915.364197,652.702881 
z"/>
<path fill="#FCFCFE" opacity="1.000000" stroke="none" 
	d="
M913.135193,619.730225 
	C913.135193,604.926025 913.135193,590.121887 913.135193,574.962280 
	C937.530273,574.962280 961.738281,574.962280 986.755127,574.962280 
	C986.755127,589.521851 986.755127,604.088196 986.303589,619.158081 
	C961.613159,619.684448 937.374146,619.707336 913.135193,619.730225 
z"/>
<path fill="#47479C" opacity="1.000000" stroke="none" 
	d="
M1160.816650,652.406860 
	C1160.625488,654.550415 1159.758911,656.435791 1159.757812,658.321655 
	C1159.711426,737.228088 1159.742676,816.134521 1160.137939,895.832886 
	C1161.306274,896.795715 1162.100708,897.114929 1162.895752,897.115967 
	C1184.095093,897.143677 1205.294434,897.157837 1226.493530,897.087097 
	C1227.663940,897.083191 1228.831787,896.328430 1230.000854,895.923157 
	C1230.000854,895.923157 1230.006104,895.999878 1230.281006,895.723022 
	C1230.699463,893.471863 1230.966431,891.497620 1230.968384,889.523132 
	C1231.023438,833.731140 1231.051758,777.939148 1231.084473,722.147156 
	C1232.510254,721.923157 1233.935791,721.507141 1235.362061,721.504028 
	C1254.854614,721.461182 1274.348999,721.622070 1293.838501,721.370911 
	C1298.618652,721.309326 1300.055786,722.629028 1300.041260,727.500000 
	C1299.880371,781.645691 1299.944580,835.791992 1299.947998,889.938171 
	C1299.948120,891.740356 1299.947998,893.542542 1299.947998,895.702393 
	C1323.845703,895.702393 1347.383667,895.702393 1371.407471,895.702393 
	C1371.407471,893.713623 1371.407715,891.926270 1371.407349,890.138916 
	C1371.397583,835.992798 1371.458984,781.846375 1371.261963,727.700928 
	C1371.243408,722.590759 1372.614258,721.265808 1377.688477,721.350586 
	C1396.676025,721.667908 1415.671997,721.480103 1434.664795,721.476318 
	C1441.539673,721.474976 1441.554199,721.468079 1441.555664,728.178467 
	C1441.567505,782.158020 1441.573486,836.137634 1441.581299,890.117188 
	C1441.581543,891.902893 1441.581177,893.688599 1441.581177,895.767212 
	C1465.132202,895.767212 1488.192627,895.767212 1511.619019,895.767212 
	C1511.619019,893.038208 1511.619263,890.581665 1511.619019,888.125183 
	C1511.612061,812.153931 1511.608887,736.182739 1511.580078,660.211487 
	C1511.579224,658.062256 1511.305908,655.913208 1511.080566,653.279602 
	C1511.434570,652.786438 1511.867798,652.777710 1512.650879,653.351868 
	C1513.025269,732.046448 1513.046875,810.158142 1513.088135,888.269775 
	C1513.089355,890.591919 1513.295410,892.913940 1513.406006,895.236023 
	C1513.350220,895.563538 1513.294556,895.891052 1512.653931,896.518555 
	C1488.106079,896.780090 1464.143066,896.741577 1440.180176,896.703003 
	C1439.897949,894.591309 1439.371338,892.479797 1439.369507,890.367920 
	C1439.323975,836.870789 1439.337646,783.373596 1439.317749,729.876465 
	C1439.316895,727.788269 1439.087158,725.700134 1438.956543,723.486694 
	C1416.928345,723.486694 1395.488647,723.486694 1373.404541,723.486694 
	C1373.317261,725.395813 1373.154175,727.305054 1373.153931,729.214294 
	C1373.146729,783.211426 1373.156128,837.208496 1373.161865,891.205627 
	C1373.162720,898.949341 1373.160522,898.950012 1365.216919,898.950073 
	C1345.051392,898.950256 1324.885864,898.956543 1304.720337,898.945679 
	C1298.107788,898.942139 1298.077637,898.921570 1298.075806,892.306152 
	C1298.060913,837.642700 1298.058105,782.979248 1298.051758,728.315796 
	C1298.051636,726.828552 1298.051758,725.341248 1298.051758,723.708740 
	C1276.114990,723.708740 1254.412354,723.708740 1232.017090,723.708740 
	C1232.017090,782.110718 1232.017090,840.169434 1232.017090,898.549377 
	C1229.919800,898.718201 1228.481689,898.933289 1227.043335,898.934814 
	C1205.877808,898.956543 1184.710938,898.817505 1163.548096,899.056091 
	C1159.050415,899.106812 1157.879761,897.606934 1157.884277,893.379395 
	C1157.967407,814.550354 1157.933350,735.721191 1157.994507,656.892151 
	C1157.995972,655.074036 1156.789062,652.144165 1160.816650,652.406860 
z"/>
<path fill="#1A1A67" opacity="1.000000" stroke="none" 
	d="
M655.941528,584.007324 
	C656.552368,583.029358 656.953125,581.582397 657.826782,581.191040 
	C658.941711,580.691589 660.438538,581.032227 661.770752,581.032227 
	C727.234680,581.030151 792.698608,581.029419 858.162537,581.031677 
	C865.830627,581.031921 865.885315,581.096680 865.885681,588.925842 
	C865.886414,608.415100 865.891418,627.904297 865.886719,647.393555 
	C865.885254,653.538879 865.620056,653.846191 859.370361,653.848022 
	C818.559814,653.859619 777.748962,653.920227 736.939270,653.736389 
	C732.255615,653.715271 730.648621,654.783630 730.732422,659.728516 
	C731.031494,677.380432 730.856140,695.040344 730.860352,712.697266 
	C730.860718,714.164551 730.860413,715.631836 730.860413,717.156128 
	C764.691223,717.156128 798.114929,717.153381 831.538574,717.158752 
	C837.385254,717.159729 838.937744,718.605835 838.950073,724.419983 
	C838.992554,744.408813 838.909729,764.398193 839.009583,784.386658 
	C839.032532,788.985229 837.203064,791.023926 832.531189,791.014709 
	C798.775818,790.947876 765.020264,790.978821 730.853149,790.978821 
	C730.853149,792.747559 730.853455,794.547241 730.853149,796.346924 
	C730.847229,828.828979 730.873535,861.311096 730.743225,893.792664 
	C730.736450,895.484863 729.395081,897.171692 728.265991,898.431030 
	C727.877991,897.280701 727.898987,896.560364 727.994995,895.450195 
	C728.115601,861.732422 728.256226,828.404175 728.101868,795.077209 
	C728.079346,790.211487 729.078247,788.511780 734.370728,788.557251 
	C766.197266,788.831238 798.027344,788.703125 829.856201,788.709534 
	C831.819153,788.709900 833.782166,788.709534 836.032715,788.709534 
	C836.032715,765.724304 836.032715,743.179077 836.032715,720.307556 
	C833.822632,720.307556 832.006836,720.308716 830.190979,720.307434 
	C797.862305,720.283997 765.533325,720.197388 733.205200,720.319763 
	C729.341797,720.334351 728.011719,719.435120 728.055298,715.351624 
	C728.257690,696.356567 728.122009,677.358154 728.132690,658.360901 
	C728.136597,651.440674 728.168701,651.437378 735.102905,651.439148 
	C775.763733,651.449463 816.424561,651.466248 857.085388,651.467834 
	C863.682312,651.468079 863.682983,651.437866 863.678406,644.612488 
	C863.666443,626.615173 863.471130,608.614868 863.760071,590.622375 
	C863.840088,585.643005 862.643433,584.123230 857.448059,584.143433 
	C802.456848,584.357361 747.464478,584.295105 692.472473,584.324707 
	C680.981201,584.330933 669.489929,584.401306 657.788391,584.266541 
	C657.032593,584.063110 656.487061,584.035217 655.941528,584.007324 
z"/>
<path fill="#3D3DA9" opacity="1.000000" stroke="none" 
	d="
M1513.313843,516.176819 
	C1513.215698,516.579468 1513.117432,516.982178 1512.683838,517.715576 
	C1512.111572,518.183594 1511.942627,518.379578 1511.841553,518.634216 
	C1509.849365,518.727112 1507.857178,518.901001 1505.864990,518.901245 
	C1392.207031,518.914124 1278.549072,518.874939 1164.891235,519.004883 
	C1157.982910,519.012817 1156.298462,517.773132 1156.519897,510.282745 
	C1156.804321,500.653870 1157.400024,491.025360 1157.370361,481.398224 
	C1157.330322,468.436066 1156.557129,455.474854 1156.581055,442.514130 
	C1156.611206,426.219177 1157.335693,409.925598 1157.369629,393.630585 
	C1157.395874,381.003326 1156.591797,368.375000 1156.581421,355.746796 
	C1156.572021,344.119049 1157.363281,332.490906 1157.368652,320.862732 
	C1157.373901,309.734741 1156.663696,298.608063 1156.552490,287.477936 
	C1156.399902,272.189209 1156.514404,272.265442 1171.643677,272.326111 
	C1191.299683,272.404968 1210.956421,272.345398 1231.326050,272.345398 
	C1231.525391,274.836700 1231.881714,277.222015 1231.882935,279.607544 
	C1231.912964,333.769989 1231.902344,387.932434 1231.910034,442.094879 
	C1231.910278,443.756683 1232.025513,445.418518 1232.166504,447.675598 
	C1232.108765,448.610260 1231.971802,448.949677 1231.483398,449.167847 
	C1230.673218,447.511414 1229.816406,445.976532 1229.814819,444.440796 
	C1229.780396,411.120483 1229.852051,377.800049 1229.880127,344.479645 
	C1229.899536,321.509644 1229.884033,298.539642 1229.884033,275.347076 
	C1206.326904,275.347076 1183.125732,275.347076 1160.054810,275.347076 
	C1160.054810,355.967621 1160.054810,436.171173 1160.054810,516.598022 
	C1277.350830,516.598022 1394.228271,516.598022 1511.367920,516.598022 
	C1511.367920,436.001617 1511.367920,355.761078 1511.367920,274.645935 
	C1504.095459,274.645935 1496.980469,274.645935 1490.223145,274.421234 
	C1497.980103,274.163605 1505.379517,274.130646 1512.779053,274.097687 
	C1512.938599,274.471375 1513.098145,274.845062 1513.199463,275.991669 
	C1513.108276,277.429962 1513.046143,278.095337 1513.046143,278.760681 
	C1513.039673,356.573517 1513.036377,434.386383 1513.047363,512.199219 
	C1513.047485,513.525085 1513.221069,514.850952 1513.313843,516.176819 
z"/>
<path fill="#1A1AA8" opacity="1.000000" stroke="none" 
	d="
M784.193909,509.057098 
	C784.662354,508.854248 785.392151,508.924561 785.505249,509.226166 
	C788.337708,516.776672 794.158508,517.317017 801.271973,517.136780 
	C819.420227,516.677002 837.588623,517.013855 855.748962,517.031555 
	C857.562866,517.033264 859.376831,517.031738 861.625854,517.031738 
	C861.625854,413.362946 861.625854,310.044067 861.625854,206.392822 
	C838.267700,206.392822 815.037903,206.392822 791.368530,206.392822 
	C791.368530,265.655853 791.368530,324.726471 791.368530,383.689270 
	C783.718567,385.534943 782.075867,384.535553 776.857300,375.214722 
	C776.455200,374.496490 776.095947,373.754303 775.666382,372.664246 
	C777.588379,374.545776 779.359741,377.018616 781.595825,378.954651 
	C783.443542,380.554352 785.840637,381.519714 789.178101,383.451324 
	C789.178101,322.682739 789.178101,263.798492 789.178101,204.473679 
	C814.540405,204.473679 839.392944,204.473679 864.632935,204.473679 
	C864.632935,309.160553 864.632935,413.646942 864.632935,518.632996 
	C862.418396,518.750732 860.313843,518.957397 858.209045,518.959839 
	C838.057129,518.983459 817.905151,518.972656 797.753235,518.971619 
	C789.485046,518.971191 787.545715,517.610107 784.193909,509.057098 
z"/>
<path fill="#525279" opacity="1.000000" stroke="none" 
	d="
M591.285217,206.548523 
	C591.347473,237.045853 591.453308,267.543182 591.463196,298.040497 
	C591.486389,369.704620 591.462646,441.368713 591.469604,513.032837 
	C591.469727,514.145996 591.618896,515.259155 591.735596,516.891357 
	C595.594482,516.891357 599.217651,516.891846 602.840820,516.891357 
	C621.006775,516.888977 639.175964,516.697571 657.336487,517.010071 
	C662.169922,517.093262 663.029114,515.493958 663.018066,511.087891 
	C662.879211,455.590149 662.901062,400.091888 663.026672,344.594086 
	C663.031311,342.542908 664.043030,339.210022 665.404968,338.710938 
	C668.318359,337.643311 671.675598,337.984589 672.997681,342.106201 
	C673.526794,343.755676 674.845276,345.151947 675.614868,346.992584 
	C674.279297,346.207397 673.217102,344.986481 671.967163,344.004486 
	C670.201355,342.617188 668.296814,341.406525 666.451538,340.120361 
	C665.956909,340.502869 665.462219,340.885376 664.967590,341.267883 
	C664.967590,343.214050 664.967529,345.160248 664.967590,347.106415 
	C664.967651,402.045288 664.968628,456.984131 664.966675,511.923004 
	C664.966431,518.892334 664.959106,518.908203 658.024048,518.911072 
	C637.380371,518.919617 616.736267,518.974365 596.093689,518.822388 
	C594.052429,518.807434 592.020691,517.496399 589.934814,515.932373 
	C589.892151,512.581299 589.905640,510.084839 589.905640,507.588348 
	C589.906311,409.058716 589.897217,310.529083 589.970581,211.999496 
	C589.971985,210.146957 590.948608,208.295151 591.455139,206.481018 
	C591.440063,206.519058 591.285217,206.548523 591.285217,206.548523 
z"/>
<path fill="#525279" opacity="1.000000" stroke="none" 
	d="
M1297.865845,447.020569 
	C1297.903320,398.710449 1297.940674,350.400330 1297.978394,302.090210 
	C1297.984619,294.093842 1298.075562,286.096313 1297.965088,278.101562 
	C1297.907349,273.925079 1299.486694,272.182159 1303.879272,272.213684 
	C1325.201660,272.366821 1346.525879,272.324127 1367.848999,272.237823 
	C1372.074829,272.220703 1373.872437,273.990356 1373.869019,278.192413 
	C1373.823975,332.834167 1373.838013,387.475983 1373.792358,442.117737 
	C1373.791138,443.560699 1373.284668,445.003296 1372.833496,447.070435 
	C1372.451172,447.947327 1372.188721,448.082092 1371.698730,447.719482 
	C1371.531860,389.998749 1371.531860,332.657593 1371.531860,275.248291 
	C1347.248779,275.248291 1323.851440,275.248291 1299.959595,275.248291 
	C1299.959595,277.155365 1299.959717,278.777161 1299.959595,280.398987 
	C1299.953979,334.510254 1299.953003,388.621552 1299.921143,442.732819 
	C1299.920044,444.526886 1299.605225,446.320740 1299.121826,448.020996 
	C1298.493408,447.625061 1298.179565,447.322815 1297.865845,447.020569 
z"/>
<path fill="#3131D5" opacity="1.000000" stroke="none" 
	d="
M655.861450,584.314331 
	C656.487061,584.035217 657.032593,584.063110 657.666382,584.760132 
	C657.691040,587.091492 657.572266,588.753784 657.571777,590.416077 
	C657.543518,690.705566 657.523926,790.994995 657.515991,891.284485 
	C657.515930,892.729126 657.673279,894.173767 657.770020,895.840088 
	C681.358948,895.840088 704.639465,895.840088 727.920044,895.840088 
	C727.898987,896.560364 727.877991,897.280701 727.854858,898.361450 
	C704.971375,898.784546 682.089844,898.890869 659.209229,898.783875 
	C658.034973,898.778381 656.869263,896.944031 655.777954,895.083557 
	C655.893982,893.207642 655.964417,892.209473 655.964478,891.211243 
	C655.973999,790.919067 655.979858,690.626892 655.967285,590.334717 
	C655.967102,588.849243 655.734192,587.363831 655.609863,585.878357 
	C655.667053,585.459351 655.724243,585.040283 655.861450,584.314331 
z"/>
<path fill="#1A1A67" opacity="1.000000" stroke="none" 
	d="
M1009.349426,1175.811157 
	C1009.574951,1167.035522 1009.789856,1158.259644 1010.028320,1149.484375 
	C1010.475220,1133.029663 1007.764587,1117.090332 1004.095093,1101.028198 
	C999.105957,1079.189209 987.444702,1062.121094 970.763367,1048.125732 
	C961.197388,1040.099731 949.774841,1035.249268 937.737610,1031.935913 
	C936.853149,1031.692505 936.080200,1031.043945 935.008972,1030.302246 
	C942.619873,1029.807861 949.068237,1033.879761 955.992310,1036.720459 
	C969.240356,1042.155762 978.912720,1052.159790 987.789124,1062.532227 
	C993.733337,1069.478027 997.648132,1078.391602 1001.432678,1086.887085 
	C1004.925964,1094.728882 1007.166260,1103.147339 1009.674622,1111.398071 
	C1010.429504,1113.880981 1010.062500,1116.681885 1010.502625,1119.287598 
	C1013.639160,1137.856689 1013.020264,1156.581543 1012.827881,1175.282959 
	C1012.818848,1176.167236 1011.474426,1177.037964 1010.346924,1177.586792 
	C1009.744385,1176.776123 1009.546936,1176.293701 1009.349426,1175.811157 
z"/>
<path fill="#1A1AA8" opacity="1.000000" stroke="none" 
	d="
M591.470215,206.442993 
	C590.948608,208.295151 589.971985,210.146957 589.970581,211.999496 
	C589.897217,310.529083 589.906311,409.058716 589.905640,507.588348 
	C589.905640,510.084839 589.892151,512.581299 589.868286,515.541870 
	C589.682495,514.201111 589.365784,512.396240 589.365356,510.591309 
	C589.340637,410.761871 589.341675,310.932404 589.342163,211.102966 
	C589.342224,204.239487 589.535156,204.036057 596.305237,204.033722 
	C616.804443,204.026657 637.308350,204.276169 657.799927,203.881287 
	C663.826477,203.765152 666.380554,206.534195 667.907410,211.859192 
	C664.391113,205.908325 658.622253,205.919922 652.372070,206.005600 
	C632.383606,206.279572 612.389648,206.145874 591.941040,206.266113 
	C591.484314,206.362671 591.470215,206.442993 591.470215,206.442993 
z"/>
<path fill="#3131D5" opacity="1.000000" stroke="none" 
	d="
M913.119873,896.449463 
	C937.442932,896.031616 961.717590,896.031616 986.447632,896.031616 
	C986.447632,893.716614 986.447449,891.924683 986.447632,890.132812 
	C986.456055,813.339050 986.471436,736.545288 986.436401,659.751526 
	C986.435486,657.651917 985.891663,655.552551 985.355713,653.081665 
	C985.765503,653.568115 986.943237,654.400452 986.986328,655.287964 
	C987.187988,659.439819 987.077515,663.606934 987.077759,667.768555 
	C987.082214,742.180481 987.086365,816.592468 987.090637,891.004395 
	C987.090759,893.451904 987.090637,895.899414 987.090637,898.630615 
	C984.955322,898.739319 983.502686,898.876648 982.049988,898.877625 
	C960.575439,898.891907 939.100708,898.929016 917.626892,898.801514 
	C916.104675,898.792480 914.589722,897.541016 913.119873,896.449463 
z"/>
<path fill="#1A1AA8" opacity="1.000000" stroke="none" 
	d="
M954.344604,1279.635254 
	C954.854065,1278.901367 955.758484,1277.938965 956.744019,1277.847412 
	C963.625671,1277.206299 970.535217,1276.858521 977.413269,1276.186279 
	C981.789001,1275.758667 986.210022,1275.249878 990.436157,1274.123047 
	C991.964905,1273.715332 994.059631,1271.414673 994.076233,1269.957031 
	C994.308655,1249.505493 994.230469,1229.050415 994.200500,1208.596313 
	C994.199585,1207.975708 993.902527,1207.355469 993.929321,1207.459961 
	C980.315979,1208.543701 966.985596,1209.604858 953.315857,1210.437988 
	C955.688782,1209.696045 958.382507,1209.030884 961.116760,1208.695312 
	C971.780212,1207.386597 982.454041,1206.160645 993.131653,1204.972412 
	C994.220703,1204.851318 995.360901,1205.190308 996.697754,1205.340576 
	C996.832581,1206.717529 997.038330,1207.845825 997.039429,1208.974487 
	C997.058960,1229.472534 996.994751,1249.971069 997.117371,1270.468384 
	C997.135925,1273.578003 996.142700,1274.974243 993.056580,1275.351807 
	C986.632141,1276.137573 980.250488,1277.278076 973.823181,1278.034546 
	C967.492493,1278.779541 961.127197,1279.229858 954.344604,1279.635254 
z"/>
<path fill="#3D3DA9" opacity="1.000000" stroke="none" 
	d="
M1439.886841,274.855621 
	C1439.886841,274.855621 1440.039307,274.516144 1440.582520,274.316040 
	C1447.462036,274.292572 1453.798218,274.469238 1459.668457,274.770020 
	C1453.416626,274.894104 1447.630615,274.894104 1441.507812,274.894104 
	C1441.507812,277.438446 1441.507935,279.249664 1441.507812,281.060883 
	C1441.503662,334.724548 1441.504395,388.388184 1441.472534,442.051849 
	C1441.471558,443.830780 1441.138916,445.609497 1440.945557,447.172913 
	C1440.649048,446.652069 1440.367798,446.346680 1440.055664,445.570984 
	C1440.041382,430.718323 1440.057983,416.335968 1440.228882,401.874939 
	C1440.280273,401.546295 1440.177246,401.296295 1440.048096,400.575378 
	C1439.976929,358.354858 1439.931885,316.605255 1439.886841,274.855621 
z"/>
<path fill="#1A1A67" opacity="1.000000" stroke="none" 
	d="
M1440.074463,401.953613 
	C1440.057983,416.335968 1440.041382,430.718323 1440.028442,445.818542 
	C1440.032104,446.536377 1439.991089,447.033447 1439.822998,447.064758 
	C1439.654785,447.096069 1439.312744,447.098206 1439.312744,447.098206 
	C1438.914917,445.190277 1438.171631,443.282745 1438.169434,441.374359 
	C1438.106934,387.500793 1438.110718,333.627136 1438.161499,279.753540 
	C1438.162964,278.211182 1438.793823,276.669403 1439.509033,274.991486 
	C1439.931885,316.605255 1439.976929,358.354858 1440.032349,400.801971 
	C1440.042725,401.499451 1440.074463,401.953613 1440.074463,401.953613 
z"/>
<path fill="#1A1A67" opacity="1.000000" stroke="none" 
	d="
M655.410461,586.242249 
	C655.734192,587.363831 655.967102,588.849243 655.967285,590.334717 
	C655.979858,690.626892 655.973999,790.919067 655.964478,891.211243 
	C655.964417,892.209473 655.893982,893.207642 655.716858,894.665894 
	C655.386780,893.663940 655.029968,892.202026 655.029663,890.739990 
	C655.005249,790.355347 655.008728,689.970703 655.019287,589.586060 
	C655.019348,588.592773 655.144348,587.599426 655.410461,586.242249 
z"/>
<path fill="#3131D5" opacity="1.000000" stroke="none" 
	d="
M1008.847229,1175.787598 
	C1009.546936,1176.293701 1009.744385,1176.776123 1009.933838,1177.533936 
	C964.952759,1177.847412 919.979675,1177.885620 874.413208,1177.642822 
	C873.491638,1176.931030 873.163452,1176.500122 872.835327,1176.069214 
	C874.652039,1175.977051 876.468689,1175.805542 878.285461,1175.804443 
	C921.638672,1175.780029 964.991821,1175.773682 1008.847229,1175.787598 
z"/>
<path fill="#1A1A67" opacity="1.000000" stroke="none" 
	d="
M1513.615723,894.863647 
	C1513.295410,892.913940 1513.089355,890.591919 1513.088135,888.269775 
	C1513.046875,810.158142 1513.025269,732.046448 1512.971924,653.466125 
	C1513.303711,654.367126 1513.978882,655.736572 1513.979980,657.106506 
	C1514.042969,735.575867 1514.050659,814.045227 1514.052734,892.514648 
	C1514.052734,893.173523 1513.904419,893.832336 1513.615723,894.863647 
z"/>
<path fill="#1A1A67" opacity="1.000000" stroke="none" 
	d="
M1513.524170,515.811890 
	C1513.221069,514.850952 1513.047485,513.525085 1513.047363,512.199219 
	C1513.036377,434.386383 1513.039673,356.573517 1513.046143,278.760681 
	C1513.046143,278.095337 1513.108276,277.429962 1513.253174,276.291870 
	C1513.572388,277.276825 1513.960815,278.734406 1513.961304,280.192139 
	C1513.984375,357.618683 1513.975708,435.045197 1513.958862,512.471741 
	C1513.958618,513.463501 1513.812622,514.455200 1513.524170,515.811890 
z"/>
<path fill="#1A1A67" opacity="1.000000" stroke="none" 
	d="
M1178.700195,1205.015381 
	C1176.568604,1206.712280 1174.251953,1209.178833 1171.482544,1209.895508 
	C1158.427979,1213.273193 1145.293579,1213.697754 1133.010864,1207.211060 
	C1125.572632,1203.282593 1119.932007,1197.384521 1118.501465,1188.469482 
	C1118.183960,1186.490845 1117.416138,1184.584351 1117.009277,1182.329590 
	C1118.497559,1185.140381 1119.898926,1188.239502 1121.154785,1191.396484 
	C1125.376465,1202.009399 1136.391479,1209.577393 1147.873047,1209.313721 
	C1155.103882,1209.147705 1162.350464,1208.740845 1169.535645,1207.949097 
	C1172.531982,1207.618896 1175.387207,1206.007568 1178.700195,1205.015381 
z"/>
<path fill="#1A1AA8" opacity="1.000000" stroke="none" 
	d="
M950.556274,1209.822998 
	C947.244812,1210.802124 943.774231,1212.216187 940.324158,1212.167725 
	C929.255615,1212.012451 918.118408,1211.945435 907.156128,1210.618408 
	C899.186707,1209.653564 890.957153,1207.979858 884.710144,1201.489502 
	C891.240356,1203.475220 897.686707,1207.174927 904.438782,1207.859741 
	C917.398193,1209.174194 930.531433,1208.762573 943.591553,1209.106934 
	C945.865845,1209.166870 948.135010,1209.423096 950.556274,1209.822998 
z"/>
<path fill="#1A1AA8" opacity="1.000000" stroke="none" 
	d="
M1438.813843,447.093445 
	C1439.312744,447.098206 1439.654785,447.096069 1439.861816,447.393768 
	C1440.130493,447.903839 1440.192139,448.116180 1440.079834,448.691711 
	C1438.990601,449.361450 1438.076050,449.933167 1437.159912,449.935577 
	C1416.522339,449.990173 1395.884644,450.011963 1375.247437,449.905579 
	C1374.117065,449.899780 1372.992798,448.728088 1371.865601,448.099060 
	C1372.188721,448.082092 1372.451172,447.947327 1372.773682,447.504822 
	C1394.701172,447.239410 1416.508057,447.164032 1438.813843,447.093445 
z"/>
<path fill="#1A1AA8" opacity="1.000000" stroke="none" 
	d="
M1297.408447,447.023254 
	C1298.179565,447.322815 1298.493408,447.625061 1299.034668,448.447327 
	C1297.876465,449.306274 1296.491943,449.935669 1295.105225,449.940308 
	C1275.288818,450.006805 1255.472046,450.001923 1235.655518,449.961273 
	C1234.381470,449.958679 1233.108398,449.523193 1231.834839,449.289062 
	C1231.971802,448.949677 1232.108765,448.610260 1232.323730,448.121033 
	C1234.154419,447.672302 1235.906128,447.120178 1237.659790,447.113312 
	C1257.423340,447.035858 1277.187378,447.042145 1297.408447,447.023254 
z"/>
<path fill="#1A1AA8" opacity="1.000000" stroke="none" 
	d="
M826.171387,1247.070312 
	C836.508850,1256.156250 847.732483,1264.311890 860.793396,1269.326904 
	C868.585693,1272.318970 876.846924,1274.149658 884.979553,1276.171875 
	C889.527161,1277.302612 894.242737,1277.758179 899.020691,1278.891846 
	C893.217041,1278.692993 887.160889,1278.666016 881.354553,1277.448120 
	C862.016174,1273.391846 844.414795,1265.559326 829.725830,1251.989624 
	C828.317810,1250.688965 827.303833,1248.961914 826.171387,1247.070312 
z"/>
<path fill="#47479C" opacity="1.000000" stroke="none" 
	d="
M1192.042969,1131.005615 
	C1193.112183,1132.435181 1194.084717,1134.338013 1195.296997,1136.710205 
	C1217.863281,1136.710205 1241.027954,1136.710205 1264.802246,1136.710205 
	C1264.802246,1132.498169 1264.802246,1128.557007 1264.968628,1124.147461 
	C1265.633057,1128.290039 1266.218872,1132.896240 1266.474121,1137.520874 
	C1266.496216,1137.920532 1264.334351,1138.841675 1263.184326,1138.845703 
	C1240.711548,1138.925171 1218.238403,1138.928467 1195.765259,1138.887451 
	C1189.913818,1138.876709 1192.873047,1134.131958 1192.042969,1131.005615 
z"/>
<path fill="#1A1A67" opacity="1.000000" stroke="none" 
	d="
M1460.134399,274.645935 
	C1453.798218,274.469238 1447.462036,274.292572 1440.679443,274.157043 
	C1441.215332,273.471802 1442.194458,272.116455 1443.180542,272.111298 
	C1465.819580,271.993011 1488.459473,272.006378 1511.098877,272.091431 
	C1511.842896,272.094208 1512.583130,273.104034 1513.052124,273.871033 
	C1505.379517,274.130646 1497.980103,274.163605 1489.771362,274.484009 
	C1479.352905,274.729614 1469.743652,274.687775 1460.134399,274.645935 
z"/>
<path fill="#1A1AA8" opacity="1.000000" stroke="none" 
	d="
M719.158203,287.601044 
	C713.666199,280.430145 708.162231,272.946228 702.846741,265.330719 
	C697.334045,257.432770 691.970154,249.430069 686.607483,241.428772 
	C683.600769,236.942657 680.728210,232.366608 677.783997,227.464310 
	C679.198486,228.533020 680.888245,229.788651 682.007874,231.432602 
	C690.771851,244.300385 699.451111,257.226227 708.103271,270.169678 
	C711.876038,275.813629 715.524170,281.540833 719.158203,287.601044 
z"/>
<path fill="#1A1AA8" opacity="1.000000" stroke="none" 
	d="
M798.933838,1187.574707 
	C800.089600,1190.605835 801.317322,1194.012329 802.173523,1197.509888 
	C805.443665,1210.869141 809.830627,1223.705200 818.318665,1234.819092 
	C821.084656,1238.440796 823.496338,1242.333252 826.182617,1246.434692 
	C824.043640,1244.546265 821.525574,1242.534790 819.584717,1240.068970 
	C808.429565,1225.896484 802.905945,1209.269165 799.036133,1191.964966 
	C798.750916,1190.689453 798.892151,1189.318604 798.933838,1187.574707 
z"/>
<path fill="#1A1AA8" opacity="1.000000" stroke="none" 
	d="
M913.112549,620.167603 
	C937.374146,619.707336 961.613159,619.684448 986.302124,619.597046 
	C985.736572,620.350708 984.725159,621.876892 983.704773,621.883057 
	C961.083008,622.018005 938.460144,622.001160 915.837830,621.925781 
	C914.920410,621.922729 914.005859,621.064697 913.112549,620.167603 
z"/>
<path fill="#1A1AA8" opacity="1.000000" stroke="none" 
	d="
M1440.153564,897.144104 
	C1464.143066,896.741577 1488.106079,896.780090 1512.535645,896.739502 
	C1512.076416,897.450928 1511.154053,898.926453 1510.223877,898.931396 
	C1487.611694,899.051941 1464.998901,899.029602 1442.386353,898.948059 
	C1441.631592,898.945312 1440.879883,898.059326 1440.153564,897.144104 
z"/>
<path fill="#47479C" opacity="1.000000" stroke="none" 
	d="
M1433.774658,652.353882 
	C1433.339722,652.881409 1432.582764,653.340881 1431.826172,653.340027 
	C1412.728027,653.318481 1393.629761,653.248657 1374.212158,652.912231 
	C1374.647461,652.385620 1375.402344,651.913757 1376.156738,651.914673 
	C1395.255371,651.936646 1414.354004,652.008362 1433.774658,652.353882 
z"/>
<path fill="#47479C" opacity="1.000000" stroke="none" 
	d="
M1504.774414,652.353638 
	C1504.339600,652.881226 1503.582764,653.340820 1502.826294,653.339966 
	C1484.061401,653.318970 1465.296387,653.249329 1446.212646,652.912842 
	C1446.648438,652.385925 1447.403320,651.914673 1448.157837,651.915527 
	C1466.922729,651.937073 1485.687500,652.008545 1504.774414,652.353638 
z"/>
<path fill="#47479C" opacity="1.000000" stroke="none" 
	d="
M1362.774170,652.354370 
	C1362.339844,652.881775 1361.582886,653.342041 1360.826538,653.341125 
	C1342.394775,653.319458 1323.963013,653.248657 1305.212158,652.911255 
	C1305.647583,652.384583 1306.402466,651.913574 1307.156738,651.914490 
	C1325.588501,651.936646 1344.020142,652.008972 1362.774170,652.354370 
z"/>
<path fill="#47479C" opacity="1.000000" stroke="none" 
	d="
M1220.773682,652.351624 
	C1220.339722,652.879944 1219.583496,653.341431 1218.827637,653.340515 
	C1200.729126,653.319336 1182.630737,653.248657 1164.214355,652.910400 
	C1164.651489,652.383545 1165.406616,651.914124 1166.161377,651.915039 
	C1184.258057,651.935974 1202.354736,652.007263 1220.773682,652.351624 
z"/>
<path fill="#47479C" opacity="1.000000" stroke="none" 
	d="
M1291.774536,652.354370 
	C1291.340332,652.882263 1290.583740,653.343018 1289.827637,653.342102 
	C1271.728882,653.320923 1253.630249,653.250122 1235.212646,652.912781 
	C1235.648315,652.385864 1236.403076,651.914612 1237.157471,651.915466 
	C1255.255737,651.937073 1273.354126,652.009216 1291.774536,652.354370 
z"/>
<path fill="#1A1AA8" opacity="1.000000" stroke="none" 
	d="
M902.319092,1280.228271 
	C907.435425,1279.721802 912.668396,1279.434204 917.903442,1279.389282 
	C928.305237,1279.300171 938.708252,1279.344849 949.418457,1279.557373 
	C949.224365,1280.138184 948.721741,1280.809204 948.220886,1280.807739 
	C932.959412,1280.764771 917.698059,1280.655640 902.319092,1280.228271 
z"/>
<path fill="#1A1AA8" opacity="1.000000" stroke="none" 
	d="
M762.026855,477.265289 
	C765.912720,481.793976 769.889038,486.642090 773.662720,491.643127 
	C775.407776,493.955750 776.757446,496.566742 778.299255,499.409058 
	C775.957336,497.254669 773.296448,494.951019 771.316406,492.163788 
	C767.994263,487.487061 765.105591,482.502350 762.026855,477.265289 
z"/>
<path fill="#1A1AA8" opacity="1.000000" stroke="none" 
	d="
M765.886108,357.885742 
	C762.538574,353.930847 759.197632,349.663849 756.062439,345.250641 
	C754.696289,343.327637 753.752319,341.104767 752.618652,338.637604 
	C755.509521,341.782166 758.588379,345.172089 761.223267,348.877747 
	C763.114868,351.538055 764.413147,354.620270 765.886108,357.885742 
z"/>
<path fill="#1A1A67" opacity="1.000000" stroke="none" 
	d="
M1191.578491,1179.053223 
	C1192.491089,1185.044067 1191.226318,1190.677979 1187.329468,1195.940430 
	C1188.449951,1190.514526 1189.826660,1184.840454 1191.578491,1179.053223 
z"/>
<path fill="#1A1AA8" opacity="1.000000" stroke="none" 
	d="
M1149.257935,1025.960938 
	C1148.386719,1026.952515 1147.157715,1028.492676 1145.772339,1028.649414 
	C1142.424072,1029.028320 1139.002808,1028.761719 1135.266235,1028.521362 
	C1136.163452,1027.573730 1137.353149,1026.381958 1138.657471,1026.239502 
	C1142.020996,1025.872192 1145.435059,1025.968994 1149.257935,1025.960938 
z"/>
<path fill="#1A1AA8" opacity="1.000000" stroke="none" 
	d="
M872.477905,1176.103027 
	C873.163452,1176.500122 873.491638,1176.931030 873.951904,1177.598267 
	C875.077271,1182.085327 875.992371,1186.356689 877.107788,1190.575195 
	C877.479065,1191.979248 878.364075,1193.247314 879.001343,1194.975830 
	C873.529724,1190.093140 871.910339,1183.441528 872.477905,1176.103027 
z"/>
<path fill="#1A1AA8" opacity="1.000000" stroke="none" 
	d="
M924.797485,1027.828369 
	C920.328857,1028.467041 915.495728,1030.789917 911.166321,1026.415405 
	C915.547607,1026.536865 920.099121,1026.998047 924.797485,1027.828369 
z"/>
<path fill="#3131D5" opacity="1.000000" stroke="none" 
	d="
M1002.118164,269.041260 
	C1001.409668,269.958130 1000.357239,271.412323 999.149231,271.555573 
	C996.392090,271.882538 993.558777,271.567535 990.422852,271.307068 
	C993.960754,270.394989 997.832153,269.689148 1002.118164,269.041260 
z"/>
<path fill="#1A1AA8" opacity="1.000000" stroke="none" 
	d="
M728.880249,301.887939 
	C725.579407,297.718170 722.325195,293.176514 719.054565,288.273712 
	C722.334351,292.447083 725.630676,296.981567 728.880249,301.887939 
z"/>
<path fill="#47479C" opacity="1.000000" stroke="none" 
	d="
M1188.785645,1116.875122 
	C1190.250854,1120.570190 1191.402588,1124.508545 1192.354004,1128.775269 
	C1190.926270,1125.108643 1189.699219,1121.113403 1188.785645,1116.875122 
z"/>
<path fill="#3D3DA9" opacity="1.000000" stroke="none" 
	d="
M1034.762085,270.738495 
	C1030.877808,271.556854 1026.666382,273.397125 1022.901978,269.454163 
	C1026.713745,269.526093 1030.645264,269.966217 1034.762085,270.738495 
z"/>
<path fill="#030316" opacity="1.000000" stroke="none" 
	d="
M988.756836,840.321411 
	C988.961304,851.403076 988.961304,862.173340 988.961304,872.943542 
	C988.825012,872.941528 988.688721,872.939514 988.552429,872.937500 
	C988.552429,861.961670 988.552429,850.985840 988.756836,840.321411 
z"/>
<path fill="#030316" opacity="1.000000" stroke="none" 
	d="
M989.021484,729.382935 
	C988.977966,730.446045 988.934814,731.089478 988.891663,731.732910 
	C988.710022,731.732361 988.528442,731.731812 988.346802,731.731262 
	C988.346802,721.560547 988.346802,711.389771 988.346802,701.218994 
	C988.571777,701.211670 988.796814,701.204346 989.021790,701.197021 
	C989.021790,710.452393 989.021790,719.707825 989.021484,729.382935 
z"/>
<path fill="#030316" opacity="1.000000" stroke="none" 
	d="
M987.968262,784.011597 
	C987.968262,779.402222 987.968262,775.289795 987.968262,771.177429 
	C988.206482,771.178406 988.444641,771.179382 988.682861,771.180359 
	C988.682861,781.390320 988.682861,791.600342 988.682861,801.810364 
	C988.444641,801.819702 988.206482,801.829041 987.968262,801.838379 
	C987.968262,796.061707 987.968262,790.285095 987.968262,784.011597 
z"/>
<path fill="#1A1AA8" opacity="1.000000" stroke="none" 
	d="
M736.992798,314.753174 
	C734.188293,311.050781 731.453430,306.969116 728.727661,302.515839 
	C731.512024,306.220764 734.287292,310.297333 736.992798,314.753174 
z"/>
<path fill="#1A1AA8" opacity="1.000000" stroke="none" 
	d="
M1118.978638,385.059723 
	C1118.170410,384.118591 1116.945068,382.712769 1116.827026,381.219391 
	C1116.531128,377.475433 1116.736694,373.691833 1116.885864,369.481628 
	C1117.667480,370.731171 1118.696899,372.386719 1118.858643,374.123047 
	C1119.180176,377.576904 1119.024170,381.075256 1118.978638,385.059723 
z"/>
<path fill="#3131D5" opacity="1.000000" stroke="none" 
	d="
M987.762451,271.140594 
	C987.947327,271.770905 987.782715,272.807587 987.435791,272.872681 
	C983.848511,273.545654 980.231873,274.061829 976.381714,274.375305 
	C979.869507,273.117950 983.598938,272.106964 987.762451,271.140594 
z"/>
<path fill="#525279" opacity="1.000000" stroke="none" 
	d="
M701.315918,385.194824 
	C704.025269,388.460449 706.605286,392.025818 709.021362,395.956421 
	C705.253296,393.454529 702.442749,390.025177 701.315918,385.194824 
z"/>
<path fill="#47479C" opacity="1.000000" stroke="none" 
	d="
M1265.645752,1121.753296 
	C1261.652222,1119.937378 1263.316650,1116.581665 1263.642822,1113.289551 
	C1264.568848,1115.811157 1265.248413,1118.638428 1265.645752,1121.753296 
z"/>
<path fill="#1A1AA8" opacity="1.000000" stroke="none" 
	d="
M677.931519,226.826416 
	C675.568726,224.052689 673.240112,220.903564 670.917419,217.388214 
	C673.270813,220.165009 675.618225,223.308029 677.931519,226.826416 
z"/>
<path fill="#525279" opacity="1.000000" stroke="none" 
	d="
M675.827026,348.474182 
	C678.296875,351.402466 680.720337,354.702118 683.156677,358.348328 
	C680.706482,355.411774 678.243530,352.128693 675.827026,348.474182 
z"/>
<path fill="#1A1A67" opacity="1.000000" stroke="none" 
	d="
M1186.621338,1196.841797 
	C1184.571777,1199.531982 1182.171875,1202.302246 1179.407715,1205.081787 
	C1181.452637,1202.367920 1183.861938,1199.644897 1186.621338,1196.841797 
z"/>
<path fill="#1A1AA8" opacity="1.000000" stroke="none" 
	d="
M748.172729,331.615814 
	C745.976562,328.929657 743.898438,325.878510 741.827515,322.451233 
	C743.986694,325.133667 746.138794,328.192230 748.172729,331.615814 
z"/>
<path fill="#1A1AA8" opacity="1.000000" stroke="none" 
	d="
M778.145264,500.063263 
	C780.295471,502.488129 782.302368,505.271545 784.329468,508.419678 
	C782.233765,505.996857 780.117920,503.209351 778.145264,500.063263 
z"/>
<path fill="#1A1AA8" opacity="1.000000" stroke="none" 
	d="
M775.774902,372.002258 
	C773.794800,369.750702 771.926086,367.126740 770.057739,364.125061 
	C772.000793,366.374878 773.943542,369.002350 775.774902,372.002258 
z"/>
<path fill="#525279" opacity="1.000000" stroke="none" 
	d="
M696.272583,378.221741 
	C698.008850,379.876312 699.640869,381.879700 701.204712,384.219055 
	C699.480469,382.560211 697.824341,380.565399 696.272583,378.221741 
z"/>
<path fill="#1A1AA8" opacity="1.000000" stroke="none" 
	d="
M741.947876,321.796021 
	C740.198181,320.041687 738.490967,317.912567 736.824524,315.416687 
	C738.573669,317.173706 740.282043,319.297485 741.947876,321.796021 
z"/>
<path fill="#1A1AA8" opacity="1.000000" stroke="none" 
	d="
M752.764832,337.998413 
	C751.157715,336.467590 749.605103,334.567200 748.039795,332.306915 
	C749.624512,333.840973 751.221924,335.734955 752.764832,337.998413 
z"/>
<path fill="#525279" opacity="1.000000" stroke="none" 
	d="
M683.188599,359.212677 
	C684.944275,360.838074 686.603577,362.813599 688.241882,365.121460 
	C686.511414,363.490143 684.801819,361.526489 683.188599,359.212677 
z"/>
<path fill="#525279" opacity="1.000000" stroke="none" 
	d="
M691.089233,370.293274 
	C692.229614,371.252106 693.301453,372.562592 694.295044,374.208313 
	C693.151489,373.244019 692.086121,371.944458 691.089233,370.293274 
z"/>
<path fill="#1A1AA8" opacity="1.000000" stroke="none" 
	d="
M769.226807,362.665039 
	C768.014709,361.650360 766.802246,360.248688 765.661987,358.481384 
	C766.898254,359.503174 768.062378,360.890656 769.226807,362.665039 
z"/>
<path fill="#1A1AA8" opacity="1.000000" stroke="none" 
	d="
M671.027405,216.703888 
	C669.880676,215.668640 668.794373,214.261566 667.730286,212.489563 
	C668.864319,213.527115 669.976135,214.929581 671.027405,216.703888 
z"/>
<path fill="#525279" opacity="1.000000" stroke="none" 
	d="
M688.313599,366.185272 
	C689.363281,366.968079 690.264282,368.074371 691.115112,369.514771 
	C690.098267,368.735474 689.131592,367.622101 688.313599,366.185272 
z"/>
<path fill="#525279" opacity="1.000000" stroke="none" 
	d="
M694.370117,375.160553 
	C695.145203,375.535248 695.798279,376.250854 696.343201,377.289429 
	C695.572754,376.908722 694.910461,376.205109 694.370117,375.160553 
z"/>
<path fill="#1A1AA8" opacity="1.000000" stroke="none" 
	d="
M882.152466,1198.449219 
	C881.512207,1198.334717 880.855774,1197.901733 880.188110,1197.151978 
	C880.830078,1197.266968 881.483215,1197.698853 882.152466,1198.449219 
z"/>
<path fill="#3131D5" opacity="1.000000" stroke="none" 
	d="
M915.121948,652.487915 
	C914.806274,652.937500 914.248291,653.172058 913.453796,653.360413 
	C913.771423,652.967102 914.325623,652.619995 915.121948,652.487915 
z"/>
<path fill="#1A1A67" opacity="1.000000" stroke="none" 
	d="
M1512.079956,518.699219 
	C1511.942627,518.379578 1512.111572,518.183594 1512.536377,517.990356 
	C1512.889893,518.154419 1513.055542,518.374451 1513.221191,518.594482 
	C1512.920288,518.651001 1512.619263,518.707642 1512.079956,518.699219 
z"/>
<path fill="#3131D5" opacity="1.000000" stroke="none" 
	d="
M1230.728760,722.373047 
	C1231.051758,777.939148 1231.023438,833.731140 1230.968384,889.523132 
	C1230.966431,891.497620 1230.699463,893.471863 1230.242676,895.726440 
	C1229.927856,840.178955 1229.921509,784.351257 1229.943115,728.523499 
	C1229.943848,726.548584 1230.223389,724.573792 1230.728760,722.373047 
z"/>
<path fill="#3131D5" opacity="1.000000" stroke="none" 
	d="
M1229.530640,895.939575 
	C1228.831787,896.328430 1227.663940,897.083191 1226.493530,897.087097 
	C1205.294434,897.157837 1184.095093,897.143677 1162.895752,897.115967 
	C1162.100708,897.114929 1161.306274,896.795715 1160.244141,896.288940 
	C1183.004639,895.954041 1206.032593,895.955017 1229.530640,895.939575 
z"/>
<path fill="#000001" opacity="1.000000" stroke="none" 
	d="
M591.455139,206.481018 
	C591.470215,206.442993 591.484314,206.362671 591.445007,206.371735 
	C591.405701,206.380814 591.183472,206.725052 591.234375,206.636780 
	C591.285217,206.548523 591.440063,206.519058 591.455139,206.481018 
z"/>
<path fill="#030316" opacity="1.000000" stroke="none" 
	d="
M1035.297852,346.689270 
	C1040.893311,352.145660 1042.946045,358.818298 1044.116333,365.920807 
	C1044.475464,368.100220 1045.174927,370.223602 1045.830322,372.814453 
	C1022.713135,372.814453 1000.046509,372.814453 977.401184,372.814453 
	C975.660095,363.760712 983.996887,347.470520 990.394592,343.826965 
	C1006.233521,334.806580 1026.382324,338.197815 1035.297852,346.689270 
z"/>
<path fill="#030316" opacity="1.000000" stroke="none" 
	d="
M872.001770,1117.039917 
	C878.883606,1096.419922 897.174866,1093.155396 912.160583,1096.487793 
	C931.665833,1100.825073 938.424683,1115.736328 936.784058,1130.956543 
	C915.037964,1130.956543 893.269775,1130.956543 871.299500,1130.956543 
	C868.306458,1126.409302 871.275024,1121.942993 872.001770,1117.039917 
z"/>
<path fill="#FCFCFE" opacity="1.000000" stroke="none" 
	d="
M727.994995,895.450195 
	C704.639465,895.840088 681.358948,895.840088 657.770020,895.840088 
	C657.673279,894.173767 657.515930,892.729126 657.515991,891.284485 
	C657.523926,790.994995 657.543518,690.705566 657.571777,590.416077 
	C657.572266,588.753784 657.691040,587.091492 657.876648,584.935669 
	C669.489929,584.401306 680.981201,584.330933 692.472473,584.324707 
	C747.464478,584.295105 802.456848,584.357361 857.448059,584.143433 
	C862.643433,584.123230 863.840088,585.643005 863.760071,590.622375 
	C863.471130,608.614868 863.666443,626.615173 863.678406,644.612488 
	C863.682983,651.437866 863.682312,651.468079 857.085388,651.467834 
	C816.424561,651.466248 775.763733,651.449463 735.102905,651.439148 
	C728.168701,651.437378 728.136597,651.440674 728.132690,658.360901 
	C728.122009,677.358154 728.257690,696.356567 728.055298,715.351624 
	C728.011719,719.435120 729.341797,720.334351 733.205200,720.319763 
	C765.533325,720.197388 797.862305,720.283997 830.190979,720.307434 
	C832.006836,720.308716 833.822632,720.307556 836.032715,720.307556 
	C836.032715,743.179077 836.032715,765.724304 836.032715,788.709534 
	C833.782166,788.709534 831.819153,788.709900 829.856201,788.709534 
	C798.027344,788.703125 766.197266,788.831238 734.370728,788.557251 
	C729.078247,788.511780 728.079346,790.211487 728.101868,795.077209 
	C728.256226,828.404175 728.115601,861.732422 727.994995,895.450195 
z"/>
<path fill="#FDFDFE" opacity="1.000000" stroke="none" 
	d="
M1459.668457,274.770020 
	C1469.743652,274.687775 1479.352905,274.729614 1489.413818,274.708710 
	C1496.980469,274.645935 1504.095459,274.645935 1511.367920,274.645935 
	C1511.367920,355.761078 1511.367920,436.001617 1511.367920,516.598022 
	C1394.228271,516.598022 1277.350830,516.598022 1160.054810,516.598022 
	C1160.054810,436.171173 1160.054810,355.967621 1160.054810,275.347076 
	C1183.125732,275.347076 1206.326904,275.347076 1229.884033,275.347076 
	C1229.884033,298.539642 1229.899536,321.509644 1229.880127,344.479645 
	C1229.852051,377.800049 1229.780396,411.120483 1229.814819,444.440796 
	C1229.816406,445.976532 1230.673218,447.511414 1231.483398,449.167847 
	C1233.108398,449.523193 1234.381470,449.958679 1235.655518,449.961273 
	C1255.472046,450.001923 1275.288818,450.006805 1295.105225,449.940308 
	C1296.491943,449.935669 1297.876465,449.306274 1299.349365,448.541046 
	C1299.605225,446.320740 1299.920044,444.526886 1299.921143,442.732819 
	C1299.953003,388.621552 1299.953979,334.510254 1299.959595,280.398987 
	C1299.959717,278.777161 1299.959595,277.155365 1299.959595,275.248291 
	C1323.851440,275.248291 1347.248779,275.248291 1371.531860,275.248291 
	C1371.531860,332.657593 1371.531860,389.998749 1371.698730,447.719482 
	C1372.992798,448.728088 1374.117065,449.899780 1375.247437,449.905579 
	C1395.884644,450.011963 1416.522339,449.990173 1437.159912,449.935577 
	C1438.076050,449.933167 1438.990601,449.361450 1440.346436,448.524750 
	C1440.844971,447.792511 1440.902832,447.590424 1440.960815,447.388336 
	C1441.138916,445.609497 1441.471558,443.830780 1441.472534,442.051849 
	C1441.504395,388.388184 1441.503662,334.724548 1441.507812,281.060883 
	C1441.507935,279.249664 1441.507812,277.438446 1441.507812,274.894104 
	C1447.630615,274.894104 1453.416626,274.894104 1459.668457,274.770020 
z"/>
<path fill="#47479C" opacity="1.000000" stroke="none" 
	d="
M1440.945557,447.172913 
	C1440.902832,447.590424 1440.844971,447.792511 1440.520386,448.161560 
	C1440.192139,448.116180 1440.130493,447.903839 1440.029907,447.362457 
	C1439.991089,447.033447 1440.032104,446.536377 1440.059326,446.288818 
	C1440.367798,446.346680 1440.649048,446.652069 1440.945557,447.172913 
z"/>
<path fill="#47479C" opacity="1.000000" stroke="none" 
	d="
M1440.228760,401.874939 
	C1440.074463,401.953613 1440.042725,401.499451 1440.058472,401.272888 
	C1440.177246,401.296295 1440.280273,401.546295 1440.228760,401.874939 
z"/>
</svg>