<svg version="1.1" id="Layer_1" xmlns="http://www.w3.org/2000/svg" xmlns:xlink="http://www.w3.org/1999/xlink" x="0px" y="0px"
	 width="100%" viewBox="0 0 727 742" enable-background="new 0 0 727 742" xml:space="preserve">
<path fill="#00004C" opacity="1.000000" stroke="none" 
	d="
M728.000000,266.000000 
	C728.000000,425.333344 728.000000,584.166687 728.000000,743.000000 
	C485.666656,743.000000 243.333328,743.000000 1.000000,743.000000 
	C1.000000,495.666656 1.000000,248.333328 1.000000,1.000000 
	C243.333328,1.000000 485.666656,1.000000 728.000000,1.000000 
	C728.000000,89.166664 728.000000,177.333328 728.000000,266.000000 
M331.568817,613.466492 
	C331.433838,605.672729 331.298859,597.878906 331.041077,589.204163 
	C330.179688,577.087952 328.101501,565.166992 322.618896,554.270569 
	C316.746460,542.599487 308.202698,533.362183 295.939606,527.840942 
	C279.953674,520.643494 263.382965,519.767151 246.531387,523.073608 
	C231.382523,526.045959 218.911789,533.627258 209.933823,546.509033 
	C200.478561,560.075562 197.097305,575.572815 196.122787,591.623779 
	C195.624115,599.837341 196.260757,608.174072 197.012192,616.397766 
	C198.458710,632.228577 203.880890,646.611633 214.894058,658.322937 
	C228.461517,672.750366 246.187958,678.011292 265.214661,678.861023 
	C277.774261,679.421936 290.421143,678.618652 302.999664,677.908264 
	C308.971222,677.570862 314.874390,676.022522 321.564880,674.588013 
	C321.688202,661.258911 321.822968,647.929932 321.891266,634.600525 
	C321.893890,634.092285 321.254974,633.580811 320.101929,633.012329 
	C319.516693,633.271301 318.949524,633.700256 318.343628,633.764404 
	C301.065948,635.595825 283.827087,638.501953 266.369781,635.935608 
	C254.767151,634.229919 245.863571,628.385254 244.066910,616.201050 
	C245.890503,615.807251 247.713089,615.075928 249.537842,615.070496 
	C274.844757,614.995300 300.152039,615.042358 325.458984,614.972778 
	C327.314209,614.967651 329.167603,614.294800 331.025330,614.017761 
	C331.025330,614.017761 330.940430,614.027710 331.568817,613.466492 
M471.967438,159.022949 
	C471.967438,159.022949 471.948395,159.099915 471.982483,158.150513 
	C471.987610,123.776718 472.008942,89.402893 471.948883,55.029217 
	C471.945953,53.354187 471.229889,51.680401 469.928436,49.974308 
	C455.334015,49.974308 440.739594,49.974308 426.241943,49.974308 
	C426.241943,100.999428 426.241943,151.408997 426.241943,201.791641 
	C500.941833,201.791641 575.348938,201.791641 649.795776,201.791641 
	C649.795776,151.111786 649.795776,100.704262 649.795776,50.008404 
	C634.748291,50.008404 619.950012,50.008404 604.426147,50.468727 
	C604.284912,51.776569 604.020691,53.084373 604.020264,54.392254 
	C604.009583,89.291412 604.026001,124.190575 604.017639,159.019272 
	C604.017639,159.019272 604.088684,159.037491 603.140259,159.013367 
	C589.149109,158.999512 575.157898,158.985641 561.017029,158.048676 
	C561.017029,122.112648 561.017029,86.176620 561.017029,50.253387 
	C545.388123,50.253387 530.318542,50.253387 514.992859,50.253387 
	C514.992859,52.340981 514.995300,54.148930 514.992554,55.956871 
	C514.939697,90.286011 514.886292,124.615150 513.917114,158.975204 
	C499.909363,159.000992 485.901642,159.026779 471.967438,159.022949 
M471.945618,438.029968 
	C471.982880,402.075592 472.020142,366.121185 472.977448,330.021790 
	C486.907623,330.021790 500.837799,330.021790 515.000427,330.021790 
	C515.000427,332.560486 514.997620,334.539124 515.000732,336.517792 
	C515.054199,370.675873 515.108398,404.833984 515.642639,439.650818 
	C530.064270,439.758209 544.485840,439.880585 558.907654,439.926270 
	C559.589294,439.928436 560.273010,439.249390 561.015686,437.966064 
	C561.015686,402.049377 561.015686,366.132690 561.015686,330.375488 
	C576.038391,330.375488 590.429260,330.375488 605.222534,330.375488 
	C605.222534,366.809235 605.222534,402.876862 605.222534,438.759033 
	C620.379883,438.759033 635.124512,438.759033 649.779419,438.759033 
	C649.779419,388.041168 649.779419,337.642731 649.779419,287.227905 
	C575.094421,287.227905 500.696533,287.227905 425.989807,287.227905 
	C425.989807,337.923523 425.989807,388.374756 426.454041,439.556854 
	C441.041718,439.684509 455.629333,439.822662 470.217285,439.897583 
	C470.748535,439.900330 471.282990,439.281952 471.945618,438.029968 
M106.641922,676.636108 
	C121.162949,676.764832 135.683914,676.909851 150.205215,676.966858 
	C150.832062,676.969299 151.462067,676.160706 152.067230,675.505737 
	C152.067230,675.505737 152.182129,675.311890 152.648865,674.561279 
	C152.755707,672.906921 152.955383,671.252563 152.955872,669.598206 
	C152.970367,621.120605 152.965012,572.643005 153.893921,524.013245 
	C170.486694,524.013245 187.079468,524.013245 203.788879,524.013245 
	C203.788879,509.464844 203.788879,495.403748 203.788879,481.303894 
	C154.085770,481.303894 104.604744,481.303894 55.295685,481.303894 
	C55.295685,495.704010 55.295685,509.764160 55.295685,524.166382 
	C72.409904,524.166382 89.203613,524.166382 105.999489,525.082642 
	C106.000237,538.240540 105.989456,551.398499 106.003922,564.556396 
	C106.044762,601.696533 106.095963,638.836731 106.641922,676.636108 
M237.016830,202.026016 
	C237.016830,202.026016 236.937073,202.021057 237.668350,201.564285 
	C237.787689,200.914764 238.011307,200.265289 238.011505,199.615738 
	C238.031006,136.653214 238.041672,73.690666 237.979599,10.728201 
	C237.978333,9.446111 237.117889,8.164865 236.490967,6.924047 
	C236.490967,6.924047 236.349014,6.826571 235.577057,6.388778 
	C221.810333,6.300569 208.043625,6.198137 194.276779,6.164286 
	C193.554611,6.162510 192.831024,6.743208 191.982574,7.975954 
	C191.978592,43.294132 192.001022,78.612396 191.888794,113.930229 
	C191.883469,115.608765 190.685028,117.283516 190.042206,118.960022 
	C188.367371,117.959534 186.186966,117.337334 185.105881,115.892570 
	C180.607742,109.881180 176.371048,103.669083 172.164215,97.445618 
	C152.417877,68.233490 132.733551,38.979370 112.926155,9.808782 
	C112.044777,8.510761 110.189545,7.083872 108.769127,7.064048 
	C94.321579,6.862417 79.870132,6.940843 65.297302,6.940843 
	C65.297302,72.176224 65.297302,137.025162 65.297302,201.744888 
	C80.675369,201.744888 95.739349,201.744888 111.119171,201.744888 
	C111.119171,164.663620 111.119171,127.899902 111.119171,89.264175 
	C114.444405,91.570557 117.292648,92.655785 118.763138,94.721687 
	C124.803902,103.208443 130.346466,112.047440 136.215897,120.658974 
	C154.750366,147.852417 173.349472,175.001801 192.607925,202.651627 
	C206.690491,202.729599 220.773041,202.821625 234.855698,202.845047 
	C235.579330,202.846252 236.303955,202.259781 237.016830,202.026016 
M106.659653,439.616241 
	C121.101166,439.732788 135.542618,439.864868 149.984375,439.916962 
	C150.657745,439.919403 151.333694,439.207977 152.030029,437.913330 
	C152.030029,416.017395 152.030029,394.121460 152.030029,371.801300 
	C175.324005,371.801300 198.033417,371.801300 220.739960,371.801300 
	C220.739960,357.319153 220.739960,343.268188 220.739960,328.819031 
	C197.751938,328.819031 175.042603,328.819031 152.319519,328.819031 
	C152.319519,314.649719 152.319519,300.882202 153.217300,287.059174 
	C179.626083,287.038574 206.034958,287.039856 232.443497,286.950073 
	C234.279480,286.943817 236.113174,286.261017 238.015930,284.971161 
	C238.015930,271.387573 238.015930,257.803955 238.015930,243.934357 
	C194.068390,243.934357 150.661682,243.934357 106.461250,244.340256 
	C106.308228,246.312256 106.022270,248.284225 106.021492,250.256271 
	C105.997818,310.328918 105.999763,370.401550 106.009804,430.474182 
	C106.010269,433.299835 106.121704,436.125488 106.659653,439.616241 
M315.999512,265.013824 
	C315.999512,256.081116 315.999512,247.148422 315.999512,238.270752 
	C300.370117,238.270752 285.303009,238.270752 270.139587,238.270752 
	C270.139587,247.698105 270.139587,256.835938 270.617340,266.640747 
	C285.184387,266.738586 299.751373,266.846924 314.318573,266.891815 
	C314.845337,266.893463 315.374023,266.270691 315.999512,265.013824 
M270.613708,439.653687 
	C285.181854,439.748383 299.750000,439.853546 314.318298,439.895569 
	C314.842865,439.897064 315.369202,439.276520 315.998901,438.020477 
	C315.998901,387.757446 315.998901,337.494385 315.998901,287.274597 
	C300.371368,287.274597 285.301819,287.274597 269.999390,287.274597 
	C269.999390,294.208252 269.993286,300.851929 270.000366,307.495575 
	C270.047089,351.323456 270.096649,395.151337 270.613708,439.653687 
M561.013794,674.978516 
	C561.013794,639.079468 561.013794,603.180420 561.013794,567.318604 
	C580.650818,567.318604 599.702820,567.318604 619.103943,567.318604 
	C619.103943,603.726685 619.103943,639.836243 619.547363,676.655029 
	C634.121094,676.753723 648.694824,676.862610 663.268738,676.910278 
	C663.792664,676.911987 664.318481,676.310242 664.986816,675.063477 
	C664.986816,624.799438 664.986816,574.535461 664.986816,523.842529 
	C630.067383,523.842529 595.667908,523.842529 560.846985,523.842529 
	C560.846985,507.345032 560.846985,491.274048 560.846985,475.293945 
	C545.348755,475.293945 530.278381,475.293945 515.000427,475.293945 
	C515.000427,477.408386 515.000427,479.221985 515.000427,481.035553 
	C515.000427,543.028748 514.998047,605.021973 515.007751,667.015198 
	C515.008179,670.010437 515.114685,673.005676 515.632324,676.676758 
	C530.058960,676.776550 544.485535,676.890991 558.912354,676.929810 
	C559.588257,676.931641 560.265930,676.259399 561.013794,674.978516 
M348.500000,140.062347 
	C365.585083,140.062347 382.670135,140.062347 399.961700,140.062347 
	C400.219330,123.973869 399.998077,108.454758 395.912018,93.412148 
	C391.151154,75.885193 381.839935,61.674259 364.552307,53.776371 
	C347.586182,46.025364 330.112030,45.398613 312.298035,49.587135 
	C296.088776,53.398342 283.461334,62.319004 275.361877,77.086090 
	C270.245758,86.413902 267.559753,96.430367 265.651215,106.963982 
	C262.385559,124.987968 263.503784,142.481277 269.053833,159.720016 
	C273.278839,172.843262 280.873230,183.798111 292.283966,191.818420 
	C305.404633,201.040604 320.472839,204.238754 336.067322,204.898727 
	C345.638397,205.303787 355.283417,204.655060 364.861542,203.992661 
	C373.246948,203.412735 381.585388,202.153122 389.749115,201.216202 
	C389.749115,186.589844 389.749115,172.826401 389.749115,159.031372 
	C386.228302,159.393250 382.949127,159.588425 379.716614,160.086472 
	C363.446045,162.593292 347.125031,164.162628 330.816345,160.878235 
	C320.088379,158.717712 312.307617,151.646286 312.074738,140.062347 
	C323.885559,140.062347 335.692780,140.062347 348.500000,140.062347 
M373.002991,539.502380 
	C365.083466,547.762268 359.141693,557.514465 356.243073,568.340027 
	C351.582794,585.744873 350.427765,603.596313 353.912170,621.549866 
	C356.330811,634.012146 360.330933,645.833740 368.353424,655.770691 
	C379.728363,669.860168 395.032013,677.394653 412.818237,678.862976 
	C437.852966,680.929626 460.952148,676.346313 477.979675,655.573425 
	C488.498199,642.741272 492.991302,627.829895 493.126099,611.147827 
	C477.897430,611.147827 463.133423,611.147827 448.116577,611.147827 
	C447.724670,613.423279 447.362030,615.652039 446.954529,617.872620 
	C445.538910,625.585938 442.583984,632.253357 434.478149,635.027710 
	C431.904572,635.908386 429.165558,636.501892 426.457855,636.759399 
	C416.552582,637.701355 403.285187,634.790161 399.947632,621.729492 
	C396.700500,609.022827 397.516510,596.234497 398.988647,583.449158 
	C399.965668,574.963989 403.670074,567.741516 412.482849,565.716370 
	C418.377838,564.361755 424.793365,564.692566 430.924225,565.082520 
	C439.683746,565.639771 444.197632,571.390137 445.999176,579.485901 
	C446.738708,582.809143 446.993408,586.240295 447.497559,589.828003 
	C462.493591,589.828003 477.572388,589.828003 493.418549,589.828003 
	C492.947388,585.534485 492.716095,581.463196 492.026642,577.471008 
	C488.282745,555.791931 477.826569,538.752869 457.524048,528.878296 
	C444.468781,522.528564 430.698303,520.699158 416.153961,521.761475 
	C399.898376,522.948853 385.762817,528.389404 373.002991,539.502380 
M384.482300,238.000458 
	C372.722412,238.000458 360.962494,238.000458 349.294769,238.000458 
	C349.294769,305.660004 349.294769,372.717712 349.294769,439.697754 
	C364.991943,439.697754 380.393097,439.697754 395.704163,439.697754 
	C395.704163,372.337860 395.704163,305.280151 395.704163,238.000458 
	C392.099152,238.000458 388.787598,238.000458 384.482300,238.000458 
z"/>
<path fill="#FFFFFF" opacity="1.000000" stroke="none" 
	d="
M425.989807,438.825989 
	C425.989807,388.374756 425.989807,337.923523 425.989807,287.227905 
	C500.696533,287.227905 575.094421,287.227905 649.779419,287.227905 
	C649.779419,337.642731 649.779419,388.041168 649.779419,438.759033 
	C635.124512,438.759033 620.379883,438.759033 605.222534,438.759033 
	C605.222534,402.876862 605.222534,366.809235 605.222534,330.375488 
	C590.429260,330.375488 576.038391,330.375488 561.015686,330.375488 
	C561.015686,366.132690 561.015686,402.049377 560.522278,438.477570 
	C545.073425,438.990051 530.117920,438.991058 515.162476,438.992065 
	C515.108398,404.833984 515.054199,370.675873 515.000732,336.517792 
	C514.997620,334.539124 515.000427,332.560486 515.000427,330.021790 
	C500.837799,330.021790 486.907623,330.021790 472.090881,330.196991 
	C471.136200,332.192017 471.010834,334.011749 471.008514,335.831635 
	C470.965118,370.200012 470.936279,404.568390 470.441772,438.965393 
	C455.316010,438.937988 440.652893,438.881989 425.989807,438.825989 
z"/>
<path fill="#FFFFFF" opacity="1.000000" stroke="none" 
	d="
M605.151794,50.008404 
	C619.950012,50.008404 634.748291,50.008404 649.795776,50.008404 
	C649.795776,100.704262 649.795776,151.111786 649.795776,201.791641 
	C575.348938,201.791641 500.941833,201.791641 426.241943,201.791641 
	C426.241943,151.408997 426.241943,100.999428 426.241943,49.974308 
	C440.739594,49.974308 455.334015,49.974308 470.456787,50.455605 
	C470.990112,85.318825 470.981781,119.700768 471.040253,154.082611 
	C471.043121,155.755539 471.632263,157.427490 471.948395,159.099915 
	C471.948395,159.099915 471.967438,159.022949 472.149628,159.421356 
	C485.901642,159.878174 499.471497,159.950012 513.041321,159.950119 
	C513.638550,159.950134 514.235718,159.294510 514.833008,158.944290 
	C514.886292,124.615150 514.939697,90.286011 514.992554,55.956871 
	C514.995300,54.148930 514.992859,52.340981 514.992859,50.253387 
	C530.318542,50.253387 545.388123,50.253387 561.017029,50.253387 
	C561.017029,86.176620 561.017029,122.112648 561.204590,158.931778 
	C574.955139,159.874969 588.518188,159.948761 602.081177,159.954025 
	C602.750244,159.954285 603.419495,159.356689 604.088684,159.037476 
	C604.088684,159.037491 604.017639,159.019272 604.414551,158.841553 
	C604.874329,156.675262 604.988770,154.686768 604.992310,152.698090 
	C605.053589,118.468216 605.101196,84.238304 605.151794,50.008404 
z"/>
<path fill="#FFFFFF" opacity="1.000000" stroke="none" 
	d="
M191.923584,202.168228 
	C173.349472,175.001801 154.750366,147.852417 136.215897,120.658974 
	C130.346466,112.047440 124.803902,103.208443 118.763138,94.721687 
	C117.292648,92.655785 114.444405,91.570557 111.119171,89.264175 
	C111.119171,127.899902 111.119171,164.663620 111.119171,201.744888 
	C95.739349,201.744888 80.675369,201.744888 65.297302,201.744888 
	C65.297302,137.025162 65.297302,72.176224 65.297302,6.940843 
	C79.870132,6.940843 94.321579,6.862417 108.769127,7.064048 
	C110.189545,7.083872 112.044777,8.510761 112.926155,9.808782 
	C132.733551,38.979370 152.417877,68.233490 172.164215,97.445618 
	C176.371048,103.669083 180.607742,109.881180 185.105881,115.892570 
	C186.186966,117.337334 188.367371,117.959534 190.042206,118.960022 
	C190.685028,117.283516 191.883469,115.608765 191.888794,113.930229 
	C192.001022,78.612396 191.978592,43.294132 192.503967,7.493495 
	C207.466568,6.949547 221.907791,6.888059 236.349014,6.826571 
	C236.349014,6.826571 236.490967,6.924047 236.729614,7.364275 
	C236.957870,72.543358 236.947464,137.282211 236.937073,202.021057 
	C236.937073,202.021057 237.016830,202.026016 236.551361,202.007950 
	C221.365128,202.049332 206.644363,202.108780 191.923584,202.168228 
z"/>
<path fill="#FFFFFF" opacity="1.000000" stroke="none" 
	d="
M515.171753,676.000916 
	C515.114685,673.005676 515.008179,670.010437 515.007751,667.015198 
	C514.998047,605.021973 515.000427,543.028748 515.000427,481.035553 
	C515.000427,479.221985 515.000427,477.408386 515.000427,475.293945 
	C530.278381,475.293945 545.348755,475.293945 560.846985,475.293945 
	C560.846985,491.274048 560.846985,507.345032 560.846985,523.842529 
	C595.667908,523.842529 630.067383,523.842529 664.986816,523.842529 
	C664.986816,574.535461 664.986816,624.799438 664.459045,675.531128 
	C648.988831,675.981079 634.046387,675.963501 619.103943,675.945923 
	C619.103943,639.836243 619.103943,603.726685 619.103943,567.318604 
	C599.702820,567.318604 580.650818,567.318604 561.013794,567.318604 
	C561.013794,603.180420 561.013794,639.079468 560.515625,675.484375 
	C545.068848,675.993774 530.120300,675.997314 515.171753,676.000916 
z"/>
<path fill="#FFFFFF" opacity="1.000000" stroke="none" 
	d="
M348.000000,140.062347 
	C335.692780,140.062347 323.885559,140.062347 312.074738,140.062347 
	C312.307617,151.646286 320.088379,158.717712 330.816345,160.878235 
	C347.125031,164.162628 363.446045,162.593292 379.716614,160.086472 
	C382.949127,159.588425 386.228302,159.393250 389.749115,159.031372 
	C389.749115,172.826401 389.749115,186.589844 389.749115,201.216202 
	C381.585388,202.153122 373.246948,203.412735 364.861542,203.992661 
	C355.283417,204.655060 345.638397,205.303787 336.067322,204.898727 
	C320.472839,204.238754 305.404633,201.040604 292.283966,191.818420 
	C280.873230,183.798111 273.278839,172.843262 269.053833,159.720016 
	C263.503784,142.481277 262.385559,124.987968 265.651215,106.963982 
	C267.559753,96.430367 270.245758,86.413902 275.361877,77.086090 
	C283.461334,62.319004 296.088776,53.398342 312.298035,49.587135 
	C330.112030,45.398613 347.586182,46.025364 364.552307,53.776371 
	C381.839935,61.674259 391.151154,75.885193 395.912018,93.412148 
	C399.998077,108.454758 400.219330,123.973869 399.961700,140.062347 
	C382.670135,140.062347 365.585083,140.062347 348.000000,140.062347 
M337.496368,111.976334 
	C342.602753,111.976334 347.709106,111.976334 352.907135,111.976334 
	C353.553253,103.673462 351.395966,96.981949 344.426025,93.027000 
	C335.802917,88.133972 326.555450,88.200409 318.340424,93.550842 
	C312.217804,97.538506 310.275269,104.432236 310.031281,111.976334 
	C319.220276,111.976334 327.859131,111.976334 337.496368,111.976334 
z"/>
<path fill="#FFFFFF" opacity="1.000000" stroke="none" 
	d="
M243.846222,617.011902 
	C245.863571,628.385254 254.767151,634.229919 266.369781,635.935608 
	C283.827087,638.501953 301.065948,635.595825 318.343628,633.764404 
	C318.949524,633.700256 319.516693,633.271301 320.546875,633.503479 
	C320.930725,647.670654 320.869629,661.346741 320.808533,675.022766 
	C314.874390,676.022522 308.971222,677.570862 302.999664,677.908264 
	C290.421143,678.618652 277.774261,679.421936 265.214661,678.861023 
	C246.187958,678.011292 228.461517,672.750366 214.894058,658.322937 
	C203.880890,646.611633 198.458710,632.228577 197.012192,616.397766 
	C196.260757,608.174072 195.624115,599.837341 196.122787,591.623779 
	C197.097305,575.572815 200.478561,560.075562 209.933823,546.509033 
	C218.911789,533.627258 231.382523,526.045959 246.531387,523.073608 
	C263.382965,519.767151 279.953674,520.643494 295.939606,527.840942 
	C308.202698,533.362183 316.746460,542.599487 322.618896,554.270569 
	C328.101501,565.166992 330.179688,577.087952 331.023224,590.097412 
	C330.983734,598.669617 330.962067,606.348694 330.940430,614.027710 
	C330.940430,614.027710 331.025330,614.017761 330.553467,614.006409 
	C302.725281,613.997314 275.368988,613.999390 248.012695,614.002197 
	C246.852158,614.002319 245.488861,613.646362 244.601791,614.140991 
	C244.002625,614.475037 244.074509,616.012634 243.846222,617.011902 
M264.406036,564.031982 
	C251.126480,562.746033 241.175766,572.592224 242.359177,585.733521 
	C256.540619,585.733521 270.730530,585.733521 284.925385,585.733521 
	C284.579865,572.425720 277.436188,564.326172 264.406036,564.031982 
z"/>
<path fill="#FFFFFF" opacity="1.000000" stroke="none" 
	d="
M107.254982,243.934357 
	C150.661682,243.934357 194.068390,243.934357 238.015930,243.934357 
	C238.015930,257.803955 238.015930,271.387573 237.518890,285.479126 
	C210.448364,285.990570 183.874786,285.974060 157.301468,286.045380 
	C155.639877,286.049835 153.980118,286.742279 152.319519,287.114685 
	C152.319519,300.882202 152.319519,314.649719 152.319519,328.819031 
	C175.042603,328.819031 197.751938,328.819031 220.739960,328.819031 
	C220.739960,343.268188 220.739960,357.319153 220.739960,371.801300 
	C198.033417,371.801300 175.324005,371.801300 152.030029,371.801300 
	C152.030029,394.121460 152.030029,416.017395 151.553253,438.448547 
	C136.415604,438.967682 121.754723,438.951569 107.051422,438.472595 
	C107.005913,374.805481 107.001060,311.601196 107.010399,248.396927 
	C107.010612,246.909393 107.169891,245.421875 107.254982,243.934357 
z"/>
<path fill="#FFFFFF" opacity="1.000000" stroke="none" 
	d="
M373.254791,539.244263 
	C385.762817,528.389404 399.898376,522.948853 416.153961,521.761475 
	C430.698303,520.699158 444.468781,522.528564 457.524048,528.878296 
	C477.826569,538.752869 488.282745,555.791931 492.026642,577.471008 
	C492.716095,581.463196 492.947388,585.534485 493.418549,589.828003 
	C477.572388,589.828003 462.493591,589.828003 447.497559,589.828003 
	C446.993408,586.240295 446.738708,582.809143 445.999176,579.485901 
	C444.197632,571.390137 439.683746,565.639771 430.924225,565.082520 
	C424.793365,564.692566 418.377838,564.361755 412.482849,565.716370 
	C403.670074,567.741516 399.965668,574.963989 398.988647,583.449158 
	C397.516510,596.234497 396.700500,609.022827 399.947632,621.729492 
	C403.285187,634.790161 416.552582,637.701355 426.457855,636.759399 
	C429.165558,636.501892 431.904572,635.908386 434.478149,635.027710 
	C442.583984,632.253357 445.538910,625.585938 446.954529,617.872620 
	C447.362030,615.652039 447.724670,613.423279 448.116577,611.147827 
	C463.133423,611.147827 477.897430,611.147827 493.126099,611.147827 
	C492.991302,627.829895 488.498199,642.741272 477.979675,655.573425 
	C460.952148,676.346313 437.852966,680.929626 412.818237,678.862976 
	C395.032013,677.394653 379.728363,669.860168 368.353424,655.770691 
	C360.330933,645.833740 356.330811,634.012146 353.912170,621.549866 
	C350.427765,603.596313 351.582794,585.744873 356.243073,568.340027 
	C359.141693,557.514465 365.083466,547.762268 373.254791,539.244263 
z"/>
<path fill="#FFFFFF" opacity="1.000000" stroke="none" 
	d="
M152.182129,675.311890 
	C152.182129,675.311890 152.067230,675.505737 151.614105,675.745117 
	C136.479248,675.978149 121.797523,675.971863 107.063492,675.501709 
	C107.007446,626.361816 107.013336,577.685913 106.957809,529.010010 
	C106.955971,527.395142 106.331535,525.780884 105.997314,524.166382 
	C89.203613,524.166382 72.409904,524.166382 55.295685,524.166382 
	C55.295685,509.764160 55.295685,495.704010 55.295685,481.303894 
	C104.604744,481.303894 154.085770,481.303894 203.788879,481.303894 
	C203.788879,495.403748 203.788879,509.464844 203.788879,524.013245 
	C187.079468,524.013245 170.486694,524.013245 153.019226,524.222900 
	C152.095230,560.239502 152.022934,596.046570 152.007797,631.853577 
	C152.001663,646.339661 152.120285,660.825806 152.182129,675.311890 
z"/>
<path fill="#FFFFFF" opacity="1.000000" stroke="none" 
	d="
M384.979187,238.000458 
	C388.787598,238.000458 392.099152,238.000458 395.704163,238.000458 
	C395.704163,305.280151 395.704163,372.337860 395.704163,439.697754 
	C380.393097,439.697754 364.991943,439.697754 349.294769,439.697754 
	C349.294769,372.717712 349.294769,305.660004 349.294769,238.000458 
	C360.962494,238.000458 372.722412,238.000458 384.979187,238.000458 
z"/>
<path fill="#FFFFFF" opacity="1.000000" stroke="none" 
	d="
M270.145264,438.979218 
	C270.096649,395.151337 270.047089,351.323456 270.000366,307.495575 
	C269.993286,300.851929 269.999390,294.208252 269.999390,287.274597 
	C285.301819,287.274597 300.371368,287.274597 315.998901,287.274597 
	C315.998901,337.494385 315.998901,387.757446 315.487457,438.507507 
	C300.032410,438.989410 285.088837,438.984314 270.145264,438.979218 
z"/>
<path fill="#FFFFFF" opacity="1.000000" stroke="none" 
	d="
M270.139587,265.973755 
	C270.139587,256.835938 270.139587,247.698105 270.139587,238.270752 
	C285.303009,238.270752 300.370117,238.270752 315.999512,238.270752 
	C315.999512,247.148422 315.999512,256.081116 315.490906,265.503845 
	C300.034760,265.987152 285.087158,265.980438 270.139587,265.973755 
z"/>
<path fill="#0000E1" opacity="1.000000" stroke="none" 
	d="
M106.858116,244.137299 
	C107.169891,245.421875 107.010612,246.909393 107.010399,248.396927 
	C107.001060,311.601196 107.005913,374.805481 106.823532,438.481445 
	C106.638054,438.953186 106.181450,438.951141 106.181450,438.951141 
	C106.121704,436.125488 106.010269,433.299835 106.009804,430.474182 
	C105.999763,370.401550 105.997818,310.328918 106.021492,250.256271 
	C106.022270,248.284225 106.308228,246.312256 106.858116,244.137299 
z"/>
<path fill="#0000D3" opacity="1.000000" stroke="none" 
	d="
M237.302704,201.792664 
	C236.947464,137.282211 236.957870,72.543358 236.813263,7.343864 
	C237.117889,8.164865 237.978333,9.446111 237.979599,10.728201 
	C238.041672,73.690666 238.031006,136.653214 238.011505,199.615738 
	C238.011307,200.265289 237.787689,200.914764 237.302704,201.792664 
z"/>
<path fill="#0000BE" opacity="1.000000" stroke="none" 
	d="
M105.998398,524.624512 
	C106.331535,525.780884 106.955971,527.395142 106.957809,529.010010 
	C107.013336,577.685913 107.007446,626.361816 106.820297,675.506958 
	C106.629410,675.976196 106.143082,675.976868 106.143082,675.976868 
	C106.095963,638.836731 106.044762,601.696533 106.003922,564.556396 
	C105.989456,551.398499 106.000237,538.240540 105.998398,524.624512 
z"/>
<path fill="#0000B0" opacity="1.000000" stroke="none" 
	d="
M152.415497,674.936584 
	C152.120285,660.825806 152.001663,646.339661 152.007797,631.853577 
	C152.022934,596.046570 152.095230,560.239502 152.553696,524.298950 
	C152.965012,572.643005 152.970367,621.120605 152.955872,669.598206 
	C152.955383,671.252563 152.755707,672.906921 152.415497,674.936584 
z"/>
<path fill="#0000DF" opacity="1.000000" stroke="none" 
	d="
M470.904419,438.936768 
	C470.936279,404.568390 470.965118,370.200012 471.008514,335.831635 
	C471.010834,334.011749 471.136200,332.192017 471.630859,330.269501 
	C472.020142,366.121185 471.982880,402.075592 471.653137,438.492035 
	C471.360626,438.954102 470.904388,438.936768 470.904419,438.936768 
z"/>
<path fill="#0000C9" opacity="1.000000" stroke="none" 
	d="
M604.788940,50.238564 
	C605.101196,84.238304 605.053589,118.468216 604.992310,152.698090 
	C604.988770,154.686768 604.874329,156.675262 604.424622,158.876785 
	C604.026001,124.190575 604.009583,89.291412 604.020264,54.392254 
	C604.020691,53.084373 604.284912,51.776569 604.788940,50.238564 
z"/>
<path fill="#0000C3" opacity="1.000000" stroke="none" 
	d="
M471.965454,158.625214 
	C471.632263,157.427490 471.043121,155.755539 471.040253,154.082611 
	C470.981781,119.700768 470.990112,85.318825 470.915527,50.471470 
	C471.229889,51.680401 471.945953,53.354187 471.948883,55.029217 
	C472.008942,89.402893 471.987610,123.776718 471.965454,158.625214 
z"/>
<path fill="#0000CE" opacity="1.000000" stroke="none" 
	d="
M243.956558,616.606445 
	C244.074509,616.012634 244.002625,614.475037 244.601791,614.140991 
	C245.488861,613.646362 246.852158,614.002319 248.012695,614.002197 
	C275.368988,613.999390 302.725281,613.997314 330.551697,613.963745 
	C329.167603,614.294800 327.314209,614.967651 325.458984,614.972778 
	C300.152039,615.042358 274.844757,614.995300 249.537842,615.070496 
	C247.713089,615.075928 245.890503,615.807251 243.956558,616.606445 
z"/>
<path fill="#0101E0" opacity="1.000000" stroke="none" 
	d="
M152.768402,287.086914 
	C153.980118,286.742279 155.639877,286.049835 157.301468,286.045380 
	C183.874786,285.974060 210.448364,285.990570 237.484894,285.939941 
	C236.113174,286.261017 234.279480,286.943817 232.443497,286.950073 
	C206.034958,287.039856 179.626083,287.038574 152.768402,287.086914 
z"/>
<path fill="#0000D8" opacity="1.000000" stroke="none" 
	d="
M619.325684,676.300476 
	C634.046387,675.963501 648.988831,675.981079 664.387329,675.994263 
	C664.318481,676.310242 663.792664,676.911987 663.268738,676.910278 
	C648.694824,676.862610 634.121094,676.753723 619.325684,676.300476 
z"/>
<path fill="#0000B0" opacity="1.000000" stroke="none" 
	d="
M106.392502,676.306519 
	C106.143082,675.976868 106.629410,675.976196 106.872604,675.970886 
	C121.797523,675.971863 136.479248,675.978149 151.625793,675.857178 
	C151.462067,676.160706 150.832062,676.969299 150.205215,676.966858 
	C135.683914,676.909851 121.162949,676.764832 106.392502,676.306519 
z"/>
<path fill="#0000D8" opacity="1.000000" stroke="none" 
	d="
M515.402039,676.338867 
	C530.120300,675.997314 545.068848,675.993774 560.480103,675.945679 
	C560.265930,676.259399 559.588257,676.931641 558.912354,676.929810 
	C544.485535,676.890991 530.058960,676.776550 515.402039,676.338867 
z"/>
<path fill="#0000C6" opacity="1.000000" stroke="none" 
	d="
M515.402588,439.321442 
	C530.117920,438.991058 545.073425,438.990051 560.492310,438.938324 
	C560.273010,439.249390 559.589294,439.928436 558.907654,439.926270 
	C544.485840,439.880585 530.064270,439.758209 515.402588,439.321442 
z"/>
<path fill="#0000C6" opacity="1.000000" stroke="none" 
	d="
M470.441742,438.965393 
	C470.904388,438.936768 471.360626,438.954102 471.588318,438.953583 
	C471.282990,439.281952 470.748535,439.900330 470.217285,439.897583 
	C455.629333,439.822662 441.041718,439.684509 426.221924,439.191406 
	C440.652893,438.881989 455.316010,438.937988 470.441742,438.965393 
z"/>
<path fill="#0000C6" opacity="1.000000" stroke="none" 
	d="
M270.379456,439.316467 
	C285.088837,438.984314 300.032410,438.989410 315.435364,438.970184 
	C315.369202,439.276520 314.842865,439.897064 314.318298,439.895569 
	C299.750000,439.853546 285.181854,439.748383 270.379456,439.316467 
z"/>
<path fill="#0000C6" opacity="1.000000" stroke="none" 
	d="
M106.420547,439.283691 
	C106.181450,438.951141 106.638054,438.953186 106.865944,438.944336 
	C121.754723,438.951569 136.415604,438.967682 151.542480,438.906403 
	C151.333694,439.207977 150.657745,439.919403 149.984375,439.916962 
	C135.542618,439.864868 121.101166,439.732788 106.420547,439.283691 
z"/>
<path fill="#0000BE" opacity="1.000000" stroke="none" 
	d="
M270.378479,266.307251 
	C285.087158,265.980438 300.034760,265.987152 315.442078,265.966370 
	C315.374023,266.270691 314.845337,266.893463 314.318573,266.891815 
	C299.751373,266.846924 285.184387,266.738586 270.378479,266.307251 
z"/>
<path fill="#0000D3" opacity="1.000000" stroke="none" 
	d="
M192.265747,202.409927 
	C206.644363,202.108780 221.365128,202.049332 236.557007,201.968384 
	C236.303955,202.259781 235.579330,202.846252 234.855698,202.845047 
	C220.773041,202.821625 206.690491,202.729599 192.265747,202.409927 
z"/>
<path fill="#0000D3" opacity="1.000000" stroke="none" 
	d="
M235.963043,6.607674 
	C221.907791,6.888059 207.466568,6.949547 192.566711,7.031886 
	C192.831024,6.743208 193.554611,6.162510 194.276779,6.164286 
	C208.043625,6.198137 221.810333,6.300569 235.963043,6.607674 
z"/>
<path fill="#0000C7" opacity="1.000000" stroke="none" 
	d="
M603.614502,159.025421 
	C603.419495,159.356689 602.750244,159.954285 602.081177,159.954025 
	C588.518188,159.948761 574.955139,159.874969 561.279419,159.393341 
	C575.157898,158.985641 589.149109,158.999512 603.614502,159.025421 
z"/>
<path fill="#0000C7" opacity="1.000000" stroke="none" 
	d="
M514.375000,158.959747 
	C514.235718,159.294510 513.638550,159.950134 513.041321,159.950119 
	C499.471497,159.950012 485.901642,159.878174 472.112854,159.436172 
	C485.901642,159.026779 499.909363,159.000992 514.375000,158.959747 
z"/>
<path fill="#0000D5" opacity="1.000000" stroke="none" 
	d="
M321.186707,674.805420 
	C320.869629,661.346741 320.930725,647.670654 320.953430,633.532715 
	C321.254974,633.580811 321.893890,634.092285 321.891266,634.600525 
	C321.822968,647.929932 321.688202,661.258911 321.186707,674.805420 
z"/>
<path fill="#0000CE" opacity="1.000000" stroke="none" 
	d="
M331.254639,613.747070 
	C330.962067,606.348694 330.983734,598.669617 331.084656,590.537842 
	C331.298859,597.878906 331.433838,605.672729 331.254639,613.747070 
z"/>
<path fill="#000052" opacity="1.000000" stroke="none" 
	d="
M336.997192,111.976334 
	C327.859131,111.976334 319.220276,111.976334 310.031281,111.976334 
	C310.275269,104.432236 312.217804,97.538506 318.340424,93.550842 
	C326.555450,88.200409 335.802917,88.133972 344.426025,93.027000 
	C351.395966,96.981949 353.553253,103.673462 352.907135,111.976334 
	C347.709106,111.976334 342.602753,111.976334 336.997192,111.976334 
z"/>
<path fill="#000050" opacity="1.000000" stroke="none" 
	d="
M264.860413,564.032349 
	C277.436188,564.326172 284.579865,572.425720 284.925385,585.733521 
	C270.730530,585.733521 256.540619,585.733521 242.359177,585.733521 
	C241.175766,572.592224 251.126480,562.746033 264.860413,564.032349 
z"/>
</svg>