<?xml version="1.0" standalone="yes"?>
<svg xmlns="http://www.w3.org/2000/svg" width="500" height="500">
<path style="fill:#ffffff; stroke:none;" d="M0 0L0 500L500 500L500 0L0 0z"/>
<path style="fill:#010102; stroke:none;" d="M214 60C211.349 64.2571 206.27 73.9742 200.91 74.8789C195.378 75.8127 187.43 71.2561 182 70C179.558 75.154 176.653 86.1845 170.895 88.382C165.548 90.4229 158.817 85.9134 153.43 88.6034C147.877 91.3757 150.426 102.174 146.272 106.411C141.61 111.167 132.532 107.237 127.603 111.178C123.42 114.524 127.228 124.252 125.258 128.895C122.737 134.838 111.643 136.694 106 138C106.119 143.762 110.458 153.586 107.883 158.815C105.03 164.607 94.5555 164.85 92.7886 171.185C91.0066 177.575 99.7105 183.664 97.6435 189.999C95.6814 196.013 86.9357 197.839 85.4576 204.001C84.1661 209.384 92.3681 215.111 93.8966 220C95.6541 225.622 87.3757 234.039 84 238L84 239C87.9477 242.948 97.1301 249.162 97.787 255C98.4468 260.864 90.7211 266.813 92.7076 272.621C94.8784 278.968 106.083 278.835 108.307 285.21C110.295 290.907 104.218 297.963 106.643 303.581C108.91 308.834 119.485 308.353 123.566 311.843C128.217 315.821 126 327.461 126 333C130.999 333.215 142.584 332.889 146.262 336.603C150.316 340.696 148.708 348.847 151.652 353.682C154.237 357.928 168.806 355.24 173 354C174.834 358.728 178.209 371.685 184.105 372.382C189.952 373.073 196.214 366.841 201.961 369.201C207.805 371.602 209.278 380.708 215.174 382.582C221.258 384.515 226.954 375.477 233 375.569C239.527 375.667 242.808 384.802 249 386.029C255.738 387.365 259.883 376.911 266 375.661C272.554 374.322 277.553 383.316 283.91 382.758C289.587 382.26 292.451 372.477 297.09 369.694C302.909 366.202 309.823 373.1 315.895 372.382C321.688 371.697 325.388 358.733 327 354L347.272 354.968L353 335L374 333C374 327.374 371.854 315.981 376.514 311.843C380.627 308.191 390.953 308.894 393.382 303.581C395.963 297.936 389.688 290.957 391.693 285.21C393.933 278.789 405.164 279.086 407.292 272.671C409.228 266.837 401.694 260.826 402.238 255C402.777 249.216 412.108 242.892 416 239L416 238C412.932 234.401 404.42 225.68 405.697 220.576C407.024 215.269 415.922 209.771 414.542 204C413.055 197.782 404.319 195.97 402.356 189.996C400.277 183.67 408.993 177.572 407.211 171.185C405.452 164.877 394.98 164.491 392.117 158.79C389.612 153.801 393.884 143.605 394 138C388.308 136.683 377.432 134.879 374.894 128.895C372.933 124.273 376.49 114.451 372.397 111.178C367.468 107.237 358.39 111.167 353.728 106.411C349.465 102.063 352.295 92.6243 347.436 89.0278C342.348 85.2613 334.523 90.45 329.105 88.382C323.175 86.1187 320.748 75.1541 318 70L298.174 74.6466L286 60L266 67.5934L250 57.1775L234 67.5934L214 60z"/>
<path style="fill:#9f9fca; stroke:none;" d="M251 56L252 57L251 56M247 57L248 58L247 57M252 57L253 58L252 57M246 58L247 59L246 58z"/>
<path style="fill:#5f5f9b; stroke:none;" d="M253 58L254 59L253 58M215 59L216 60L215 59z"/>
<path style="fill:#9f9fca; stroke:none;" d="M216 59L217 60L216 59z"/>
<path style="fill:#5f5f9b; stroke:none;" d="M245 59L246 60L245 59M254 59L255 60L254 59z"/>
<path style="fill:#9f9fca; stroke:none;" d="M283 59L284 60L283 59z"/>
<path style="fill:#5f5f9b; stroke:none;" d="M284 59L285 60L284 59M217 60L218 61L217 60M282 60L283 61L282 60M213 61L214 62L213 61M219 61L220 62L219 61M280 61L281 62L280 61M286 61L287 62L286 61z"/>
<path style="fill:#9f9fca; stroke:none;" d="M212 62L213 63L212 62z"/>
<path style="fill:#5f5f9b; stroke:none;" d="M221 62L222 63L221 62z"/>
<path style="fill:#9f9fca; stroke:none;" d="M241 62L242 63L241 62M258 62L259 63L258 62z"/>
<path style="fill:#5f5f9b; stroke:none;" d="M278 62L279 63L278 62z"/>
<path style="fill:#9f9fca; stroke:none;" d="M287 62L288 63L287 62z"/>
<path style="fill:#5f5f9b; stroke:none;" d="M223 63L224 64L223 63z"/>
<path style="fill:#9f9fca; stroke:none;" d="M240 63L241 64L240 63M259 63L260 64L259 63z"/>
<path style="fill:#5f5f9b; stroke:none;" d="M276 63L277 64L276 63z"/>
<path style="fill:#9f9fca; stroke:none;" d="M225 64L226 65L225 64z"/>
<path style="fill:#5f5f9b; stroke:none;" d="M239 64L240 65L239 64M260 64L261 65L260 64z"/>
<path style="fill:#9f9fca; stroke:none;" d="M274 64L275 65L274 64z"/>
<path style="fill:#5f5f9b; stroke:none;" d="M210 65L211 66L210 65z"/>
<path style="fill:#9f9fca; stroke:none;" d="M227 65L228 66L227 65M272 65L273 66L272 65z"/>
<path style="fill:#5f5f9b; stroke:none;" d="M289 65L290 66L289 65z"/>
<path style="fill:#9f9fca; stroke:none;" d="M209 66L210 67L209 66M229 66L230 67L229 66M270 66L271 67L270 66z"/>
<path style="fill:#5f5f9b; stroke:none;" d="M290 66L291 67L290 66z"/>
<path style="fill:#9f9fca; stroke:none;" d="M208 67L209 68L208 67z"/>
<path style="fill:#5f5f9b; stroke:none;" d="M230 67L231 68L230 67z"/>
<path style="fill:#9f9fca; stroke:none;" d="M235 67L236 68L235 67M264 67L265 68L264 67z"/>
<path style="fill:#5f5f9b; stroke:none;" d="M269 67L270 68L269 67z"/>
<path style="fill:#9f9fca; stroke:none;" d="M291 67L292 68L291 67z"/>
<path style="fill:#5f5f9b; stroke:none;" d="M232 68L233 69L232 68z"/>
<path style="fill:#9f9fca; stroke:none;" d="M234 68L235 69L234 68M265 68L266 69L265 68z"/>
<path style="fill:#5f5f9b; stroke:none;" d="M267 68L268 69L267 68M207 69L208 70L207 69z"/>
<path style="fill:#9f9fca; stroke:none;" d="M181 70L182 71L181 70z"/>
<path style="fill:#5f5f9b; stroke:none;" d="M184 70L185 71L184 70M206 70L207 71L206 70M293 70L294 71L293 70z"/>
<path style="fill:#9f9fca; stroke:none;" d="M315 70L316 71L315 70z"/>
<path style="fill:#5f5f9b; stroke:none;" d="M316 70L317 71L316 70z"/>
<path style="fill:#9f9fca; stroke:none;" d="M318 70L319 71L318 70z"/>
<path style="fill:#5f5f9b; stroke:none;" d="M187 71L188 72L187 71z"/>
<path style="fill:#9f9fca; stroke:none;" d="M188 71L189 72L188 71M205 71L206 72L205 71M294 71L295 72L294 71z"/>
<path style="fill:#5f5f9b; stroke:none;" d="M312 71L313 72L312 71M190 72L191 73L190 72z"/>
<path style="fill:#9f9fca; stroke:none;" d="M191 72L192 73L191 72M308 72L309 73L308 72z"/>
<path style="fill:#5f5f9b; stroke:none;" d="M309 72L310 73L309 72z"/>
<path style="fill:#9f9fca; stroke:none;" d="M319 72L320 73L319 72z"/>
<path style="fill:#5f5f9b; stroke:none;" d="M180 73L181 74L180 73M194 73L195 74L194 73M305 73L306 74L305 73M197 74L198 75L197 74z"/>
<path style="fill:#9f9fca; stroke:none;" d="M198 74L199 75L198 74z"/>
<path style="fill:#5f5f9b; stroke:none;" d="M203 74L204 75L203 74M296 74L297 75L296 74z"/>
<path style="fill:#9f9fca; stroke:none;" d="M301 74L302 75L301 74z"/>
<path style="fill:#5f5f9b; stroke:none;" d="M302 74L303 75L302 74M179 75L180 76L179 75M200 75L201 76L200 75z"/>
<path style="fill:#9f9fca; stroke:none;" d="M201.667 75.3333L202.333 75.6667L201.667 75.3333M297.667 75.3333L298.333 75.6667L297.667 75.3333z"/>
<path style="fill:#5f5f9b; stroke:none;" d="M299 75L300 76L299 75M320 75L321 76L320 75M178 77L179 78L178 77M321 77L322 78L321 77M177 79L178 80L177 79M322 79L323 80L322 79M176 81L177 82L176 81M323 81L324 82L323 81M175 83L176 84L175 83M324 83L325 84L324 83M174 85L175 86L174 85M325 85L326 86L325 85M152 87L152 88L155 88L152 87z"/>
<path style="fill:#9f9fca; stroke:none;" d="M155 87L155 88L158 88L155 87M173 87L174 88L173 87z"/>
<path style="fill:#5f5f9b; stroke:none;" d="M326 87L327 88L326 87z"/>
<path style="fill:#9f9fca; stroke:none;" d="M342 87L342 88L345 88L342 87z"/>
<path style="fill:#5f5f9b; stroke:none;" d="M345 87L345 88L348 88L345 87M151.333 88.6667L151.667 89.3333L151.333 88.6667M165 88L165 89L169 89L165 88z"/>
<path style="fill:#9f9fca; stroke:none;" d="M169 88L169 89L172 89L169 88M328 88L328 89L331 89L328 88z"/>
<path style="fill:#5f5f9b; stroke:none;" d="M331 88L331 89L335 89L331 88M348 88L349 89L348 88M150.333 92.6667L150.667 93.3333L150.333 92.6667M349 92L350 93L349 92M149.333 96.6667L149.667 97.3333L149.333 96.6667M350.333 96.6667L350.667 97.3333L350.333 96.6667z"/>
<path style="fill:#9f9fca; stroke:none;" d="M148 100L149 101L148 100z"/>
<path style="fill:#5f5f9b; stroke:none;" d="M351.333 100.667L351.667 101.333L351.333 100.667M148 101L149 102L148 101z"/>
<path style="fill:#9f9fca; stroke:none;" d="M147 104L148 105L147 104M352 104L353 105L352 104z"/>
<path style="fill:#5f5f9b; stroke:none;" d="M147 105L148 106L147 105M352 105L353 106L352 105z"/>
<path style="fill:#9f9fca; stroke:none;" d="M146 107L147 108L146 107M353 107L354 108L353 107M139 108L140 109L139 108z"/>
<path style="fill:#5f5f9b; stroke:none;" d="M140.667 108.333L141.333 108.667L140.667 108.333M358.667 108.333L359.333 108.667L358.667 108.333z"/>
<path style="fill:#9f9fca; stroke:none;" d="M360 108L361 109L360 108M132 109L133 110L132 109z"/>
<path style="fill:#5f5f9b; stroke:none;" d="M133.667 109.333L134.333 109.667L133.667 109.333M365.667 109.333L366.333 109.667L365.667 109.333z"/>
<path style="fill:#9f9fca; stroke:none;" d="M367 109L368 110L367 109z"/>
<path style="fill:#5f5f9b; stroke:none;" d="M126.667 110.333L127.333 110.667L126.667 110.333M372.667 110.333L373.333 110.667L372.667 110.333z"/>
<path style="fill:#9f9fca; stroke:none;" d="M374 112L374 119L375 119L374 112M125 114L125 120L126 120L125 114z"/>
<path style="fill:#0101fe; stroke:none;" d="M173 153C173 164.467 170.846 166.471 160 170L160.382 183.471L152.708 190.329L154.593 201.996L148.113 211.09L152.454 222L148.306 232L154.444 242L152.789 252.816L160.933 261.184L160 273C170.52 277.685 173 279.095 173 291L186 292C186.503 295.733 186.901 303.388 191.228 304.681C194.579 305.683 198.583 303.52 201.61 305.693C204.655 307.88 206.153 312.836 208 316L221 312C226.654 325.353 230.622 316.51 240 318.248C243.755 318.945 246.056 323.366 250 323.366C254.293 323.366 256.646 318.221 261 318.151C264.537 318.095 267.402 321.566 270.985 321.006C274.962 320.384 276.492 315.747 279.754 313.928C283.13 312.045 288.662 314.933 292 316C293.847 312.836 295.345 307.88 298.39 305.693C301.417 303.52 305.421 305.683 308.772 304.681C313.099 303.388 313.497 295.733 314 292L327 291C327 279.095 329.48 277.685 340 273L339.618 260.329L347.211 252.896L345.556 242L351.694 232L347.546 222L351.887 211.039L345.407 201.985L347.292 190.329L339.618 183.471L340 170C329.154 166.471 327 164.467 327 153L314.854 149.566L309.697 139.603L299.213 137.972L291.61 128.697L280.171 129.672L270.91 122.241L260 125.35L250 120.128L240 125.35L229.09 122.241L219.829 129.672L208.39 128.697L200.787 137.972L190.303 139.603L185.146 149.566L173 153z"/>
<path style="fill:#5f5f9b; stroke:none;" d="M374 119L374 129L375 129L374 119M125 120L125 130L126 130L125 120z"/>
<path style="fill:#9f9fca; stroke:none;" d="M122 132L123 133L122 132M377 132L378 133L377 132M119 133L120 134L119 133z"/>
<path style="fill:#5f5f9b; stroke:none;" d="M120 133L121 134L120 133M379 133L380 134L379 133z"/>
<path style="fill:#9f9fca; stroke:none;" d="M380 133L381 134L380 133M116 134L117 135L116 134z"/>
<path style="fill:#5f5f9b; stroke:none;" d="M117 134L118 135L117 134M382 134L383 135L382 134z"/>
<path style="fill:#9f9fca; stroke:none;" d="M383 134L384 135L383 134z"/>
<path style="fill:#5f5f9b; stroke:none;" d="M114 135L115 136L114 135M385 135L386 136L385 135M111 136L112 137L111 136M388 136L389 137L388 136M108 137L109 138L108 137M391 137L392 138L391 137z"/>
<path style="fill:#9f9fca; stroke:none;" d="M105 138L106 139L105 138M394 138L395 139L394 138z"/>
<path style="fill:#5f5f9b; stroke:none;" d="M105 139L106 140L105 139M394 139L395 140L394 139z"/>
<path style="fill:#9f9fca; stroke:none;" d="M105 140L106 141L105 140M394 140L395 141L394 140z"/>
<path style="fill:#5f5f9b; stroke:none;" d="M106 144L107 145L106 144M393.333 144.667L393.667 145.333L393.333 144.667z"/>
<path style="fill:#9f9fca; stroke:none;" d="M106.333 145.667L106.667 146.333L106.333 145.667M393 146L394 147L393 146z"/>
<path style="fill:#5f5f9b; stroke:none;" d="M107.333 149.667L107.667 150.333L107.333 149.667M392 150L393 151L392 150z"/>
<path style="fill:#9f9fca; stroke:none;" d="M107 151L108 152L107 151M392 151L393 152L392 151z"/>
<path style="fill:#5f5f9b; stroke:none;" d="M108 155L109 156L108 155M391.333 155.667L391.667 156.333L391.333 155.667z"/>
<path style="fill:#9f9fca; stroke:none;" d="M108 156L109 157L108 156M391 157L392 158L391 157z"/>
<path style="fill:#5f5f9b; stroke:none;" d="M107 160L108 161L107 160M392 160L393 161L392 160z"/>
<path style="fill:#9f9fca; stroke:none;" d="M105 161L106 162L105 161M394 161L395 162L394 161z"/>
<path style="fill:#5f5f9b; stroke:none;" d="M104 162L105 163L104 162M102 163L103 164L102 163M397 163L398 164L397 163z"/>
<path style="fill:#9f9fca; stroke:none;" d="M100 164L101 165L100 164M399 164L400 165L399 164z"/>
<path style="fill:#5f5f9b; stroke:none;" d="M99 165L100 166L99 165M400 165L401 166L400 165M97 166L98 167L97 166M402 166L403 167L402 166z"/>
<path style="fill:#9f9fca; stroke:none;" d="M95 167L96 168L95 167M404 167L405 168L404 167z"/>
<path style="fill:#5f5f9b; stroke:none;" d="M94 168L95 169L94 168M405 168L406 169L405 168z"/>
<path style="fill:#9f9fca; stroke:none;" d="M92 169L93 170L92 169M407 169L408 170L407 169z"/>
<path style="fill:#5f5f9b; stroke:none;" d="M91.3333 170.667L91.6667 171.333L91.3333 170.667M408.333 170.667L408.667 171.333L408.333 170.667M92 173L93 174L92 173M407 173L408 174L407 173z"/>
<path style="fill:#9f9fca; stroke:none;" d="M407 174L408 175L407 174M93 176L94 177L93 176M406 176L407 177L406 176z"/>
<path style="fill:#5f5f9b; stroke:none;" d="M94 178L95 179L94 178M405 178L406 179L405 178z"/>
<path style="fill:#9f9fca; stroke:none;" d="M95 181L96 182L95 181M404 181L405 182L404 181z"/>
<path style="fill:#5f5f9b; stroke:none;" d="M96 183L97 184L96 183M403 183L404 184L403 183M97 185L98 186L97 185M402 185L403 186L402 185z"/>
<path style="fill:#9f9fca; stroke:none;" d="M97 186L98 187L97 186M402 186L403 187L402 186M98 188L99 189L98 188z"/>
<path style="fill:#5f5f9b; stroke:none;" d="M401 188L402 189L401 188z"/>
<path style="fill:#9f9fca; stroke:none;" d="M98 190L99 191L98 190M401 190L402 191L401 190M97 191L98 192L97 191z"/>
<path style="fill:#5f5f9b; stroke:none;" d="M402 191L403 192L402 191M96 192L97 193L96 192M403 192L404 193L403 192M95 193L96 194L95 193M404 193L405 194L404 193M94 194L95 195L94 194M405 194L406 195L405 194M93 195L94 196L93 195M406 195L407 196L406 195M92 196L93 197L92 196z"/>
<path style="fill:#9f9fca; stroke:none;" d="M413 201L414 202L413 201M414 202L415 203L414 202M415 203L416 204L415 203M84 205L85 206L84 205M415 205L416 206L415 205M86 208L87 209L86 208M413 208L414 209L413 208z"/>
<path style="fill:#5f5f9b; stroke:none;" d="M87 209L88 210L87 209M412 209L413 210L412 209z"/>
<path style="fill:#9f9fca; stroke:none;" d="M88 211L89 212L88 211M411 211L412 212L411 211z"/>
<path style="fill:#5f5f9b; stroke:none;" d="M89 212L90 213L89 212M410 212L411 213L410 212z"/>
<path style="fill:#9f9fca; stroke:none;" d="M90 214L91 215L90 214M409 214L410 215L409 214z"/>
<path style="fill:#5f5f9b; stroke:none;" d="M91 215L92 216L91 215M408 215L409 216L408 215z"/>
<path style="fill:#9f9fca; stroke:none;" d="M93 218L94 219L93 218z"/>
<path style="fill:#5f5f9b; stroke:none;" d="M406 218L407 219L406 218z"/>
<path style="fill:#9f9fca; stroke:none;" d="M95 221L96 222L95 221M404 221L405 222L404 221z"/>
<path style="fill:#5f5f9b; stroke:none;" d="M95 222L96 223L95 222z"/>
<path style="fill:#9f9fca; stroke:none;" d="M94 223L95 224L94 223M405 223L406 224L405 223z"/>
<path style="fill:#5f5f9b; stroke:none;" d="M92 226L93 227L92 226M407 226L408 227L407 226z"/>
<path style="fill:#9f9fca; stroke:none;" d="M408 227L409 228L408 227z"/>
<path style="fill:#5f5f9b; stroke:none;" d="M90 229L91 230L90 229M409 229L410 230L409 229z"/>
<path style="fill:#9f9fca; stroke:none;" d="M89 230L90 231L89 230M410 230L411 231L410 230z"/>
<path style="fill:#5f5f9b; stroke:none;" d="M88 232L89 233L88 232M411 232L412 233L411 232z"/>
<path style="fill:#9f9fca; stroke:none;" d="M87 233L88 234L87 233M412 233L413 234L412 233z"/>
<path style="fill:#5f5f9b; stroke:none;" d="M86 235L87 236L86 235M413 235L414 236L413 235z"/>
<path style="fill:#9f9fca; stroke:none;" d="M85 236L86 237L85 236M414 236L415 237L414 236z"/>
<path style="fill:#5f5f9b; stroke:none;" d="M84 239L85 240L84 239M415 239L416 240L415 239M85 240L86 241L85 240M414 240L415 241L414 240M86 241L87 242L86 241M413 241L414 242L413 241M87 242L88 243L87 242M412 242L413 243L412 242z"/>
<path style="fill:#9f9fca; stroke:none;" d="M88 243L89 244L88 243M411 243L412 244L411 243M89 244L90 245L89 244M410 244L411 245L410 244M90 245L91 246L90 245M409 245L410 246L409 245M91 246L92 247L91 246M408 246L409 247L408 246M92 247L93 248L92 247M407 247L408 248L407 247M93 248L94 249L93 248M406 248L407 249L406 248M401 254L402 255L401 254z"/>
<path style="fill:#5f5f9b; stroke:none;" d="M98 255L99 256L98 255M401 255L402 256L401 255M97 257L98 258L97 257M402 257L403 258L402 257z"/>
<path style="fill:#9f9fca; stroke:none;" d="M96 259L97 260L96 259M403 259L404 260L403 259z"/>
<path style="fill:#5f5f9b; stroke:none;" d="M96 260L97 261L96 260M95 262L96 263L95 262M404 262L405 263L404 262z"/>
<path style="fill:#9f9fca; stroke:none;" d="M94 264L95 265L94 264M405 264L406 265L405 264z"/>
<path style="fill:#5f5f9b; stroke:none;" d="M93 267L94 268L93 267M406 267L407 268L406 267z"/>
<path style="fill:#9f9fca; stroke:none;" d="M92 269L93 270L92 269z"/>
<path style="fill:#5f5f9b; stroke:none;" d="M407 269L408 270L407 269z"/>
<path style="fill:#9f9fca; stroke:none;" d="M91 271L92 272L91 271M408 271L409 272L408 271z"/>
<path style="fill:#5f5f9b; stroke:none;" d="M91 272L92 273L91 272M408 272L409 273L408 272z"/>
<path style="fill:#9f9fca; stroke:none;" d="M91 273L92 274L91 273M408 273L409 274L408 273z"/>
<path style="fill:#5f5f9b; stroke:none;" d="M93 274L94 275L93 274M406 274L407 275L406 274M95 275L96 276L95 275z"/>
<path style="fill:#9f9fca; stroke:none;" d="M96 276L97 277L96 276M403 276L404 277L403 276z"/>
<path style="fill:#5f5f9b; stroke:none;" d="M98 277L99 278L98 277M401 277L402 278L401 277z"/>
<path style="fill:#9f9fca; stroke:none;" d="M101 279L102 280L101 279M398 279L399 280L398 279z"/>
<path style="fill:#5f5f9b; stroke:none;" d="M103 280L104 281L103 280M396 280L397 281L396 280z"/>
<path style="fill:#9f9fca; stroke:none;" d="M104 281L105 282L104 281M395 281L396 282L395 281z"/>
<path style="fill:#5f5f9b; stroke:none;" d="M106 282L107 283L106 282M393 282L394 283L393 282M108 283L109 284L108 283M391 283L392 284L391 283z"/>
<path style="fill:#9f9fca; stroke:none;" d="M108 286L109 287L108 286M391 286L392 287L391 286z"/>
<path style="fill:#5f5f9b; stroke:none;" d="M108.333 287.667L108.667 288.333L108.333 287.667M391.333 287.667L391.667 288.333L391.333 287.667z"/>
<path style="fill:#9f9fca; stroke:none;" d="M392 291L393 292L392 291M107 292L108 293L107 292z"/>
<path style="fill:#5f5f9b; stroke:none;" d="M392.333 292.667L392.667 293.333L392.333 292.667M107 293L108 294L107 293z"/>
<path style="fill:#9f9fca; stroke:none;" d="M106 297L107 298L106 297M393 297L394 298L393 297z"/>
<path style="fill:#5f5f9b; stroke:none;" d="M106.333 298.667L106.667 299.333L106.333 298.667M393 298L394 299L393 298z"/>
<path style="fill:#9f9fca; stroke:none;" d="M105 302L106 303L105 302M394 302L395 303L394 302z"/>
<path style="fill:#5f5f9b; stroke:none;" d="M105.333 303.667L105.667 304.333L105.333 303.667M394.333 303.667L394.667 304.333L394.333 303.667z"/>
<path style="fill:#9f9fca; stroke:none;" d="M106 305L107 306L106 305z"/>
<path style="fill:#5f5f9b; stroke:none;" d="M107 305L108 306L107 305M392 305L393 306L392 305z"/>
<path style="fill:#9f9fca; stroke:none;" d="M393 305L394 306L393 305M109 306L110 307L109 306z"/>
<path style="fill:#5f5f9b; stroke:none;" d="M110 306L111 307L110 306M389 306L390 307L389 306z"/>
<path style="fill:#9f9fca; stroke:none;" d="M390 306L391 307L390 306M112 307L113 308L112 307z"/>
<path style="fill:#5f5f9b; stroke:none;" d="M113 307L114 308L113 307M386 307L387 308L386 307z"/>
<path style="fill:#9f9fca; stroke:none;" d="M387 307L388 308L387 307M115 308L116 309L115 308M384 308L385 309L384 308z"/>
<path style="fill:#5f5f9b; stroke:none;" d="M118 309L119 310L118 309M381 309L382 310L381 309M121 310L122 311L121 310M378 310L379 311L378 310M124 311L125 312L124 311M375 311L376 312L375 311z"/>
<path style="fill:#9f9fca; stroke:none;" d="M376 311L377 312L376 311z"/>
<path style="fill:#5f5f9b; stroke:none;" d="M125 313L125 323L126 323L125 313M374 314L374 324L375 324L374 314z"/>
<path style="fill:#9f9fca; stroke:none;" d="M125 323L125 330L126 330L125 323M374 324L374 331L375 331L374 324M129 333L130 334L129 333z"/>
<path style="fill:#5f5f9b; stroke:none;" d="M130.667 333.333L131.333 333.667L130.667 333.333M368.667 333.333L369.333 333.667L368.667 333.333z"/>
<path style="fill:#9f9fca; stroke:none;" d="M370 333L371 334L370 333M136.667 334.333L137.333 334.667L136.667 334.333z"/>
<path style="fill:#5f5f9b; stroke:none;" d="M138.667 334.333L139.333 334.667L138.667 334.333M360.667 334.333L361.333 334.667L360.667 334.333z"/>
<path style="fill:#9f9fca; stroke:none;" d="M362.667 334.333L363.333 334.667L362.667 334.333M144 335L145 336L144 335z"/>
<path style="fill:#5f5f9b; stroke:none;" d="M145.667 335.333L146.333 335.667L145.667 335.333M353.667 335.333L354.333 335.667L353.667 335.333z"/>
<path style="fill:#9f9fca; stroke:none;" d="M355 335L356 336L355 335z"/>
<path style="fill:#5f5f9b; stroke:none;" d="M147.333 337.667L147.667 338.333L147.333 337.667M352 338L353 339L352 338z"/>
<path style="fill:#9f9fca; stroke:none;" d="M352 339L353 340L352 339z"/>
<path style="fill:#5f5f9b; stroke:none;" d="M148 342L149 343L148 342M351 342L352 343L351 342z"/>
<path style="fill:#9f9fca; stroke:none;" d="M148 343L149 344L148 343M351 343L352 344L351 343z"/>
<path style="fill:#5f5f9b; stroke:none;" d="M149 346L150 347L149 346M350 346L351 347L350 346z"/>
<path style="fill:#9f9fca; stroke:none;" d="M149 347L150 348L149 347M350 347L351 348L350 347z"/>
<path style="fill:#5f5f9b; stroke:none;" d="M150 350L151 351L150 350M349 350L350 351L349 350z"/>
<path style="fill:#9f9fca; stroke:none;" d="M150 351L151 352L150 351M349 351L350 352L349 351z"/>
<path style="fill:#5f5f9b; stroke:none;" d="M151 354L152 355L151 354M172 354L173 355L172 354M327 354L328 355L327 354M348 354L349 355L348 354z"/>
<path style="fill:#9f9fca; stroke:none;" d="M151 355L152 356L151 355z"/>
<path style="fill:#5f5f9b; stroke:none;" d="M158 355L158 356L162 356L158 355z"/>
<path style="fill:#9f9fca; stroke:none;" d="M162 355L162 356L165 356L162 355z"/>
<path style="fill:#5f5f9b; stroke:none;" d="M173 355L174 356L173 355M326 355L327 356L326 355z"/>
<path style="fill:#9f9fca; stroke:none;" d="M335 355L335 356L338 356L335 355z"/>
<path style="fill:#5f5f9b; stroke:none;" d="M338 355L338 356L342 356L338 355z"/>
<path style="fill:#9f9fca; stroke:none;" d="M348 355L349 356L348 355z"/>
<path style="fill:#5f5f9b; stroke:none;" d="M174 357L175 358L174 357z"/>
<path style="fill:#9f9fca; stroke:none;" d="M325 358L326 359L325 358M175 360L176 361L175 360M324 360L325 361L324 360M176 362L177 363L176 362M323 362L324 363L323 362M177 364L178 365L177 364M322 364L323 365L322 364M178 366L179 367L178 366M321 366L322 367L321 366M179 368L180 369L179 368z"/>
<path style="fill:#5f5f9b; stroke:none;" d="M199 368L200 369L199 368M300 368L301 369L300 368M320 368L321 369L320 368M195 369L196 370L195 369z"/>
<path style="fill:#9f9fca; stroke:none;" d="M196 369L197 370L196 369M203 369L204 370L203 369M296 369L297 370L296 369M303 369L304 370L303 369z"/>
<path style="fill:#5f5f9b; stroke:none;" d="M304 369L305 370L304 369M180 370L181 371L180 370M192 370L193 371L192 370z"/>
<path style="fill:#9f9fca; stroke:none;" d="M193 370L194 371L193 370M204 370L205 371L204 370M295 370L296 371L295 370M306 370L307 371L306 370z"/>
<path style="fill:#5f5f9b; stroke:none;" d="M307 370L308 371L307 370M319 370L320 371L319 370M189 371L190 372L189 371M205 371L206 372L205 371M294 371L295 372L294 371M310 371L311 372L310 371M181 372L182 373L181 372M185 372L186 373L185 372z"/>
<path style="fill:#9f9fca; stroke:none;" d="M186 372L187 373L186 372M313 372L314 373L313 372z"/>
<path style="fill:#5f5f9b; stroke:none;" d="M314 372L315 373L314 372M318 372L319 373L318 372M182 373L183 374L182 373M317 373L318 374L317 373z"/>
<path style="fill:#9f9fca; stroke:none;" d="M207 374L208 375L207 374M233 374L234 375L233 374z"/>
<path style="fill:#5f5f9b; stroke:none;" d="M234 374L235 375L234 374M265 374L266 375L265 374z"/>
<path style="fill:#9f9fca; stroke:none;" d="M266 374L267 375L266 374M292 374L293 375L292 374z"/>
<path style="fill:#5f5f9b; stroke:none;" d="M208 375L209 376L208 375M231 375L232 376L231 375M235 375L236 376L235 375M264 375L265 376L264 375z"/>
<path style="fill:#9f9fca; stroke:none;" d="M268 375L269 376L268 375z"/>
<path style="fill:#5f5f9b; stroke:none;" d="M291 375L292 376L291 375M209 376L210 377L209 376M229 376L230 377L229 376z"/>
<path style="fill:#9f9fca; stroke:none;" d="M236 376L237 377L236 376M263 376L264 377L263 376z"/>
<path style="fill:#5f5f9b; stroke:none;" d="M270 376L271 377L270 376M290 376L291 377L290 376M227 377L228 378L227 377z"/>
<path style="fill:#9f9fca; stroke:none;" d="M237 377L238 378L237 377M262 377L263 378L262 377z"/>
<path style="fill:#5f5f9b; stroke:none;" d="M272 377L273 378L272 377M225 378L226 379L225 378M274 378L275 379L274 378z"/>
<path style="fill:#9f9fca; stroke:none;" d="M289 378L290 379L289 378M211 379L212 380L211 379z"/>
<path style="fill:#5f5f9b; stroke:none;" d="M276 379L277 380L276 379z"/>
<path style="fill:#9f9fca; stroke:none;" d="M288 379L289 380L288 379z"/>
<path style="fill:#5f5f9b; stroke:none;" d="M212 380L213 381L212 380z"/>
<path style="fill:#9f9fca; stroke:none;" d="M222 380L223 381L222 380z"/>
<path style="fill:#5f5f9b; stroke:none;" d="M241 380L242 381L241 380M258 380L259 381L258 380z"/>
<path style="fill:#9f9fca; stroke:none;" d="M277 380L278 381L277 380z"/>
<path style="fill:#5f5f9b; stroke:none;" d="M287 380L288 381L287 380z"/>
<path style="fill:#9f9fca; stroke:none;" d="M220 381L221 382L220 381z"/>
<path style="fill:#5f5f9b; stroke:none;" d="M242 381L243 382L242 381M257 381L258 382L257 381z"/>
<path style="fill:#9f9fca; stroke:none;" d="M279 381L280 382L279 381M218 382L219 383L218 382M243 382L244 383L243 382M256 382L257 383L256 382M281 382L282 383L281 382M214 383L215 384L214 383z"/>
<path style="fill:#5f5f9b; stroke:none;" d="M216 383L217 384L216 383z"/>
<path style="fill:#9f9fca; stroke:none;" d="M244 383L245 384L244 383M255 383L256 384L255 383z"/>
<path style="fill:#5f5f9b; stroke:none;" d="M283 383L284 384L283 383z"/>
<path style="fill:#9f9fca; stroke:none;" d="M285 383L286 384L285 383z"/>
<path style="fill:#5f5f9b; stroke:none;" d="M248 386L249 387L248 386M251 386L252 387L251 386z"/>
<path style="fill:#9f9fca; stroke:none;" d="M249.667 387.333L250.333 387.667L249.667 387.333z"/>
</svg>
