<?xml version="1.0" standalone="yes"?>
<svg xmlns="http://www.w3.org/2000/svg" width="500" height="500">
<path style="fill:#ffffff; stroke:none;" d="M0 0L0 500L500 500L500 0L0 0z"/>
<path style="fill:#3030a1; stroke:none;" d="M249.667 56.3333L250.333 56.6667L249.667 56.3333z"/>
<path style="fill:#010102; stroke:none;" d="M249 57L134.15 258L101.579 315L85 345L415 345L398.421 315L365.85 258L251 57L249 57z"/>
<path style="fill:#3030a1; stroke:none;" d="M248 58L249 59L248 58M251 58L252 59L251 58z"/>
<path style="fill:#9d9dc8; stroke:none;" d="M247 59L248 60L247 59M252 59L253 60L252 59M246 61L247 62L246 61M253 61L254 62L253 61z"/>
<path style="fill:#3030a1; stroke:none;" d="M245 63L246 64L245 63M254 63L255 64L254 63M244 65L245 66L244 65M255 65L256 66L255 65z"/>
<path style="fill:#9d9dc8; stroke:none;" d="M243 66L244 67L243 66M256 66L257 67L256 66M242 68L243 69L242 68M257 68L258 69L257 68z"/>
<path style="fill:#3030a1; stroke:none;" d="M241 70L242 71L241 70M258 70L259 71L258 70M240 72L241 73L240 72M259 72L260 73L259 72z"/>
<path style="fill:#9d9dc8; stroke:none;" d="M239 73L240 74L239 73M260 73L261 74L260 73M238 75L239 76L238 75M261 75L262 76L261 75z"/>
<path style="fill:#3030a1; stroke:none;" d="M237 77L238 78L237 77M262 77L263 78L262 77M236 79L237 80L236 79M263 79L264 80L263 79z"/>
<path style="fill:#9d9dc8; stroke:none;" d="M235 80L236 81L235 80M264 80L265 81L264 80M234 82L235 83L234 82M265 82L266 83L265 82z"/>
<path style="fill:#3030a1; stroke:none;" d="M233 84L234 85L233 84M266 84L267 85L266 84M232 86L233 87L232 86M267 86L268 87L267 86z"/>
<path style="fill:#9d9dc8; stroke:none;" d="M231 87L232 88L231 87M268 87L269 88L268 87M230 89L231 90L230 89M269 89L270 90L269 89z"/>
<path style="fill:#3030a1; stroke:none;" d="M229 91L230 92L229 91M270 91L271 92L270 91M228 93L229 94L228 93M271 93L272 94L271 93z"/>
<path style="fill:#9d9dc8; stroke:none;" d="M227 94L228 95L227 94M272 94L273 95L272 94M226 96L227 97L226 96M273 96L274 97L273 96z"/>
<path style="fill:#3030a1; stroke:none;" d="M225 98L226 99L225 98M274 98L275 99L274 98M224 100L225 101L224 100M275 100L276 101L275 100z"/>
<path style="fill:#9d9dc8; stroke:none;" d="M223 101L224 102L223 101M276 101L277 102L276 101M222 103L223 104L222 103M277 103L278 104L277 103z"/>
<path style="fill:#3030a1; stroke:none;" d="M221 105L222 106L221 105M278 105L279 106L278 105z"/>
<path style="fill:#9d9dc8; stroke:none;" d="M279 106L280 107L279 106z"/>
<path style="fill:#3030a1; stroke:none;" d="M220 107L221 108L220 107M279 107L280 108L279 107z"/>
<path style="fill:#9d9dc8; stroke:none;" d="M219 108L220 109L219 108M280 108L281 109L280 108M218 110L219 111L218 110M281 110L282 111L281 110z"/>
<path style="fill:#3030a1; stroke:none;" d="M217 112L218 113L217 112M282 112L283 113L282 112z"/>
<path style="fill:#9d9dc8; stroke:none;" d="M283 113L284 114L283 113z"/>
<path style="fill:#3030a1; stroke:none;" d="M216 114L217 115L216 114M283 114L284 115L283 114z"/>
<path style="fill:#9d9dc8; stroke:none;" d="M215 115L216 116L215 115M284 115L285 116L284 115M214 117L215 118L214 117M285 117L286 118L285 117z"/>
<path style="fill:#3030a1; stroke:none;" d="M213 119L214 120L213 119M286 119L287 120L286 119z"/>
<path style="fill:#9d9dc8; stroke:none;" d="M287 120L288 121L287 120z"/>
<path style="fill:#3030a1; stroke:none;" d="M212 121L213 122L212 121M287 121L288 122L287 121z"/>
<path style="fill:#9d9dc8; stroke:none;" d="M211 122L212 123L211 122M288 122L289 123L288 122M210 124L211 125L210 124M289 124L290 125L289 124z"/>
<path style="fill:#3030a1; stroke:none;" d="M209 126L210 127L209 126M290 126L291 127L290 126z"/>
<path style="fill:#9d9dc8; stroke:none;" d="M291 127L292 128L291 127z"/>
<path style="fill:#3030a1; stroke:none;" d="M208 128L209 129L208 128M291 128L292 129L291 128z"/>
<path style="fill:#9d9dc8; stroke:none;" d="M207 129L208 130L207 129M292 129L293 130L292 129M206 131L207 132L206 131z"/>
<path style="fill:#3030a1; stroke:none;" d="M293 131L294 132L293 131M205 133L206 134L205 133M294 133L295 134L294 133z"/>
<path style="fill:#9d9dc8; stroke:none;" d="M295 134L296 135L295 134z"/>
<path style="fill:#3030a1; stroke:none;" d="M204 135L205 136L204 135M295 135L296 136L295 135z"/>
<path style="fill:#9d9dc8; stroke:none;" d="M203 136L204 137L203 136M296 136L297 137L296 136M202 138L203 139L202 138z"/>
<path style="fill:#3030a1; stroke:none;" d="M297 138L298 139L297 138M201 140L202 141L201 140M298 140L299 141L298 140z"/>
<path style="fill:#9d9dc8; stroke:none;" d="M200 141L201 142L200 141M299 141L300 142L299 141z"/>
<path style="fill:#3030a1; stroke:none;" d="M200 142L201 143L200 142M299 142L300 143L299 142z"/>
<path style="fill:#9d9dc8; stroke:none;" d="M199 143L200 144L199 143M300 143L301 144L300 143M198 145L199 146L198 145z"/>
<path style="fill:#3030a1; stroke:none;" d="M301 145L302 146L301 145M197 147L198 148L197 147M302 147L303 148L302 147z"/>
<path style="fill:#9d9dc8; stroke:none;" d="M196 148L197 149L196 148M303 148L304 149L303 148z"/>
<path style="fill:#3030a1; stroke:none;" d="M196 149L197 150L196 149M303 149L304 150L303 149z"/>
<path style="fill:#9d9dc8; stroke:none;" d="M195 150L196 151L195 150M304 150L305 151L304 150M194 152L195 153L194 152z"/>
<path style="fill:#3030a1; stroke:none;" d="M305 152L306 153L305 152z"/>
<path style="fill:#0101ff; stroke:none;" d="M249 153L188.719 259L167 298L333 298L310.85 258L251 153L249 153z"/>
<path style="fill:#3030a1; stroke:none;" d="M193 154L194 155L193 154M306 154L307 155L306 154z"/>
<path style="fill:#9d9dc8; stroke:none;" d="M192 155L193 156L192 155M307 155L308 156L307 155z"/>
<path style="fill:#3030a1; stroke:none;" d="M192 156L193 157L192 156M307 156L308 157L307 156z"/>
<path style="fill:#9d9dc8; stroke:none;" d="M191 157L192 158L191 157M308 157L309 158L308 157M190 159L191 160L190 159z"/>
<path style="fill:#3030a1; stroke:none;" d="M309 159L310 160L309 159M189 161L190 162L189 161M310 161L311 162L310 161z"/>
<path style="fill:#9d9dc8; stroke:none;" d="M188 162L189 163L188 162M311 162L312 163L311 162z"/>
<path style="fill:#3030a1; stroke:none;" d="M188 163L189 164L188 163z"/>
<path style="fill:#9d9dc8; stroke:none;" d="M187 164L188 165L187 164M312 164L313 165L312 164z"/>
<path style="fill:#3030a1; stroke:none;" d="M186 166L187 167L186 166M313 166L314 167L313 166M185 168L186 169L185 168M314 168L315 169L314 168z"/>
<path style="fill:#9d9dc8; stroke:none;" d="M184 169L185 170L184 169M315 169L316 170L315 169z"/>
<path style="fill:#3030a1; stroke:none;" d="M184 170L185 171L184 170z"/>
<path style="fill:#9d9dc8; stroke:none;" d="M183 171L184 172L183 171M316 171L317 172L316 171z"/>
<path style="fill:#3030a1; stroke:none;" d="M182 173L183 174L182 173M317 173L318 174L317 173M181 175L182 176L181 175M318 175L319 176L318 175z"/>
<path style="fill:#9d9dc8; stroke:none;" d="M180 176L181 177L180 176M319 176L320 177L319 176z"/>
<path style="fill:#3030a1; stroke:none;" d="M180 177L181 178L180 177z"/>
<path style="fill:#9d9dc8; stroke:none;" d="M179 178L180 179L179 178M320 178L321 179L320 178z"/>
<path style="fill:#3030a1; stroke:none;" d="M178 180L179 181L178 180M321 180L322 181L321 180M177 182L178 183L177 182M322 182L323 183L322 182z"/>
<path style="fill:#9d9dc8; stroke:none;" d="M176 183L177 184L176 183M323 183L324 184L323 183z"/>
<path style="fill:#3030a1; stroke:none;" d="M176 184L177 185L176 184z"/>
<path style="fill:#9d9dc8; stroke:none;" d="M175 185L176 186L175 185M324 185L325 186L324 185z"/>
<path style="fill:#3030a1; stroke:none;" d="M174 187L175 188L174 187M325 187L326 188L325 187M173 189L174 190L173 189M326 189L327 190L326 189z"/>
<path style="fill:#9d9dc8; stroke:none;" d="M172 190L173 191L172 190M327 190L328 191L327 190M171 192L172 193L171 192M328 192L329 193L328 192z"/>
<path style="fill:#3030a1; stroke:none;" d="M170 194L171 195L170 194M329 194L330 195L329 194M169 196L170 197L169 196M330 196L331 197L330 196z"/>
<path style="fill:#9d9dc8; stroke:none;" d="M168 197L169 198L168 197M331 197L332 198L331 197M167 199L168 200L167 199M332 199L333 200L332 199z"/>
<path style="fill:#3030a1; stroke:none;" d="M166 201L167 202L166 201M333 201L334 202L333 201M165 203L166 204L165 203M334 203L335 204L334 203z"/>
<path style="fill:#9d9dc8; stroke:none;" d="M164 204L165 205L164 204M335 204L336 205L335 204M163 206L164 207L163 206M336 206L337 207L336 206z"/>
<path style="fill:#3030a1; stroke:none;" d="M162 208L163 209L162 208M337 208L338 209L337 208M161 210L162 211L161 210M338 210L339 211L338 210z"/>
<path style="fill:#9d9dc8; stroke:none;" d="M160 211L161 212L160 211M339 211L340 212L339 211M159 213L160 214L159 213M340 213L341 214L340 213z"/>
<path style="fill:#3030a1; stroke:none;" d="M158 215L159 216L158 215M341 215L342 216L341 215M157 217L158 218L157 217M342 217L343 218L342 217z"/>
<path style="fill:#9d9dc8; stroke:none;" d="M156 218L157 219L156 218M343 218L344 219L343 218M155 220L156 221L155 220M344 220L345 221L344 220z"/>
<path style="fill:#3030a1; stroke:none;" d="M154 222L155 223L154 222M345 222L346 223L345 222M153 224L154 225L153 224M346 224L347 225L346 224z"/>
<path style="fill:#9d9dc8; stroke:none;" d="M152 225L153 226L152 225M347 225L348 226L347 225M151 227L152 228L151 227M348 227L349 228L348 227z"/>
<path style="fill:#3030a1; stroke:none;" d="M150 229L151 230L150 229M349 229L350 230L349 229M149 231L150 232L149 231M350 231L351 232L350 231z"/>
<path style="fill:#9d9dc8; stroke:none;" d="M148 232L149 233L148 232M351 232L352 233L351 232M147 234L148 235L147 234M352 234L353 235L352 234z"/>
<path style="fill:#3030a1; stroke:none;" d="M146 236L147 237L146 236M353 236L354 237L353 236M145 238L146 239L145 238M354 238L355 239L354 238z"/>
<path style="fill:#9d9dc8; stroke:none;" d="M144 239L145 240L144 239M355 239L356 240L355 239M143 241L144 242L143 241M356 241L357 242L356 241z"/>
<path style="fill:#3030a1; stroke:none;" d="M142 243L143 244L142 243M357 243L358 244L357 243M141 245L142 246L141 245M358 245L359 246L358 245z"/>
<path style="fill:#9d9dc8; stroke:none;" d="M140 246L141 247L140 246M359 246L360 247L359 246M139 248L140 249L139 248M360 248L361 249L360 248z"/>
<path style="fill:#3030a1; stroke:none;" d="M138 250L139 251L138 250M361 250L362 251L361 250M137 252L138 253L137 252M362 252L363 253L362 252z"/>
<path style="fill:#9d9dc8; stroke:none;" d="M136 253L137 254L136 253M363 253L364 254L363 253M135 255L136 256L135 255M364 255L365 256L364 255z"/>
<path style="fill:#3030a1; stroke:none;" d="M134 257L135 258L134 257M365 257L366 258L365 257M133 259L134 260L133 259M366 259L367 260L366 259z"/>
<path style="fill:#9d9dc8; stroke:none;" d="M132 260L133 261L132 260M367 260L368 261L367 260M131 262L132 263L131 262M368 262L369 263L368 262z"/>
<path style="fill:#3030a1; stroke:none;" d="M130 264L131 265L130 264M369 264L370 265L369 264z"/>
<path style="fill:#9d9dc8; stroke:none;" d="M370 265L371 266L370 265z"/>
<path style="fill:#3030a1; stroke:none;" d="M129 266L130 267L129 266M370 266L371 267L370 266z"/>
<path style="fill:#9d9dc8; stroke:none;" d="M128 267L129 268L128 267M371 267L372 268L371 267M127 269L128 270L127 269M372 269L373 270L372 269z"/>
<path style="fill:#3030a1; stroke:none;" d="M126 271L127 272L126 271M373 271L374 272L373 271z"/>
<path style="fill:#9d9dc8; stroke:none;" d="M374 272L375 273L374 272z"/>
<path style="fill:#3030a1; stroke:none;" d="M125 273L126 274L125 273M374 273L375 274L374 273z"/>
<path style="fill:#9d9dc8; stroke:none;" d="M124 274L125 275L124 274M375 274L376 275L375 274M123 276L124 277L123 276M376 276L377 277L376 276z"/>
<path style="fill:#3030a1; stroke:none;" d="M122 278L123 279L122 278M377 278L378 279L377 278z"/>
<path style="fill:#9d9dc8; stroke:none;" d="M378 279L379 280L378 279z"/>
<path style="fill:#3030a1; stroke:none;" d="M121 280L122 281L121 280M378 280L379 281L378 280z"/>
<path style="fill:#9d9dc8; stroke:none;" d="M120 281L121 282L120 281M379 281L380 282L379 281M119 283L120 284L119 283M380 283L381 284L380 283z"/>
<path style="fill:#3030a1; stroke:none;" d="M118 285L119 286L118 285M381 285L382 286L381 285z"/>
<path style="fill:#9d9dc8; stroke:none;" d="M117 286L118 287L117 286M382 286L383 287L382 286z"/>
<path style="fill:#3030a1; stroke:none;" d="M117 287L118 288L117 287M382 287L383 288L382 287z"/>
<path style="fill:#9d9dc8; stroke:none;" d="M116 288L117 289L116 288M383 288L384 289L383 288M115 290L116 291L115 290z"/>
<path style="fill:#3030a1; stroke:none;" d="M384 290L385 291L384 290M114 292L115 293L114 292M385 292L386 293L385 292z"/>
<path style="fill:#9d9dc8; stroke:none;" d="M113 293L114 294L113 293M386 293L387 294L386 293z"/>
<path style="fill:#3030a1; stroke:none;" d="M113 294L114 295L113 294M386 294L387 295L386 294z"/>
<path style="fill:#9d9dc8; stroke:none;" d="M112 295L113 296L112 295M387 295L388 296L387 295M111 297L112 298L111 297z"/>
<path style="fill:#3030a1; stroke:none;" d="M388 297L389 298L388 297M110 299L111 300L110 299M389 299L390 300L389 299z"/>
<path style="fill:#9d9dc8; stroke:none;" d="M109 300L110 301L109 300M390 300L391 301L390 300z"/>
<path style="fill:#3030a1; stroke:none;" d="M109 301L110 302L109 301M390 301L391 302L390 301z"/>
<path style="fill:#9d9dc8; stroke:none;" d="M108 302L109 303L108 302M391 302L392 303L391 302M107 304L108 305L107 304z"/>
<path style="fill:#3030a1; stroke:none;" d="M392 304L393 305L392 304M106 306L107 307L106 306M393 306L394 307L393 306z"/>
<path style="fill:#9d9dc8; stroke:none;" d="M105 307L106 308L105 307M394 307L395 308L394 307z"/>
<path style="fill:#3030a1; stroke:none;" d="M105 308L106 309L105 308M394 308L395 309L394 308z"/>
<path style="fill:#9d9dc8; stroke:none;" d="M104 309L105 310L104 309M395 309L396 310L395 309z"/>
<path style="fill:#3030a1; stroke:none;" d="M103 311L104 312L103 311M396 311L397 312L396 311M102 313L103 314L102 313M397 313L398 314L397 313z"/>
<path style="fill:#9d9dc8; stroke:none;" d="M101 314L102 315L101 314M398 314L399 315L398 314z"/>
<path style="fill:#3030a1; stroke:none;" d="M101 315L102 316L101 315M398 315L399 316L398 315z"/>
<path style="fill:#9d9dc8; stroke:none;" d="M100 316L101 317L100 316M399 316L400 317L399 316z"/>
<path style="fill:#3030a1; stroke:none;" d="M99 318L100 319L99 318M400 318L401 319L400 318M98 320L99 321L98 320M401 320L402 321L401 320z"/>
<path style="fill:#9d9dc8; stroke:none;" d="M97 321L98 322L97 321M402 321L403 322L402 321z"/>
<path style="fill:#3030a1; stroke:none;" d="M97 322L98 323L97 322M402 322L403 323L402 322z"/>
<path style="fill:#9d9dc8; stroke:none;" d="M96 323L97 324L96 323M403 323L404 324L403 323z"/>
<path style="fill:#3030a1; stroke:none;" d="M95 325L96 326L95 325M404 325L405 326L404 325M94 327L95 328L94 327M405 327L406 328L405 327z"/>
<path style="fill:#9d9dc8; stroke:none;" d="M93 328L94 329L93 328M406 328L407 329L406 328z"/>
<path style="fill:#3030a1; stroke:none;" d="M93 329L94 330L93 329z"/>
<path style="fill:#9d9dc8; stroke:none;" d="M92 330L93 331L92 330M407 330L408 331L407 330z"/>
<path style="fill:#3030a1; stroke:none;" d="M91 332L92 333L91 332M408 332L409 333L408 332M90 334L91 335L90 334M409 334L410 335L409 334z"/>
<path style="fill:#9d9dc8; stroke:none;" d="M89 335L90 336L89 335M410 335L411 336L410 335M88 337L89 338L88 337M411 337L412 338L411 337z"/>
<path style="fill:#3030a1; stroke:none;" d="M87 339L88 340L87 339M412 339L413 340L412 339M86 341L87 342L86 341M413 341L414 342L413 341z"/>
<path style="fill:#9d9dc8; stroke:none;" d="M85 342L86 343L85 342M414 342L415 343L414 342M84 344L85 345L84 344M415 344L416 345L415 344z"/>
<path style="fill:#3030a1; stroke:none;" d="M84 345L84 346L416 346L386 345L319 345L84 345z"/>
</svg>
