<svg version="1.1" id="Layer_1" xmlns="http://www.w3.org/2000/svg" xmlns:xlink="http://www.w3.org/1999/xlink" x="0px" y="0px"
	 width="100%" viewBox="0 0 2100 1500" enable-background="new 0 0 2100 1500" xml:space="preserve">
<path fill="#000000" opacity="1.000000" stroke="none" 
	d="
M1091.000000,1501.000000 
	C727.333313,1501.000000 364.166656,1501.000000 1.000000,1501.000000 
	C1.000000,1001.000000 1.000000,501.000000 1.000000,1.000000 
	C701.000000,1.000000 1401.000000,1.000000 2101.000000,1.000000 
	C2101.000000,501.000000 2101.000000,1001.000000 2101.000000,1501.000000 
	C1764.500000,1501.000000 1428.000000,1501.000000 1091.000000,1501.000000 
M910.027283,724.997009 
	C910.027283,724.997009 909.996887,725.062256 909.921265,724.278259 
	C908.647400,724.072021 907.373962,723.688782 906.099670,723.686096 
	C886.778442,723.645142 867.456482,723.569946 848.136475,723.724487 
	C844.430481,723.754211 843.210205,722.647034 843.293030,718.903992 
	C843.514038,708.915161 843.643250,698.906982 843.242554,688.929199 
	C843.045837,684.030518 844.912537,683.187500 849.267578,683.221069 
	C873.417664,683.407715 897.569946,683.324829 921.721436,683.333923 
	C923.490112,683.334595 925.258789,683.333984 927.063416,683.333984 
	C927.063416,668.745850 927.063416,654.851257 927.063416,640.907471 
	C883.853699,640.907471 840.988342,640.907471 797.958374,640.907471 
	C797.958374,704.990295 797.958374,768.711853 797.958374,832.500366 
	C813.137451,832.500366 828.033813,832.500366 843.344727,832.500366 
	C843.344727,830.535400 843.344299,828.900208 843.344849,827.264954 
	C843.351074,808.943054 843.339233,790.621155 843.390381,772.299377 
	C843.395874,770.329468 843.767639,768.360657 844.906677,766.307617 
	C858.812561,766.304138 872.718689,766.344604 886.624329,766.279846 
	C894.379028,766.243713 902.132935,766.032837 910.377502,765.265625 
	C910.240356,751.830139 910.103210,738.394714 910.027283,724.997009 
M1109.945679,684.172424 
	C1109.864990,684.997131 1109.713745,685.821899 1109.713501,686.646606 
	C1109.701782,734.142029 1109.700073,781.637512 1109.718262,829.132935 
	C1109.718628,830.249512 1109.957275,831.366028 1110.083008,832.466064 
	C1125.250244,832.466064 1140.146118,832.466064 1155.586670,832.466064 
	C1155.586670,796.873840 1155.586670,761.646851 1155.586670,725.799866 
	C1169.761963,725.799866 1183.392090,725.799866 1197.365967,726.708984 
	C1197.387085,738.664734 1197.388550,750.620483 1197.433716,762.576172 
	C1197.520996,785.647766 1197.632812,808.719177 1197.999268,832.479614 
	C1212.902466,832.479614 1227.805664,832.479614 1243.263428,832.479614 
	C1243.263428,796.810120 1243.263428,761.581665 1243.263428,726.245117 
	C1257.245361,726.245117 1270.662476,726.245117 1284.602783,726.245117 
	C1284.602783,761.801392 1284.602783,797.043823 1284.602783,832.557861 
	C1300.027832,832.557861 1314.927368,832.557861 1330.011719,832.557861 
	C1330.011719,782.585144 1330.011719,732.870239 1330.011719,682.931396 
	C1328.404663,682.835083 1327.103760,682.689087 1325.802856,682.688965 
	C1255.493652,682.679260 1185.184448,682.677124 1114.875244,682.716553 
	C1113.471924,682.717346 1112.068726,683.217712 1110.602661,683.591919 
	C1110.602661,683.591919 1110.524170,683.687866 1109.945679,684.172424 
M958.483826,663.695251 
	C972.700623,663.789978 986.917419,663.900330 1001.134338,663.927368 
	C1001.761230,663.928528 1002.389648,663.167480 1003.064819,661.855103 
	C1003.064819,653.131104 1003.064819,644.407104 1003.064819,635.719604 
	C987.645569,635.719604 972.928650,635.719604 958.132874,635.719604 
	C958.132874,644.989868 958.132874,653.956116 958.483826,663.695251 
M958.451599,832.705078 
	C972.692383,832.804138 986.933044,832.919067 1001.174011,832.948853 
	C1001.791504,832.950134 1002.410645,832.169189 1003.064209,830.847046 
	C1003.064209,781.774841 1003.064209,732.702637 1003.064209,683.404053 
	C987.855774,683.404053 973.134277,683.404053 958.386963,683.404053 
	C958.221130,684.126099 958.020386,684.591553 958.020630,685.056824 
	C958.043335,734.010010 958.081055,782.963257 958.451599,832.705078 
M1131.022217,1003.995911 
	C1130.560791,1014.036682 1125.768066,1023.161804 1112.666626,1024.625366 
	C1098.967163,1026.155762 1085.486328,1021.546753 1084.116821,1006.644958 
	C1083.133911,995.950256 1082.636230,985.046509 1083.588379,974.384766 
	C1084.535645,963.779236 1090.457764,955.756104 1102.018311,954.470825 
	C1117.516479,952.747864 1127.018433,956.182312 1130.639282,970.924683 
	C1131.332153,973.745972 1131.650879,976.659180 1132.106079,979.319214 
	C1147.021851,979.319214 1161.442383,979.319214 1176.119873,979.319214 
	C1176.119873,977.391357 1176.238892,975.735168 1176.091919,974.102966 
	C1175.869873,971.639648 1175.555054,969.176392 1175.118896,966.741882 
	C1171.408081,946.032288 1161.065430,929.724670 1142.119141,920.052124 
	C1124.888550,911.255432 1106.564087,910.317322 1087.790649,914.753235 
	C1069.061401,919.178711 1054.945068,929.856506 1047.089966,947.127930 
	C1035.207275,973.255432 1034.155396,1000.263611 1044.862915,1027.202881 
	C1051.093262,1042.877930 1061.483398,1054.974976 1077.464478,1061.429932 
	C1088.879639,1066.040894 1100.896973,1067.122314 1113.101440,1066.518921 
	C1138.576172,1065.259399 1158.140625,1054.423706 1169.124146,1030.764404 
	C1172.339966,1023.836914 1173.834717,1016.110352 1176.579224,1008.147400 
	C1176.729492,1005.254639 1176.879761,1002.361877 1177.053345,999.022705 
	C1162.060913,999.022705 1147.846436,999.031799 1133.631958,999.015808 
	C1130.430542,999.012207 1130.958862,1001.195984 1131.022217,1003.995911 
M1007.075989,1021.375977 
	C1006.751831,1021.411011 1006.435791,1021.481995 1005.436890,1021.315613 
	C1004.273804,1021.590637 1003.110779,1021.865723 1001.351501,1022.293945 
	C1000.948425,1022.368958 1000.545349,1022.443909 999.368469,1022.259399 
	C997.341919,1022.551697 995.315430,1022.844055 992.582275,1023.309204 
	C992.100708,1023.360291 991.619141,1023.411377 990.284485,1023.235901 
	C987.579346,1023.506592 984.874207,1023.777222 981.297485,1024.185181 
	C973.064026,1024.190918 964.817383,1024.495239 956.600159,1024.133301 
	C943.802795,1023.569458 934.301025,1017.860168 932.880249,1004.277039 
	C934.701233,1004.209717 936.522095,1004.084717 938.343140,1004.083740 
	C963.240295,1004.070190 988.137634,1004.104614 1013.034363,1004.003967 
	C1014.698364,1003.997253 1016.358337,1002.998962 1017.903992,1001.598816 
	C1018.022949,986.201904 1018.466797,970.801697 1013.989258,955.769348 
	C1008.962280,938.892578 999.094238,926.219788 982.975891,918.624390 
	C967.353882,911.262817 950.994385,910.678955 934.545593,914.127686 
	C918.773987,917.434448 905.569946,925.574585 897.296631,939.758545 
	C884.498474,961.700073 883.495361,985.727905 887.174377,1010.049744 
	C890.714844,1033.455566 902.761108,1051.030396 925.414368,1061.230835 
	C926.038818,1061.339966 926.663269,1061.449219 927.739868,1061.634644 
	C927.739868,1061.634644 928.145630,1061.848389 928.506531,1062.358887 
	C930.110962,1062.652100 931.715332,1062.945435 933.800720,1063.358521 
	C934.102417,1063.494629 934.394653,1063.648682 934.934326,1064.229248 
	C935.633240,1064.235474 936.332214,1064.241699 937.672485,1064.337280 
	C938.082886,1064.469238 938.493225,1064.601074 939.425781,1065.182495 
	C942.612122,1065.515259 945.798462,1065.848022 949.728027,1066.321899 
	C950.220886,1066.409180 950.713684,1066.496460 951.784851,1067.019897 
	C961.160889,1066.845215 970.536987,1066.670532 980.699585,1066.328979 
	C981.501343,1066.277588 982.303040,1066.226074 983.662292,1066.538940 
	C986.038818,1066.237427 988.415405,1065.936035 991.453491,1065.397949 
	C991.914551,1065.317627 992.375671,1065.237305 993.473938,1065.522095 
	C997.411072,1065.019165 1001.336975,1064.375732 1005.289062,1064.060059 
	C1008.227905,1063.825195 1009.153992,1062.553101 1009.117310,1059.627563 
	C1008.971497,1048.009521 1009.102051,1036.388306 1008.991882,1024.769409 
	C1008.980652,1023.580078 1008.043091,1022.399597 1007.075989,1021.375977 
M876.033875,517.521973 
	C872.769775,512.971558 869.409119,508.486938 866.257202,503.860107 
	C845.792053,473.817749 825.302368,443.791382 805.047729,413.607422 
	C803.061462,410.647522 801.124695,409.732697 797.826599,409.773438 
	C785.832458,409.921570 773.835388,409.824982 761.839417,409.847290 
	C760.421326,409.849915 759.003418,410.017334 757.672852,410.102722 
	C757.672852,473.661743 757.672852,536.753479 757.672852,600.106934 
	C772.655579,600.106934 787.388611,600.106934 802.650513,600.106934 
	C802.650513,563.924866 802.650513,528.051331 802.650513,490.371124 
	C805.645630,492.336975 807.991882,493.116394 809.129211,494.741791 
	C819.772888,509.953156 830.247620,525.283569 840.696411,540.630371 
	C854.107422,560.327942 867.449402,580.072571 881.286194,600.596924 
	C892.418640,600.795044 903.550842,601.011047 914.683655,601.181580 
	C918.621948,601.241882 922.561951,601.191223 926.577148,601.191223 
	C926.577148,536.745361 926.577148,473.047943 926.577148,409.376160 
	C911.224121,409.376160 896.323792,409.376160 880.915405,409.376160 
	C880.915405,445.720703 880.915405,481.637573 880.915405,517.932861 
	C879.110535,517.932861 877.818481,517.932861 876.033875,517.521973 
M1285.174072,506.499969 
	C1285.173950,522.494690 1285.239380,538.490112 1285.064941,554.482971 
	C1285.048706,555.961670 1283.532471,558.686707 1282.669067,558.704407 
	C1269.411011,558.975830 1256.145630,558.893555 1242.350342,558.893555 
	C1242.350342,522.925232 1242.350342,487.540314 1242.350342,452.036987 
	C1227.180054,452.036987 1212.549805,452.036987 1197.402222,452.036987 
	C1197.402222,487.636841 1197.402222,523.055054 1197.402222,558.920532 
	C1184.600708,558.920532 1172.306396,558.706116 1160.026611,559.031433 
	C1155.436890,559.152954 1154.558228,557.567383 1154.580811,553.331116 
	C1154.751465,521.341858 1154.677490,489.351318 1154.679932,457.361176 
	C1154.680054,455.612274 1154.679932,453.863342 1154.679932,452.117279 
	C1139.525879,452.117279 1125.090088,452.117279 1110.527100,452.117279 
	C1110.527100,501.582214 1110.527100,550.780151 1110.527100,599.986328 
	C1183.707642,599.986328 1256.569824,599.986328 1329.392334,599.986328 
	C1329.392334,550.447693 1329.392334,501.345398 1329.392334,452.219604 
	C1314.575928,452.219604 1300.024292,452.219604 1285.174194,452.219604 
	C1285.174194,470.224457 1285.174194,487.862183 1285.174072,506.499969 
M1197.422729,892.499756 
	C1197.422729,949.440796 1197.422729,1006.381775 1197.422729,1063.439697 
	C1212.728882,1063.439697 1227.432495,1063.439697 1242.643311,1063.439697 
	C1242.643311,1027.862427 1242.643311,992.635925 1242.643311,957.434387 
	C1261.714355,957.434387 1280.272217,957.434387 1299.221924,957.434387 
	C1299.221924,993.020142 1299.221924,1028.261230 1299.221924,1063.442505 
	C1314.351318,1063.442505 1329.081909,1063.442505 1343.805664,1063.442505 
	C1343.805664,1013.831909 1343.805664,964.573242 1343.805664,914.900635 
	C1309.974609,914.900635 1276.384277,914.900635 1242.391724,914.900635 
	C1242.391724,898.720764 1242.391724,882.952271 1242.391724,867.250732 
	C1227.244263,867.250732 1212.505249,867.250732 1197.424438,867.250732 
	C1197.424438,875.545837 1197.424438,883.522766 1197.422729,892.499756 
M1084.921753,520.835022 
	C1084.614990,519.227539 1084.236938,517.629822 1084.013794,516.010864 
	C1083.003174,508.675659 1082.797974,501.132050 1080.910889,494.033508 
	C1075.270020,472.814545 1062.658569,457.721069 1040.755859,451.891632 
	C1030.490356,449.159454 1020.096497,448.432037 1009.379639,449.682495 
	C995.286804,451.326965 982.878418,456.062317 972.617004,465.960419 
	C959.327942,478.778870 954.803650,495.757965 952.316467,512.955872 
	C950.457458,525.810791 951.718262,539.084167 954.933533,551.896057 
	C959.184326,568.834045 967.395325,583.232727 982.757935,592.446960 
	C993.098816,598.649292 1004.573914,601.310791 1016.597168,602.483643 
	C1036.265015,604.402222 1055.596924,602.581360 1074.812256,599.160706 
	C1074.812256,585.254028 1074.812256,571.688049 1074.812256,557.970764 
	C1071.153564,558.480774 1067.897461,558.975403 1064.630493,559.383179 
	C1048.932739,561.342590 1033.208618,563.293518 1017.479797,559.895325 
	C1007.295410,557.695007 999.198486,550.943359 999.292419,540.007446 
	C1027.716919,540.007446 1056.146484,540.007446 1084.978027,540.007446 
	C1084.978027,533.701111 1084.978027,527.742432 1084.921753,520.835022 
M821.499878,1063.793213 
	C828.575134,1063.793213 835.650452,1063.793213 843.089722,1063.793213 
	C843.089722,1013.716797 843.089722,964.506470 843.089722,914.852234 
	C860.039795,914.852234 876.596069,914.852234 893.154907,914.852234 
	C893.154907,900.655334 893.154907,886.907349 893.154907,873.123535 
	C844.636475,873.123535 796.400452,873.123535 747.982544,873.123535 
	C747.982544,887.094727 747.982544,900.831543 747.982544,915.119751 
	C764.868408,915.119751 781.580811,915.119751 798.693420,915.119751 
	C798.693420,964.918396 798.693420,1014.166626 798.693420,1063.793213 
	C806.234985,1063.793213 813.367493,1063.793213 821.499878,1063.793213 
M1035.013794,727.500000 
	C1035.013794,762.577393 1035.013794,797.654785 1035.013794,832.726807 
	C1050.670654,832.726807 1065.737061,832.726807 1080.769287,832.726807 
	C1080.769287,766.899292 1080.769287,701.346863 1080.769287,635.853149 
	C1065.427368,635.853149 1050.364014,635.853149 1035.008667,635.853149 
	C1035.008667,666.254150 1035.008667,696.377075 1035.013794,727.500000 
z"/>
<path fill="#FBFBFE" opacity="1.000000" stroke="none" 
	d="
M1285.174072,505.999939 
	C1285.174194,487.862183 1285.174194,470.224457 1285.174194,452.219604 
	C1300.024292,452.219604 1314.575928,452.219604 1329.392334,452.219604 
	C1329.392334,501.345398 1329.392334,550.447693 1329.392334,599.986328 
	C1256.569824,599.986328 1183.707642,599.986328 1110.527100,599.986328 
	C1110.527100,550.780151 1110.527100,501.582214 1110.527100,452.117279 
	C1125.090088,452.117279 1139.525879,452.117279 1154.679932,452.117279 
	C1154.679932,453.863342 1154.680054,455.612274 1154.679932,457.361176 
	C1154.677490,489.351318 1154.751465,521.341858 1154.580811,553.331116 
	C1154.558228,557.567383 1155.436890,559.152954 1160.026611,559.031433 
	C1172.306396,558.706116 1184.600708,558.920532 1197.402222,558.920532 
	C1197.402222,523.055054 1197.402222,487.636841 1197.402222,452.036987 
	C1212.549805,452.036987 1227.180054,452.036987 1242.350342,452.036987 
	C1242.350342,487.540314 1242.350342,522.925232 1242.350342,558.893555 
	C1256.145630,558.893555 1269.411011,558.975830 1282.669067,558.704407 
	C1283.532471,558.686707 1285.048706,555.961670 1285.064941,554.482971 
	C1285.239380,538.490112 1285.173950,522.494690 1285.174072,505.999939 
z"/>
<path fill="#FCFCFE" opacity="1.000000" stroke="none" 
	d="
M880.821167,599.796936 
	C867.449402,580.072571 854.107422,560.327942 840.696411,540.630371 
	C830.247620,525.283569 819.772888,509.953156 809.129211,494.741791 
	C807.991882,493.116394 805.645630,492.336975 802.650513,490.371124 
	C802.650513,528.051331 802.650513,563.924866 802.650513,600.106934 
	C787.388611,600.106934 772.655579,600.106934 757.672852,600.106934 
	C757.672852,536.753479 757.672852,473.661743 757.672852,410.102722 
	C759.003418,410.017334 760.421326,409.849915 761.839417,409.847290 
	C773.835388,409.824982 785.832458,409.921570 797.826599,409.773438 
	C801.124695,409.732697 803.061462,410.647522 805.047729,413.607422 
	C825.302368,443.791382 845.792053,473.817749 866.257202,503.860107 
	C869.409119,508.486938 872.769775,512.971558 876.533936,518.104980 
	C878.573975,518.802368 880.113831,518.916687 882.112305,519.065063 
	C882.112305,482.392944 882.112305,446.339874 882.112305,410.380676 
	C896.922058,410.380676 911.296997,410.380676 925.559387,410.380676 
	C925.559387,473.812378 925.559387,536.853821 925.559387,599.796936 
	C910.423950,599.796936 895.622559,599.796936 880.821167,599.796936 
z"/>
<path fill="#FDFDFE" opacity="1.000000" stroke="none" 
	d="
M1197.734497,831.790710 
	C1197.632812,808.719177 1197.520996,785.647766 1197.433716,762.576172 
	C1197.388550,750.620483 1197.387085,738.664734 1196.934082,725.923828 
	C1182.576172,725.138672 1168.650146,725.138672 1154.093994,725.138672 
	C1154.093994,760.907898 1154.093994,796.229431 1154.093994,831.600098 
	C1139.376831,831.600098 1125.297852,831.600098 1110.788208,831.600098 
	C1110.788208,829.565186 1110.788208,827.773743 1110.788208,825.982300 
	C1110.787842,782.539429 1110.794312,739.096619 1110.775635,695.653748 
	C1110.773926,691.665039 1110.611816,687.676514 1110.524170,683.687866 
	C1110.524170,683.687866 1110.602661,683.591919 1111.126831,683.550354 
	C1183.929443,683.508789 1256.207886,683.508789 1328.785767,683.508789 
	C1328.785767,733.182556 1328.785767,782.366638 1328.785767,831.583496 
	C1314.353149,831.583496 1300.261719,831.583496 1285.486816,831.583496 
	C1285.486816,795.970947 1285.486816,760.617859 1285.486816,725.354370 
	C1270.717407,725.354370 1256.637085,725.354370 1242.080566,725.354370 
	C1242.080566,760.941467 1242.080566,796.176270 1242.080566,831.790710 
	C1226.978516,831.790710 1212.356567,831.790710 1197.734497,831.790710 
z"/>
<path fill="#FCFCFE" opacity="1.000000" stroke="none" 
	d="
M1197.423584,891.999756 
	C1197.424438,883.522766 1197.424438,875.545837 1197.424438,867.250732 
	C1212.505249,867.250732 1227.244263,867.250732 1242.391724,867.250732 
	C1242.391724,882.952271 1242.391724,898.720764 1242.391724,914.900635 
	C1276.384277,914.900635 1309.974609,914.900635 1343.805664,914.900635 
	C1343.805664,964.573242 1343.805664,1013.831909 1343.805664,1063.442505 
	C1329.081909,1063.442505 1314.351318,1063.442505 1299.221924,1063.442505 
	C1299.221924,1028.261230 1299.221924,993.020142 1299.221924,957.434387 
	C1280.272217,957.434387 1261.714355,957.434387 1242.643311,957.434387 
	C1242.643311,992.635925 1242.643311,1027.862427 1242.643311,1063.439697 
	C1227.432495,1063.439697 1212.728882,1063.439697 1197.422729,1063.439697 
	C1197.422729,1006.381775 1197.422729,949.440796 1197.423584,891.999756 
z"/>
<path fill="#FEFEFF" opacity="1.000000" stroke="none" 
	d="
M1084.949951,521.309326 
	C1084.978027,527.742432 1084.978027,533.701111 1084.978027,540.007446 
	C1056.146484,540.007446 1027.716919,540.007446 999.292419,540.007446 
	C999.198486,550.943359 1007.295410,557.695007 1017.479797,559.895325 
	C1033.208618,563.293518 1048.932739,561.342590 1064.630493,559.383179 
	C1067.897461,558.975403 1071.153564,558.480774 1074.812256,557.970764 
	C1074.812256,571.688049 1074.812256,585.254028 1074.812256,599.160706 
	C1055.596924,602.581360 1036.265015,604.402222 1016.597168,602.483643 
	C1004.573914,601.310791 993.098816,598.649292 982.757935,592.446960 
	C967.395325,583.232727 959.184326,568.834045 954.933533,551.896057 
	C951.718262,539.084167 950.457458,525.810791 952.316467,512.955872 
	C954.803650,495.757965 959.327942,478.778870 972.617004,465.960419 
	C982.878418,456.062317 995.286804,451.326965 1009.379639,449.682495 
	C1020.096497,448.432037 1030.490356,449.159454 1040.755859,451.891632 
	C1062.658569,457.721069 1075.270020,472.814545 1080.910889,494.033508 
	C1082.797974,501.132050 1083.003174,508.675659 1084.013794,516.010864 
	C1084.236938,517.629822 1084.614990,519.227539 1084.949951,521.309326 
M1031.416504,512.144226 
	C1034.173340,512.144226 1036.930054,512.144226 1039.740479,512.144226 
	C1037.469238,492.133362 1026.483154,489.899902 1013.236084,491.281036 
	C1004.625427,492.178772 997.272827,499.725403 997.592773,512.140747 
	C1008.532593,512.140747 1019.484375,512.140747 1031.416504,512.144226 
z"/>
<path fill="#FDFDFE" opacity="1.000000" stroke="none" 
	d="
M931.957520,1004.512329 
	C934.301025,1017.860168 943.802795,1023.569458 956.600159,1024.133301 
	C964.817383,1024.495239 973.064026,1024.190918 982.141785,1024.240967 
	C985.703247,1024.018799 988.420410,1023.740662 991.137573,1023.462524 
	C991.619141,1023.411377 992.100708,1023.360291 993.198242,1023.363220 
	C995.923645,1023.117859 998.032959,1022.818420 1000.142334,1022.518982 
	C1000.545349,1022.443909 1000.948425,1022.368958 1001.910278,1022.367065 
	C1003.688660,1022.156494 1004.908264,1021.872742 1006.127808,1021.588989 
	C1006.435791,1021.481995 1006.751831,1021.411011 1007.442017,1021.734131 
	C1007.861328,1034.489014 1007.826721,1046.887207 1008.027954,1059.281494 
	C1008.080261,1062.504883 1006.332703,1063.074341 1003.827271,1063.414551 
	C1000.152649,1063.913574 996.499268,1064.568604 992.836792,1065.156982 
	C992.375671,1065.237305 991.914551,1065.317627 990.747009,1065.363770 
	C987.728638,1065.611328 985.416687,1065.893066 983.104797,1066.174683 
	C982.303040,1066.226074 981.501343,1066.277588 979.864746,1066.282959 
	C969.755432,1066.352539 960.481018,1066.468018 951.206543,1066.583618 
	C950.713684,1066.496460 950.220886,1066.409180 949.128174,1065.921021 
	C945.320068,1065.257812 942.111816,1064.995361 938.903625,1064.733032 
	C938.493225,1064.601074 938.082886,1064.469238 937.130798,1064.045044 
	C935.951843,1063.775513 935.314636,1063.798218 934.677368,1063.820801 
	C934.394653,1063.648682 934.102417,1063.494629 933.250854,1063.030518 
	C931.182556,1062.417725 929.664062,1062.133057 928.145630,1061.848389 
	C928.145630,1061.848389 927.739868,1061.634644 927.342163,1061.327637 
	C926.318665,1060.897461 925.692810,1060.774170 925.066895,1060.651001 
	C902.761108,1051.030396 890.714844,1033.455566 887.174377,1010.049744 
	C883.495361,985.727905 884.498474,961.700073 897.296631,939.758545 
	C905.569946,925.574585 918.773987,917.434448 934.545593,914.127686 
	C950.994385,910.678955 967.353882,911.262817 982.975891,918.624390 
	C999.094238,926.219788 1008.962280,938.892578 1013.989258,955.769348 
	C1018.466797,970.801697 1018.022949,986.201904 1017.514282,1002.195984 
	C1015.298401,1002.855286 1013.472351,1002.970520 1011.646240,1002.971375 
	C986.510681,1002.983582 961.375000,1002.954956 936.239746,1003.045776 
	C934.810608,1003.050964 933.384888,1004.001709 931.957520,1004.512329 
M943.053833,955.232056 
	C934.157227,959.614075 930.209045,966.298889 931.243591,975.474121 
	C944.923767,975.474121 958.626831,975.474121 972.313232,975.474121 
	C973.421997,959.760986 960.516052,950.679871 943.053833,955.232056 
z"/>
<path fill="#FCFCFE" opacity="1.000000" stroke="none" 
	d="
M909.887207,765.900757 
	C902.132935,766.032837 894.379028,766.243713 886.624329,766.279846 
	C872.718689,766.344604 858.812561,766.304138 844.068115,766.331421 
	C842.959229,768.116150 842.462219,769.876038 842.453979,771.638123 
	C842.375610,788.301331 842.379944,804.964966 842.362061,821.628479 
	C842.358521,824.905518 842.361450,828.182556 842.361450,831.488281 
	C827.552002,831.488281 813.333252,831.488281 799.246704,831.488281 
	C799.246704,768.032349 799.246704,704.937500 799.246704,641.721558 
	C841.773987,641.721558 884.001587,641.721558 926.393860,641.721558 
	C926.393860,655.267151 926.393860,668.492493 926.393860,682.064758 
	C924.281128,682.064758 922.466614,682.065186 920.652100,682.064636 
	C896.489624,682.057434 872.325745,682.185303 848.165955,681.927795 
	C843.380310,681.876709 842.177795,683.484131 842.328613,687.912964 
	C842.600647,695.902100 842.398438,703.907349 842.395569,711.905823 
	C842.394043,716.010132 842.395264,720.114502 842.395264,724.682007 
	C845.284180,724.682007 847.415894,724.670654 849.547485,724.683716 
	C869.697266,724.807434 889.847107,724.935486 909.996887,725.062256 
	C909.996887,725.062256 910.027283,724.997009 909.939392,725.448547 
	C909.863403,739.233643 909.875305,752.567200 909.887207,765.900757 
z"/>
<path fill="#FDFDFE" opacity="1.000000" stroke="none" 
	d="
M1176.118286,1008.750061 
	C1173.834717,1016.110352 1172.339966,1023.836914 1169.124146,1030.764404 
	C1158.140625,1054.423706 1138.576172,1065.259399 1113.101440,1066.518921 
	C1100.896973,1067.122314 1088.879639,1066.040894 1077.464478,1061.429932 
	C1061.483398,1054.974976 1051.093262,1042.877930 1044.862915,1027.202881 
	C1034.155396,1000.263611 1035.207275,973.255432 1047.089966,947.127930 
	C1054.945068,929.856506 1069.061401,919.178711 1087.790649,914.753235 
	C1106.564087,910.317322 1124.888550,911.255432 1142.119141,920.052124 
	C1161.065430,929.724670 1171.408081,946.032288 1175.118896,966.741882 
	C1175.555054,969.176392 1175.869873,971.639648 1176.091919,974.102966 
	C1176.238892,975.735168 1176.119873,977.391357 1176.119873,979.319214 
	C1161.442383,979.319214 1147.021851,979.319214 1132.106079,979.319214 
	C1131.650879,976.659180 1131.332153,973.745972 1130.639282,970.924683 
	C1127.018433,956.182312 1117.516479,952.747864 1102.018311,954.470825 
	C1090.457764,955.756104 1084.535645,963.779236 1083.588379,974.384766 
	C1082.636230,985.046509 1083.133911,995.950256 1084.116821,1006.644958 
	C1085.486328,1021.546753 1098.967163,1026.155762 1112.666626,1024.625366 
	C1125.768066,1023.161804 1130.560791,1014.036682 1131.408691,1003.361084 
	C1132.618408,1001.829163 1133.432739,1000.160034 1134.266357,1000.150208 
	C1148.029053,999.988281 1161.794312,1000.034973 1176.118286,1000.034973 
	C1176.118286,1003.200806 1176.118286,1005.975403 1176.118286,1008.750061 
z"/>
<path fill="#FDFDFE" opacity="1.000000" stroke="none" 
	d="
M820.999878,1063.793213 
	C813.367493,1063.793213 806.234985,1063.793213 798.693420,1063.793213 
	C798.693420,1014.166626 798.693420,964.918396 798.693420,915.119751 
	C781.580811,915.119751 764.868408,915.119751 747.982544,915.119751 
	C747.982544,900.831543 747.982544,887.094727 747.982544,873.123535 
	C796.400452,873.123535 844.636475,873.123535 893.154907,873.123535 
	C893.154907,886.907349 893.154907,900.655334 893.154907,914.852234 
	C876.596069,914.852234 860.039795,914.852234 843.089722,914.852234 
	C843.089722,964.506470 843.089722,1013.716797 843.089722,1063.793213 
	C835.650452,1063.793213 828.575134,1063.793213 820.999878,1063.793213 
z"/>
<path fill="#FEFEFF" opacity="1.000000" stroke="none" 
	d="
M1035.011230,727.000000 
	C1035.008667,696.377075 1035.008667,666.254150 1035.008667,635.853149 
	C1050.364014,635.853149 1065.427368,635.853149 1080.769287,635.853149 
	C1080.769287,701.346863 1080.769287,766.899292 1080.769287,832.726807 
	C1065.737061,832.726807 1050.670654,832.726807 1035.013794,832.726807 
	C1035.013794,797.654785 1035.013794,762.577393 1035.011230,727.000000 
z"/>
<path fill="#FEFEFF" opacity="1.000000" stroke="none" 
	d="
M958.117920,831.916443 
	C958.081055,782.963257 958.043335,734.010010 958.020630,685.056824 
	C958.020386,684.591553 958.221130,684.126099 958.386963,683.404053 
	C973.134277,683.404053 987.855774,683.404053 1003.064209,683.404053 
	C1003.064209,732.702637 1003.064209,781.774841 1002.580200,831.396179 
	C987.436829,831.935730 972.777405,831.926086 958.117920,831.916443 
z"/>
<path fill="#FBFBFE" opacity="1.000000" stroke="none" 
	d="
M958.132874,662.922363 
	C958.132874,653.956116 958.132874,644.989868 958.132874,635.719604 
	C972.928650,635.719604 987.645569,635.719604 1003.064819,635.719604 
	C1003.064819,644.407104 1003.064819,653.131104 1002.574402,662.396362 
	C987.433594,662.932556 972.783264,662.927429 958.132874,662.922363 
z"/>
<path fill="#5151D0" opacity="1.000000" stroke="none" 
	d="
M1197.866943,832.135132 
	C1212.356567,831.790710 1226.978516,831.790710 1242.080566,831.790710 
	C1242.080566,796.176270 1242.080566,760.941467 1242.080566,725.354370 
	C1256.637085,725.354370 1270.717407,725.354370 1285.486816,725.354370 
	C1285.486816,760.617859 1285.486816,795.970947 1285.486816,831.583496 
	C1300.261719,831.583496 1314.353149,831.583496 1328.785767,831.583496 
	C1328.785767,782.366638 1328.785767,733.182556 1328.785767,683.508789 
	C1256.207886,683.508789 1183.929443,683.508789 1111.158203,683.496826 
	C1112.068726,683.217712 1113.471924,682.717346 1114.875244,682.716553 
	C1185.184448,682.677124 1255.493652,682.679260 1325.802856,682.688965 
	C1327.103760,682.689087 1328.404663,682.835083 1330.011719,682.931396 
	C1330.011719,732.870239 1330.011719,782.585144 1330.011719,832.557861 
	C1314.927368,832.557861 1300.027832,832.557861 1284.602783,832.557861 
	C1284.602783,797.043823 1284.602783,761.801392 1284.602783,726.245117 
	C1270.662476,726.245117 1257.245361,726.245117 1243.263428,726.245117 
	C1243.263428,761.581665 1243.263428,796.810120 1243.263428,832.479614 
	C1227.805664,832.479614 1212.902466,832.479614 1197.866943,832.135132 
z"/>
<path fill="#5151D0" opacity="1.000000" stroke="none" 
	d="
M909.959106,724.670288 
	C889.847107,724.935486 869.697266,724.807434 849.547485,724.683716 
	C847.415894,724.670654 845.284180,724.682007 842.395264,724.682007 
	C842.395264,720.114502 842.394043,716.010132 842.395569,711.905823 
	C842.398438,703.907349 842.600647,695.902100 842.328613,687.912964 
	C842.177795,683.484131 843.380310,681.876709 848.165955,681.927795 
	C872.325745,682.185303 896.489624,682.057434 920.652100,682.064636 
	C922.466614,682.065186 924.281128,682.064758 926.393860,682.064758 
	C926.393860,668.492493 926.393860,655.267151 926.393860,641.721558 
	C884.001587,641.721558 841.773987,641.721558 799.246704,641.721558 
	C799.246704,704.937500 799.246704,768.032349 799.246704,831.488281 
	C813.333252,831.488281 827.552002,831.488281 842.361450,831.488281 
	C842.361450,828.182556 842.358521,824.905518 842.362061,821.628479 
	C842.379944,804.964966 842.375610,788.301331 842.453979,771.638123 
	C842.462219,769.876038 842.959229,768.116150 843.599548,766.373291 
	C843.767639,768.360657 843.395874,770.329468 843.390381,772.299377 
	C843.339233,790.621155 843.351074,808.943054 843.344849,827.264954 
	C843.344299,828.900208 843.344727,830.535400 843.344727,832.500366 
	C828.033813,832.500366 813.137451,832.500366 797.958374,832.500366 
	C797.958374,768.711853 797.958374,704.990295 797.958374,640.907471 
	C840.988342,640.907471 883.853699,640.907471 927.063416,640.907471 
	C927.063416,654.851257 927.063416,668.745850 927.063416,683.333984 
	C925.258789,683.333984 923.490112,683.334595 921.721436,683.333923 
	C897.569946,683.324829 873.417664,683.407715 849.267578,683.221069 
	C844.912537,683.187500 843.045837,684.030518 843.242554,688.929199 
	C843.643250,698.906982 843.514038,708.915161 843.293030,718.903992 
	C843.210205,722.647034 844.430481,723.754211 848.136475,723.724487 
	C867.456482,723.569946 886.778442,723.645142 906.099670,723.686096 
	C907.373962,723.688782 908.647400,724.072021 909.959106,724.670288 
z"/>
<path fill="#5151D0" opacity="1.000000" stroke="none" 
	d="
M1110.234863,683.930176 
	C1110.611816,687.676514 1110.773926,691.665039 1110.775635,695.653748 
	C1110.794312,739.096619 1110.787842,782.539429 1110.788208,825.982300 
	C1110.788208,827.773743 1110.788208,829.565186 1110.788208,831.600098 
	C1125.297852,831.600098 1139.376831,831.600098 1154.093994,831.600098 
	C1154.093994,796.229431 1154.093994,760.907898 1154.093994,725.138672 
	C1168.650146,725.138672 1182.576172,725.138672 1196.762207,725.469238 
	C1183.392090,725.799866 1169.761963,725.799866 1155.586670,725.799866 
	C1155.586670,761.646851 1155.586670,796.873840 1155.586670,832.466064 
	C1140.146118,832.466064 1125.250244,832.466064 1110.083008,832.466064 
	C1109.957275,831.366028 1109.718628,830.249512 1109.718262,829.132935 
	C1109.700073,781.637512 1109.701782,734.142029 1109.713501,686.646606 
	C1109.713745,685.821899 1109.864990,684.997131 1110.234863,683.930176 
z"/>
<path fill="#1414AC" opacity="1.000000" stroke="none" 
	d="
M881.053711,600.196899 
	C895.622559,599.796936 910.423950,599.796936 925.559387,599.796936 
	C925.559387,536.853821 925.559387,473.812378 925.559387,410.380676 
	C911.296997,410.380676 896.922058,410.380676 882.112305,410.380676 
	C882.112305,446.339874 882.112305,482.392944 882.112305,519.065063 
	C880.113831,518.916687 878.573975,518.802368 876.780273,518.310425 
	C877.818481,517.932861 879.110535,517.932861 880.915405,517.932861 
	C880.915405,481.637573 880.915405,445.720703 880.915405,409.376160 
	C896.323792,409.376160 911.224121,409.376160 926.577148,409.376160 
	C926.577148,473.047943 926.577148,536.745361 926.577148,601.191223 
	C922.561951,601.191223 918.621948,601.241882 914.683655,601.181580 
	C903.550842,601.011047 892.418640,600.795044 881.053711,600.196899 
z"/>
<path fill="#1414AC" opacity="1.000000" stroke="none" 
	d="
M932.418884,1004.394714 
	C933.384888,1004.001709 934.810608,1003.050964 936.239746,1003.045776 
	C961.375000,1002.954956 986.510681,1002.983582 1011.646240,1002.971375 
	C1013.472351,1002.970520 1015.298401,1002.855286 1017.572327,1002.627502 
	C1016.358337,1002.998962 1014.698364,1003.997253 1013.034363,1004.003967 
	C988.137634,1004.104614 963.240295,1004.070190 938.343140,1004.083740 
	C936.522095,1004.084717 934.701233,1004.209717 932.418884,1004.394714 
z"/>
<path fill="#1414AC" opacity="1.000000" stroke="none" 
	d="
M993.155396,1065.339600 
	C996.499268,1064.568604 1000.152649,1063.913574 1003.827271,1063.414551 
	C1006.332703,1063.074341 1008.080261,1062.504883 1008.027954,1059.281494 
	C1007.826721,1046.887207 1007.861328,1034.489014 1007.671753,1021.653687 
	C1008.043091,1022.399597 1008.980652,1023.580078 1008.991882,1024.769409 
	C1009.102051,1036.388306 1008.971497,1048.009521 1009.117310,1059.627563 
	C1009.153992,1062.553101 1008.227905,1063.825195 1005.289062,1064.060059 
	C1001.336975,1064.375732 997.411072,1065.019165 993.155396,1065.339600 
z"/>
<path fill="#1414AC" opacity="1.000000" stroke="none" 
	d="
M1176.348755,1008.448730 
	C1176.118286,1005.975403 1176.118286,1003.200806 1176.118286,1000.034973 
	C1161.794312,1000.034973 1148.029053,999.988281 1134.266357,1000.150208 
	C1133.432739,1000.160034 1132.618408,1001.829163 1131.445312,1002.953674 
	C1130.958862,1001.195984 1130.430542,999.012207 1133.631958,999.015808 
	C1147.846436,999.031799 1162.060913,999.022705 1177.053345,999.022705 
	C1176.879761,1002.361877 1176.729492,1005.254639 1176.348755,1008.448730 
z"/>
<path fill="#1414AC" opacity="1.000000" stroke="none" 
	d="
M958.284790,832.310791 
	C972.777405,831.926086 987.436829,831.935730 1002.562622,831.848999 
	C1002.410645,832.169189 1001.791504,832.950134 1001.174011,832.948853 
	C986.933044,832.919067 972.692383,832.804138 958.284790,832.310791 
z"/>
<path fill="#1414AC" opacity="1.000000" stroke="none" 
	d="
M958.308350,663.308777 
	C972.783264,662.927429 987.433594,662.932556 1002.550659,662.849548 
	C1002.389648,663.167480 1001.761230,663.928528 1001.134338,663.927368 
	C986.917419,663.900330 972.700623,663.789978 958.308350,663.308777 
z"/>
<path fill="#1414AC" opacity="1.000000" stroke="none" 
	d="
M951.495728,1066.801758 
	C960.481018,1066.468018 969.755432,1066.352539 979.471436,1066.366455 
	C970.536987,1066.670532 961.160889,1066.845215 951.495728,1066.801758 
z"/>
<path fill="#5151D0" opacity="1.000000" stroke="none" 
	d="
M910.132385,765.583191 
	C909.875305,752.567200 909.863403,739.233643 909.908752,725.429688 
	C910.103210,738.394714 910.240356,751.830139 910.132385,765.583191 
z"/>
<path fill="#1414AC" opacity="1.000000" stroke="none" 
	d="
M939.164673,1064.957764 
	C942.111816,1064.995361 945.320068,1065.257812 948.756531,1065.850342 
	C945.798462,1065.848022 942.612122,1065.515259 939.164673,1064.957764 
z"/>
<path fill="#1414AC" opacity="1.000000" stroke="none" 
	d="
M983.383545,1066.356812 
	C985.416687,1065.893066 987.728638,1065.611328 990.416260,1065.482178 
	C988.415405,1065.936035 986.038818,1066.237427 983.383545,1066.356812 
z"/>
<path fill="#1414AC" opacity="1.000000" stroke="none" 
	d="
M999.755371,1022.389221 
	C998.032959,1022.818420 995.923645,1023.117859 993.551575,1023.276855 
	C995.315430,1022.844055 997.341919,1022.551697 999.755371,1022.389221 
z"/>
<path fill="#1414AC" opacity="1.000000" stroke="none" 
	d="
M990.711060,1023.349243 
	C988.420410,1023.740662 985.703247,1024.018799 982.577576,1024.172363 
	C984.874207,1023.777222 987.579346,1023.506592 990.711060,1023.349243 
z"/>
<path fill="#1414AC" opacity="1.000000" stroke="none" 
	d="
M1005.782349,1021.452271 
	C1004.908264,1021.872742 1003.688660,1022.156494 1002.208374,1022.290527 
	C1003.110779,1021.865723 1004.273804,1021.590637 1005.782349,1021.452271 
z"/>
<path fill="#1414AC" opacity="1.000000" stroke="none" 
	d="
M928.326050,1062.103638 
	C929.664062,1062.133057 931.182556,1062.417725 933.010376,1062.970581 
	C931.715332,1062.945435 930.110962,1062.652100 928.326050,1062.103638 
z"/>
<path fill="#1414AC" opacity="1.000000" stroke="none" 
	d="
M934.805847,1064.025146 
	C935.314636,1063.798218 935.951843,1063.775513 936.810120,1064.000366 
	C936.332214,1064.241699 935.633240,1064.235474 934.805847,1064.025146 
z"/>
<path fill="#1414AC" opacity="1.000000" stroke="none" 
	d="
M925.240601,1060.940918 
	C925.692810,1060.774170 926.318665,1060.897461 927.116089,1061.289551 
	C926.663269,1061.449219 926.038818,1061.339966 925.240601,1060.940918 
z"/>
<path fill="#000000" opacity="1.000000" stroke="none" 
	d="
M1030.926270,512.142456 
	C1019.484375,512.140747 1008.532593,512.140747 997.592773,512.140747 
	C997.272827,499.725403 1004.625427,492.178772 1013.236084,491.281036 
	C1026.483154,489.899902 1037.469238,492.133362 1039.740479,512.144226 
	C1036.930054,512.144226 1034.173340,512.144226 1030.926270,512.142456 
z"/>
<path fill="#000000" opacity="1.000000" stroke="none" 
	d="
M943.453796,955.156128 
	C960.516052,950.679871 973.421997,959.760986 972.313232,975.474121 
	C958.626831,975.474121 944.923767,975.474121 931.243591,975.474121 
	C930.209045,966.298889 934.157227,959.614075 943.453796,955.156128 
z"/>
</svg>