<?xml version="1.0" standalone="yes"?>
<svg xmlns="http://www.w3.org/2000/svg" width="500" height="500">
<path style="fill:#ffffff; stroke:none;" d="M0 0L0 500L500 500L500 0L0 0z"/>
<path style="fill:#3f3f7f; stroke:none;" d="M180 56L117 119L84 153C110.117 134.603 132.388 105.612 155 83C161.799 76.2014 177.732 65.3544 180 56z"/>
<path style="fill:#010101; stroke:none;" d="M181 57.0278C172.387 61.3342 164.77 72.2298 158 79L109 128C101.887 135.113 88.1212 144.459 84.6034 154C82.0404 160.952 84 171.634 84 179L84 234L84 272C84 277.431 82.7047 284.85 84.6034 290C87.9987 299.209 101.141 308.141 108 315L158 365C164.349 371.349 172.458 383.247 181 386.397C187.952 388.96 198.634 387 206 387L262 387L302 387C307.329 387 315.12 388.412 320 385.972C328.613 381.666 336.23 370.77 343 364L391 316C398.113 308.887 411.879 299.541 415.397 290C417.96 283.048 416 272.366 416 265L416 210L416 172C416 166.569 417.295 159.15 415.397 154C412.247 145.458 400.349 137.349 394 131L343 80C336.141 73.1415 327.209 59.9987 318 56.6034C311.048 54.0403 300.366 56 293 56L238 56L198 56C192.923 56 185.656 54.7 181 57.0278z"/>
<path style="fill:#3f3f7f; stroke:none;" d="M319 56L320 57L319 56M320 57L321 58L320 57M321 58L322 59L321 58M322 59L323 60L322 59M323 60L324 61L323 60M324 61L325 62L324 61M325 62L326 63L325 62M326 63L327 64L326 63M327 64L328 65L327 64M328 65L329 66L328 65M329 66L330 67L329 66M330 67L331 68L330 67M331 68L332 69L331 68M332 69L333 70L332 69M333 70L334 71L333 70M334 71L335 72L334 71M335 72L336 73L335 72M336 73L337 74L336 73M337 74L338 75L337 74M338 75L339 76L338 75M339 76L340 77L339 76M340 77L341 78L340 77M341 78L342 79L341 78M342 79L343 80L342 79M343 80L344 81L343 80M344 81L345 82L344 81M345 82L346 83L345 82M346 83L347 84L346 83M347 84L348 85L347 84M348 85L349 86L348 85M349 86L350 87L349 86M350 87L351 88L350 87M351 88L352 89L351 88M352 89L353 90L352 89M353 90L354 91L353 90M354 91L355 92L354 91M355 92L356 93L355 92M356 93L357 94L356 93M357 94L358 95L357 94M358 95L359 96L358 95M359 96L360 97L359 96M360 97L361 98L360 97M361 98L362 99L361 98M362 99L363 100L362 99M363 100L364 101L363 100M364 101L365 102L364 101M365 102L366 103L365 102M366 103L367 104L366 103z"/>
<path style="fill:#1d1d9e; stroke:none;" d="M200 104C178.02 125.98 149.883 147.613 132 173L182 124L200 104z"/>
<path style="fill:#0101ff; stroke:none;" d="M201 105.028C194.538 108.259 189.06 115.94 184 121L150 155C144.675 160.325 135.257 166.802 132.603 174C130.705 179.15 132 186.569 132 192L132 231C132 242.214 128.722 259.473 132.603 270C135.006 276.516 143.192 282.192 148 287L184 323C189.067 328.067 195.142 336.868 202 339.397C207.15 341.295 214.569 340 220 340L258 340C268.976 340 289.147 343.899 299 338.972C305.462 335.741 310.94 328.06 316 323L350 289C355.325 283.675 364.743 277.198 367.397 270C369.295 264.85 368 257.431 368 252L368 213C368 201.511 371.366 183.755 367.258 173C364.474 165.714 355.405 159.405 350 154C337.466 141.466 325.383 128.05 312 116.424C307.747 112.73 303.366 106.582 298 104.603C292.85 102.705 285.431 104 280 104L242 104C231.024 104 210.853 100.101 201 105.028z"/>
<path style="fill:#1d1d9e; stroke:none;" d="M299 104L300 105L299 104z"/>
<path style="fill:#3f3f7f; stroke:none;" d="M367 104L368 105L367 104z"/>
<path style="fill:#1d1d9e; stroke:none;" d="M300 105L301 106L300 105z"/>
<path style="fill:#3f3f7f; stroke:none;" d="M368 105L369 106L368 105z"/>
<path style="fill:#1d1d9e; stroke:none;" d="M301 106L302 107L301 106z"/>
<path style="fill:#3f3f7f; stroke:none;" d="M369 106L370 107L369 106z"/>
<path style="fill:#1d1d9e; stroke:none;" d="M302 107L303 108L302 107z"/>
<path style="fill:#3f3f7f; stroke:none;" d="M370 107L371 108L370 107z"/>
<path style="fill:#1d1d9e; stroke:none;" d="M303 108L304 109L303 108z"/>
<path style="fill:#3f3f7f; stroke:none;" d="M371 108L372 109L371 108z"/>
<path style="fill:#1d1d9e; stroke:none;" d="M304 109L305 110L304 109z"/>
<path style="fill:#3f3f7f; stroke:none;" d="M372 109L373 110L372 109z"/>
<path style="fill:#1d1d9e; stroke:none;" d="M305 110L306 111L305 110z"/>
<path style="fill:#3f3f7f; stroke:none;" d="M373 110L374 111L373 110z"/>
<path style="fill:#1d1d9e; stroke:none;" d="M306 111L307 112L306 111z"/>
<path style="fill:#3f3f7f; stroke:none;" d="M374 111L375 112L374 111z"/>
<path style="fill:#1d1d9e; stroke:none;" d="M307 112L308 113L307 112z"/>
<path style="fill:#3f3f7f; stroke:none;" d="M375 112L376 113L375 112z"/>
<path style="fill:#1d1d9e; stroke:none;" d="M308 113L309 114L308 113z"/>
<path style="fill:#3f3f7f; stroke:none;" d="M376 113L377 114L376 113z"/>
<path style="fill:#1d1d9e; stroke:none;" d="M309 114L310 115L309 114z"/>
<path style="fill:#3f3f7f; stroke:none;" d="M377 114L378 115L377 114z"/>
<path style="fill:#1d1d9e; stroke:none;" d="M310 115L311 116L310 115z"/>
<path style="fill:#3f3f7f; stroke:none;" d="M378 115L379 116L378 115M379 116L380 117L379 116M380 117L381 118L380 117M381 118L382 119L381 118M382 119L383 120L382 119M383 120L384 121L383 120M384 121L385 122L384 121M385 122L386 123L385 122M386 123L387 124L386 123M387 124L388 125L387 124M388 125L389 126L388 125M389 126L390 127L389 126M390 127L391 128L390 127M391 128L392 129L391 128M392 129L393 130L392 129M393 130L394 131L393 130M394 131L395 132L394 131M395 132L396 133L395 132M396 133L397 134L396 133M397 134L398 135L397 134M398 135L399 136L398 135M399 136L400 137L399 136M400 137L401 138L400 137M401 138L402 139L401 138M402 139L403 140L402 139M403 140L404 141L403 140M404 141L405 142L404 141M405 142L406 143L405 142M406 143L407 144L406 143M407 144L408 145L407 144M408 145L409 146L408 145M409 146L410 147L409 146M410 147L411 148L410 147M411 148L412 149L411 148M412 149L413 150L412 149M413 150L414 151L413 150M414 151L415 152L414 151M415 152L416 153L415 152z"/>
<path style="fill:#1d1d9e; stroke:none;" d="M367 172L368 173L367 172z"/>
<path style="fill:#3f3f7f; stroke:none;" d="M181 387L181 388L319 388C308.02 383.393 288.944 387 277 387L181 387z"/>
</svg>
