<?xml version="1.0" standalone="yes"?>
<svg xmlns="http://www.w3.org/2000/svg" width="500" height="500">
<path style="fill:#ffffff; stroke:none;" d="M0 0L0 500L500 500L500 0L0 0z"/>
<path style="fill:#5f5f9b; stroke:none;" d="M249.667 56.3333L250.333 56.6667L249.667 56.3333z"/>
<path style="fill:#010102; stroke:none;" d="M249 57C238.131 83.4924 224.514 108.852 212.861 135C208.624 144.508 203.904 162.418 195.725 169.034C188.33 175.016 176.693 178.631 168 182.424C149.8 190.366 132.047 199.406 114 207.691C104.696 211.963 92.9013 215.453 85 222L165 259.742L196.61 275.39L211.248 305L250 387C266.786 362.046 276.632 330.098 289.742 303C293.773 294.668 296.809 281.983 303.39 275.39C310.937 267.832 325.464 264.355 335 259.742C361.313 247.011 389.764 236.726 415 222C407.405 215.707 395.993 212.147 387 208.139C369.188 200.201 351.723 191.446 334 183.309C324.828 179.097 313.038 175.662 305.105 169.363C296.456 162.494 292.208 145.837 287.691 136C275.597 109.66 262.003 83.8195 251 57L249 57z"/>
<path style="fill:#a1a1cb; stroke:none;" d="M248 58L249 59L248 58z"/>
<path style="fill:#5f5f9b; stroke:none;" d="M251 58L252 59L251 58z"/>
<path style="fill:#a1a1cb; stroke:none;" d="M247 60L248 61L247 60M252 60L253 61L252 60M246 62L247 63L246 62M253 62L254 63L253 62M254 64L255 65L254 64z"/>
<path style="fill:#5f5f9b; stroke:none;" d="M245 65L246 66L245 65M254 65L255 66L254 65M244 67L245 68L244 67M255 67L256 68L255 67M243 69L244 70L243 69M256 69L257 70L256 69M242 71L243 72L242 71M257 71L258 72L257 71z"/>
<path style="fill:#a1a1cb; stroke:none;" d="M241 73L242 74L241 73M258 73L259 74L258 73M240 75L241 76L240 75M259 75L260 76L259 75M239 77L240 78L239 77M260 77L261 78L260 77M261 79L262 80L261 79z"/>
<path style="fill:#5f5f9b; stroke:none;" d="M238 80L239 81L238 80M261 80L262 81L261 80M237 82L238 83L237 82M262 82L263 83L262 82M236 84L237 85L236 84M263 84L264 85L263 84M235 86L236 87L235 86M264 86L265 87L264 86z"/>
<path style="fill:#a1a1cb; stroke:none;" d="M234 88L235 89L234 88M265 88L266 89L265 88M233 90L234 91L233 90M266 90L267 91L266 90M232 92L233 93L232 92M267 92L268 93L267 92z"/>
<path style="fill:#5f5f9b; stroke:none;" d="M232 93L233 94L232 93z"/>
<path style="fill:#a1a1cb; stroke:none;" d="M268 94L269 95L268 94z"/>
<path style="fill:#5f5f9b; stroke:none;" d="M231 95L232 96L231 95M268 95L269 96L268 95M230 97L231 98L230 97M269 97L270 98L269 97M229 99L230 100L229 99M270 99L271 100L270 99M228 101L229 102L228 101M271 101L272 102L271 101z"/>
<path style="fill:#a1a1cb; stroke:none;" d="M227 103L228 104L227 103M272 103L273 104L272 103M226 105L227 106L226 105M273 105L274 106L273 105M225 107L226 108L225 107M274 107L275 108L274 107z"/>
<path style="fill:#5f5f9b; stroke:none;" d="M225 108L226 109L225 108z"/>
<path style="fill:#a1a1cb; stroke:none;" d="M275 109L276 110L275 109z"/>
<path style="fill:#5f5f9b; stroke:none;" d="M224 110L225 111L224 110M275 110L276 111L275 110M223 112L224 113L223 112M276 112L277 113L276 112M222 114L223 115L222 114M277 114L278 115L277 114M221 116L222 117L221 116M278 116L279 117L278 116z"/>
<path style="fill:#a1a1cb; stroke:none;" d="M220 118L221 119L220 118M279 118L280 119L279 118M219 120L220 121L219 120M280 120L281 121L280 120M218 122L219 123L218 122M281 122L282 123L281 122z"/>
<path style="fill:#5f5f9b; stroke:none;" d="M218 123L219 124L218 123M217 125L218 126L217 125M282 125L283 126L282 125M216 127L217 128L216 127M283 127L284 128L283 127M215 129L216 130L215 129M284 129L285 130L284 129M214 131L215 132L214 131M285 131L286 132L285 131z"/>
<path style="fill:#a1a1cb; stroke:none;" d="M213 133L214 134L213 133M286 133L287 134L286 133M212 135L213 136L212 135M287 135L288 136L287 135M211 137L212 138L211 137M288 137L289 138L288 137z"/>
<path style="fill:#5f5f9b; stroke:none;" d="M211 138L212 139L211 138M210 140L211 141L210 140M289 140L290 141L289 140M209 142L210 143L209 142M290 142L291 143L290 142M208 144L209 145L208 144M291 144L292 145L291 144M207 146L208 147L207 146M292 146L293 147L292 146z"/>
<path style="fill:#a1a1cb; stroke:none;" d="M206 148L207 149L206 148M293 148L294 149L293 148M205 150L206 151L205 150M294 150L295 151L294 150M204 152L205 153L204 152M295 152L296 153L295 152z"/>
<path style="fill:#5f5f9b; stroke:none;" d="M204 153L205 154L204 153M203 155L204 156L203 155M296 155L297 156L296 155M202 157L203 158L202 157M297 157L298 158L297 157M201 159L202 160L201 159M298 159L299 160L298 159M200 161L201 162L200 161M299 161L300 162L299 161z"/>
<path style="fill:#a1a1cb; stroke:none;" d="M199 163L200 164L199 163M300 163L301 164L300 163M198 165L199 166L198 165M301 165L302 166L301 165M197 167L198 168L197 167M302 167L303 168L302 167z"/>
<path style="fill:#5f5f9b; stroke:none;" d="M197 168L198 169L197 168z"/>
<path style="fill:#a1a1cb; stroke:none;" d="M195 169L196 170L195 169M304 169L305 170L304 169M193 170L194 171L193 170z"/>
<path style="fill:#0101fc; stroke:none;" d="M249 170C245.75 179.546 239.651 198.623 231.725 205.034C222.022 212.883 207.615 214.063 198 222C208.363 228.026 224.096 230.876 232.61 239.39C240.271 247.053 244.857 263.037 249 273L251 273C255.114 263.12 259.816 246.978 267.39 239.39C275.893 230.873 291.642 228.023 302 222C292.385 214.063 277.978 212.883 268.275 205.034C260.349 198.623 254.25 179.546 251 170L249 170z"/>
<path style="fill:#5f5f9b; stroke:none;" d="M306 170L307 171L306 170M191 171L192 172L191 171M308 171L309 172L308 171M189 172L190 173L189 172M310 172L311 173L310 172M187 173L188 174L187 173M312 173L313 174L312 173M185 174L186 175L185 174M314 174L315 175L314 174z"/>
<path style="fill:#a1a1cb; stroke:none;" d="M315 174L316 175L315 174M182 175L183 176L182 175M317 175L318 176L317 175M180 176L181 177L180 176M319 176L320 177L319 176M178 177L179 178L178 177z"/>
<path style="fill:#5f5f9b; stroke:none;" d="M321 177L322 178L321 177M176 178L177 179L176 178M323 178L324 179L323 178M174 179L175 180L174 179M325 179L326 180L325 179M172 180L173 181L172 180M327 180L328 181L327 180z"/>
<path style="fill:#a1a1cb; stroke:none;" d="M169 181L170 182L169 181z"/>
<path style="fill:#5f5f9b; stroke:none;" d="M170 181L171 182L170 181M329 181L330 182L329 181z"/>
<path style="fill:#a1a1cb; stroke:none;" d="M330 181L331 182L330 181M167 182L168 183L167 182M332 182L333 183L332 182M165 183L166 184L165 183M334 183L335 184L334 183z"/>
<path style="fill:#5f5f9b; stroke:none;" d="M163 184L164 185L163 184M336 184L337 185L336 184M161 185L162 186L161 185M338 185L339 186L338 185M159 186L160 187L159 186M340 186L341 187L340 186M157 187L158 188L157 187M342 187L343 188L342 187z"/>
<path style="fill:#a1a1cb; stroke:none;" d="M154 188L155 189L154 188z"/>
<path style="fill:#5f5f9b; stroke:none;" d="M155 188L156 189L155 188M344 188L345 189L344 188z"/>
<path style="fill:#a1a1cb; stroke:none;" d="M345 188L346 189L345 188M152 189L153 190L152 189M347 189L348 190L347 189M150 190L151 191L150 190M349 190L350 191L349 190z"/>
<path style="fill:#5f5f9b; stroke:none;" d="M148 191L149 192L148 191M351 191L352 192L351 191M146 192L147 193L146 192M353 192L354 193L353 192M144 193L145 194L144 193M355 193L356 194L355 193M142 194L143 195L142 194M357 194L358 195L357 194z"/>
<path style="fill:#a1a1cb; stroke:none;" d="M139 195L140 196L139 195z"/>
<path style="fill:#5f5f9b; stroke:none;" d="M140 195L141 196L140 195z"/>
<path style="fill:#a1a1cb; stroke:none;" d="M360 195L361 196L360 195M137 196L138 197L137 196M362 196L363 197L362 196M135 197L136 198L135 197M364 197L365 198L364 197z"/>
<path style="fill:#5f5f9b; stroke:none;" d="M133 198L134 199L133 198M366 198L367 199L366 198M131 199L132 200L131 199M368 199L369 200L368 199M129 200L130 201L129 200M370 200L371 201L370 200M127 201L128 202L127 201M372 201L373 202L372 201z"/>
<path style="fill:#a1a1cb; stroke:none;" d="M124 202L125 203L124 202z"/>
<path style="fill:#5f5f9b; stroke:none;" d="M125 202L126 203L125 202z"/>
<path style="fill:#a1a1cb; stroke:none;" d="M375 202L376 203L375 202M122 203L123 204L122 203M377 203L378 204L377 203M120 204L121 205L120 204M379 204L380 205L379 204z"/>
<path style="fill:#5f5f9b; stroke:none;" d="M118 205L119 206L118 205M381 205L382 206L381 205M116 206L117 207L116 206M383 206L384 207L383 206M114 207L115 208L114 207M385 207L386 208L385 207M112 208L113 209L112 208M387 208L388 209L387 208z"/>
<path style="fill:#a1a1cb; stroke:none;" d="M109 209L110 210L109 209M390 209L391 210L390 209M107 210L108 211L107 210M392 210L393 211L392 210M105 211L106 212L105 211M394 211L395 212L394 211z"/>
<path style="fill:#5f5f9b; stroke:none;" d="M103 212L104 213L103 212M396 212L397 213L396 212M101 213L102 214L101 213M398 213L399 214L398 213M99 214L100 215L99 214M400 214L401 215L400 214M97 215L98 216L97 215M402 215L403 216L402 215z"/>
<path style="fill:#a1a1cb; stroke:none;" d="M94 216L95 217L94 216M405 216L406 217L405 216M92 217L93 218L92 217M407 217L408 218L407 217M90 218L91 219L90 218M409 218L410 219L409 218z"/>
<path style="fill:#5f5f9b; stroke:none;" d="M88 219L89 220L88 219M411 219L412 220L411 219M86 220L87 221L86 220M413 220L414 221L413 220M84 221L85 222L84 221M415 221L416 222L415 221M85 222L86 223L85 222M414 222L415 223L414 222M87 223L88 224L87 223M412 223L413 224L412 223M89 224L90 225L89 224M410 224L411 225L410 224z"/>
<path style="fill:#a1a1cb; stroke:none;" d="M91 225L92 226L91 225M408 225L409 226L408 225M93 226L94 227L93 226M406 226L407 227L406 226M95 227L96 228L95 227z"/>
<path style="fill:#5f5f9b; stroke:none;" d="M96 227L97 228L96 227M403 227L404 228L403 227z"/>
<path style="fill:#a1a1cb; stroke:none;" d="M404 227L405 228L404 227z"/>
<path style="fill:#5f5f9b; stroke:none;" d="M98 228L99 229L98 228M401 228L402 229L401 228M100 229L101 230L100 229M399 229L400 230L399 229M102 230L103 231L102 230M397 230L398 231L397 230M104 231L105 232L104 231M395 231L396 232L395 231z"/>
<path style="fill:#a1a1cb; stroke:none;" d="M106 232L107 233L106 232M393 232L394 233L393 232M108 233L109 234L108 233M391 233L392 234L391 233M110 234L111 235L110 234z"/>
<path style="fill:#5f5f9b; stroke:none;" d="M111 234L112 235L111 234M388 234L389 235L388 234z"/>
<path style="fill:#a1a1cb; stroke:none;" d="M389 234L390 235L389 234z"/>
<path style="fill:#5f5f9b; stroke:none;" d="M113 235L114 236L113 235M386 235L387 236L386 235M115 236L116 237L115 236M384 236L385 237L384 236M117 237L118 238L117 237M382 237L383 238L382 237z"/>
<path style="fill:#a1a1cb; stroke:none;" d="M119 238L120 239L119 238z"/>
<path style="fill:#5f5f9b; stroke:none;" d="M380 238L381 239L380 238z"/>
<path style="fill:#a1a1cb; stroke:none;" d="M121 239L122 240L121 239M378 239L379 240L378 239M123 240L124 241L123 240M376 240L377 241L376 240z"/>
<path style="fill:#5f5f9b; stroke:none;" d="M126 241L127 242L126 241M373 241L374 242L373 241z"/>
<path style="fill:#a1a1cb; stroke:none;" d="M374 241L375 242L374 241z"/>
<path style="fill:#5f5f9b; stroke:none;" d="M128 242L129 243L128 242M371 242L372 243L371 242M130 243L131 244L130 243M369 243L370 244L369 243M132 244L133 245L132 244M367 244L368 245L367 244z"/>
<path style="fill:#a1a1cb; stroke:none;" d="M134 245L135 246L134 245M365 245L366 246L365 245M136 246L137 247L136 246M363 246L364 247L363 246M138 247L139 248L138 247M361 247L362 248L361 247z"/>
<path style="fill:#5f5f9b; stroke:none;" d="M141 248L142 249L141 248M358 248L359 249L358 248z"/>
<path style="fill:#a1a1cb; stroke:none;" d="M359 248L360 249L359 248z"/>
<path style="fill:#5f5f9b; stroke:none;" d="M143 249L144 250L143 249M356 249L357 250L356 249M145 250L146 251L145 250M354 250L355 251L354 250M147 251L148 252L147 251M352 251L353 252L352 251z"/>
<path style="fill:#a1a1cb; stroke:none;" d="M149 252L150 253L149 252M350 252L351 253L350 252M151 253L152 254L151 253M348 253L349 254L348 253M153 254L154 255L153 254M346 254L347 255L346 254z"/>
<path style="fill:#5f5f9b; stroke:none;" d="M156 255L157 256L156 255M343 255L344 256L343 255M158 256L159 257L158 256M341 256L342 257L341 256M160 257L161 258L160 257M339 257L340 258L339 257M162 258L163 259L162 258M337 258L338 259L337 258z"/>
<path style="fill:#a1a1cb; stroke:none;" d="M164 259L165 260L164 259M335 259L336 260L335 259M166 260L167 261L166 260M333 260L334 261L333 260M168 261L169 262L168 261M331 261L332 262L331 261z"/>
<path style="fill:#5f5f9b; stroke:none;" d="M171 262L172 263L171 262M328 262L329 263L328 262M173 263L174 264L173 263M326 263L327 264L326 263M175 264L176 265L175 264M324 264L325 265L324 264M177 265L178 266L177 265M322 265L323 266L322 265z"/>
<path style="fill:#a1a1cb; stroke:none;" d="M179 266L180 267L179 266M320 266L321 267L320 266M181 267L182 268L181 267M318 267L319 268L318 267M183 268L184 269L183 268z"/>
<path style="fill:#5f5f9b; stroke:none;" d="M184 268L185 269L184 268z"/>
<path style="fill:#a1a1cb; stroke:none;" d="M316 268L317 269L316 268z"/>
<path style="fill:#5f5f9b; stroke:none;" d="M186 269L187 270L186 269M313 269L314 270L313 269M188 270L189 271L188 270M311 270L312 271L311 270M190 271L191 272L190 271M309 271L310 272L309 271M192 272L193 273L192 272M307 272L308 273L307 272z"/>
<path style="fill:#a1a1cb; stroke:none;" d="M194 273L195 274L194 273M305 273L306 274L305 273M196 274L197 275L196 274M303 274L304 275L303 274z"/>
<path style="fill:#5f5f9b; stroke:none;" d="M197 275L198 276L197 275M302 275L303 276L302 275M198 277L199 278L198 277M301 277L302 278L301 277M199 279L200 280L199 279M300 279L301 280L300 279M200 281L201 282L200 281M299 281L300 282L299 281z"/>
<path style="fill:#a1a1cb; stroke:none;" d="M299 282L300 283L299 282M201 284L202 285L201 284M298 284L299 285L298 284M202 286L203 287L202 286M297 286L298 287L297 286M203 288L204 289L203 288z"/>
<path style="fill:#5f5f9b; stroke:none;" d="M296 288L297 289L296 288M204 290L205 291L204 290M295 290L296 291L295 290M205 292L206 293L205 292M294 292L295 293L294 292M206 294L207 295L206 294M293 294L294 295L293 294M207 296L208 297L207 296M292 296L293 297L292 296z"/>
<path style="fill:#a1a1cb; stroke:none;" d="M292 297L293 298L292 297M208 299L209 300L208 299M291 299L292 300L291 299M209 301L210 302L209 301M290 301L291 302L290 301M210 303L211 304L210 303z"/>
<path style="fill:#5f5f9b; stroke:none;" d="M289 303L290 304L289 303M211 305L212 306L211 305M288 305L289 306L288 305M212 307L213 308L212 307M287 307L288 308L287 307M213 309L214 310L213 309M286 309L287 310L286 309M214 311L215 312L214 311M285 311L286 312L285 311z"/>
<path style="fill:#a1a1cb; stroke:none;" d="M214 312L215 313L214 312M285 312L286 313L285 312M215 314L216 315L215 314M284 314L285 315L284 314M216 316L217 317L216 316M283 316L284 317L283 316M217 318L218 319L217 318z"/>
<path style="fill:#5f5f9b; stroke:none;" d="M282 318L283 319L282 318M218 320L219 321L218 320M281 320L282 321L281 320M219 322L220 323L219 322M280 322L281 323L280 322M220 324L221 325L220 324M279 324L280 325L279 324M221 326L222 327L221 326M278 326L279 327L278 326z"/>
<path style="fill:#a1a1cb; stroke:none;" d="M221 327L222 328L221 327M278 327L279 328L278 327M222 329L223 330L222 329M277 329L278 330L277 329M223 331L224 332L223 331M276 331L277 332L276 331M224 333L225 334L224 333z"/>
<path style="fill:#5f5f9b; stroke:none;" d="M275 333L276 334L275 333M225 335L226 336L225 335M274 335L275 336L274 335M226 337L227 338L226 337M273 337L274 338L273 337M227 339L228 340L227 339M272 339L273 340L272 339M228 341L229 342L228 341M271 341L272 342L271 341z"/>
<path style="fill:#a1a1cb; stroke:none;" d="M228 342L229 343L228 342M271 342L272 343L271 342M229 344L230 345L229 344M270 344L271 345L270 344M230 346L231 347L230 346M269 346L270 347L269 346M231 348L232 349L231 348z"/>
<path style="fill:#5f5f9b; stroke:none;" d="M268 348L269 349L268 348M232 350L233 351L232 350M267 350L268 351L267 350M233 352L234 353L233 352M266 352L267 353L266 352M234 354L235 355L234 354M265 354L266 355L265 354M235 356L236 357L235 356z"/>
<path style="fill:#a1a1cb; stroke:none;" d="M235 357L236 358L235 357M264 357L265 358L264 357M236 359L237 360L236 359M263 359L264 360L263 359M237 361L238 362L237 361M262 361L263 362L262 361z"/>
<path style="fill:#5f5f9b; stroke:none;" d="M238 363L239 364L238 363M261 363L262 364L261 363M239 365L240 366L239 365M260 365L261 366L260 365M240 367L241 368L240 367M259 367L260 368L259 367M241 369L242 370L241 369M258 369L259 370L258 369M242 371L243 372L242 371z"/>
<path style="fill:#a1a1cb; stroke:none;" d="M242 372L243 373L242 372M257 372L258 373L257 372M243 374L244 375L243 374M256 374L257 375L256 374M244 376L245 377L244 376M255 376L256 377L255 376z"/>
<path style="fill:#5f5f9b; stroke:none;" d="M245 378L246 379L245 378M254 378L255 379L254 378M246 380L247 381L246 380M253 380L254 381L253 380M247 382L248 383L247 382M252 382L253 383L252 382M248 384L249 385L248 384M251 384L252 385L251 384M249 386L250 387L249 386z"/>
</svg>
