<?xml version="1.0" standalone="yes"?>
<svg xmlns="http://www.w3.org/2000/svg" width="500" height="500">
<path style="fill:#ffffff; stroke:none;" d="M0 0L0 500L500 500L500 0L0 0z"/>
<path style="fill:#0e0e4c; stroke:none;" d="M84 222L126 181L207 100L238 69L250 59.0556L262 69L293 100L374 181L416 222L374 179L292 97L262 67L250 57.2068L238 67L208 97L126 179L84 222z"/>
<path style="fill:#010101; stroke:none;" d="M249 58.3457L238 68L214 92L122 184L95 211L86.2068 222L94 232L118 256L213 351L240 378L251 385.654L262 376L286 352L378 260L405 233L413.793 222L406 212L382 188L287 93L260 66L249 58.3457z"/>
<path style="fill:#0101fe; stroke:none;" d="M152 221L152 222L224 294L242 311.999L250 317.793L258 311.999L276 294L348 222C341.211 212.363 331.329 204.329 323 196L275 148C269.997 142.997 257.319 125.207 250 125.207C246.83 125.207 244.023 128.993 242 131.001L224 149L152 221z"/>
<path style="fill:#8383b7; stroke:none;" d="M84 222L85 223L84 222z"/>
<path style="fill:#0e0e4c; stroke:none;" d="M152 222L153 223L152 222M347 222L348 223L347 222z"/>
<path style="fill:#8383b7; stroke:none;" d="M415 222L416 223L415 222M85 223L86 224L85 223z"/>
<path style="fill:#0e0e4c; stroke:none;" d="M153 223L154 224L153 223M346 223L347 224L346 223z"/>
<path style="fill:#8383b7; stroke:none;" d="M414 223L415 224L414 223M86 224L87 225L86 224z"/>
<path style="fill:#0e0e4c; stroke:none;" d="M154 224L155 225L154 224M345 224L346 225L345 224z"/>
<path style="fill:#8383b7; stroke:none;" d="M413 224L414 225L413 224M87 225L88 226L87 225z"/>
<path style="fill:#0e0e4c; stroke:none;" d="M155 225L156 226L155 225M344 225L345 226L344 225z"/>
<path style="fill:#8383b7; stroke:none;" d="M412 225L413 226L412 225M88 226L89 227L88 226z"/>
<path style="fill:#0e0e4c; stroke:none;" d="M156 226L157 227L156 226M343 226L344 227L343 226z"/>
<path style="fill:#8383b7; stroke:none;" d="M411 226L412 227L411 226M89 227L90 228L89 227z"/>
<path style="fill:#0e0e4c; stroke:none;" d="M157 227L158 228L157 227M342 227L343 228L342 227z"/>
<path style="fill:#8383b7; stroke:none;" d="M410 227L411 228L410 227M90 228L91 229L90 228z"/>
<path style="fill:#0e0e4c; stroke:none;" d="M158 228L159 229L158 228M341 228L342 229L341 228z"/>
<path style="fill:#8383b7; stroke:none;" d="M409 228L410 229L409 228M91 229L92 230L91 229z"/>
<path style="fill:#0e0e4c; stroke:none;" d="M159 229L160 230L159 229M340 229L341 230L340 229z"/>
<path style="fill:#8383b7; stroke:none;" d="M408 229L409 230L408 229M92 230L93 231L92 230z"/>
<path style="fill:#0e0e4c; stroke:none;" d="M160 230L161 231L160 230M339 230L340 231L339 230z"/>
<path style="fill:#8383b7; stroke:none;" d="M407 230L408 231L407 230M93 231L94 232L93 231z"/>
<path style="fill:#0e0e4c; stroke:none;" d="M161 231L162 232L161 231M338 231L339 232L338 231z"/>
<path style="fill:#8383b7; stroke:none;" d="M406 231L407 232L406 231M94 232L95 233L94 232z"/>
<path style="fill:#0e0e4c; stroke:none;" d="M162 232L163 233L162 232M337 232L338 233L337 232z"/>
<path style="fill:#8383b7; stroke:none;" d="M405 232L406 233L405 232M95 233L96 234L95 233z"/>
<path style="fill:#0e0e4c; stroke:none;" d="M163 233L164 234L163 233M336 233L337 234L336 233z"/>
<path style="fill:#8383b7; stroke:none;" d="M404 233L405 234L404 233M96 234L97 235L96 234z"/>
<path style="fill:#0e0e4c; stroke:none;" d="M164 234L165 235L164 234M335 234L336 235L335 234z"/>
<path style="fill:#8383b7; stroke:none;" d="M403 234L404 235L403 234M97 235L98 236L97 235z"/>
<path style="fill:#0e0e4c; stroke:none;" d="M165 235L166 236L165 235M334 235L335 236L334 235z"/>
<path style="fill:#8383b7; stroke:none;" d="M402 235L403 236L402 235M98 236L99 237L98 236z"/>
<path style="fill:#0e0e4c; stroke:none;" d="M166 236L167 237L166 236M333 236L334 237L333 236z"/>
<path style="fill:#8383b7; stroke:none;" d="M401 236L402 237L401 236M99 237L100 238L99 237z"/>
<path style="fill:#0e0e4c; stroke:none;" d="M167 237L168 238L167 237M332 237L333 238L332 237z"/>
<path style="fill:#8383b7; stroke:none;" d="M400 237L401 238L400 237M100 238L101 239L100 238z"/>
<path style="fill:#0e0e4c; stroke:none;" d="M168 238L169 239L168 238M331 238L332 239L331 238z"/>
<path style="fill:#8383b7; stroke:none;" d="M399 238L400 239L399 238M101 239L102 240L101 239z"/>
<path style="fill:#0e0e4c; stroke:none;" d="M169 239L170 240L169 239M330 239L331 240L330 239z"/>
<path style="fill:#8383b7; stroke:none;" d="M398 239L399 240L398 239M102 240L103 241L102 240z"/>
<path style="fill:#0e0e4c; stroke:none;" d="M170 240L171 241L170 240M329 240L330 241L329 240z"/>
<path style="fill:#8383b7; stroke:none;" d="M397 240L398 241L397 240M103 241L104 242L103 241z"/>
<path style="fill:#0e0e4c; stroke:none;" d="M171 241L172 242L171 241M328 241L329 242L328 241z"/>
<path style="fill:#8383b7; stroke:none;" d="M396 241L397 242L396 241M104 242L105 243L104 242z"/>
<path style="fill:#0e0e4c; stroke:none;" d="M172 242L173 243L172 242M327 242L328 243L327 242z"/>
<path style="fill:#8383b7; stroke:none;" d="M395 242L396 243L395 242M105 243L106 244L105 243z"/>
<path style="fill:#0e0e4c; stroke:none;" d="M173 243L174 244L173 243M326 243L327 244L326 243z"/>
<path style="fill:#8383b7; stroke:none;" d="M394 243L395 244L394 243M106 244L107 245L106 244z"/>
<path style="fill:#0e0e4c; stroke:none;" d="M174 244L175 245L174 244M325 244L326 245L325 244z"/>
<path style="fill:#8383b7; stroke:none;" d="M393 244L394 245L393 244M107 245L108 246L107 245z"/>
<path style="fill:#0e0e4c; stroke:none;" d="M175 245L176 246L175 245M324 245L325 246L324 245z"/>
<path style="fill:#8383b7; stroke:none;" d="M392 245L393 246L392 245M108 246L109 247L108 246z"/>
<path style="fill:#0e0e4c; stroke:none;" d="M176 246L177 247L176 246M323 246L324 247L323 246z"/>
<path style="fill:#8383b7; stroke:none;" d="M391 246L392 247L391 246M109 247L110 248L109 247z"/>
<path style="fill:#0e0e4c; stroke:none;" d="M177 247L178 248L177 247M322 247L323 248L322 247z"/>
<path style="fill:#8383b7; stroke:none;" d="M390 247L391 248L390 247M110 248L111 249L110 248z"/>
<path style="fill:#0e0e4c; stroke:none;" d="M178 248L179 249L178 248M321 248L322 249L321 248z"/>
<path style="fill:#8383b7; stroke:none;" d="M389 248L390 249L389 248M111 249L112 250L111 249z"/>
<path style="fill:#0e0e4c; stroke:none;" d="M179 249L180 250L179 249M320 249L321 250L320 249z"/>
<path style="fill:#8383b7; stroke:none;" d="M388 249L389 250L388 249M112 250L113 251L112 250z"/>
<path style="fill:#0e0e4c; stroke:none;" d="M180 250L181 251L180 250M319 250L320 251L319 250z"/>
<path style="fill:#8383b7; stroke:none;" d="M387 250L388 251L387 250M113 251L114 252L113 251z"/>
<path style="fill:#0e0e4c; stroke:none;" d="M181 251L182 252L181 251M318 251L319 252L318 251z"/>
<path style="fill:#8383b7; stroke:none;" d="M386 251L387 252L386 251M114 252L115 253L114 252z"/>
<path style="fill:#0e0e4c; stroke:none;" d="M182 252L183 253L182 252M317 252L318 253L317 252z"/>
<path style="fill:#8383b7; stroke:none;" d="M385 252L386 253L385 252M115 253L116 254L115 253z"/>
<path style="fill:#0e0e4c; stroke:none;" d="M183 253L184 254L183 253M316 253L317 254L316 253z"/>
<path style="fill:#8383b7; stroke:none;" d="M384 253L385 254L384 253M116 254L117 255L116 254z"/>
<path style="fill:#0e0e4c; stroke:none;" d="M184 254L185 255L184 254M315 254L316 255L315 254z"/>
<path style="fill:#8383b7; stroke:none;" d="M383 254L384 255L383 254M117 255L118 256L117 255z"/>
<path style="fill:#0e0e4c; stroke:none;" d="M185 255L186 256L185 255M314 255L315 256L314 255z"/>
<path style="fill:#8383b7; stroke:none;" d="M382 255L383 256L382 255M118 256L119 257L118 256z"/>
<path style="fill:#0e0e4c; stroke:none;" d="M186 256L187 257L186 256M313 256L314 257L313 256z"/>
<path style="fill:#8383b7; stroke:none;" d="M381 256L382 257L381 256M119 257L120 258L119 257z"/>
<path style="fill:#0e0e4c; stroke:none;" d="M187 257L188 258L187 257M312 257L313 258L312 257z"/>
<path style="fill:#8383b7; stroke:none;" d="M380 257L381 258L380 257M120 258L121 259L120 258z"/>
<path style="fill:#0e0e4c; stroke:none;" d="M188 258L189 259L188 258M311 258L312 259L311 258z"/>
<path style="fill:#8383b7; stroke:none;" d="M379 258L380 259L379 258M121 259L122 260L121 259z"/>
<path style="fill:#0e0e4c; stroke:none;" d="M189 259L190 260L189 259M310 259L311 260L310 259z"/>
<path style="fill:#8383b7; stroke:none;" d="M378 259L379 260L378 259M122 260L123 261L122 260z"/>
<path style="fill:#0e0e4c; stroke:none;" d="M190 260L191 261L190 260M309 260L310 261L309 260z"/>
<path style="fill:#8383b7; stroke:none;" d="M377 260L378 261L377 260M123 261L124 262L123 261z"/>
<path style="fill:#0e0e4c; stroke:none;" d="M191 261L192 262L191 261M308 261L309 262L308 261z"/>
<path style="fill:#8383b7; stroke:none;" d="M376 261L377 262L376 261M124 262L125 263L124 262z"/>
<path style="fill:#0e0e4c; stroke:none;" d="M192 262L193 263L192 262M307 262L308 263L307 262z"/>
<path style="fill:#8383b7; stroke:none;" d="M375 262L376 263L375 262M125 263L126 264L125 263z"/>
<path style="fill:#0e0e4c; stroke:none;" d="M193 263L194 264L193 263M306 263L307 264L306 263z"/>
<path style="fill:#8383b7; stroke:none;" d="M374 263L375 264L374 263M126 264L127 265L126 264z"/>
<path style="fill:#0e0e4c; stroke:none;" d="M194 264L195 265L194 264M305 264L306 265L305 264z"/>
<path style="fill:#8383b7; stroke:none;" d="M373 264L374 265L373 264M127 265L128 266L127 265z"/>
<path style="fill:#0e0e4c; stroke:none;" d="M195 265L196 266L195 265M304 265L305 266L304 265z"/>
<path style="fill:#8383b7; stroke:none;" d="M372 265L373 266L372 265M128 266L129 267L128 266z"/>
<path style="fill:#0e0e4c; stroke:none;" d="M196 266L197 267L196 266M303 266L304 267L303 266z"/>
<path style="fill:#8383b7; stroke:none;" d="M371 266L372 267L371 266M129 267L130 268L129 267z"/>
<path style="fill:#0e0e4c; stroke:none;" d="M197 267L198 268L197 267M302 267L303 268L302 267z"/>
<path style="fill:#8383b7; stroke:none;" d="M370 267L371 268L370 267M130 268L131 269L130 268z"/>
<path style="fill:#0e0e4c; stroke:none;" d="M198 268L199 269L198 268M301 268L302 269L301 268z"/>
<path style="fill:#8383b7; stroke:none;" d="M369 268L370 269L369 268M131 269L132 270L131 269z"/>
<path style="fill:#0e0e4c; stroke:none;" d="M199 269L200 270L199 269M300 269L301 270L300 269z"/>
<path style="fill:#8383b7; stroke:none;" d="M368 269L369 270L368 269M132 270L133 271L132 270z"/>
<path style="fill:#0e0e4c; stroke:none;" d="M200 270L201 271L200 270M299 270L300 271L299 270z"/>
<path style="fill:#8383b7; stroke:none;" d="M367 270L368 271L367 270M133 271L134 272L133 271z"/>
<path style="fill:#0e0e4c; stroke:none;" d="M201 271L202 272L201 271M298 271L299 272L298 271z"/>
<path style="fill:#8383b7; stroke:none;" d="M366 271L367 272L366 271M134 272L135 273L134 272z"/>
<path style="fill:#0e0e4c; stroke:none;" d="M202 272L203 273L202 272M297 272L298 273L297 272z"/>
<path style="fill:#8383b7; stroke:none;" d="M365 272L366 273L365 272M135 273L136 274L135 273z"/>
<path style="fill:#0e0e4c; stroke:none;" d="M203 273L204 274L203 273M296 273L297 274L296 273z"/>
<path style="fill:#8383b7; stroke:none;" d="M364 273L365 274L364 273M136 274L137 275L136 274z"/>
<path style="fill:#0e0e4c; stroke:none;" d="M204 274L205 275L204 274M295 274L296 275L295 274z"/>
<path style="fill:#8383b7; stroke:none;" d="M363 274L364 275L363 274M137 275L138 276L137 275z"/>
<path style="fill:#0e0e4c; stroke:none;" d="M205 275L206 276L205 275M294 275L295 276L294 275z"/>
<path style="fill:#8383b7; stroke:none;" d="M362 275L363 276L362 275M138 276L139 277L138 276z"/>
<path style="fill:#0e0e4c; stroke:none;" d="M206 276L207 277L206 276M293 276L294 277L293 276z"/>
<path style="fill:#8383b7; stroke:none;" d="M361 276L362 277L361 276M139 277L140 278L139 277z"/>
<path style="fill:#0e0e4c; stroke:none;" d="M207 277L208 278L207 277M292 277L293 278L292 277z"/>
<path style="fill:#8383b7; stroke:none;" d="M360 277L361 278L360 277M140 278L141 279L140 278z"/>
<path style="fill:#0e0e4c; stroke:none;" d="M208 278L209 279L208 278M291 278L292 279L291 278z"/>
<path style="fill:#8383b7; stroke:none;" d="M359 278L360 279L359 278M141 279L142 280L141 279z"/>
<path style="fill:#0e0e4c; stroke:none;" d="M209 279L210 280L209 279M290 279L291 280L290 279z"/>
<path style="fill:#8383b7; stroke:none;" d="M358 279L359 280L358 279M142 280L143 281L142 280z"/>
<path style="fill:#0e0e4c; stroke:none;" d="M210 280L211 281L210 280M289 280L290 281L289 280z"/>
<path style="fill:#8383b7; stroke:none;" d="M357 280L358 281L357 280M143 281L144 282L143 281z"/>
<path style="fill:#0e0e4c; stroke:none;" d="M211 281L212 282L211 281M288 281L289 282L288 281z"/>
<path style="fill:#8383b7; stroke:none;" d="M356 281L357 282L356 281M144 282L145 283L144 282z"/>
<path style="fill:#0e0e4c; stroke:none;" d="M212 282L213 283L212 282M287 282L288 283L287 282z"/>
<path style="fill:#8383b7; stroke:none;" d="M355 282L356 283L355 282M145 283L146 284L145 283z"/>
<path style="fill:#0e0e4c; stroke:none;" d="M213 283L214 284L213 283M286 283L287 284L286 283z"/>
<path style="fill:#8383b7; stroke:none;" d="M354 283L355 284L354 283M146 284L147 285L146 284z"/>
<path style="fill:#0e0e4c; stroke:none;" d="M214 284L215 285L214 284M285 284L286 285L285 284z"/>
<path style="fill:#8383b7; stroke:none;" d="M353 284L354 285L353 284M147 285L148 286L147 285z"/>
<path style="fill:#0e0e4c; stroke:none;" d="M215 285L216 286L215 285M284 285L285 286L284 285z"/>
<path style="fill:#8383b7; stroke:none;" d="M352 285L353 286L352 285M148 286L149 287L148 286z"/>
<path style="fill:#0e0e4c; stroke:none;" d="M216 286L217 287L216 286M283 286L284 287L283 286z"/>
<path style="fill:#8383b7; stroke:none;" d="M351 286L352 287L351 286M149 287L150 288L149 287z"/>
<path style="fill:#0e0e4c; stroke:none;" d="M217 287L218 288L217 287M282 287L283 288L282 287z"/>
<path style="fill:#8383b7; stroke:none;" d="M350 287L351 288L350 287M150 288L151 289L150 288z"/>
<path style="fill:#0e0e4c; stroke:none;" d="M218 288L219 289L218 288M281 288L282 289L281 288z"/>
<path style="fill:#8383b7; stroke:none;" d="M349 288L350 289L349 288M151 289L152 290L151 289z"/>
<path style="fill:#0e0e4c; stroke:none;" d="M219 289L220 290L219 289M280 289L281 290L280 289z"/>
<path style="fill:#8383b7; stroke:none;" d="M348 289L349 290L348 289M152 290L153 291L152 290z"/>
<path style="fill:#0e0e4c; stroke:none;" d="M220 290L221 291L220 290M279 290L280 291L279 290z"/>
<path style="fill:#8383b7; stroke:none;" d="M347 290L348 291L347 290M153 291L154 292L153 291z"/>
<path style="fill:#0e0e4c; stroke:none;" d="M221 291L222 292L221 291M278 291L279 292L278 291z"/>
<path style="fill:#8383b7; stroke:none;" d="M346 291L347 292L346 291M154 292L155 293L154 292z"/>
<path style="fill:#0e0e4c; stroke:none;" d="M222 292L223 293L222 292M277 292L278 293L277 292z"/>
<path style="fill:#8383b7; stroke:none;" d="M345 292L346 293L345 292M155 293L156 294L155 293z"/>
<path style="fill:#0e0e4c; stroke:none;" d="M223 293L224 294L223 293M276 293L277 294L276 293z"/>
<path style="fill:#8383b7; stroke:none;" d="M344 293L345 294L344 293M156 294L157 295L156 294z"/>
<path style="fill:#0e0e4c; stroke:none;" d="M224 294L225 295L224 294M275 294L276 295L275 294z"/>
<path style="fill:#8383b7; stroke:none;" d="M343 294L344 295L343 294M157 295L158 296L157 295z"/>
<path style="fill:#0e0e4c; stroke:none;" d="M225 295L226 296L225 295M274 295L275 296L274 295z"/>
<path style="fill:#8383b7; stroke:none;" d="M342 295L343 296L342 295M158 296L159 297L158 296z"/>
<path style="fill:#0e0e4c; stroke:none;" d="M226 296L227 297L226 296M273 296L274 297L273 296z"/>
<path style="fill:#8383b7; stroke:none;" d="M341 296L342 297L341 296M159 297L160 298L159 297z"/>
<path style="fill:#0e0e4c; stroke:none;" d="M227 297L228 298L227 297M272 297L273 298L272 297z"/>
<path style="fill:#8383b7; stroke:none;" d="M340 297L341 298L340 297M160 298L161 299L160 298z"/>
<path style="fill:#0e0e4c; stroke:none;" d="M228 298L229 299L228 298M271 298L272 299L271 298z"/>
<path style="fill:#8383b7; stroke:none;" d="M339 298L340 299L339 298M161 299L162 300L161 299z"/>
<path style="fill:#0e0e4c; stroke:none;" d="M229 299L230 300L229 299M270 299L271 300L270 299z"/>
<path style="fill:#8383b7; stroke:none;" d="M338 299L339 300L338 299M162 300L163 301L162 300z"/>
<path style="fill:#0e0e4c; stroke:none;" d="M230 300L231 301L230 300M269 300L270 301L269 300z"/>
<path style="fill:#8383b7; stroke:none;" d="M337 300L338 301L337 300M163 301L164 302L163 301z"/>
<path style="fill:#0e0e4c; stroke:none;" d="M231 301L232 302L231 301M268 301L269 302L268 301z"/>
<path style="fill:#8383b7; stroke:none;" d="M336 301L337 302L336 301M164 302L165 303L164 302z"/>
<path style="fill:#0e0e4c; stroke:none;" d="M232 302L233 303L232 302M267 302L268 303L267 302z"/>
<path style="fill:#8383b7; stroke:none;" d="M335 302L336 303L335 302M165 303L166 304L165 303z"/>
<path style="fill:#0e0e4c; stroke:none;" d="M233 303L234 304L233 303M266 303L267 304L266 303z"/>
<path style="fill:#8383b7; stroke:none;" d="M334 303L335 304L334 303M166 304L167 305L166 304z"/>
<path style="fill:#0e0e4c; stroke:none;" d="M234 304L235 305L234 304M265 304L266 305L265 304z"/>
<path style="fill:#8383b7; stroke:none;" d="M333 304L334 305L333 304M167 305L168 306L167 305z"/>
<path style="fill:#0e0e4c; stroke:none;" d="M235 305L236 306L235 305M264 305L265 306L264 305z"/>
<path style="fill:#8383b7; stroke:none;" d="M332 305L333 306L332 305M168 306L169 307L168 306z"/>
<path style="fill:#0e0e4c; stroke:none;" d="M236 306L237 307L236 306M263 306L264 307L263 306z"/>
<path style="fill:#8383b7; stroke:none;" d="M331 306L332 307L331 306M169 307L170 308L169 307z"/>
<path style="fill:#0e0e4c; stroke:none;" d="M237 307L238 308L237 307M262 307L263 308L262 307z"/>
<path style="fill:#8383b7; stroke:none;" d="M330 307L331 308L330 307M170 308L171 309L170 308z"/>
<path style="fill:#0e0e4c; stroke:none;" d="M238 308L239 309L238 308M261 308L262 309L261 308z"/>
<path style="fill:#8383b7; stroke:none;" d="M329 308L330 309L329 308M171 309L172 310L171 309z"/>
<path style="fill:#0e0e4c; stroke:none;" d="M239 309L240 310L239 309M260 309L261 310L260 309z"/>
<path style="fill:#8383b7; stroke:none;" d="M328 309L329 310L328 309M172 310L173 311L172 310z"/>
<path style="fill:#0e0e4c; stroke:none;" d="M240 310L241 311L240 310M259 310L260 311L259 310z"/>
<path style="fill:#8383b7; stroke:none;" d="M327 310L328 311L327 310M173 311L174 312L173 311z"/>
<path style="fill:#0e0e4c; stroke:none;" d="M241 311L242 312L241 311M258 311L259 312L258 311z"/>
<path style="fill:#8383b7; stroke:none;" d="M326 311L327 312L326 311M174 312L175 313L174 312z"/>
<path style="fill:#0e0e4c; stroke:none;" d="M242 312L243 313L242 312M257 312L258 313L257 312z"/>
<path style="fill:#8383b7; stroke:none;" d="M325 312L326 313L325 312M175 313L176 314L175 313z"/>
<path style="fill:#0e0e4c; stroke:none;" d="M243 313L244 314L243 313M256 313L257 314L256 313z"/>
<path style="fill:#8383b7; stroke:none;" d="M324 313L325 314L324 313M176 314L177 315L176 314z"/>
<path style="fill:#0e0e4c; stroke:none;" d="M244 314L245 315L244 314M255 314L256 315L255 314z"/>
<path style="fill:#8383b7; stroke:none;" d="M323 314L324 315L323 314M177 315L178 316L177 315z"/>
<path style="fill:#0e0e4c; stroke:none;" d="M245 315L246 316L245 315M254 315L255 316L254 315z"/>
<path style="fill:#8383b7; stroke:none;" d="M322 315L323 316L322 315M178 316L179 317L178 316z"/>
<path style="fill:#0e0e4c; stroke:none;" d="M246 316L247 317L246 316M253 316L254 317L253 316z"/>
<path style="fill:#8383b7; stroke:none;" d="M321 316L322 317L321 316M179 317L180 318L179 317z"/>
<path style="fill:#0e0e4c; stroke:none;" d="M247 317L248 318L247 317M252 317L253 318L252 317z"/>
<path style="fill:#8383b7; stroke:none;" d="M320 317L321 318L320 317M180 318L181 319L180 318z"/>
<path style="fill:#0e0e4c; stroke:none;" d="M248 318L249 319L248 318M251 318L252 319L251 318z"/>
<path style="fill:#8383b7; stroke:none;" d="M319 318L320 319L319 318M181 319L182 320L181 319z"/>
<path style="fill:#0e0e4c; stroke:none;" d="M249.667 319.333L250.333 319.667L249.667 319.333z"/>
<path style="fill:#8383b7; stroke:none;" d="M318 319L319 320L318 319M182 320L183 321L182 320M317 320L318 321L317 320M183 321L184 322L183 321M316 321L317 322L316 321M184 322L185 323L184 322M315 322L316 323L315 322M185 323L186 324L185 323M314 323L315 324L314 323M186 324L187 325L186 324M313 324L314 325L313 324M187 325L188 326L187 325M312 325L313 326L312 325M188 326L189 327L188 326M311 326L312 327L311 326M189 327L190 328L189 327M310 327L311 328L310 327M190 328L191 329L190 328M309 328L310 329L309 328M191 329L192 330L191 329M308 329L309 330L308 329M192 330L193 331L192 330M307 330L308 331L307 330M193 331L194 332L193 331M306 331L307 332L306 331M194 332L195 333L194 332M305 332L306 333L305 332M195 333L196 334L195 333M304 333L305 334L304 333M196 334L197 335L196 334M303 334L304 335L303 334M197 335L198 336L197 335M302 335L303 336L302 335M198 336L199 337L198 336M301 336L302 337L301 336M199 337L200 338L199 337M300 337L301 338L300 337M200 338L201 339L200 338M299 338L300 339L299 338M201 339L202 340L201 339M298 339L299 340L298 339M202 340L203 341L202 340M297 340L298 341L297 340M203 341L204 342L203 341M296 341L297 342L296 341M204 342L205 343L204 342M295 342L296 343L295 342M205 343L206 344L205 343M294 343L295 344L294 343M206 344L207 345L206 344M293 344L294 345L293 344M207 345L208 346L207 345M292 345L293 346L292 345M208 346L209 347L208 346M291 346L292 347L291 346M209 347L210 348L209 347M290 347L291 348L290 347M210 348L211 349L210 348M289 348L290 349L289 348M211 349L212 350L211 349M288 349L289 350L288 349M212 350L213 351L212 350M287 350L288 351L287 350M213 351L214 352L213 351M286 351L287 352L286 351M214 352L215 353L214 352M285 352L286 353L285 352M215 353L216 354L215 353M284 353L285 354L284 353M216 354L217 355L216 354M283 354L284 355L283 354M217 355L218 356L217 355M282 355L283 356L282 355M218 356L219 357L218 356M281 356L282 357L281 356M219 357L220 358L219 357M280 357L281 358L280 357M220 358L221 359L220 358M279 358L280 359L279 358M221 359L222 360L221 359M278 359L279 360L278 359M222 360L223 361L222 360M277 360L278 361L277 360M223 361L224 362L223 361M276 361L277 362L276 361M224 362L225 363L224 362M275 362L276 363L275 362M225 363L226 364L225 363M274 363L275 364L274 363M226 364L227 365L226 364M273 364L274 365L273 364M227 365L228 366L227 365M272 365L273 366L272 365M228 366L229 367L228 366M271 366L272 367L271 366M229 367L230 368L229 367M270 367L271 368L270 367M230 368L231 369L230 368M269 368L270 369L269 368M231 369L232 370L231 369M268 369L269 370L268 369M232 370L233 371L232 370M267 370L268 371L267 370M233 371L234 372L233 371M266 371L267 372L266 371M234 372L235 373L234 372M265 372L266 373L265 372M235 373L236 374L235 373M264 373L265 374L264 373M236 374L237 375L236 374M263 374L264 375L263 374M237 375L238 376L237 375M262 375L263 376L262 375M238 376L239 377L238 376M261 376L262 377L261 376M239 377L240 378L239 377M260 377L261 378L260 377M240 378L241 379L240 378M259 378L260 379L259 378M241 379L242 380L241 379M258 379L259 380L258 379M242 380L243 381L242 380M257 380L258 381L257 380M243 381L244 382L243 381M256 381L257 382L256 381M244 382L245 383L244 382M255 382L256 383L255 382M245 383L246 384L245 383M254 383L255 384L254 383M246 384L247 385L246 384M253 384L254 385L253 384M247 385L248 386L247 385M252 385L253 386L252 385M248 386L249 387L248 386M251 386L252 387L251 386M249.667 387.333L250.333 387.667L249.667 387.333z"/>
</svg>
