<svg version="1.1" id="Layer_1" xmlns="http://www.w3.org/2000/svg" xmlns:xlink="http://www.w3.org/1999/xlink" x="0px" y="0px"
	 width="100%" viewBox="0 0 2100 1500" enable-background="new 0 0 2100 1500" xml:space="preserve">
<path fill="#000000" opacity="1.000000" stroke="none" 
	d="
M1482.000000,1501.000000 
	C988.000000,1501.000000 494.500000,1501.000000 1.000000,1501.000000 
	C1.000000,1001.000000 1.000000,501.000000 1.000000,1.000000 
	C701.000000,1.000000 1401.000000,1.000000 2101.000000,1.000000 
	C2101.000000,501.000000 2101.000000,1001.000000 2101.000000,1501.000000 
	C1894.833374,1501.000000 1688.666626,1501.000000 1482.000000,1501.000000 
M969.525696,162.036880 
	C969.354065,162.080307 969.182434,162.123734 968.083557,162.011871 
	C946.793823,162.007904 925.504150,161.982361 904.214417,162.005264 
	C875.941772,162.035675 847.669067,162.103867 818.543884,162.025696 
	C765.123474,162.025696 711.703125,162.025696 658.000000,162.025696 
	C658.000000,164.489105 658.000000,166.303207 658.000000,168.117310 
	C658.000000,341.935791 657.999512,515.754272 658.006958,689.572754 
	C658.007019,691.402466 658.110962,693.232117 658.052368,695.983032 
	C658.090393,733.286194 658.128418,770.589355 658.028259,808.834412 
	C658.018982,984.878784 658.008972,1160.923218 658.014832,1336.967529 
	C658.014893,1338.233276 658.233582,1339.499023 658.371826,1341.000000 
	C660.509277,1341.000000 662.322754,1341.000000 664.136230,1341.000000 
	C694.281982,1341.000000 724.427734,1341.020508 754.573486,1340.993042 
	C775.388855,1340.974121 796.204224,1340.888916 817.549316,1340.945801 
	C817.726135,1340.909668 817.902893,1340.873535 818.409058,1340.945679 
	C818.409058,1340.945679 818.737549,1340.834839 819.710876,1340.945190 
	C848.493408,1340.963501 877.275879,1341.007568 906.058411,1340.991455 
	C927.351929,1340.979492 948.645386,1340.889038 970.874939,1340.971802 
	C1003.969116,1340.981201 1037.063354,1341.011841 1070.157471,1340.991943 
	C1090.110352,1340.979858 1110.063110,1340.889160 1130.722778,1340.953735 
	C1130.958374,1340.913452 1131.193848,1340.873169 1131.725952,1340.844482 
	C1131.725952,1340.844482 1131.998657,1340.726562 1132.474243,1340.963135 
	C1132.645874,1340.919800 1132.817505,1340.876343 1133.916504,1340.988159 
	C1155.538818,1340.992065 1177.161255,1341.017578 1198.783569,1340.994507 
	C1226.723633,1340.964722 1254.663574,1340.895996 1283.456177,1340.974365 
	C1336.879028,1340.974365 1390.302002,1340.974365 1444.000000,1340.974365 
	C1444.000000,1338.498901 1444.000000,1336.685303 1444.000000,1334.871704 
	C1444.000000,1161.041748 1444.000488,987.211914 1443.993042,813.382019 
	C1443.993042,811.552185 1443.889038,809.722351 1443.943237,806.977478 
	C1443.906738,769.611877 1443.870361,732.246277 1443.972046,693.967590 
	C1443.972046,516.751038 1443.972046,339.534485 1443.972046,162.000000 
	C1441.546265,162.000000 1439.738403,162.000000 1437.930542,162.000000 
	C1408.104858,162.000000 1378.279297,161.979431 1348.453613,162.006989 
	C1327.295898,162.026535 1306.138184,162.111053 1284.450806,162.054062 
	C1284.273926,162.090286 1284.097168,162.126511 1283.590942,162.054596 
	C1283.590942,162.054596 1283.262451,162.165176 1282.290283,162.054932 
	C1253.507568,162.036621 1224.724854,161.992416 1195.942139,162.008545 
	C1174.648438,162.020477 1153.354858,162.110947 1131.125000,162.028168 
	C1098.030762,162.018784 1064.936646,161.988022 1031.842407,162.007996 
	C1011.889526,162.020035 991.936707,162.110947 971.277161,162.046082 
	C971.041687,162.086395 970.806213,162.126709 970.273926,162.155594 
	C970.273926,162.155594 970.001221,162.273376 969.525696,162.036880 
z"/>
<path fill="#0000FF" opacity="1.000000" stroke="none" 
	d="
M1283.262451,162.165176 
	C1283.262451,162.165176 1283.590942,162.054596 1283.866333,162.230774 
	C1284.141724,162.406937 1284.601562,162.458160 1284.601562,162.458160 
	C1284.601562,162.458160 1284.980469,162.166595 1284.980469,162.166595 
	C1306.138184,162.111053 1327.295898,162.026535 1348.453613,162.006989 
	C1378.279297,161.979431 1408.104858,162.000000 1437.930542,162.000000 
	C1439.738403,162.000000 1441.546265,162.000000 1443.972046,162.000000 
	C1443.972046,339.534485 1443.972046,516.751038 1443.448242,694.449341 
	C1440.260010,694.973816 1437.595581,695.053772 1434.931152,695.053833 
	C1176.009521,695.060425 917.088013,695.060913 658.166443,695.061829 
	C658.110962,693.232117 658.007019,691.402466 658.006958,689.572754 
	C657.999512,515.754272 658.000000,341.935791 658.000000,168.117310 
	C658.000000,166.303207 658.000000,164.489105 658.000000,162.025696 
	C711.703125,162.025696 765.123474,162.025696 818.957642,162.547180 
	C819.371338,289.871216 819.371338,416.673767 819.371338,543.615967 
	C869.931274,543.615967 920.010681,543.615967 970.684875,543.615967 
	C970.684875,541.362976 970.684937,539.410583 970.684937,537.458252 
	C970.685059,414.794922 970.683655,292.131622 970.696594,169.468292 
	C970.696777,167.310989 970.867798,165.153702 971.170776,162.916382 
	C971.632324,162.657333 971.832764,162.434036 971.983826,162.166412 
	C991.936707,162.110947 1011.889526,162.020035 1031.842407,162.007996 
	C1064.936646,161.988022 1098.030762,162.018784 1131.592651,162.555084 
	C1132.060303,289.877594 1132.060303,416.673187 1132.060303,543.663391 
	C1133.731079,543.762695 1135.043701,543.908630 1136.356445,543.908936 
	C1183.518921,543.920837 1230.681641,543.860779 1277.843628,544.010803 
	C1282.464722,544.025513 1283.342163,542.290405 1283.339111,538.125671 
	C1283.248169,412.805542 1283.263672,287.485352 1283.262451,162.165176 
z"/>
<path fill="#0000FF" opacity="1.000000" stroke="none" 
	d="
M1130.015991,1340.833740 
	C1110.063110,1340.889160 1090.110352,1340.979858 1070.157471,1340.991943 
	C1037.063354,1341.011841 1003.969116,1340.981201 970.407227,1340.444824 
	C969.939392,1216.333984 969.950439,1092.749878 969.920593,969.165894 
	C969.917786,957.443115 971.438232,959.104919 959.921936,959.102539 
	C913.289246,959.092834 866.656555,959.171204 819.733887,959.124695 
	C819.306335,959.356567 819.168640,959.680786 818.908264,960.459473 
	C818.769592,1087.554199 818.753601,1214.194580 818.737549,1340.834839 
	C818.737549,1340.834839 818.409058,1340.945679 818.133667,1340.769287 
	C817.524536,1340.444702 817.244995,1340.524780 817.019592,1340.833496 
	C796.204224,1340.888916 775.388855,1340.974121 754.573486,1340.993042 
	C724.427734,1341.020508 694.281982,1341.000000 664.136230,1341.000000 
	C662.322754,1341.000000 660.509277,1341.000000 658.371826,1341.000000 
	C658.233582,1339.499023 658.014893,1338.233276 658.014832,1336.967529 
	C658.008972,1160.923218 658.018982,984.878784 658.552734,808.365417 
	C920.662659,807.895142 1182.248047,807.893860 1443.833496,807.892517 
	C1443.889038,809.722351 1443.993042,811.552185 1443.993042,813.382019 
	C1444.000488,987.211914 1444.000000,1161.041748 1444.000000,1334.871704 
	C1444.000000,1336.685303 1444.000000,1338.498901 1444.000000,1340.974365 
	C1390.302002,1340.974365 1336.879028,1340.974365 1283.042480,1340.452881 
	C1282.631470,1214.966553 1282.606323,1090.001831 1282.741089,965.037231 
	C1282.746338,960.178650 1281.376587,958.955811 1276.601196,958.973938 
	C1230.115356,959.150269 1183.628540,959.079041 1137.142090,959.078247 
	C1135.374512,959.078247 1133.606934,959.078186 1131.315063,959.078186 
	C1131.315063,961.719727 1131.315063,963.678650 1131.315063,965.637573 
	C1131.314941,1088.269531 1131.316284,1210.901489 1131.303467,1333.533447 
	C1131.303223,1335.690186 1131.132202,1337.846924 1130.829102,1340.083740 
	C1130.367432,1340.342651 1130.166992,1340.566040 1130.015991,1340.833740 
z"/>
<path fill="#FFFFFF" opacity="1.000000" stroke="none" 
	d="
M1443.888428,807.434998 
	C1182.248047,807.893860 920.662659,807.895142 658.621826,807.894470 
	C658.128418,770.589355 658.090393,733.286194 658.109375,695.522461 
	C917.088013,695.060913 1176.009521,695.060425 1434.931152,695.053833 
	C1437.595581,695.053772 1440.260010,694.973816 1443.379150,694.905884 
	C1443.870361,732.246277 1443.906738,769.611877 1443.888428,807.434998 
z"/>
<path fill="#FFFFFF" opacity="1.000000" stroke="none" 
	d="
M1131.040894,1340.003662 
	C1131.132202,1337.846924 1131.303223,1335.690186 1131.303467,1333.533447 
	C1131.316284,1210.901489 1131.314941,1088.269531 1131.315063,965.637573 
	C1131.315063,963.678650 1131.315063,961.719727 1131.315063,959.078186 
	C1133.606934,959.078186 1135.374512,959.078247 1137.142090,959.078247 
	C1183.628540,959.079041 1230.115356,959.150269 1276.601196,958.973938 
	C1281.376587,958.955811 1282.746338,960.178650 1282.741089,965.037231 
	C1282.606323,1090.001831 1282.631470,1214.966553 1282.616211,1340.387695 
	C1254.663574,1340.895996 1226.723633,1340.964722 1198.783569,1340.994507 
	C1177.161255,1341.017578 1155.538818,1340.992065 1133.357056,1340.787598 
	C1132.492798,1340.397461 1132.226440,1340.443970 1131.998657,1340.726562 
	C1131.998657,1340.726562 1131.725952,1340.844482 1131.539307,1340.603760 
	C1131.352783,1340.363037 1131.040894,1340.003662 1131.040894,1340.003662 
z"/>
<path fill="#FFFFFF" opacity="1.000000" stroke="none" 
	d="
M820.023865,959.217102 
	C866.656555,959.171204 913.289246,959.092834 959.921936,959.102539 
	C971.438232,959.104919 969.917786,957.443115 969.920593,969.165894 
	C969.950439,1092.749878 969.939392,1216.333984 969.939209,1340.375732 
	C948.645386,1340.889038 927.351929,1340.979492 906.058411,1340.991455 
	C877.275879,1341.007568 848.493408,1340.963501 819.224243,1340.890015 
	C818.753601,1214.194580 818.769592,1087.554199 819.125854,960.403687 
	C819.751892,959.750366 819.937805,959.524902 820.023865,959.217102 
z"/>
<path fill="#FFFFFF" opacity="1.000000" stroke="none" 
	d="
M970.959045,162.996414 
	C970.867798,165.153702 970.696777,167.310989 970.696594,169.468292 
	C970.683655,292.131622 970.685059,414.794922 970.684937,537.458252 
	C970.684937,539.410583 970.684875,541.362976 970.684875,543.615967 
	C920.010681,543.615967 869.931274,543.615967 819.371338,543.615967 
	C819.371338,416.673767 819.371338,289.871216 819.383911,162.612244 
	C847.669067,162.103867 875.941772,162.035675 904.214417,162.005264 
	C925.504150,161.982361 946.793823,162.007904 968.642944,162.212387 
	C969.202271,162.412903 969.630554,162.520309 969.630554,162.520309 
	C969.630554,162.520309 970.001221,162.273376 970.001221,162.273376 
	C970.001221,162.273376 970.273926,162.155594 970.460571,162.396240 
	C970.647156,162.636871 970.959045,162.996414 970.959045,162.996414 
z"/>
<path fill="#FFFFFF" opacity="1.000000" stroke="none" 
	d="
M1282.776367,162.110046 
	C1283.263672,287.485352 1283.248169,412.805542 1283.339111,538.125671 
	C1283.342163,542.290405 1282.464722,544.025513 1277.843628,544.010803 
	C1230.681641,543.860779 1183.518921,543.920837 1136.356445,543.908936 
	C1135.043701,543.908630 1133.731079,543.762695 1132.060303,543.663391 
	C1132.060303,416.673187 1132.060303,289.877594 1132.060791,162.624207 
	C1153.354858,162.110947 1174.648438,162.020477 1195.942139,162.008545 
	C1224.724854,161.992416 1253.507568,162.036621 1282.776367,162.110046 
z"/>
<path fill="#F1F1FF" opacity="1.000000" stroke="none" 
	d="
M969.763428,162.155121 
	C970.001221,162.273376 969.630554,162.520309 969.630554,162.520309 
	C969.630554,162.520309 969.202271,162.412903 969.106567,162.290024 
	C969.182434,162.123734 969.354065,162.080307 969.763428,162.155121 
z"/>
<path fill="#1D1DFF" opacity="1.000000" stroke="none" 
	d="
M971.170776,162.916382 
	C970.959045,162.996414 970.647156,162.636871 970.608948,162.401947 
	C970.806213,162.126709 971.041687,162.086395 971.630493,162.106247 
	C971.832764,162.434036 971.632324,162.657333 971.170776,162.916382 
z"/>
<path fill="#0E0EFF" opacity="1.000000" stroke="none" 
	d="
M1284.715576,162.110321 
	C1284.980469,162.166595 1284.601562,162.458160 1284.601562,162.458160 
	C1284.601562,162.458160 1284.141724,162.406937 1284.031006,162.284821 
	C1284.097168,162.126511 1284.273926,162.090286 1284.715576,162.110321 
z"/>
<path fill="#0E0EFF" opacity="1.000000" stroke="none" 
	d="
M817.284424,1340.889648 
	C817.244995,1340.524780 817.524536,1340.444702 817.968994,1340.715088 
	C817.902893,1340.873535 817.726135,1340.909668 817.284424,1340.889648 
z"/>
<path fill="#1D1DFF" opacity="1.000000" stroke="none" 
	d="
M1130.829102,1340.083740 
	C1131.040894,1340.003662 1131.352783,1340.363037 1131.390991,1340.598022 
	C1131.193848,1340.873169 1130.958374,1340.913452 1130.369385,1340.893799 
	C1130.166992,1340.566040 1130.367432,1340.342651 1130.829102,1340.083740 
z"/>
<path fill="#F1F1FF" opacity="1.000000" stroke="none" 
	d="
M1132.236450,1340.844849 
	C1132.226440,1340.443970 1132.492798,1340.397461 1132.893433,1340.709961 
	C1132.817505,1340.876343 1132.645874,1340.919800 1132.236450,1340.844849 
z"/>
<path fill="#D4D4FF" opacity="1.000000" stroke="none" 
	d="
M819.733887,959.124695 
	C819.937805,959.524902 819.751892,959.750366 819.248535,959.949219 
	C819.168640,959.680786 819.306335,959.356567 819.733887,959.124695 
z"/>
</svg>