<svg version="1.1" id="Layer_1" xmlns="http://www.w3.org/2000/svg" xmlns:xlink="http://www.w3.org/1999/xlink" x="0px" y="0px"
	 width="100%" viewBox="0 0 715 485" enable-background="new 0 0 715 485" xml:space="preserve">
<path fill="#0000FF" opacity="1.000000" stroke="none" 
	d="
M431.000000,486.000000 
	C382.311310,486.000000 333.622650,486.000000 284.610687,485.550629 
	C284.303894,370.136047 284.321411,255.170853 284.321777,140.205658 
	C284.321808,139.098038 284.093781,137.990417 283.973114,136.890945 
	C237.952408,136.890945 192.229370,136.890945 146.081955,136.890945 
	C146.081955,139.168213 146.081955,141.136719 146.081955,143.105209 
	C146.081955,216.749832 146.091141,290.394470 146.078339,364.039093 
	C146.071259,404.692719 146.027328,445.346375 146.000000,486.000000 
	C97.677277,486.000000 49.354561,486.000000 1.015920,486.000000 
	C1.015920,324.379456 1.015920,162.758896 1.015920,1.069169 
	C239.234863,1.069169 477.469757,1.069169 715.852295,1.069169 
	C715.852295,162.666580 715.852295,324.333252 715.852295,486.000000 
	C667.579285,486.000000 619.256653,486.000000 570.610718,485.550659 
	C570.303955,370.126556 570.321472,255.151810 570.320923,140.177063 
	C570.320923,139.071365 570.081055,137.965668 569.955200,136.876923 
	C523.924744,136.876923 478.193512,136.876923 432.057739,136.876923 
	C432.057739,139.141068 432.057739,141.110382 432.057739,143.079712 
	C432.057739,255.055466 432.058716,367.031219 432.049988,479.006989 
	C432.049835,481.001862 431.933807,482.996704 431.682922,485.117645 
	C431.274323,485.459869 431.109680,485.711975 431.000000,486.000000 
z"/>
<path fill="#FFFFFF" opacity="1.000000" stroke="none" 
	d="
M146.468658,486.000000 
	C146.027328,445.346375 146.071259,404.692719 146.078339,364.039093 
	C146.091141,290.394470 146.081955,216.749832 146.081955,143.105209 
	C146.081955,141.136719 146.081955,139.168213 146.081955,136.890945 
	C192.229370,136.890945 237.952408,136.890945 283.973114,136.890945 
	C284.093781,137.990417 284.321808,139.098038 284.321777,140.205658 
	C284.321411,255.170853 284.303894,370.136047 284.143707,485.550629 
	C238.312439,486.000000 192.624878,486.000000 146.468658,486.000000 
z"/>
<path fill="#FFFFFF" opacity="1.000000" stroke="none" 
	d="
M431.871887,484.991577 
	C431.933807,482.996704 432.049835,481.001862 432.049988,479.006989 
	C432.058716,367.031219 432.057739,255.055466 432.057739,143.079712 
	C432.057739,141.110382 432.057739,139.141068 432.057739,136.876923 
	C478.193512,136.876923 523.924744,136.876923 569.955200,136.876923 
	C570.081055,137.965668 570.320923,139.071365 570.320923,140.177063 
	C570.321472,255.151810 570.303955,370.126556 570.143738,485.550659 
	C524.312439,486.000000 478.624878,486.000000 432.510925,485.738464 
	C432.013611,485.315155 431.942749,485.153351 431.871887,484.991577 
z"/>
<path fill="#1F1FFF" opacity="1.000000" stroke="none" 
	d="
M431.682922,485.117645 
	C431.942749,485.153351 432.013611,485.315155 432.042236,485.738464 
	C432.000000,486.000000 431.500000,486.000000 431.250000,486.000000 
	C431.109680,485.711975 431.274323,485.459869 431.682922,485.117645 
z"/>
</svg>